<?xml version="1.0" encoding="utf-8"?>
<!-- Generator: Adobe Illustrator 21.1.0, SVG Export Plug-In . SVG Version: 6.00 Build 0)  -->
<svg version="1.1" id="Layer_1" xmlns="http://www.w3.org/2000/svg" xmlns:xlink="http://www.w3.org/1999/xlink" x="0px" y="0px"
	 viewBox="0 0 500 176" style="enable-background:new 0 0 500 176;" xml:space="preserve">
<style type="text/css">
	.st0{fill:#FFFFFF;}
</style>
<g>
	<path class="st0" d="M70.3,163.9c-18.4,0-31.5-8.5-31.5-22.9c0-8.6,2.4-14.2,8.1-17.2c11,12,27.8,25.5,45,35.3
		C86.4,161.8,79.2,163.9,70.3,163.9 M60.2,112.7c-6.9-6.4-11-12-11-18.8c0-9.4,6.7-12.6,12-12.6c5.9,0,12.4,2.8,12.4,13
		C73.5,102.8,69.6,108.8,60.2,112.7 M62.3,75.7c-16.8,0-26.6,10-26.6,26.7c0,3.7,1.5,9.6,5.3,15.4c-18.6,4.1-25,13-25,26.1
		c0,10.8,8.9,28.6,46.8,28.6c15,0,25.9-3.2,36.3-9.2c11.6,5.6,23,9.2,33,9.2c4.1,0,9.6-0.8,12.5-1.2v-3.6
		c-4.9-1.9-17.2-6.7-31.5-15.6c11.6-6.7,27.7-19,27.7-26.5c0-4.5-1.7-9.6-4.5-12.5c-0.4,0-0.9-0.1-1.4-0.1c-4.6,0-12,1.7-15.9,4.8
		c3.2,12.5-1.9,22-11.6,30.2c-13.8-9-27.4-20.6-38.6-30.2c11.7-1.9,21.6-6.1,21.6-22C90.4,90.7,85.3,75.7,62.3,75.7"/>
	<path class="st0" d="M2.5,118v-3.4c11.6-0.8,14.3-2.8,14.3-15.1V42c0-12.7-1.7-14.3-12.8-15.1v-3.4c8.5,0,17.7,0.4,23.5,0.4
		c5.8,0,15.1-0.4,23.6-0.4v3.4C40,27.8,38.3,29.3,38.3,42v22.7h44.8V42c0-12.7-1.7-14.3-12.8-15.1v-3.4c8.5,0,17.8,0.4,23.6,0.4
		s14.9-0.4,23.5-0.4v3.4c-11.1,0.8-12.8,2.4-12.8,15.1v57.5c0,12.3,2.7,14.3,14.3,15.1v3.4c-10.7,0-18.8-0.6-25-0.6
		S79.5,118,68.8,118v-3.4c11.6-0.8,14.3-2.8,14.3-15.1V70.8H38.3v28.7c0,12.3,2.7,14.3,14.3,15.1v3.4c-10.7,0-18.9-0.6-25.2-0.6
		S13.1,118,2.5,118z"/>
	<path class="st0" d="M172.5,120c-28.8,0-56.3-17.8-56.3-48.2c0-29.9,24.4-50.3,54.8-50.3c34.6,0,56.3,22.5,56.3,48.2
		C227.3,99.8,201.5,120,172.5,120z M171,27.1c-20.1,0-32.6,16.4-32.6,42.9c0,32.3,17.2,44.5,34.2,44.5c17.4,0,32.6-12.3,32.6-43.6
		C205.2,42,190.7,27.1,171,27.1z"/>
	<path class="st0" d="M238.7,42c0-12.7-1.7-14.3-12.8-15.1v-3.4c8.5,0,17.7,0.4,23.5,0.4c5.8,0,15.1-0.4,23.6-0.4v3.4
		c-11.1,0.8-12.8,2.4-12.8,15.1v35.6c0,23.4,8.8,35,27.1,35c19.8,0,30-12.6,30-34.3V42c0-12.7-1.7-14.3-12.8-15.1v-3.4
		c6.3,0,11.4,0.4,16.5,0.4c5.2,0,10.1-0.4,16.5-0.4v3.4c-11.1,0.8-12.8,2.4-12.8,15.1v36.7c0,25.6-13.4,41.4-40.6,41.4
		c-35.2,0-45.5-18.4-45.5-41.7V42z"/>
	<path class="st0" d="M339.1,113.5L336,89.3l3.4-0.4c5.2,19.2,17.2,25.6,29.3,25.6c10.5,0,19.2-5.2,19.2-16.8
		c0-19.3-49.6-20.9-49.6-51.3c0-15,13.3-24.9,32.3-24.9c13.1,0,22.6,4.2,25.5,4.2c1.2,0,1.8-0.6,2.3-2.3h2.3l0.9,23.7l-3.4,0.4
		C394,32.1,382,26.8,372.2,26.8c-9.5,0-15.6,5.1-15.6,13.7c0,19.2,49.6,22.5,49.6,51.7c0,14-11.1,27.8-36.1,27.8
		C356.8,120,346.1,117.5,339.1,113.5z"/>
	<path class="st0" d="M422.1,42c0-12.3-1.7-14.3-12.8-15.1v-3.4c10.2,0,17.8,0.6,24.9,0.6c17.4,0,36.6-0.1,54.8-0.6l2.3,20.9
		l-3.4,0.4c-3.4-12-7.6-15.3-21.4-15.3h-18.6c-3.2,0-4.3,0.8-4.3,5.6V67l15.7-0.1c10.4-0.3,13.4-3.4,14.6-14h3.5
		c0,5.1-0.6,11.3-0.6,16.9c0,4.8,0.6,11,0.6,16.4h-3.4c-1.4-9.7-4-13.1-14.8-13.4l-15.7-0.1v29.1c0,7.8,4.1,9.3,8.8,9.3h18
		c11.6,0,17.4-5.5,23.8-19.1l3.8,1.4l-8.2,24.6c-15.3,0-49.4-0.6-56.7-0.6c-5.8,0-14.8,0.6-25.2,0.6v-3.4
		c11.1-0.8,14.2-2.8,14.2-15.1L422.1,42L422.1,42z"/>
	<path class="st0" d="M200.5,168.8c-6.7,1.4-14.2,2.5-22,2.5c-18.1,0-31-7.8-31-22.6c0-14.6,12.8-25,33.9-25
		c5.2,0,10.1,0.6,14.6,1.5c1.3,0.3,1.9,0.6,2,1.6l0.2,4.3c0,0.6-1.2,1.5-2.1,1.5c-0.2,0-0.6-0.1-1.7-0.6c-3.6-1.6-8.7-2.8-14.7-2.8
		c-13.1,0-21.1,7-21.1,18.4c0,11.6,8,18.3,21.7,18.3c3.2,0,5.7-0.3,9.7-1v-17.5h10.5L200.5,168.8L200.5,168.8z"/>
	<path class="st0" d="M246.2,158h-22.8l-5.5,12.5h-9.7l22.4-45.9h10.1l22.9,45.9h-11.4L246.2,158z M225.8,152.8h18l-9.3-19.6
		L225.8,152.8z"/>
	<path class="st0" d="M319.3,170c-0.2,0.8-2.5,1.1-4.9,1.1c-12.4,0-18.4-10.4-24.3-19.6c-1.9,0.1-2.8,0.2-5.1,0.2
		c-1.1,0-1.8,0-3.1-0.1v18.9h-10.5v-45.9h5c4.4,0,11-0.2,15.5-0.2c9.7,0,20.3,1.4,20.3,12.5c0,6-4.1,11.1-11.6,12.9
		c3.9,6.2,9.9,16.2,19.2,17.1l0.4,0.6L319.3,170z M288.2,129.7c-2.3,0-4.2,0.1-6.3,0.1v16.6c1.8,0.1,3.3,0.1,5,0.1
		c10.1,0,14.3-2.7,14.3-8.9C301.1,130.8,295.4,129.7,288.2,129.7z"/>
	<path class="st0" d="M349.9,124.6c17.2,0,28.6,9.6,28.6,22.4c0,14.3-11.8,23.5-29.3,23.5h-22.1v-45.9H349.9z M337.5,130.2v34.5H349
		c10.7,0,18.4-6,18.4-16.3c0-11-8.1-18.2-19.6-18.2H337.5z"/>
	<polygon class="st0" points="389.7,170.5 389.7,124.6 427.2,124.6 427.2,130.1 400.1,130.1 400.1,143.5 424.2,143.5 424.2,149.1 
		400.1,149.1 400.1,164.7 427.7,164.7 427.7,170.5 	"/>
	<polygon class="st0" points="447.3,136.9 448.3,170.5 440.3,170.5 440.5,124.6 448.6,124.6 482.9,157.4 482,124.6 490,124.6 
		489.9,170.1 483.8,171.6 	"/>
	<path class="st0" d="M13.6,16.8L12.8,14H8.6l-0.8,2.8H4L8.7,2.7h4.4l4.8,14.1H13.6z M10.7,6.9L10.7,6.9l-1.3,4.4H12L10.7,6.9z"/>
	<path class="st0" d="M27.3,17.1c-3.8,0-6.2-1.5-6.2-5.8V2.7h4v8.4c0,1.9,0.6,2.8,2.3,2.8c1.6,0,2.2-0.8,2.2-2.8V2.7h4v8.5
		C33.6,15.6,31,17.1,27.3,17.1z"/>
	<path class="st0" d="M43.3,17.1c-2.8,0-4.6-0.9-6-2.5l2.7-2.1c1,1.1,2.1,1.7,3.6,1.7c1.1,0,1.7-0.4,1.7-1.2c0-0.7-0.5-1-1.8-1.3
		c-4-1.1-5.9-2.1-5.9-4.9c0-2.8,2.6-4.3,5.6-4.3c2.6,0,4.3,0.7,5.7,2.3l-2.7,2.2c-0.9-1-1.9-1.5-3-1.5c-1.1,0-1.6,0.4-1.6,1
		c0,0.6,0.4,0.9,1.7,1.3c4.5,1.2,5.9,2.4,5.9,4.9C49.3,14.9,47.5,17.1,43.3,17.1z"/>
	<polygon class="st0" points="59.9,5.9 59.9,16.8 55.9,16.8 55.9,5.9 52.1,5.9 52.1,2.7 63.8,2.7 63.8,5.9 	"/>
	<path class="st0" d="M75.3,16.8l-2.4-4.9h-1v4.9h-4V2.7h5.9c3.6,0,5.9,1.3,5.9,4.7c0,2.2-1.2,3.3-2.7,4l2.8,5.4L75.3,16.8
		L75.3,16.8z M73.5,5.9h-1.7v3.2h1.7c1.5,0,2.2-0.5,2.2-1.6C75.8,6.4,75.1,5.9,73.5,5.9z"/>
	<path class="st0" d="M92.3,16.8L91.5,14h-4.2l-0.8,2.8h-3.8l4.7-14.1h4.4l4.8,14.1H92.3z M89.4,6.9L89.4,6.9l-1.3,4.4h2.6L89.4,6.9
		z"/>
	<polygon class="st0" points="100.4,16.8 100.4,2.7 104.4,2.7 104.4,13.6 109.9,13.6 109.9,16.8 	"/>
	<rect x="114" y="2.7" class="st0" width="4" height="14.1"/>
	<path class="st0" d="M131.6,16.8l-0.8-2.8h-4.2l-0.8,2.8h-3.8l4.7-14.1h4.4l4.8,14.1H131.6z M128.7,6.9L128.7,6.9l-1.3,4.4h2.6
		L128.7,6.9z"/>
	<polygon class="st0" points="148.9,16.8 143.4,9.1 143.3,9.1 143.3,16.8 139.7,16.8 139.7,2.7 143.4,2.7 148.7,10.2 148.7,10.2 
		148.7,2.7 152.4,2.7 152.4,16.8 	"/>
</g>
</svg>
