<?xml version="1.0" encoding="utf-8"?>
<!-- Generator: Adobe Illustrator 21.1.0, SVG Export Plug-In . SVG Version: 6.00 Build 0)  -->
<svg version="1.1" id="Layer_1" xmlns="http://www.w3.org/2000/svg" xmlns:xlink="http://www.w3.org/1999/xlink" x="0px" y="0px"
	 viewBox="0 0 500 199.1" style="enable-background:new 0 0 500 199.1;" xml:space="preserve">
<style type="text/css">
	.st0{fill:#FFFFFF;}
</style>
<g>
	<rect x="266.5" y="2.1" class="st0" width="44.2" height="195.9"/>
	<rect x="320.1" y="2.1" class="st0" width="44.2" height="196"/>
	<path class="st0" d="M436.3,169c-13.8,0-21.4-9.7-22.6-23.3h84.9c0-46.3-19.9-72.9-65.9-72.9c-36.6,0-61.2,28.4-61.2,63
		c0,40,27.9,62.5,65,62.5c26.4,0,50.7-11.9,59.6-37.7h-41.3C451.2,166.2,443.4,169,436.3,169z M436.7,102.2
		c11.4,0,19.4,8.9,19.4,19.9h-42.2C415.9,109.3,423.5,102.2,436.7,102.2z"/>
	<path class="st0" d="M195.2,72.8c-36.6,0-61.2,28.4-61.2,63c0,40,27.9,62.5,65,62.5c26.4,0,50.7-11.9,59.6-37.7h-41.3
		c-3.6,5.5-11.4,8.3-18.5,8.3c-13.8,0-21.4-9.7-22.6-23.3h84.9C261.1,99.4,241.2,72.8,195.2,72.8z M176.4,122.1
		c2-12.8,9.6-19.9,22.8-19.9c11.4,0,19.4,8.9,19.4,19.9H176.4z"/>
	<path class="st0" d="M74.6,73.1c-13.5,0-18.8,4.3-27,11.7l-0.7,0.9V2H1.8v196.1h43.5v-12l0.4,0.4c3.8,3.7,9.5,12.1,31.5,12.1
		c33.5,0,50.8-35,50.3-63.4C127,107.1,113.6,73,74.6,73.1z M65.8,167.9c-17.5,0-22.7-17.4-22.7-31.7c0-14.1,4.6-30.9,22-30.9
		c17.5,0,23.4,16.7,23.4,30.7C88.5,150.5,83.2,167.9,65.8,167.9z"/>
</g>
</svg>
