<?xml version="1.0" encoding="utf-8"?>
<!-- Generator: Adobe Illustrator 21.1.0, SVG Export Plug-In . SVG Version: 6.00 Build 0)  -->
<svg version="1.1"
	 id="svg3821" xmlns:cc="http://creativecommons.org/ns#" xmlns:dc="http://purl.org/dc/elements/1.1/" xmlns:rdf="http://www.w3.org/1999/02/22-rdf-syntax-ns#" xmlns:svg="http://www.w3.org/2000/svg"
	 xmlns="http://www.w3.org/2000/svg" xmlns:xlink="http://www.w3.org/1999/xlink" x="0px" y="0px" viewBox="0 0 341.4 60.7"
	 style="enable-background:new 0 0 341.4 60.7;" xml:space="preserve">
<style type="text/css">
	.st0{fill:#FFFFFF;}
</style>
<g id="layer1" transform="translate(-60.733052,-129.05951)">
	<g id="g3847" transform="matrix(0.26458333,0,0,0.26458333,59.886711,128.5568)">
		<path id="path3823" class="st0" d="M68.4,226.7c-3.4,3.1-7.9,4.5-14.2,4.5c-34.3,0-51.3-50.5-51-121C3.2,49.8,24.5,1.9,53.9,1.9
			c5.7,0,11.1,2,15,4.3v28.6c-2.3-1.1-6-2.6-8.8-2.6C40.9,32.2,35,67.7,35,112.5v17.9c0,28.3,4.8,68.9,24.7,68.9
			c3.7,0,6.5-1.4,8.8-2.8V226.7z"/>
		<path id="path3825" class="st0" d="M124.5,8.7c3.4-3.4,8.8-6.5,16.2-6.5c6.8,0,11.9,2.8,16.4,7.4c13.6,13.6,23.8,46.2,23.8,109.4
			c0,54.4-9.4,90.7-23.5,104.9c-4.5,4.5-9.6,7.4-16.4,7.4c-36.6,0-41.1-80.8-41.1-111.4C99.6,75.6,104.1,28.8,124.5,8.7z
			 M131.6,107.9c0,59.8,1.7,76.5,9.4,89.6c8.2-15.9,8.5-34.3,8.5-84.5s-2.6-66-9.1-76.5C133.6,47.3,131.6,66.2,131.6,107.9z"/>
		<path id="path3827" class="st0" d="M225.4,3.6h30v165c0,12.2,2.8,23.5,8.2,27.5c4.5-5.4,7.1-12.2,7.1-24.7V3.6h30v167.2
			c0,38.6-19.6,60.1-36.6,60.1c-26.4,0-38.8-32.9-38.8-62.9V3.6z"/>
		<polygon id="polygon3829" class="st0" points="429.5,3.6 429.5,229.8 402.3,229.8 381.9,104.2 380.5,104.2 383.9,229.8 
			353.8,229.8 353.8,3.6 381.3,3.6 400.6,121.5 402.3,121.5 398.9,3.6 		"/>
		<polygon id="polygon3831" class="st0" points="493.9,229.8 493.9,33.1 472.3,33.1 472.3,3.6 545.5,3.6 545.5,33.4 523.9,33.4 
			523.9,229.8 		"/>
		<path id="path3833" class="st0" d="M588.6,3.6h16.2c23.2,0,35.4,7.4,42.8,14.7c12.8,12.5,17.6,30.9,17.6,47.6
			c0,16.2-4.5,34.9-20.7,47.6c18.1,17,24.7,59.2,28.3,115.9h-30.6c-0.9-44.5-10.8-93.8-23.5-99.2v99.2h-30V3.6z M618.6,101.4
			c11.3-4.3,15.9-20.7,15.9-32c0-13.3-4-28.9-15.9-33.2V101.4z"/>
		<polygon id="polygon3835" class="st0" points="753.8,121.8 753.8,229.8 723.5,229.8 723.5,121.8 697.4,3.6 728.6,3.6 738.8,61.1 
			749.6,3.6 779.9,3.6 		"/>
		<path id="path3837" class="st0" d="M823.8,196.6c4,1.7,7.4,3.1,13.6,3.1c9.1,0,17.3-6,17.3-20.7c0-16.4-7.7-36.3-15.3-56.1
			c-7.9-19.8-15.6-41.1-15.6-64.6c0-34.3,13-56.1,40.5-56.1c8.5,0,14.2,1.7,19.6,3.4v30c-2.6-1.4-7.1-3.1-11.3-3.1
			c-11.6,0-18.7,9.9-18.7,25.2s7.7,36,15.3,56.7c7.7,20.4,15.3,42.5,15.3,66.9c0,35.4-21.3,49.6-42,49.6c-4.8,0-11.9-1.1-18.7-3.1
			L823.8,196.6z"/>
		<polygon id="polygon3839" class="st0" points="944.9,229.8 944.9,33.1 923.3,33.1 923.3,3.6 996.5,3.6 996.5,33.4 974.9,33.4 
			974.9,229.8 		"/>
		<polygon id="polygon3841" class="st0" points="1087.5,121.8 1087.5,229.8 1057.1,229.8 1057.1,121.8 1031.3,3.6 1062.2,3.6 
			1072.4,61.1 1083.2,3.6 1113.5,3.6 		"/>
		<polygon id="polygon3843" class="st0" points="1153.5,229.8 1153.5,3.6 1184.1,3.6 1184.1,199.5 1202,199.5 1202,229.8 		"/>
		<polygon id="polygon3845" class="st0" points="1293,105.1 1293,134.3 1271.7,134.3 1271.7,199.8 1293.3,199.8 1293.3,229.8 
			1241.4,229.8 1241.4,3.6 1293.5,3.6 1293.5,33.4 1271.7,33.4 1271.7,105.1 		"/>
	</g>
</g>
</svg>
