<?xml version="1.0" encoding="utf-8"?>
<!-- Generator: Adobe Illustrator 21.1.0, SVG Export Plug-In . SVG Version: 6.00 Build 0)  -->
<svg version="1.1" id="Layer_1" xmlns="http://www.w3.org/2000/svg" xmlns:xlink="http://www.w3.org/1999/xlink" x="0px" y="0px"
	 viewBox="0 0 57.4 20" style="enable-background:new 0 0 57.4 20;" xml:space="preserve">
<style type="text/css">
	.st0{fill:#FFFFFF;}
</style>
<path class="st0" d="M53.6,15.5c-1.4,0.1-2.7-0.2-3.9-0.9v-2.8h0.3c0.4,1.4,1.7,3.4,3.7,3.4c1.6,0,1.9-1.9,0.2-3l-2.2-1.3
	c-2.1-1.3-2.7-3.3-1.4-4.9c0,0,0.8-1,3.2-1c1.2-0.1,2.5,0.1,3.6,0.6v2.3h-0.3c-0.3-1.6-1.7-2.7-3.3-2.7c-1.4,0-2.1,1.5-0.2,2.8
	l2.2,1.4c2,1.2,2.5,3.4,1.4,4.9C56.8,14.3,56,15.5,53.6,15.5z"/>
<path class="st0" d="M28.1,17.1h-1.2v-0.3h2.7v0.3h-1.2V20h-0.3L28.1,17.1z M31.6,18.4c0-0.2,0-0.4,0.1-0.6c0.1-0.2,0.2-0.4,0.4-0.5
	c0.2-0.1,0.3-0.3,0.5-0.3c0.5-0.1,0.9-0.1,1.4,0c0.2,0.1,0.4,0.2,0.5,0.3c0.2,0.1,0.3,0.3,0.4,0.5c0.2,0.4,0.2,0.9,0,1.3
	c-0.1,0.2-0.2,0.4-0.4,0.5c-0.2,0.1-0.3,0.3-0.5,0.3c-0.5,0.2-1,0.2-1.4,0c-0.2-0.1-0.4-0.2-0.5-0.3c-0.2-0.1-0.3-0.3-0.4-0.5
	C31.6,18.9,31.6,18.6,31.6,18.4z M31.9,18.4c0,0.2,0,0.4,0.1,0.6c0.1,0.2,0.2,0.3,0.3,0.4c0.1,0.1,0.3,0.2,0.5,0.3
	c0.4,0.1,0.8,0.1,1.2,0c0.2-0.1,0.3-0.2,0.5-0.3c0.1-0.1,0.2-0.3,0.3-0.4c0.1-0.2,0.1-0.3,0.1-0.5c0-0.2,0-0.3-0.1-0.5
	c-0.1-0.2-0.2-0.3-0.3-0.4c-0.1-0.1-0.3-0.2-0.5-0.3c-0.4-0.1-0.8-0.1-1.2,0c-0.2,0.1-0.3,0.2-0.5,0.3c-0.1,0.1-0.2,0.3-0.3,0.4
	C31.9,18.1,31.9,18.3,31.9,18.4z M39.7,16.9H40v2.9h1.7V20h-2L39.7,16.9z M43.8,18.4c0-0.2,0-0.4,0.1-0.6c0.1-0.2,0.2-0.4,0.3-0.5
	c0.2-0.1,0.3-0.3,0.5-0.3c0.2-0.1,0.5-0.1,0.7-0.1c0.2,0,0.5,0,0.7,0.1c0.2,0.1,0.4,0.2,0.5,0.3c0.2,0.1,0.3,0.3,0.4,0.5
	c0.2,0.4,0.2,0.9,0,1.3c-0.1,0.2-0.2,0.4-0.4,0.5c-0.2,0.1-0.3,0.3-0.5,0.3C46,20,45.8,20,45.5,20c-0.2,0-0.5,0-0.7-0.1
	c-0.2-0.1-0.4-0.2-0.5-0.3c-0.2-0.1-0.3-0.3-0.3-0.5C43.8,18.9,43.8,18.6,43.8,18.4z M44.1,18.4c0,0.2,0,0.4,0.1,0.5
	c0.1,0.2,0.2,0.3,0.3,0.4c0.1,0.1,0.3,0.2,0.5,0.3c0.2,0.1,0.4,0.1,0.6,0.1c0.2,0,0.4,0,0.6-0.1c0.2-0.1,0.3-0.2,0.5-0.3
	c0.1-0.1,0.2-0.3,0.3-0.4c0.1-0.2,0.1-0.3,0.1-0.5c0-0.2,0-0.3-0.1-0.5c-0.1-0.2-0.2-0.3-0.3-0.4c-0.1-0.1-0.3-0.2-0.5-0.3
	c-0.2-0.1-0.4-0.1-0.6-0.1c-0.2,0-0.4,0-0.6,0.1c-0.2,0.1-0.3,0.2-0.5,0.3c-0.1,0.1-0.2,0.3-0.3,0.4C44.1,18.1,44.1,18.3,44.1,18.4z
	 M49.2,16.9h0.4l1.1,2.8l1.2-2.8h0.3L50.9,20h-0.3L49.2,16.9z M54.6,16.9h2.2v0.3h-1.8v1.1h1.7v0.3h-1.7v1.2h1.9V20h-2.3V16.9z
	 M42.5,10c0,2.7,0.9,3.9,2.5,4.1c2.3,0.4,4.1-1.7,3.6-1c-1,1.5-2.8,2.4-4.6,2.3c-2.8-0.1-5-2.4-5-5.2C39,7.4,41.2,5.1,44,5
	c0.1,0,0.3,0,0.4,0c2.8,0,4.6,1.3,4.6,5H42.5z M46.1,9.7c0-2.8-0.6-4.5-1.7-4.5s-1.9,2.4-1.9,4.5H46.1z M38.5,12.9V8.4
	c0-2.7-1.3-3.4-3-3.4C34,5,32.8,6,32.3,7.3c-0.2-1.5-1.5-2.5-2.9-2.4c0,0,0,0-0.1,0c-1.3,0.1-2.5,1-3,2.2V5c-1.4,0.7-2.9,1-4.5,0.9
	v0.2c0.8,0.3,1,0.7,1,1.4V13c0,1.2,0,2.1-0.8,2.4v0.2h5v-0.2c-0.7-0.2-0.8-1.1-0.8-2.4V7.9c0.2-0.7,0.8-1.2,1.5-1.3
	c0.9,0,1.3,0.6,1.3,1.9v4.4c0,1.1,0,2.2-0.9,2.5v0.2h5.1v-0.2c-0.8-0.2-0.9-1.2-0.9-2.5V8c0.1-0.8,0.7-1.4,1.5-1.4
	c0.9,0,1.3,0.6,1.3,1.9v4.4c0,1.1,0,2.2-0.9,2.5v0.2h5.1v-0.2C38.6,15.1,38.5,14.1,38.5,12.9z"/>
<path class="st0" d="M16.7,5c-2.8-0.2-5.1,1.9-5.3,4.6c0,0.2,0,0.4,0,0.6c-0.2,2.8,2,5.1,4.7,5.3c0.2,0,0.4,0,0.6,0
	c2.8,0.2,5.1-1.9,5.3-4.6c0-0.2,0-0.4,0-0.6c0.2-2.8-2-5.1-4.7-5.3C17.1,5,16.9,5,16.7,5z M16.7,15.2c-1,0-1.9-2.2-1.9-4.9
	s0.8-4.9,1.9-4.9s1.9,2.2,1.9,4.9S17.8,15.2,16.7,15.2L16.7,15.2z"/>
<path class="st0" d="M11.5,18.5c-0.9-1.1-0.9-3.8-0.9-3.8V7.8c-0.1-1.6-1.4-2.8-3-2.8c0,0-0.1,0-0.1,0C6.3,5.1,5.2,5.9,4.7,7V0
	C3.2,0.7,1.6,1.1,0,1v0.2c1,0.3,1.2,0.7,1.2,1.3V13c0,1.1,0,2-0.9,2.3v0.2h5.4v-0.2c-0.8-0.2-1-1.1-1-2.3V7C5,6.6,5.4,6.4,5.9,6.4
	c0.7,0,1.4,0.4,1.4,1.6v6.1c0,1.1,0.2,2.2,0.6,3.3c0.7,1.6,2.3,2.6,4,2.6c0.8,0.1,1.6-0.2,2.2-0.8C13.2,19.6,12.1,19.3,11.5,18.5z"
	/>
</svg>
