<svg xmlns="http://www.w3.org/2000/svg" width="89" height="50"><rect width="100%" height="100%" fill="none"/><g class="currentLayer"><g class="selected" fill="#fff"><path d="M44.426 45.746c-1.125 1.059-1.754 1.645-2.762 1.645-.863 0-1.473-.61-1.473-1.809v-8.574H37.06v9.234c0 1.856.632 3.735 3.015 3.735 1.895 0 3.297-1.153 4.352-2.184v1.926h3.133V37.008h-3.133zm0 0M53.965 45.441v-5.238h3.039V38.04h-3.04v-4.156l-3.132 1.265v2.891h-1.871v2.164h1.871v5.684c0 2.164.84 4.066 3.79 4.066a7.89 7.89 0 002.429-.375v-2.21c-.489.179-1 .265-1.52.257-1.496 0-1.566-.867-1.566-2.184zm0 0M58.71 36.984h3.134V49.72H58.71zm0 0M58.71 33.176h3.134v2.281H58.71zm0 0M65.352 36.89v1.15H63.48v2.163h1.872v9.492h3.132V40.18h2.57v-2.164h-2.57v-1.032c0-1.27.422-2.117 1.637-2.117a4.899 4.899 0 011.52.235v-2.16a7.184 7.184 0 00-1.871-.235c-3.32 0-4.418 1.738-4.418 4.184zm0 0M79.824 37.008v8.738c-1.12 1.059-1.754 1.645-2.758 1.645-.867 0-1.472-.61-1.472-1.809v-8.574h-3.11v9.234c0 1.856.63 3.735 3.016 3.735 1.895 0 3.297-1.153 4.348-2.184v1.926h3.132l-.023-12.711zm0 0M85.227 33.176h3.132v16.52h-3.132zm0 0M2.898 21.664h-.464v.234c0 .446.136.704.464.704a.338.338 0 00.375-.282v-.07c0-.117-.046-.281-.375-.586zm0 0M2.898 29.652h-.464v.235c0 .445.136.707.464.707.18.02.344-.106.375-.285v-.07c0-.141-.046-.305-.375-.587zm0 0M2.898 19.125c.18.02.344-.102.375-.281v-.07c0-.118-.023-.305-.375-.587h-.464v.235c0 .422.136.703.464.703zm0 0"/><path d="M17.324 32.262V15.977c0-3.313-1.027-6.602-5.164-6.602-3.066 0-5.379 2.066-7.062 3.781V0H0v32.262h5.098V16.754c1.847-1.832 2.851-2.82 4.488-2.82 1.637 0 2.644 1.082 2.644 3.195v15.133zM1.941 15.93h1.567v.304h-1.45c-.21 0-.421.047-.421.309.023.25.164.477.375.61h1.496v.304h-2.13v-.305h.352a1.057 1.057 0 01-.375-.703c-.023-.332.188-.52.586-.52zm.188 1.925H3.25a.961.961 0 00.258-.023v.332h-.352a.745.745 0 01.375.656.555.555 0 01-.539.586h-.07c-.488 0-.723-.375-.723-.937v-.305h-.14c-.141 0-.493 0-.493.398a.467.467 0 00.375.47l-.07.304a.703.703 0 01-.539-.75c0-.637.422-.73.797-.73zm-.774 5.172h.329a.757.757 0 00.351.703h1.473v.305h-2.13v-.305h.376a.884.884 0 01-.399-.703zm1.637-.093h-.07c-.488 0-.723-.38-.723-.942v-.305h-.14c-.141 0-.493 0-.493.399a.467.467 0 00.375.469l-.07.285a.71.71 0 01-.539-.754c0-.61.422-.703.797-.703H3.25a.961.961 0 00.258-.024v.328h-.352a.745.745 0 01.375.657.565.565 0 01-.144.41.564.564 0 01-.395.18zm.516-2.82h-2.13v-.305h2.13zm-2.781-.329h.3v.352H.703zm0 .82h2.78v.305H.728zm.16 4.23h.656v-.491h.234v.492h1.168c.188 0 .328-.023.328-.258a.45.45 0 00-.07-.258h.258c.035.09.059.184.07.282a.508.508 0 01-.422.539.106.106 0 01-.117 0H1.777v.328h-.234v-.328h-.516zm2.129 6.063h-.094c-.488 0-.723-.375-.723-.941v-.305h-.14c-.141 0-.493 0-.493.399a.474.474 0 00.375.472l-.07.282a.71.71 0 01-.539-.754c0-.61.422-.703.797-.703H3.25a.961.961 0 00.258-.024v.328h-.352a.75.75 0 01.375.657.556.556 0 01-.515.59zm-.07-1.949H1.378v-.308h1.45c.21 0 .421-.047.421-.305a.813.813 0 00-.375-.61H1.379v-.328h2.129v.305h-.352c.211.176.348.43.375.703 0 .352-.187.543-.586.543zm.07-1.812l-.094-.282a.467.467 0 00.375-.468.372.372 0 00-.305-.422h-.047c-.21 0-.304.164-.375.422l-.047.164c-.09.281-.23.539-.582.539-.421 0-.586-.399-.586-.703a.682.682 0 01.493-.684l.093.285a.425.425 0 00-.328.399.325.325 0 00.282.375h.023c.164 0 .234-.07.328-.305l.094-.281c.113-.352.277-.52.605-.52.235 0 .61.168.61.754a.705.705 0 01-.54.727zm0 0M68.508 32.238V16c0-3.828-1.496-6.625-5.309-6.625-2.71 0-4.98 1.715-6.71 3.758-.747-2.137-2.196-3.758-4.91-3.758-2.829 0-4.442 1.715-6.407 3.758v-3.29h-5.098v22.419h5.098V16.707c2.058-2.328 2.785-2.773 4.094-2.773 1.543 0 2.476 1.246 2.476 3.336v14.968h5.098V16.707c2.058-2.328 2.781-2.773 4.094-2.773 1.566 0 2.476 1.246 2.476 3.336v14.968zm0 0M80.059 9.375c-6.22 0-9.727 4.723-9.727 11.582 0 7.309 3.742 11.75 9.68 11.75 4.816 0 7.062-2.703 8.207-5.664l-4.301-1.504c-.352 1.387-1.707 3.336-4 3.336-3.648 0-4.488-3.828-4.488-6.484h13.558v-2.02c0-5.922-2.968-10.996-8.93-10.996zm-4.653 9.398c.211-2.89 1.38-5.664 4.465-5.593 2.504-.07 4.024 2 4.024 5.593zm0 0M28.805 9.375c-5.89 0-9.68 4.723-9.68 11.582 0 7.309 3.742 11.75 9.68 11.75 5.66 0 9.68-4.418 9.68-11.75 0-6.86-3.481-11.582-9.68-11.582zm0 19.5c-2.688 0-4.371-2.184-4.371-7.848 0-5.52 1.683-7.847 4.37-7.847 2.692 0 4.4 2.328 4.4 7.847-.024 5.664-1.708 7.848-4.4 7.848zm0 0M18.379 36.75c-3.836 0-5.988 2.676-5.988 6.578 0 4.156 2.316 6.649 5.964 6.649 2.946 0 4.348-1.528 5.051-3.22l-2.668-.847a2.608 2.608 0 01-2.453 1.906c-2.246 0-2.762-2.164-2.762-3.691h8.348v-1.148c0-3.364-1.824-6.227-5.492-6.227zm-2.856 5.332c.118-1.645.82-3.219 2.739-3.172 1.543-.047 2.476 1.13 2.476 3.172zm0 0M6.758 36.75c-1.613 0-2.434.75-3.602 1.738v-5.312H.046v16.543H3.18v-1.504c1.168 1.27 2.316 1.762 3.601 1.762 2.992 0 4.512-2.329 4.512-6.672 0-2.774-.84-6.555-4.535-6.555zM5.684 47.625c-1.032 0-1.825-.54-2.504-1.43v-5.687c.562-.754 1.402-1.434 2.363-1.434 1.8 0 2.57 1.528 2.57 4.23 0 2.56-.726 4.321-2.43 4.321zm0 0M35.422 41.328c0-3.36-2.125-4.578-4.98-4.578-3.18 0-4.395 1.43-5.145 3.242l2.738.75c.469-1.152.817-1.926 2.313-1.926 1.496 0 2.082.914 2.082 1.973v.988h-1.38c-3.53 0-6.218 1.125-6.218 4.371 0 2.301 1.332 3.852 3.602 3.852 1.683 0 3.015-.988 3.996-2.16l.093 1.879h3.016a35.363 35.363 0 01-.117-2.164zm-2.992 4.82c-1.403 1.196-1.778 1.477-2.97 1.477-1.003 0-1.612-.68-1.612-1.762 0-1.504 1.05-2.3 3.648-2.3h.934zm0 0"/></g></g></svg>