<?xml version="1.0" encoding="utf-8"?>
<!-- Generator: Adobe Illustrator 21.1.0, SVG Export Plug-In . SVG Version: 6.00 Build 0)  -->
<svg version="1.1"
	 id="svg3875" xmlns:cc="http://creativecommons.org/ns#" xmlns:dc="http://purl.org/dc/elements/1.1/" xmlns:rdf="http://www.w3.org/1999/02/22-rdf-syntax-ns#" xmlns:svg="http://www.w3.org/2000/svg"
	 xmlns="http://www.w3.org/2000/svg" xmlns:xlink="http://www.w3.org/1999/xlink" x="0px" y="0px" viewBox="0 0 399.5 120.3"
	 style="enable-background:new 0 0 399.5 120.3;" xml:space="preserve">
<style type="text/css">
	.st0{fill:#FFFFFF;}
</style>
<g id="layer1" transform="translate(-61.072146,-98.124993)">
	<g id="g3897" transform="matrix(0.26458333,0,0,0.26458333,61.072146,98.124993)">
		<rect id="rect3879" x="246.2" y="245.5" class="st0" width="16.6" height="3"/>
		<path id="path3881" class="st0" d="M690.4,0.5c-5,0-12,0-28.6,0c-18,0-27.6,0-32.5,0c0,2.3,0,7.7,0,11.7v431.5c0,4,0,7.3,0,10.2
			c4.4,0,31.3,0,32.3,0c19.3,0,31,0,35.4,0c0-2.4,0-6.9,0-11.5V12.9c0-3.5,0-10,0-12.3c-1.2,0-2.3,0-4.1,0L690.4,0.5z"/>
		<path id="path3883" class="st0" d="M1214.1,132.7c13.9,0,23.4,0,23.4,0s0-5.5,0-7.6c0,0,0-17,0-17c0-4.4,0-12.8,0-15
			c2.8,0,8.7,0,13.6,0h2.8H1504c2.1,0,5.8,0,5.8,0s0-12.1,0-24.9c0-13.2,0-27.9,0-27.9s-3.6,0-5.8,0l-250.2,0c0,0-2.7,0-2.8,0
			c-0.1,0-13.6,0-13.6,0s0-10.7,0-15.2V5.3c0-1.3,0-4.7,0-4.7s-9.8,0-24.4,0c-10.8,0-22.6,0-22.6,0s0,3.5,0,5.1v121.1
			c0,2.1,0,5.8,0,5.8S1201,132.7,1214.1,132.7L1214.1,132.7z M1445.2,157.2h-246.5c-3.1,0-8.1,0-8.1,0s0,15.3,0,27.9
			c0,10.9,0,24.2,0,24.2s4.9,0,8.6,0l236.1,0c16.6,0,24.1,5,24.1,16.2s-7.4,16.1-24,16.1l-235.7,0c-3.3,0-9,0-9,0
			c0,13.3,0,13.3,0,24.7c0,14.4,0,27,0,27s6.1,0,9,0h246.1c31.9,0,64.2-23.3,64.2-67.8c0-20.9-6.2-38.4-18-50.4
			C1480.5,163.4,1464.3,157.2,1445.2,157.2z M1443.4,317.9h-186.8c-39.5,0-66,27.5-66,68.3c0,39.9,27.1,67.8,66,67.8h186.8
			c39.7,0,66.4-27.3,66.4-67.8C1509.8,343.4,1485,317.9,1443.4,317.9L1443.4,317.9z M1433.5,402.3h-167.8c-9.7,0-25.9-2.1-25.9-16.1
			c0-15.3,19.8-16.1,25.9-16.1h167.8c15.5,0,25.9,2.7,25.9,16.1C1459.3,401.1,1447.6,402.3,1433.5,402.3"/>
		<path id="path3885" class="st0" d="M449.1,107.9c0-10.1,0.4-15.1,1.7-25.4c1.1-9.9,9-19.8,19.5-19.8c4.9,0,10.6,2.5,14.4,7.1
			c4.4,5.2,6.2,12.7,6.2,20.7v29.7c0,1.7,0,5.8,0,5.8s18.3,0,36.6,0h6.9c13.8,0,23.6,0,23.6,0s0-1.6,0-5.2V89.2
			c0-50.8-37.7-89.2-87.8-89.2c-46.1,0-67.1,32.7-72.4,42.7c-9.1,17-15.6,41.5-15.1,63.3c0,55.4,36.6,104.1,69.2,147
			c24.5,32.4,45.7,60.3,45.7,84.2c0,3.3,0.2,5.7,0.1,8.2c-0.1,3.4,0.1,6.7-0.2,12.4l-0.6,8.9c-1.4,13.3-6.7,21.7-19.9,22.8
			c-14.7-0.7-22.5-10-22.5-36.8v-27.1c0-1.6,0-6.5,0-6.5s-17.4,0-37.2,0c-14.6,0-31.2,0-31.2,0s0,5,0,7.8l0.1,36.2
			c0,55.7,35.2,91.7,89.6,91.7c37-1.6,63.8-16.2,79.7-54.3l0,0c9.2-17.8,9.9-49.5,9.9-58.7c0-57.4-34.8-99.8-65.5-137.2
			C473.8,172.6,449.1,142.5,449.1,107.9z M61.2,0.6c-5,0-12,0-28.6,0c-18,0-27.6,0-32.5,0c0,2.3,0,7.7,0,11.7v431.5
			c0,4,0,7.3,0,10.2c4.4,0,31.3,0,32.3,0c19.3,0,31,0,35.4,0c0-2.4,0-6.9,0-11.5V12.9c0-3.5,0-10,0-12.3c-1.2,0-2.3,0-4.1,0
			L61.2,0.6z M288,0.6c-14.5,0-33.6,0-33.6,0s0,7.2,0,12.3v197c0,4.5,0,31.1,0,35.7c-4.7-18.3-4.3-17.3-8.1-32.5
			C230,150.9,215.2,81.8,201.5,21.6c-1.9-8.5-4.8-21-4.8-21s-20.7,0-35.5,0c-13.7,0-26.3,0-29.8,0c0,1.3,0,2.1,0,9.8v432.2
			c0,4.7,0,9.1,0,11.5c2.8,0,14.5,0,31.8,0c19.7,0,31.8,0,34.8,0c0-2.5,0-7.7,0-12.1V229.3c0-5.1,0-31.3,0-34.1
			c0.6,2.5,7.7,32.3,10.1,42.2l2.1,9.3c9.3,38.4,15.1,63.4,21.2,90c7,30.6,13.7,59.3,22.9,99.7c1.4,6.4,4,17.5,4,17.5
			s20.7,0.1,31,0.1c17.3,0,31.7,0,31.7,0s0-10.9,0-18.3V12.3c0-4,0-11.7,0-11.7S308,0.6,288,0.6z M1147.7,388.9h-57.9
			c-8.4,0-16.3,0-20,0c0-3.3,0-17.2,0-23.9l0-96.2l0-3.9c0-6.3,0-15.5,0-15.5s11.6,0,18.2,0h27.4c4.2,0,5.8,0,9.2,0
			c0-4.6,0-18.4,0-32.3c0-17.8,0-33.6,0-33.6s-6,0-9.2,0h-29.2l-2.2,0c-3.3,0-14.3,0-14.3,0s0-10.2,0-15.1l0-3V80.1
			c0-7.4,0-10.8,0-14.2h3.3c1.4,0,6.4,0,13.1,0h60.9c4.3,0,9.8,0,9.8,0s0-18.6,0-34.2c0-12.7,0-20.3,0-24.9c0-1.9,0-6.2,0-6.2
			s-6.5,0-9.2,0h-126.1c-6.2,0-14.5,0-19.6,0v5.5c0,5.5,0,6.2,0,14.6V429l-0.1,3.9c0.1,7,0.1,21.1,0.1,21.1s15.4,0,23.4,0l5.9,0
			l117,0c3.2,0,8.6,0,8.6,0s0-15.1,0-32.8c0-16.1,0-27.8,0-32.3C1154.7,388.9,1151.5,388.9,1147.7,388.9L1147.7,388.9z M840.5,0.6
			l-62.1,0h-2.6c-4.9,0-16.9,0-16.9,0s0,2.4,0,3.7c0,4.5,0,9.6,0,17.1v412.2c0,6.8,0,20.5,0,20.5s9.9,0,16.6,0l2.4,0l63.3,0
			c16.9,0,48.6-2.9,71-27.4c18.1-19.8,26.5-42.4,26.5-71.3V98.8c0-30.7-8.8-55.6-25.4-72C895.8,9.5,870,0.6,840.5,0.6z M863.8,373.3
			c-5.4,8.6-13.2,11.5-20.2,11.3l-5.6-0.1c-3.6,0-11.5-0.1-11.5-0.1s0.1-7.5,0.1-13l-0.1-290.7c0-3.8,0-7.8,0-10.4c2.5,0,8,0,17,0
			c10.4,0,14.5,2.4,19.2,7.4c7,9.3,7.6,21.2,7.6,34.6v230l0,2.1C870.3,353.4,870.3,363.5,863.8,373.3"/>
	</g>
</g>
</svg>
