<?xml version="1.0" encoding="utf-8"?>
<!-- Generator: Adobe Illustrator 21.1.0, SVG Export Plug-In . SVG Version: 6.00 Build 0)  -->
<svg version="1.1"
	 id="svg8" xmlns:cc="http://creativecommons.org/ns#" xmlns:dc="http://purl.org/dc/elements/1.1/" xmlns:rdf="http://www.w3.org/1999/02/22-rdf-syntax-ns#" xmlns:svg="http://www.w3.org/2000/svg"
	 xmlns="http://www.w3.org/2000/svg" xmlns:xlink="http://www.w3.org/1999/xlink" x="0px" y="0px" viewBox="0 0 331.9 78.7"
	 style="enable-background:new 0 0 331.9 78.7;" xml:space="preserve">
<style type="text/css">
	.st0{fill:#FFFFFF;}
</style>
<g id="layer1" transform="translate(-45.022445,-38.947338)">
	<g id="g52" transform="matrix(0.26458333,0,0,0.26458333,45.022445,38.947338)">
		<path id="path16" class="st0" d="M34.4,70.5c1.4-0.6,3-1,4.5-0.9c4.5,0,10.2,9.5,14.4,24.6c7.9-7.6,9.1-9.2,12.9-12.3
			c9.7-8,21.9-12.4,34.4-12.3c11.3,0,21.6,3.5,21.6,6.9c-0.1,1.2-0.4,2.3-0.8,3.5l-11.7,25.5c-0.8,1.9-1.9,2.8-3,2.8
			c-0.9-0.1-1.8-0.3-2.7-0.6c-4.9-1.5-10-2.4-15.1-2.5c-7.9,0-17.4,4.7-28.7,15.1v104.9c0,4.7-0.8,5.4-6.4,5.4H18.5
			c-5.7,0-6.4-0.6-6.4-5.4v-95.7c0-18-2.3-26.8-11.3-43.8c-0.4-0.9-0.7-1.9-0.8-2.8c0-1.2,1.5-2.5,3.8-3.1L34.4,70.5z"/>
		<path id="path18" class="st0" d="M221.7,134.2c-0.8-26.2-8.3-35.9-27.6-35.9s-28,10.1-31.4,35.9H221.7z M162,163.5
			c0.8,27.1,14,39.7,42,39.7c14.9-0.3,29.5-3.6,43.1-9.7c1.5-0.8,3.2-1.2,4.9-1.3c1.8,0,3.5,1.1,4.2,2.8l9.5,18.9
			c0.8,1,1.2,2.2,1.1,3.5c0,3.5-3,5.4-15.5,9.8c-16.8,6-34.4,9-52.2,8.8c-24.2,0-43.1-5-56.4-15.4c-18.2-13.5-28.3-37.8-28.3-66.5
			c0-50.8,32.9-84.5,82.9-84.5S272,98.2,272,155.6c0,6.3-1.5,7.9-8.3,7.9H162z"/>
		<path id="path20" class="st0" d="M374.7,160c-37.8,0-53,6.9-53,25.2c0,12.3,10.6,21.7,24.2,21.7c10.2,0,19.7-4.1,28.7-12.3V160z
			 M374.7,124.1c0-18-6.1-23.6-25-23.6c-11.3,0-25.7,2.8-42.4,8.2c-1.3,0.6-2.7,0.9-4.2,0.9c-1.9,0-3-0.9-3.8-3.1l-7.9-18.9
			c-0.4-1.1-0.7-2.3-0.8-3.5c0-6.6,34.4-14.5,64.7-14.5c30.2,0,50.3,8.2,59,24.3c3.8,6.6,5.3,14.2,5.3,26.2v64.3
			c-0.5,11.9,2.5,23.8,8.7,34c0.7,1,1.1,2.2,1.1,3.5c0,1.3-1.1,2.5-3,3.1l-29.5,9.8c-1.4,0.6-3,0.9-4.5,0.9c-3.4,0-7.2-6-11.3-18.6
			c-15.1,12.9-28.7,18-48.4,18c-34.8,0-56.7-18.6-56.7-47.6c0-28.1,18.2-44.8,56.4-50.8c9.8-1.9,21.6-2.5,42.4-2.8L374.7,124.1z"/>
		<path id="path22" class="st0" d="M478.9,9.7c1.5-0.3,3-0.6,4.5-0.6c2.6,0,3.8,1.6,3.8,5.4v157.3c0,17.7,0,18.3,0.8,20.8
			c1.5,4.4,4.2,6.3,9.5,6.3c4.2-0.1,8.4-0.7,12.5-1.9c0.9-0.2,1.7-0.3,2.6-0.3c1.3-0.2,2.6,0.6,3,1.9l7.6,25.9l0.4,1.2
			c0.3,0.4,0.4,0.8,0.4,1.3c0,4.1-20,8.8-38.2,8.8c-21.9,0-37.1-7.9-43.1-22.7c-3-7.3-3.4-11-3.4-38.5V16.4L478.9,9.7"/>
		<path id="path24" class="st0" d="M719.4,147.9c4.2,12,7.9,26.5,12.5,45.4c4.2-16.7,9.1-34,13.2-45.4l26.5-72.2
			c1.1-3.5,2.3-4.4,4.5-4.4c1,0,2,0.1,3,0.3l31.4,3.1c4.2,0.3,5.7,1.2,5.7,3.1c-0.1,1.2-0.4,2.3-0.8,3.5l-62.8,144.1
			c-1.5,3.8-2.3,4.1-7.2,4.1h-31c-4.9,0-5.7-0.3-7.2-4.1L645.6,81.4c-0.6-1.1-1-2.2-1.1-3.5c0-1.9,1.5-2.5,6.1-3.1l37.1-3.1
			c1-0.2,2-0.3,3-0.3c2.3,0,3.4,0.9,4.5,4.4L719.4,147.9z"/>
		<path id="path26" class="st0" d="M956.7,67.2c1.2-0.3,2.5-0.5,3.8-0.6c4.5,0,9.5,7.9,13.6,21.7c18.9-14.5,35.2-20.2,56.7-20.2
			c33.7,0,48.8,15.4,48.8,49.8v105.9c0,4.7-0.8,5.4-6.4,5.4h-35.3c-5.7,0-6.4-0.6-6.4-5.4v-97.1c0-18.6-6.4-26.5-21.6-26.5
			c-11,0-19.7,3.5-32.9,12.9v110.6c0,4.7-0.8,5.4-6.4,5.4h-35.1c-5.7,0-6.4-0.6-6.4-5.4V117.9c0.4-11.9-2.4-23.8-7.9-34.4
			c-0.7-0.9-1-2-1.1-3.1c0-0.9,1.1-2.2,3-2.8L956.7,67.2z"/>
		<path id="path28" class="st0" d="M1197.2,112.8c-10.6-6.6-17.8-9.1-26.9-9.1c-20,0-31,17-31,47.9c0,30.3,9.8,46.3,28,46.3
			c11,0.3,21.6-3.5,29.9-10.7V112.8z M1106.5,255.3c0.6-1.8,2.3-3.1,4.2-3.1c1.2,0.1,2.3,0.4,3.4,0.9c20.8,7.9,39.3,11.7,56,11.7
			c21.2,0,29.1-7.3,29.1-26.2c-0.2-6.9-0.8-13.7-1.9-20.5c-13.2,7.9-28.4,12-43.9,11.7c-38.2,0-62.1-29.6-62.1-76.5
			c0-50.8,26.9-82.6,69.2-82.6c17.4,0,28.3,3.8,43.5,14.5c4.5-9.2,10.2-15.4,13.2-15.4c1.3,0,2.6,0.2,3.8,0.6l29.9,8.8
			c2.3,0.9,3.4,1.9,3.4,3.1s0,0.9-2.3,5.7c-5.9,10.9-8.8,23.2-8.3,35.6v46.5c0,17,0.4,34.4,1.1,51.4c0.4,8.5,0.8,15.8,0.8,19.8
			c0,35.9-25.3,56.1-71.1,56.1c-32.1,0-76.8-10.1-76.8-17.3c0.1-1.1,0.4-2.1,0.8-3.1L1106.5,255.3z"/>
		<path id="path30" class="st0" d="M833.8,102.8c-5.7,0-6.4-0.6-6.4-5.4V78.7c0-4.7,0.8-5.4,6.4-5.4h70.4c5.7,0,6.4,0.6,6.4,5.4
			v145.1c0,4.7-0.8,5.4-6.4,5.4h-35.1c-5.7,0-6.4-0.6-6.4-5.4V102.8H833.8z"/>
		<path id="path32" class="st0" d="M523,0.6c1.5-0.4,3.1-0.6,4.7-0.6c2.6,0,3.8,1.6,3.8,5.4v165c0,17.7,0,18.3,0.8,20.8
			c1.5,4.4,4.2,6.3,9.5,6.3c4.2-0.1,8.4-0.7,12.5-1.9c0.9-0.2,1.7-0.3,2.6-0.3c1.3-0.2,2.6,0.6,3,1.9l7.5,25.9l0.4,1.2
			c0.3,0.4,0.4,0.8,0.4,1.3c0,4.1-20,8.8-38.2,8.8c-21.9,0-37.1-7.9-43.1-22.7c-3-7.3-3.4-11-3.4-38.5V7.3L523,0.6"/>
		<path id="path34" class="st0" d="M555.5,102.8c-5.7,0-6.4-0.6-6.4-5.4V78.7c0-4.7,0.8-5.4,6.4-5.4h70.4c5.7,0,6.4,0.6,6.4,5.4
			v145.1c0,4.7-0.8,5.4-6.4,5.4h-35.2c-5.7,0-6.4-0.6-6.4-5.4V102.8H555.5z"/>
	</g>
</g>
</svg>
