<?xml version="1.0" encoding="utf-8"?>
<!-- Generator: Adobe Illustrator 20.1.0, SVG Export Plug-In . SVG Version: 6.00 Build 0)  -->
<svg version="1.1" id="Layer_1" xmlns="http://www.w3.org/2000/svg" xmlns:xlink="http://www.w3.org/1999/xlink" x="0px" y="0px"
	 viewBox="12.026 181.878 825.419 230.43" enable-background="new 12.026 181.878 825.419 230.43" xml:space="preserve">
<g>
	<path fill="#25BED9" d="M44.193,236.373c0.959-1.134,2.151-2.182,3.568-3.145c1.417-0.963,3.118-1.786,5.101-2.465
		c1.98-0.679,4.388-1.021,7.222-1.021c3.51,0,7.164,0.877,10.961,2.632c3.793,1.758,7.252,4.193,10.37,7.311
		c3.114,3.118,5.665,6.856,7.648,11.217c1.98,4.36,2.974,9.093,2.974,14.191c0,4.306-0.85,8.584-2.551,12.832
		c-1.7,4.247-3.968,8.072-6.798,11.469c-2.834,3.401-6.177,6.18-10.028,8.328c-3.855,2.15-7.877,3.227-12.067,3.227
		c-2.493,0-4.733-0.342-6.713-1.018c-1.984-0.68-3.77-1.557-5.354-2.632c-1.587-1.076-2.947-2.268-4.08-3.572
		c-1.134-1.301-2.097-2.52-2.889-3.653v8.67H14.026v-2.722h12.917v-108.77H14.026v-2.718h27.535V239.6
		C42.35,238.579,43.227,237.507,44.193,236.373z M44.702,289.278c1.192,1.591,2.551,3.005,4.081,4.251
		c1.53,1.247,3.23,2.267,5.098,3.06c1.872,0.792,3.937,1.192,6.205,1.192c1.81,0,3.568-0.454,5.269-1.359
		c1.7-0.908,3.23-2.465,4.589-4.674c1.359-2.206,2.435-5.207,3.227-9.007c0.792-3.794,1.191-8.127,1.191-13.904v-7.648
		c0-6.228-0.369-10.787-1.106-14.584c-0.738-3.794-1.783-6.713-3.142-8.751c-1.359-2.039-2.947-3.367-4.76-3.992
		c-1.813-0.625-3.797-0.935-5.948-0.935c-2.493,0-4.674,0.399-6.542,1.192c-1.871,0.792-3.513,1.813-4.93,3.059
		c-1.417,1.247-2.633,2.578-3.654,3.992c-1.021,1.42-1.929,2.803-2.718,4.166v39.024C42.466,286.051,43.514,287.697,44.702,289.278z
		"/>
	<path fill="#25BED9" d="M154.753,259.657h-40.964v17.336c0,7.475,1.386,12.914,4.162,16.315c2.776,3.398,6.43,5.099,10.964,5.099
		c3.739,0,7.024-0.567,9.858-1.701c2.831-1.13,5.354-2.606,7.563-4.419c2.21-1.81,4.077-3.91,5.61-6.29
		c1.53-2.38,2.803-4.76,3.824-7.14c0.451-1.13,0.963-1.697,1.53-1.697c0.679,0,1.018,0.396,1.018,1.189
		c0,0.792-0.171,1.591-0.509,2.38c-1.021,2.718-2.38,5.327-4.081,7.819c-1.7,2.489-3.77,4.671-6.204,6.542
		c-2.438,1.871-5.241,3.344-8.414,4.418c-3.172,1.076-6.686,1.615-10.537,1.615c-4.76,0-9.151-1.018-13.173-3.059
		c-4.022-2.042-7.451-4.702-10.281-7.99c-2.834-3.285-5.043-7.024-6.627-11.217c-1.588-4.193-2.38-8.496-2.38-12.917
		c0-4.418,0.792-8.775,2.38-13.085c1.584-4.306,3.793-8.161,6.627-11.558c2.831-3.401,6.204-6.177,10.11-8.328
		c3.91-2.151,8.13-3.227,12.661-3.227c5.44,0,10.029,1.103,13.768,3.315c3.739,2.206,6.74,4.787,9.008,7.734
		c2.267,2.947,3.937,6.006,5.012,9.178c1.076,3.175,1.67,5.668,1.786,7.478C157.471,258.919,156.563,259.657,154.753,259.657z
		 M138.944,256.273c1.7,0,2.55-2.66,2.55-7.99c0-2.038-0.17-3.357-0.509-5.289c-0.338-1.922-1.018-3.677-2.038-5.269
		c-1.018-1.584-2.411-2.858-4.163-3.821c-1.758-0.963-3.995-1.448-6.713-1.448c-1.701,0-3.401,0.229-5.098,0.68
		c-1.7,0.454-3.23,1.304-4.589,2.55c-1.359,1.247-2.465,3.032-3.315,5.351c-0.851,2.326-1.274,4.695-1.274,8.431v6.798h25.148
		V256.273z"/>
	<path fill="#25BED9" d="M181.687,230.845c3.23-0.737,6.6-1.103,10.114-1.103c7.478,0,13.026,1.335,16.656,3.995
		c3.626,2.66,5.439,6.43,5.439,11.302v41.132c0,3.288,0.225,5.862,0.679,7.734c0.451,1.871,1.81,2.803,4.081,2.803
		c1.584,0,3.06-0.594,4.419-1.782c1.359-1.188,2.489-2.749,3.401-4.675c0.451-0.905,0.85-1.359,1.188-1.359
		c0.342,0,0.509,0.287,0.509,0.85c0,0.68-0.256,1.673-0.765,2.974c-0.509,1.304-1.39,2.582-2.633,3.824
		c-1.246,1.247-2.861,2.322-4.842,3.23c-1.984,0.904-4.449,1.355-7.393,1.355c-4.534,0-7.706-0.994-9.52-2.975
		c-1.813-1.98-2.889-4.162-3.23-6.542c-0.68,1.021-1.588,2.066-2.718,3.145c-1.134,1.076-2.523,2.097-4.162,3.06
		c-1.643,0.962-3.514,1.759-5.61,2.38c-2.097,0.621-4.449,0.932-7.051,0.932c-2.493,0-4.842-0.283-7.055-0.85
		c-2.209-0.568-4.162-1.445-5.863-2.633c-1.7-1.188-3.032-2.772-3.992-4.76c-0.963-1.98-1.444-4.333-1.444-7.051
		c0-3.739,0.963-7.109,2.889-10.114c1.926-3.002,4.589-5.522,7.99-7.563c3.397-2.042,7.362-3.596,11.896-4.675
		c4.531-1.072,9.403-1.615,14.618-1.615v-20.054c0-3.852-1.018-6.461-3.059-7.819c-2.039-1.359-4.818-2.042-8.328-2.042
		c-1.246,0-2.523,0.116-3.824,0.341c-1.304,0.229-2.465,0.509-3.486,0.851c-1.021,0.341-1.871,0.741-2.551,1.191
		c-0.679,0.454-1.021,0.908-1.021,1.359c0,0.342,0.171,0.625,0.509,0.851c0.338,0.225,0.792,0.624,1.359,1.188
		c0.792,0.795,1.332,1.619,1.615,2.465c0.284,0.85,0.427,1.673,0.427,2.469c0,1.697-0.594,3.118-1.786,4.247
		c-1.188,1.134-2.749,1.697-4.674,1.697s-3.428-0.649-4.504-1.953c-1.079-1.301-1.615-2.746-1.615-4.333
		c0-3.289,1.81-6.119,5.439-8.499C175.824,232.576,178.46,231.583,181.687,230.845z M190.356,264.669
		c-2.889,0.509-5.439,1.39-7.648,2.632c-2.21,1.25-3.995,3.005-5.354,5.269c-1.359,2.268-2.039,5.269-2.039,9.011
		c0,4.644,0.905,8.325,2.718,11.046c1.81,2.718,4.477,4.077,7.987,4.077c1.021,0,2.294-0.28,3.824-0.85
		c1.53-0.564,2.998-1.332,4.419-2.295c1.417-0.959,2.605-2.011,3.568-3.145c0.959-1.13,1.444-2.206,1.444-3.227v-23.625
		C196.219,263.792,193.245,264.157,190.356,264.669z"/>
	<path fill="#25BED9" d="M266.128,296.793c-4.48,2.548-9.718,3.821-15.72,3.821c-2.268,0-4.449-0.283-6.542-0.848
		c-2.1-0.57-3.94-1.529-5.525-2.892c-1.587-1.359-2.834-3.227-3.739-5.61c-0.908-2.38-1.359-5.378-1.359-9.007V234.84h-11.896
		v-2.721h26.514v51.327c0,4.309,0.567,7.423,1.7,9.349c1.13,1.926,3.681,2.889,7.649,2.889c2.489,0,4.927-0.622,7.307-1.868
		c2.38-1.247,4.476-2.803,6.29-4.674c1.81-1.872,3.257-3.883,4.336-6.037c1.076-2.151,1.615-4.135,1.615-5.945v-42.32h-11.906
		v-2.721h26.514v63.906h11.897v2.721h-26.514V286C274.143,290.647,270.602,294.243,266.128,296.793z"/>
	<path fill="#25BED9" d="M342.324,232.122v2.721h-16.485v46.23c0,5.439,0.85,9.516,2.55,12.238c1.701,2.718,4.531,4.077,8.499,4.077
		c2.943,0,5.439-1.103,7.478-3.316c2.039-2.212,3.343-5.238,3.91-9.093c0.113-1.13,0.621-1.701,1.53-1.701
		c0.68,0,1.021,0.458,1.021,1.359v0.509c0,0.112-0.058,0.454-0.171,1.021c-0.792,4.647-2.578,8.304-5.353,10.964
		c-2.776,2.659-7.509,3.991-14.191,3.991c-6.46,0-11.388-1.813-14.789-5.439c-3.401-3.626-5.098-8.608-5.098-14.956V234.84h-11.559
		v-2.721h11.559v-19.375l14.617-7.31v26.682h16.482V232.122z"/>
	<path fill="#25BED9" d="M383.793,232.122v2.721h-13.088l19.716,46.23l17.677-46.23h-12.58v-2.721h30.305v2.721h-14.669
		l-35.013,91.437c-1.926,5.211-4.589,9.318-7.986,12.324c-3.401,2.998-7.082,4.5-11.046,4.5c-2.947,0-5.129-0.652-6.545-1.953
		c-1.421-1.305-2.124-3.033-2.124-5.188c0-1.697,0.509-3.172,1.53-4.418c1.021-1.246,2.489-1.871,4.419-1.871
		c1.7,0,3.059,0.365,4.077,1.107c1.021,0.732,1.868,1.84,2.55,3.314c0.342,0.68,0.649,1.246,0.936,1.701
		c0.284,0.449,0.878,0.676,1.783,0.676c1.584,0,3.257-0.908,5.016-2.719c1.755-1.813,3.371-4.592,4.842-8.328l9.857-26.002
		l-28.381-64.585h-9.769v-2.721h38.495V232.122z"/>
	<path fill="#25BED9" d="M456.097,233.99c4.018-2.831,9.373-4.248,16.061-4.248c6.119,0,10.904,1.335,14.363,3.995
		c3.455,2.66,5.182,6.542,5.182,11.64v50.648h11.897v2.721h-38.238v-2.721h11.725v-48.288c0-1.588-0.082-3.145-0.252-4.675
		c-0.172-1.53-0.594-2.916-1.277-4.166c-0.68-1.243-1.701-2.264-3.059-3.059c-1.359-0.792-3.23-1.191-5.611-1.191
		c-2.947,0-5.609,0.679-7.986,2.042c-2.381,1.356-4.48,3.032-6.289,5.013c-1.814,1.984-3.203,4.081-4.166,6.29
		c-0.963,2.209-1.445,4.22-1.445,6.037v41.999h11.897v2.721h-38.413v-2.721h11.896V187.251h-11.896v-2.718h26.515v59.485
		C449.043,240.167,452.074,236.824,456.097,233.99z"/>
	<path fill="#25BED9" d="M561.712,259.657h-40.961v17.336c0,7.475,1.387,12.914,4.162,16.315c2.775,3.398,6.43,5.099,10.963,5.099
		c3.74,0,7.025-0.567,9.859-1.701c2.83-1.13,5.353-2.606,7.563-4.419c2.209-1.81,4.076-3.91,5.609-6.29
		c1.531-2.38,2.805-4.76,3.824-7.14c0.451-1.13,0.963-1.697,1.531-1.697c0.68,0,1.018,0.396,1.018,1.189
		c0,0.792-0.172,1.591-0.51,2.38c-1.021,2.718-2.379,5.327-4.08,7.819c-1.701,2.489-3.77,4.671-6.205,6.542
		c-2.438,1.871-5.24,3.344-8.412,4.418c-3.172,1.076-6.686,1.615-10.537,1.615c-4.76,0-9.152-1.018-13.174-3.059
		c-4.024-2.042-7.451-4.702-10.281-7.99c-2.834-3.285-5.043-7.024-6.627-11.217c-1.588-4.193-2.381-8.496-2.381-12.917
		c0-4.418,0.793-8.775,2.381-13.085c1.584-4.306,3.793-8.161,6.627-11.558c2.83-3.401,6.203-6.177,10.109-8.328
		c3.91-2.151,8.131-3.227,12.662-3.227c5.439,0,10.029,1.103,13.768,3.315c3.738,2.206,6.74,4.787,9.008,7.734
		c2.268,2.947,3.935,6.006,5.012,9.178c1.076,3.175,1.67,5.668,1.785,7.478C564.429,258.919,563.521,259.657,561.712,259.657z
		 M545.902,256.044c1.701,0,2.551-2.66,2.551-7.99c0-2.039-0.17-3.128-0.508-5.061c-0.338-1.922-1.018-3.677-2.039-5.269
		c-1.018-1.584-2.41-2.858-4.162-3.821c-1.758-0.963-3.994-1.448-6.713-1.448c-1.701,0-3.4,0.229-5.098,0.68
		c-1.701,0.454-3.23,1.304-4.59,2.55c-1.359,1.247-2.465,3.032-3.314,5.351c-0.852,2.326-1.273,4.466-1.273,8.202v6.798h25.146
		V256.044z"/>
	<path fill="#25BED9" d="M589.478,230.845c3.23-0.737,6.602-1.103,10.115-1.103c7.477,0,13.025,1.335,16.656,3.995
		c3.625,2.66,5.439,6.43,5.439,11.302v41.132c0,3.288,0.225,5.862,0.68,7.734c0.449,1.871,1.809,2.803,4.08,2.803
		c1.584,0,3.059-0.594,4.418-1.782c1.359-1.188,2.488-2.749,3.4-4.675c0.451-0.905,0.852-1.359,1.189-1.359
		c0.342,0,0.508,0.287,0.508,0.85c0,0.68-0.256,1.673-0.764,2.974c-0.51,1.304-1.391,2.582-2.633,3.824
		c-1.246,1.247-2.861,2.322-4.842,3.23c-1.984,0.904-4.449,1.355-7.393,1.355c-4.535,0-7.707-0.994-9.52-2.975
		c-1.814-1.98-2.889-4.162-3.23-6.542c-0.68,1.021-1.588,2.066-2.719,3.145c-1.133,1.076-2.523,2.097-4.162,3.06
		c-1.643,0.962-3.514,1.759-5.609,2.38c-2.098,0.621-4.449,0.932-7.051,0.932c-2.494,0-4.842-0.283-7.055-0.85
		c-2.209-0.568-4.162-1.445-5.863-2.633c-1.701-1.188-3.031-2.772-3.992-4.76c-0.963-1.98-1.443-4.333-1.443-7.051
		c0-3.739,0.963-7.109,2.889-10.114c1.926-3.002,4.588-5.522,7.99-7.563c3.396-2.042,7.361-3.596,11.895-4.675
		c4.531-1.072,9.404-1.615,14.619-1.615v-20.054c0-3.852-1.018-6.461-3.06-7.819c-2.037-1.359-4.816-2.042-8.328-2.042
		c-1.246,0-2.523,0.116-3.824,0.341c-1.303,0.229-2.465,0.509-3.486,0.851c-1.019,0.341-1.871,0.741-2.551,1.191
		c-0.678,0.454-1.019,0.908-1.019,1.359c0,0.342,0.17,0.625,0.508,0.851c0.338,0.225,0.793,0.624,1.359,1.188
		c0.793,0.795,1.332,1.619,1.615,2.465c0.283,0.85,0.426,1.673,0.426,2.469c0,1.697-0.594,3.118-1.785,4.247
		c-1.188,1.134-2.748,1.697-4.674,1.697c-1.926,0-3.428-0.649-4.504-1.953c-1.08-1.301-1.615-2.746-1.615-4.333
		c0-3.289,1.811-6.119,5.439-8.499C583.617,232.576,586.251,231.583,589.478,230.845z M598.148,264.669
		c-2.889,0.509-5.439,1.39-7.648,2.632c-2.209,1.25-3.994,3.005-5.354,5.269c-1.359,2.268-2.039,5.269-2.039,9.011
		c0,4.644,0.906,8.325,2.719,11.046c1.809,2.718,4.477,4.077,7.986,4.077c1.021,0,2.295-0.28,3.824-0.85
		c1.529-0.564,2.998-1.332,4.418-2.295c1.418-0.959,2.605-2.011,3.568-3.145c0.959-1.13,1.445-2.206,1.445-3.227v-23.625
		C604.011,263.792,601.037,264.157,598.148,264.669z"/>
	<polygon fill="#25BED9" points="662.294,232.122 662.294,234.84 650.394,234.84 668.414,279.202 686.087,234.84 674.019,234.84 
		674.019,232.122 699.175,232.122 699.175,234.84 689.146,234.84 663.312,299.425 661.953,299.425 634.759,234.84 623.712,234.84 
		623.712,232.122 	"/>
	<path fill="#25BED9" d="M752.371,259.657H711.41v17.336c0,7.475,1.385,12.914,4.162,16.315c2.775,3.398,6.43,5.099,10.963,5.099
		c3.74,0,7.023-0.567,9.857-1.701c2.832-1.13,5.355-2.606,7.564-4.419c2.209-1.81,4.076-3.91,5.609-6.29
		c1.529-2.38,2.805-4.76,3.824-7.14c0.451-1.13,0.963-1.697,1.529-1.697c0.68,0,1.018,0.396,1.018,1.189
		c0,0.792-0.17,1.591-0.508,2.38c-1.021,2.718-2.381,5.327-4.08,7.819c-1.701,2.489-3.77,4.671-6.205,6.542
		c-2.438,1.871-5.24,3.344-8.412,4.418c-3.174,1.076-6.688,1.615-10.539,1.615c-4.76,0-9.15-1.018-13.172-3.059
		c-4.023-2.042-7.451-4.702-10.281-7.99c-2.834-3.285-5.043-7.024-6.629-11.217c-1.588-4.193-2.379-8.496-2.379-12.917
		c0-4.418,0.791-8.775,2.379-13.085c1.586-4.306,3.795-8.161,6.629-11.558c2.83-3.401,6.203-6.177,10.109-8.328
		c3.91-2.151,8.131-3.227,12.662-3.227c5.439,0,10.027,1.103,13.768,3.315c3.738,2.206,6.74,4.787,9.008,7.734
		c2.266,2.947,3.935,6.006,5.012,9.178c1.076,3.175,1.67,5.668,1.785,7.478C755.091,258.919,754.183,259.657,752.371,259.657z
		 M736.564,256.133c1.701,0,2.551-2.66,2.551-7.99c0-2.038-0.172-3.213-0.51-5.146c-0.338-1.922-1.018-3.677-2.037-5.268
		c-1.018-1.585-2.412-2.858-4.162-3.821c-1.76-0.963-3.996-1.448-6.715-1.448c-1.699,0-3.4,0.229-5.098,0.68
		c-1.699,0.454-3.229,1.304-4.588,2.55c-1.359,1.247-2.467,3.032-3.316,5.351c-0.85,2.326-1.273,4.552-1.273,8.29v6.798h25.148
		V256.133z"/>
	<path fill="#25BED9" d="M789.831,235.011c3.908-2.831,8.977-4.248,15.211-4.248c5.211,0,9.488,1.134,12.828,3.397
		c3.344,2.268,5.016,6.344,5.016,12.238v49.627h11.896v2.721h-38.41v-2.721h11.896v-47.988c0-4.422-0.766-7.648-2.295-9.69
		c-1.529-2.038-3.936-3.06-7.225-3.06c-2.268,0-4.449,0.625-6.543,1.871c-2.1,1.247-3.967,2.831-5.609,4.76
		c-1.643,1.926-2.975,3.995-3.996,6.201c-1.02,2.209-1.529,4.278-1.529,6.204v41.702h11.896v2.721h-38.402v-2.721h11.896V234.84
		h-11.896v-2.721h26.514v12.917C783.001,241.188,785.921,237.845,789.831,235.011z"/>
</g>
<g>
	<polyline fill="#B8BAC2" points="13.804,338.242 332.302,338.242 332.302,336.535 13.804,336.535 	"/>
	<polygon fill="#B8BAC2" points="13.804,339.095 333.156,339.095 333.156,336.535 333.156,335.681 13.804,335.681 13.804,337.388 
		331.449,337.388 331.449,337.388 13.804,337.388 	"/>
	<polyline fill="#B8BAC2" points="390.35,338.242 833.775,338.242 833.775,336.535 390.35,336.535 	"/>
	<polygon fill="#B8BAC2" points="390.35,339.095 834.63,339.095 834.63,336.535 834.63,335.681 390.35,335.681 390.35,337.388 
		832.921,337.388 390.35,337.388 	"/>
</g>
<g>
	<path fill="#838694" d="M30.276,392.261h-8.758v17.393h-7.86v-45.225h15.905c5.218,0,9.247,1.17,12.084,3.514
		c2.837,2.342,4.254,5.732,4.254,10.168c0,3.025-0.731,5.559-2.189,7.602c-1.461,2.041-3.493,3.611-6.105,4.707l10.158,18.836v0.402
		h-8.417L30.276,392.261z M21.518,385.923h8.075c2.65,0,4.723-0.67,6.211-2.004c1.492-1.336,2.236-3.162,2.236-5.48
		c0-2.422-0.69-4.297-2.066-5.621c-1.376-1.324-3.432-2.008-6.167-2.053h-8.291V385.923z"/>
	<path fill="#838694" d="M85.769,389.464H67.194v13.852h21.713v6.338H59.334v-45.225h29.355v6.336H67.194v12.488h18.575V389.464z"/>
	<path fill="#838694" d="M117.22,399.806l11.494-35.381h8.635l-16.277,45.229h-7.611l-16.216-45.229h8.605L117.22,399.806z"/>
	<path fill="#838694" d="M156.716,409.654h-7.826v-45.225h7.826V409.654z"/>
	<path fill="#838694" d="M198.791,389.464h-18.575v13.852h21.713v6.338h-29.573v-45.225h29.355v6.336h-21.495v12.488h18.575V389.464
		z"/>
	<path fill="#838694" d="M249.783,398.472l6.959-34.047h7.799l-10.442,45.229h-7.516l-8.604-33.018l-8.789,33.018h-7.549
		l-10.439-45.229h7.799l7.02,33.984l8.635-33.984h6.583L249.783,398.472z"/>
	<path fill="#838694" d="M299.902,398.007c0-1.988-0.7-3.52-2.097-4.596c-1.396-1.076-3.92-2.166-7.563-3.262
		c-3.644-1.096-6.546-2.318-8.697-3.666c-4.122-2.59-6.184-5.967-6.184-10.125c0-3.642,1.485-6.648,4.46-9.008
		c2.971-2.359,6.829-3.541,11.572-3.541c3.145,0,5.952,0.58,8.417,1.738c2.465,1.162,4.401,2.81,5.808,4.955
		c1.407,2.141,2.114,4.518,2.114,7.125h-7.826c0-2.342-0.741-4.172-2.223-5.496c-1.482-1.326-3.599-1.988-6.351-1.988
		c-2.567,0-4.558,0.547-5.979,1.639c-1.42,1.094-2.127,2.619-2.127,4.58c0,1.648,0.765,3.025,2.298,4.127
		c1.533,1.103,4.06,2.176,7.581,3.217c3.521,1.041,6.348,2.23,8.481,3.564c2.134,1.34,3.698,2.869,4.692,4.6
		c0.994,1.728,1.492,3.754,1.492,6.072c0,3.77-1.444,6.768-4.333,8.994c-2.889,2.225-6.809,3.338-11.756,3.338
		c-3.272,0-6.279-0.607-9.025-1.816c-2.745-1.211-4.876-2.885-6.399-5.016c-1.522-2.131-2.281-4.619-2.281-7.457h7.857
		c0,2.568,0.85,4.555,2.547,5.965c1.697,1.406,4.131,2.111,7.3,2.111c2.735,0,4.787-0.555,6.167-1.66
		C299.212,401.296,299.902,399.832,299.902,398.007z"/>
	<path fill="#838694" d="M367.772,399.125h-17.52l-3.667,10.529h-8.171l17.083-45.229h7.051l17.117,45.229h-8.202L367.772,399.125z
		 M352.459,392.787h13.105l-6.553-18.764L352.459,392.787z"/>
	<path fill="#838694" d="M426.65,409.654h-7.861l-20.156-32.086v32.086h-7.86v-45.225h7.86l20.221,32.213v-32.213h7.796V409.654
		L426.65,409.654z"/>
	<path fill="#838694" d="M441.923,409.654v-45.225h13.354c3.998,0,7.543,0.891,10.641,2.674c3.094,1.777,5.49,4.305,7.188,7.58
		c1.699,3.272,2.547,7.02,2.547,11.244v2.266c0,4.287-0.854,8.057-2.561,11.311c-1.711,3.25-4.143,5.756-7.301,7.516
		c-3.158,1.762-6.777,2.639-10.857,2.639h-13.01V409.654z M449.783,370.765v32.555h5.125c4.119,0,7.283-1.283,9.486-3.857
		c2.205-2.572,3.332-6.266,3.369-11.084v-2.51c0-4.9-1.065-8.639-3.199-11.225c-2.133-2.584-5.23-3.875-9.291-3.875h-5.49V370.765z"
		/>
	<path fill="#838694" d="M527.902,392.261h-8.756v17.393h-7.859v-45.225h15.9c5.219,0,9.246,1.17,12.084,3.514
		c2.838,2.342,4.256,5.732,4.256,10.168c0,3.025-0.732,5.559-2.193,7.602c-1.457,2.041-3.492,3.611-6.102,4.707l10.158,18.836v0.402
		h-8.416L527.902,392.261z M519.142,385.923h8.076c2.646,0,4.719-0.67,6.211-2.004c1.492-1.336,2.232-3.162,2.232-5.48
		c0-2.422-0.685-4.297-2.063-5.621c-1.375-1.324-3.434-2.008-6.166-2.053h-8.293v15.158H519.142z"/>
	<path fill="#838694" d="M583.398,389.464h-18.572v13.852h21.709v6.338h-29.568v-45.225h29.354v6.336h-21.494v12.488h18.572V389.464
		z"/>
	<path fill="#838694" d="M634.384,398.472l6.959-34.047h7.795l-10.439,45.229h-7.518l-8.605-33.018l-8.789,33.018h-7.549
		l-10.44-45.229h7.797l7.023,33.984l8.631-33.984h6.588L634.384,398.472z"/>
	<path fill="#838694" d="M686.183,399.125h-17.521l-3.664,10.529h-8.17l17.082-45.229h7.051l17.117,45.229h-8.201L686.183,399.125z
		 M670.869,392.787h13.108l-6.553-18.764L670.869,392.787z"/>
	<path fill="#838694" d="M725.804,392.261h-8.754v17.393h-7.861v-45.225h15.902c5.217,0,9.246,1.17,12.084,3.514
		c2.838,2.342,4.254,5.732,4.254,10.168c0,3.025-0.73,5.559-2.191,7.602c-1.459,2.041-3.494,3.611-6.102,4.707l10.158,18.836v0.402
		h-8.418L725.804,392.261z M717.046,385.923h8.076c2.645,0,4.719-0.67,6.211-2.004c1.492-1.336,2.232-3.162,2.232-5.48
		c0-2.422-0.686-4.297-2.063-5.621c-1.377-1.324-3.436-2.008-6.166-2.053h-8.295v15.158H717.046z"/>
	<path fill="#838694" d="M754.867,409.654v-45.225h13.354c3.998,0,7.543,0.891,10.639,2.674c3.094,1.777,5.492,4.305,7.188,7.58
		c1.701,3.272,2.549,7.02,2.549,11.244v2.266c0,4.287-0.854,8.057-2.563,11.311c-1.709,3.25-4.141,5.756-7.299,7.516
		c-3.158,1.762-6.779,2.639-10.859,2.639h-13.008V409.654z M762.722,370.765v32.555h5.125c4.119,0,7.283-1.283,9.486-3.857
		c2.205-2.572,3.332-6.266,3.369-11.084v-2.51c0-4.9-1.064-8.639-3.199-11.225c-2.133-2.584-5.231-3.875-9.291-3.875h-5.49V370.765z
		"/>
	<path fill="#838694" d="M826.042,398.007c0-1.988-0.701-3.52-2.098-4.596c-1.397-1.076-3.916-2.166-7.563-3.262
		s-6.547-2.318-8.701-3.666c-4.121-2.59-6.18-5.967-6.18-10.125c0-3.642,1.486-6.648,4.455-9.008
		c2.971-2.359,6.83-3.541,11.572-3.541c3.148,0,5.955,0.58,8.42,1.738c2.467,1.162,4.398,2.81,5.809,4.955
		c1.408,2.141,2.111,4.518,2.111,7.125h-7.826c0-2.342-0.742-4.172-2.221-5.496c-1.481-1.326-3.598-1.988-6.35-1.988
		c-2.568,0-4.563,0.547-5.982,1.639c-1.418,1.094-2.129,2.619-2.129,4.58c0,1.648,0.769,3.025,2.303,4.127
		c1.529,1.103,4.057,2.176,7.58,3.217c3.518,1.041,6.344,2.23,8.479,3.564c2.131,1.34,3.693,2.869,4.688,4.6
		c0.998,1.728,1.496,3.754,1.496,6.072c0,3.77-1.447,6.768-4.336,8.994c-2.889,2.225-6.809,3.338-11.758,3.338
		c-3.27,0-6.279-0.607-9.023-1.816c-2.746-1.211-4.879-2.885-6.398-5.016c-1.519-2.131-2.285-4.619-2.285-7.457h7.859
		c0,2.568,0.852,4.555,2.549,5.965c1.697,1.406,4.131,2.111,7.299,2.111c2.736,0,4.787-0.555,6.168-1.66
		C825.353,401.296,826.042,399.832,826.042,398.007z"/>
</g>
</svg>
