<?xml version="1.0" encoding="utf-8"?>
<!-- Generator: Adobe Illustrator 16.0.0, SVG Export Plug-In . SVG Version: 6.00 Build 0)  -->
<!DOCTYPE svg PUBLIC "-//W3C//DTD SVG 1.0//EN" "http://www.w3.org/TR/2001/REC-SVG-20010904/DTD/svg10.dtd">
<svg version="1.0" id="Layer_1" xmlns="http://www.w3.org/2000/svg" xmlns:xlink="http://www.w3.org/1999/xlink" x="0px" y="0px"
	 width="559.732px" height="101.767px" viewBox="0 0 559.732 101.767" enable-background="new 0 0 559.732 101.767"
	 xml:space="preserve">
<path fill-rule="evenodd" clip-rule="evenodd" fill="#E6007E" d="M48.56,36.861l-15.959,0.562
	c-0.147-7.334-0.238-9.479-0.496-11.872c-0.088-0.802-0.19-1.533-0.306-2.188c-0.286-1.599-1.035-4.13-1.53-5.185
	c-0.958-2.029-2.364-3.035-4.25-3.035c-2.015,0-3.43,1.168-4.376,3.614c-0.956,2.472-1.698,6.077-2.007,9.739
	c-0.539,6.415-0.848,13.882-0.924,22.388l-0.014,2.915c0.065,12.643,0.207,16.568,0.794,21.725c0.162,1.426,0.357,2.741,0.581,3.945
	c0.326,1.749,0.831,3.422,1.324,4.399c0.969,1.925,2.338,2.761,4.51,2.761c3.297,0,5.205-2.239,6.412-7.522
	c0.595-2.608,0.921-5.344,1.125-9.462c0.077-1.56,0.139-3.102,0.179-4.371l0.057-1.88l15.137,0.687
	c-0.167,7.415-0.329,10.389-0.746,13.691c-0.147,1.17-0.323,2.265-0.524,3.279c-0.638,3.212-1.956,7.163-3.22,9.66
	c-3.693,7.291-10.088,11.056-18.788,11.056C8.042,101.767,0,86.15,0,52.183C0,17.328,8.651,0,26.056,0
	c5.924,0,11.242,2.077,14.723,5.754c3.138,3.313,5.422,8.294,6.579,14.341c0.527,2.761,0.833,5.757,1.009,9.876
	C48.433,31.501,48.498,33.8,48.56,36.861"/>
<path fill-rule="evenodd" clip-rule="evenodd" fill="#E6007E" d="M74.166,0c17.516,0,25.787,16.324,25.787,50.901
	c0,34.821-8.246,50.865-26.139,50.865c-17.878,0-26.104-16.056-26.104-50.956c0-15.758,1.661-27.317,5.145-35.796
	c0.808-1.965,1.613-3.526,2.645-5.122C59.921,3.05,65.673,0,74.166,0 M80.422,40.572v20.622c0,18.771-1.729,25.435-6.596,25.435
	c-2.024,0-3.49-1.173-4.385-3.509c-1.559-4.07-2.2-10.443-2.2-21.926V40.572c0-14.511,1.049-21.456,3.674-24.293
	c0.666-0.721,1.729-1.137,2.908-1.137c2.041,0,3.5,1.162,4.399,3.503C79.781,22.708,80.422,29.097,80.422,40.572"/>
<path fill-rule="evenodd" clip-rule="evenodd" fill="#E6007E" d="M98.875,71.501h15.959c0.042,4.529,0.093,5.511,0.385,7.299
	c0.06,0.363,0.159,0.813,0.301,1.35c0.258,0.978,0.649,2.098,0.955,2.727c1.185,2.436,3.308,3.753,6.049,3.753
	c4.697,0,7.985-3.869,7.985-9.391c0-3.203-1.043-6.168-3.126-8.89c-2.319-3.027-3.997-4.632-10.049-9.595
	c-9.419-7.728-13.093-11.815-16.276-18.117c-1.959-3.878-3.005-8.772-3.005-14.057c0-16.115,9.204-26.578,23.38-26.578
	c10.792,0,18.159,6.163,20.954,17.53c0.504,2.055,0.867,4.441,1.131,7.478c0.094,1.077,0.207,2.692,0.343,4.847h-15.959
	c-0.022-3.421-0.065-4.702-0.204-6.034c-0.051-0.482-0.113-0.93-0.187-1.344c-0.212-1.177-0.765-2.971-1.182-3.838
	c-1.083-2.248-3.059-3.498-5.527-3.498c-4.085,0-6.803,3.407-6.797,8.523c0.003,3.246,1.015,6.202,3.05,8.909
	c2.279,3.033,3.895,4.604,9.964,9.691c9.504,7.969,13.249,12.235,16.489,18.786c1.925,3.889,2.962,8.756,2.962,13.884
	c0,16.226-9.779,26.83-24.746,26.83c-6.273,0-11.611-1.971-15.106-5.573c-3.118-3.215-5.479-7.807-6.593-12.818
	c-0.437-1.967-0.734-4.261-0.921-7.12C99.034,75.2,98.958,73.615,98.875,71.501"/>
<polyline fill-rule="evenodd" clip-rule="evenodd" fill="#E6007E" points="143.436,99.842 143.436,1.93 167.227,1.93 
	175.201,52.129 175.476,52.129 183.858,1.93 207.102,1.93 207.102,99.842 191.143,99.842 191.143,28.065 190.868,28.065 
	178.772,99.842 168.877,99.842 156.92,28.065 156.646,28.065 156.646,99.842 143.436,99.842 "/>
<path fill-rule="evenodd" clip-rule="evenodd" fill="#E6007E" d="M233.558,0c17.516,0,25.787,16.324,25.787,50.901
	c0,34.821-8.246,50.865-26.139,50.865c-17.878,0-26.104-16.056-26.104-50.956c0-15.758,1.661-27.317,5.145-35.796
	c0.808-1.965,1.613-3.526,2.645-5.122C219.313,3.05,225.065,0,233.558,0 M239.814,40.572v20.622c0,18.771-1.729,25.435-6.596,25.435
	c-2.024,0-3.49-1.173-4.385-3.509c-1.559-4.07-2.2-10.443-2.2-21.926V40.572c0-14.511,1.049-21.456,3.674-24.293
	c0.666-0.721,1.729-1.137,2.908-1.137c2.041,0,3.5,1.162,4.399,3.503C239.173,22.708,239.814,29.097,239.814,40.572"/>
<path fill-rule="evenodd" clip-rule="evenodd" fill="#E6007E" d="M259.089,99.842V1.93h17.887c21.282,0,30.813,9.082,30.813,29.361
	c0,19.214-8.178,29.358-23.661,29.358h-7.151v39.192H259.089 M277.115,17.067h1.375c4.391,0,6.664,0.623,8.215,2.25
	c2.214,2.324,3.197,6.12,3.197,12.334c0,10.712-3.066,14.715-11.276,14.715h-1.511V17.067"/>
<path fill-rule="evenodd" clip-rule="evenodd" fill="#E6007E" d="M332.998,0c17.515,0,25.786,16.324,25.786,50.901
	c0,34.821-8.246,50.865-26.138,50.865c-17.879,0-26.104-16.056-26.104-50.956c0-15.758,1.661-27.317,5.145-35.796
	c0.808-1.965,1.613-3.526,2.645-5.122C318.753,3.05,324.504,0,332.998,0 M339.253,40.572v20.622c0,18.771-1.729,25.435-6.597,25.435
	c-2.023,0-3.489-1.173-4.385-3.509c-1.56-4.07-2.2-10.443-2.2-21.926V40.572c0-14.511,1.049-21.456,3.674-24.293
	c0.666-0.721,1.729-1.137,2.908-1.137c2.041,0,3.501,1.162,4.399,3.503C338.613,22.708,339.253,29.097,339.253,40.572"/>
<polyline fill-rule="evenodd" clip-rule="evenodd" fill="#E6007E" points="359.209,99.842 359.209,1.93 377.095,1.93 
	377.095,84.702 399.923,84.702 399.923,99.842 359.209,99.842 "/>
<polyline fill-rule="evenodd" clip-rule="evenodd" fill="#E6007E" points="402.806,1.93 420.693,1.93 420.693,99.842 
	402.806,99.842 402.806,1.93 "/>
<polyline fill-rule="evenodd" clip-rule="evenodd" fill="#E6007E" points="439.089,99.842 439.089,17.067 423.686,17.067 
	423.686,1.93 472.379,1.93 472.379,17.067 456.976,17.067 456.976,99.842 439.089,99.842 "/>
<path fill-rule="evenodd" clip-rule="evenodd" fill="#E6007E" d="M460.579,99.842L474.333,1.93h25.853l12.101,97.912h-17.189
	l-2.613-21.745h-14.439l-2.475,21.745H460.579 M490.966,63.811h-11.141l5.645-46.743h0.274L490.966,63.811"/>
<polyline fill-rule="evenodd" clip-rule="evenodd" fill="#E6007E" points="511.316,99.842 511.316,1.93 528.792,1.93 545.17,53.634 
	545.445,53.634 545.445,1.93 559.732,1.93 559.732,99.842 545.856,99.842 526.728,40.572 526.454,40.572 526.454,99.842 
	511.316,99.842 "/>
</svg>
