<?xml version="1.0" encoding="utf-8"?>
<!-- Generator: Adobe Illustrator 16.0.0, SVG Export Plug-In . SVG Version: 6.00 Build 0)  -->
<!DOCTYPE svg PUBLIC "-//W3C//DTD SVG 1.1//EN" "http://www.w3.org/Graphics/SVG/1.1/DTD/svg11.dtd">
<svg version="1.1" id="Layer_1" xmlns="http://www.w3.org/2000/svg" xmlns:xlink="http://www.w3.org/1999/xlink" x="0px" y="0px"
	 width="100.232px" height="24px" viewBox="246.906 63 100.232 24" enable-background="new 246.906 63 100.232 24"
	 xml:space="preserve">
<g>
	<g>
		<defs>
			<rect id="SVGID_1_" x="246.906" y="63.37" width="101.464" height="24"/>
		</defs>
		<clipPath id="SVGID_2_">
			<use xlink:href="#SVGID_1_"  overflow="visible"/>
		</clipPath>
		<path clip-path="url(#SVGID_2_)" fill="#EC008C" d="M255.358,80.028h0.525c2.807,0,4.966-1.296,4.966-4.35
			c0-3.27-1.882-4.658-4.966-4.658h-0.525V80.028z M246.906,63.74h8.606c7.805,0,13.79,3.424,13.79,11.969
			c0,6.91-4.874,11.291-11.691,11.291h-10.705V63.74z"/>
	</g>
	<g>
		<defs>
			<rect id="SVGID_3_" x="246.906" y="63.37" width="101.464" height="24"/>
		</defs>
		<clipPath id="SVGID_4_">
			<use xlink:href="#SVGID_3_"  overflow="visible"/>
		</clipPath>
		<path clip-path="url(#SVGID_4_)" fill="#EC008C" d="M278.784,75.555c0,2.653,1.789,4.474,4.35,4.474c2.56,0,4.35-1.82,4.35-4.474
			c0-2.468-1.666-4.534-4.35-4.534C280.45,71.021,278.784,73.087,278.784,75.555z M295.997,75.432
			c0,7.466-5.769,11.938-12.864,11.938c-7.095,0-12.864-4.473-12.864-11.938c0-7.311,5.8-12.062,12.864-12.062
			C290.198,63.37,295.997,68.121,295.997,75.432z"/>
	</g>
	<g>
		<defs>
			<rect id="SVGID_5_" x="246.906" y="63.37" width="101.464" height="24"/>
		</defs>
		<clipPath id="SVGID_6_">
			<use xlink:href="#SVGID_5_"  overflow="visible"/>
		</clipPath>
		<polygon clip-path="url(#SVGID_6_)" fill="#EC008C" points="297.052,63.74 305.504,63.74 305.504,79.534 312.599,79.534 
			312.599,87 297.052,87 		"/>
	</g>
	<g>
		<defs>
			<rect id="SVGID_7_" x="246.906" y="63.37" width="101.464" height="24"/>
		</defs>
		<clipPath id="SVGID_8_">
			<use xlink:href="#SVGID_7_"  overflow="visible"/>
		</clipPath>
		<polygon clip-path="url(#SVGID_8_)" fill="#EC008C" points="314.055,63.74 322.507,63.74 322.507,79.534 329.603,79.534 
			329.603,87 314.055,87 		"/>
	</g>
	<g>
		<defs>
			<rect id="SVGID_9_" x="246.906" y="63.37" width="101.464" height="24"/>
		</defs>
		<clipPath id="SVGID_10_">
			<use xlink:href="#SVGID_9_"  overflow="visible"/>
		</clipPath>
		<path clip-path="url(#SVGID_10_)" fill="#EC008C" d="M333.594,63.74l2.591,6.077h0.247c0.247-0.741,0.463-1.48,0.771-2.19
			l1.665-3.887h9.502l-7.959,13.233V87h-8.268V76.974L324.03,63.74H333.594z"/>
	</g>
</g>
</svg>
