<?xml version="1.0" encoding="utf-8"?>
<!-- Generator: Adobe Illustrator 16.0.0, SVG Export Plug-In . SVG Version: 6.00 Build 0)  -->
<!DOCTYPE svg PUBLIC "-//W3C//DTD SVG 1.1//EN" "http://www.w3.org/Graphics/SVG/1.1/DTD/svg11.dtd">
<svg version="1.1" id="Layer_1" xmlns="http://www.w3.org/2000/svg" xmlns:xlink="http://www.w3.org/1999/xlink" x="0px" y="0px"
	 width="74.168px" height="30px" viewBox="-0.026 -1.06 74.168 30" enable-background="new -0.026 -1.06 74.168 30"
	 xml:space="preserve">
	<style>
		path {
			fill: #e3001b
		}
	</style>
<g>
	<g>
		<defs>
			<rect id="SVGID_1_" x="-0.026" y="-1.06" width="74.168" height="30"/>
		</defs>
		<clipPath id="SVGID_2_">
			<use xlink:href="#SVGID_1_"  overflow="visible"/>
		</clipPath>
		<path clip-path="url(#SVGID_2_)" d="M73.923,16.886c0,5.585-2.384,6.182-5.114,6.182v-0.816v-9.82v-1.474
			c2.572,0,2.824,1.787,2.824,4.424h0.218V6.219h-0.218c0,2.636-0.252,4.518-2.824,4.518V9.795V-0.651
			c2.73,0,4.925,0.439,4.925,6.149h0.219V-1.06h-9.788v0.219h1.756v24.097h-1.756v0.22h9.976v-6.59H73.923z M47.442,8.415v-9.256
			H49.2V-1.06h-6.401v0.219h1.757v24.097h-1.757v0.22h9.978v-6.59h-0.22c0,5.585-2.384,6.37-5.115,6.37V8.415L47.442,8.415z
			 M26.077,8.415v-9.256h1.757V-1.06h-6.4v0.219h1.757v24.097h-1.757v0.22h9.977v-6.59H31.19c0,5.585-2.384,6.37-5.114,6.37V8.415z
			 M9.888,16.949c0,5.584-2.447,6.181-5.177,6.181v-0.815v-9.821v-1.412c2.572,0,2.886,1.726,2.886,4.361h0.345V6.282H7.597
			c0,2.635-0.314,4.455-2.886,4.455V9.858V-0.684c2.73,0,4.958,0.439,4.958,6.149h0.344v-6.494H-0.026v0.345h1.85V23.13h-1.85v0.346
			h10.259v-6.526H9.888z"/>
	</g>
	<g>
		<defs>
			<rect id="SVGID_3_" x="-0.026" y="-1.06" width="74.168" height="30"/>
		</defs>
		<clipPath id="SVGID_4_">
			<use xlink:href="#SVGID_3_"  overflow="visible"/>
		</clipPath>
		<path clip-path="url(#SVGID_4_)" d="M71.022,28.856l0.428-0.872h1.792l0.439,0.872h0.439l-1.605-3.241h-0.336l-1.589,3.241H71.022
			z M72.346,26.169l0.715,1.437h-1.425L72.346,26.169z M64.33,25.598h-0.408v3.258h0.408V25.598z M57.654,28.856v-0.373h-2.117
			v-2.868h-0.402v3.241H57.654z M45.893,28.856l0.427-0.872h1.792l0.439,0.872h0.44l-1.606-3.241h-0.337l-1.588,3.241H45.893z
			 M47.215,26.169l0.716,1.437h-1.425L47.215,26.169z M37.064,28.856v-1.42h1.258l0.812,1.42h0.444l-0.811-1.426
			c0.461-0.077,0.769-0.45,0.769-0.914c0-0.559-0.384-0.902-1.015-0.902h-1.859v3.241H37.064L37.064,28.856z M37.064,25.988h1.45
			c0.385,0,0.602,0.199,0.602,0.541c0,0.344-0.21,0.53-0.619,0.53h-1.432L37.064,25.988L37.064,25.988z M29.126,28.856v-2.868h1.365
			v-0.373h-3.132v0.373h1.365v2.868H29.126z M18.49,28.37c0.499,0.384,1.039,0.57,1.688,0.57c0.428,0,0.771-0.096,1.036-0.288
			c0.264-0.198,0.396-0.445,0.396-0.752c0-0.512-0.414-0.89-1.07-0.962c-0.114-0.013-0.271-0.024-0.475-0.036
			c-0.439-0.03-0.728-0.09-0.86-0.192c-0.103-0.078-0.156-0.175-0.156-0.289c0-0.283,0.354-0.5,0.842-0.5
			c0.463,0,0.908,0.168,1.311,0.487l0.233-0.337c-0.475-0.342-1.004-0.528-1.551-0.528c-0.374,0-0.674,0.084-0.909,0.252
			c-0.234,0.168-0.348,0.385-0.348,0.644c0,0.29,0.156,0.523,0.462,0.667c0.192,0.091,0.554,0.151,1.089,0.188l0.247,0.018
			c0.476,0.042,0.758,0.259,0.758,0.578c0,0.402-0.41,0.679-1.01,0.679c-0.481,0-0.993-0.192-1.449-0.547L18.49,28.37z
			 M9.578,25.615v2.208c0,0.8,0.377,1.118,1.335,1.118c0.957,0,1.334-0.317,1.334-1.118v-2.208h-0.402v2.099
			c0,0.338-0.066,0.566-0.193,0.68c-0.126,0.114-0.373,0.168-0.74,0.168c-0.368,0-0.62-0.055-0.746-0.168s-0.187-0.342-0.187-0.68
			v-2.099H9.578L9.578,25.615z M0.406,28.856l0.427-0.872h1.792l0.439,0.872h0.439l-1.605-3.241H1.561l-1.587,3.241H0.406z
			 M1.729,26.169l0.716,1.437H1.02L1.729,26.169z"/>
	</g>
</g>
</svg>
