<?xml version="1.0" encoding="UTF-8" standalone="no"?>
<svg
   xmlns:dc="http://purl.org/dc/elements/1.1/"
   xmlns:cc="http://creativecommons.org/ns#"
   xmlns:rdf="http://www.w3.org/1999/02/22-rdf-syntax-ns#"
   xmlns:svg="http://www.w3.org/2000/svg"
   xmlns="http://www.w3.org/2000/svg"
   viewBox="0 0 524.53333 93.706665"
   height="93.706665"
   width="524.53333"
   xml:space="preserve"
   id="svg2"
   version="1.1">
   <metadata
     id="metadata8"><rdf:RDF><cc:Work
         rdf:about=""><dc:format>image/svg+xml</dc:format><dc:type
           rdf:resource="http://purl.org/dc/dcmitype/StillImage" /></cc:Work></rdf:RDF></metadata><defs
     id="defs6" /><g
     transform="matrix(1.3333333,0,0,-1.3333333,0,93.706667)"
     id="g10"><g
       transform="scale(0.1)"
       id="g12"><path
         id="path14"
         style="fill:#cce533;fill-opacity:1;fill-rule:nonzero;stroke:none"
         d="M 1908.2,424.238 V 683.137 H 1783.31 V 20.5547 H 1908.2 V 311.82 h 205.73 V 20.5547 h 124.89 V 683.137 H 2113.93 V 424.238 Z m 468.3,-115.82 c 1.6,51.098 23.22,106.453 76.86,106.453 56.83,0 76.84,-52.805 76.84,-106.453 z m 269.79,-79.199 c 3.2,221.422 -83.26,278.48 -196.13,278.48 -131.29,0 -196.94,-121.781 -196.94,-248.676 0,-126.046 66.45,-248.6792 196.94,-248.6792 84.85,0 170.5,53.6484 196.13,148.1912 l -109.68,21.285 c -8.81,-40.023 -32.02,-76.644 -74.44,-76.644 -60.84,0 -93.67,68.125 -89.67,126.043 z M 2945.67,20.5547 h 115.29 c -14.42,31.5234 -16.02,65.5781 -16.02,99.6483 v 236.762 c 0,89.418 -55.23,150.734 -176.11,150.734 -93.67,0 -157.72,-32.363 -184.13,-133.707 l 113.68,-18.738 c 6.4,41.734 33.61,59.617 71.25,59.617 44.02,0 64.83,-23.851 56.83,-90.273 -95.27,-11.075 -261.77,-38.325 -261.77,-172.879 0,-85.1682 63.23,-141.3752 140.9,-141.3752 56.83,0 83.25,20.4375 127.28,53.6484 z m -19.21,144.7893 c -22.42,-31.516 -56.04,-62.168 -104.87,-62.168 -28.02,0 -40.83,22.984 -40.83,51.09 0,69.839 96.87,74.953 145.7,84.32 z m 268.18,517.793 H 3076.15 V 20.5547 h 118.49 z m 188.91,-66.426 H 3265.08 V 497.477 h -55.24 V 392.73 h 55.24 V 158.535 c 0,-103.9061 60.84,-148.1912 134.49,-148.1912 25.62,0 51.23,6.8046 76.06,14.4687 v 96.2425 c -14.42,-9.367 -27.23,-17.879 -47.24,-17.879 -38.43,0 -44.84,23.836 -44.84,46.836 V 392.73 h 92.08 v 104.747 h -92.08 z m 240.16,66.426 H 3505.22 V 20.5547 h 118.49 V 354.402 c 22.41,25.555 49.63,51.95 84.05,51.95 51.24,0 48.84,-60.465 48.84,-98.786 V 20.5547 h 118.48 V 358.66 c 0,117.528 -68.85,149.039 -117.69,149.039 -49.63,0 -96.06,-26.398 -133.68,-59.617 v 235.055" /><path
         id="path16"
         style="fill:#6fcda2;fill-opacity:1;fill-rule:nonzero;stroke:none"
         d="m 428.883,248.285 c 4.805,-74.945 -12.809,-133.707 -109.672,-133.707 -107.273,0 -128.895,151.59 -128.895,236.754 0,85.16 9.911,235.988 128.895,236.758 77.648,0.512 107.269,-54.504 117.676,-118.379 l 112.074,17.887 C 536.156,613.637 441.688,692.852 319.211,692.852 141.488,692.852 62.2305,518.258 62.2305,351.332 62.2305,184.414 141.488,9.82422 319.211,9.82422 c 41.625,0 95.258,15.33208 130.48,57.06248 l 12.012,-46.8359 h 87.258 V 353.043 H 320.813 V 248.285 Z M 754.691,9.82422 c 130.485,0 196.934,122.64478 196.934,248.68378 0,126.89 -65.648,248.676 -196.934,248.676 -131.289,0 -196.937,-121.786 -196.937,-248.676 0,-126.039 66.449,-248.68378 196.937,-248.68378 m 0,92.83178 c -64.043,0 -75.25,96.235 -75.25,155.852 0,59.617 11.207,155.847 75.25,155.847 64.043,0 75.247,-96.23 75.247,-155.847 0,-59.617 -11.204,-155.852 -75.247,-155.852 M 1150.95,9.82422 c 130.49,0 196.94,122.64478 196.94,248.68378 0,126.89 -65.65,248.676 -196.94,248.676 -131.29,0 -196.934,-121.786 -196.934,-248.676 0,-126.039 66.444,-248.68378 196.934,-248.68378 m 0,92.83178 c -64.04,0 -75.25,96.235 -75.25,155.852 0,59.617 11.21,155.847 75.25,155.847 64.04,0 75.25,-96.23 75.25,-155.847 0,-59.617 -11.21,-155.852 -75.25,-155.852 m 513.14,-82.6052 h 95.27 V 680.727 l -118.49,1.902 V 450.121 c -33.61,31.516 -62.44,57.063 -110.47,57.063 -64.85,0 -164.12,-60.465 -164.12,-236.754 0,-200.9886 83.26,-260.60578 173.73,-260.60578 49.63,0 77.65,16.19138 113.67,50.24218 z M 1640.87,355.594 V 171.641 c -18.41,-29.805 -41.62,-54.512 -76.85,-54.512 -71.25,0 -81.65,91.98 -81.65,149.039 0,52.805 13.61,141.371 79.25,141.371 34.42,0 58.44,-25.543 79.25,-51.945" /><path
         id="path18"
         style="fill:none;stroke:#6fcda2;stroke-width:10;stroke-linecap:butt;stroke-linejoin:miter;stroke-miterlimit:4;stroke-dasharray:none;stroke-opacity:1"
         d="m 428.883,248.285 c 4.805,-74.945 -12.809,-133.707 -109.672,-133.707 -107.273,0 -128.895,151.59 -128.895,236.754 0,85.16 9.911,235.988 128.895,236.758 77.648,0.512 107.269,-54.504 117.676,-118.379 l 112.074,17.887 C 536.156,613.637 441.688,692.852 319.211,692.852 141.488,692.852 62.2305,518.258 62.2305,351.332 62.2305,184.414 141.488,9.82422 319.211,9.82422 c 41.625,0 95.258,15.33208 130.48,57.06248 l 12.012,-46.8359 h 87.258 V 353.043 H 320.813 V 248.285 Z M 754.691,9.82422 c 130.485,0 196.934,122.64478 196.934,248.68378 0,126.89 -65.648,248.676 -196.934,248.676 -131.289,0 -196.937,-121.786 -196.937,-248.676 0,-126.039 66.449,-248.68378 196.937,-248.68378 z m 0,92.83178 c -64.043,0 -75.25,96.235 -75.25,155.852 0,59.617 11.207,155.847 75.25,155.847 64.043,0 75.247,-96.23 75.247,-155.847 0,-59.617 -11.204,-155.852 -75.247,-155.852 z M 1150.95,9.82422 c 130.49,0 196.94,122.64478 196.94,248.68378 0,126.89 -65.65,248.676 -196.94,248.676 -131.29,0 -196.934,-121.786 -196.934,-248.676 0,-126.039 66.444,-248.68378 196.934,-248.68378 z m 0,92.83178 c -64.04,0 -75.25,96.235 -75.25,155.852 0,59.617 11.21,155.847 75.25,155.847 64.04,0 75.25,-96.23 75.25,-155.847 0,-59.617 -11.21,-155.852 -75.25,-155.852 z m 513.14,-82.6052 h 95.27 V 680.727 l -118.49,1.902 V 450.121 c -33.61,31.516 -62.44,57.063 -110.47,57.063 -64.85,0 -164.12,-60.465 -164.12,-236.754 0,-200.9886 83.26,-260.60578 173.73,-260.60578 49.63,0 77.65,16.19138 113.67,50.24218 z M 1640.87,355.594 V 171.641 c -18.41,-29.805 -41.62,-54.512 -76.85,-54.512 -71.25,0 -81.65,91.98 -81.65,149.039 0,52.805 13.61,141.371 79.25,141.371 34.42,0 58.44,-25.543 79.25,-51.945 z" /></g></g></svg>