<?xml version="1.0" encoding="utf-8"?>
<!-- Generator: Adobe Illustrator 20.1.0, SVG Export Plug-In . SVG Version: 6.00 Build 0)  -->
<svg version="1.1" id="Layer_1" xmlns="http://www.w3.org/2000/svg" xmlns:xlink="http://www.w3.org/1999/xlink" x="0px" y="0px"
	 viewBox="0 0 570 150.7" style="enable-background:new 0 0 570 150.7;" xml:space="preserve">
<g>
	<style>
		path {
			fill: #999999
		}
	</style>
	<path d="M564.4,73.1c1.6,0,2.5,0.9,2.5,2.2c0,1.3-0.9,2.2-2.5,2.2h-3v-4.3H564.4z M564.4,71.1H559v14.1h2.4v-5.7h1.7l3.9,5.7h2.7
		l-4.1-5.8c2.2-0.3,3.6-1.7,3.6-4.1C569.2,72.5,567.4,71.1,564.4,71.1 M526,146.5h-7.9v2.7h36.2v-2.7l-9.1,0l-0.1-56.9h-19.1
		L526,146.5z M544.5,83V79h6.2v-2.1h-6.2v-3.7h6.9v-2.1h-9.2v14.1h9.2V83H544.5z M526.1,71.1v14.1h9.2V83h-6.8v-12H526.1z
		 M512.6,71.1h-2.4v14.1h9.2V83h-6.8V71.1z M434.4,146.5h-7.2v2.7h69.1v-47.2h-1.8l0,0.8c-1.1,40.6-11.1,43.8-24.1,43.8h-16.5V89.7
		h-19.4V146.5z M464.7,66.5h11.2V35.9H474l0,0.8C473.2,57.4,471.6,65.3,464.7,66.5 M467.1,79.2h-3.9l1.9-5.2L467.1,79.2z
		 M471.7,85.2l-5.4-14.1H464l-5.4,14.1h2.4l1.5-3.9h5.4l1.4,3.9H471.7z M477.7,71.1h-2.5l5.3,14.1h2.3l5.3-14.1h-2.4l-4,11
		L477.7,71.1z M447.8,77.4h-3v-4.3h3c1.6,0,2.5,0.9,2.5,2.2C450.3,76.6,449.4,77.4,447.8,77.4 M453.1,85.2l-4.1-5.8
		c2.2-0.3,3.6-1.7,3.6-4.1c0-2.8-1.9-4.2-4.8-4.2h-5.5v14.1h2.4v-5.7h1.7l3.9,5.7H453.1z M67.7,95.3h6.6v-2.6H41.5v2.6h10.4v7.7
		c0,21.1-1,43.7-13.2,43.7c-15,0-17.4-19.4-17.4-66c0-4.7-0.1-9.6-0.2-14.7c-0.4-23.4-0.9-49.8,8.4-59.3c2.5-2.6,5.6-3.7,9.4-3.7
		c10.1,0,17.4,14.4,21.1,41.7l0.1,0.7H63v-42H60l-0.1,0.6c-0.7,3.3-1.2,3.6-2.4,3.6c-1.2,0-3.1-1.1-5.3-2.5c-3.7-2.2-8.2-5-13.4-5
		C20.4,0,0,30.9,0,75.1c0,40.1,17.7,74,38.7,74c7.5,0,12.2-4.3,15.9-7.7c2.6-2.4,4.8-4.4,7.2-4.4c1.4,0,3.4,1.2,3.6,3.9l0.1,0.7h2.2
		V95.3z M139.2,73.3c0,2.4,0,4.7,0,7c0,28.9,0.1,53.9-8.8,62.7c-2.4,2.4-5.4,3.6-9.2,3.6c-14.2,0-18.1-15.3-18.1-71.3v-0.5
		c0-20.9,0-39,2.3-52c2.5-13.9,7.5-20.4,15.8-20.4c3.8,0,6.8,1.2,9.3,3.7c8.9,8.9,8.8,33.4,8.7,59.3C139.2,68,139.2,70.7,139.2,73.3
		 M159.9,74.5c0-46.6-19.7-74.5-38.7-74.5c-18.3,0-38.8,30.8-38.8,75.1c0,40.2,17.8,74.1,38.8,74.1
		C141.8,149.2,159.9,114.3,159.9,74.5 M231.4,2.8h9.6V0.2h-22.2v2.6h10v96.3c0,31.5-7.3,47.5-21.8,47.5c-6.3,0-10.2-4.8-12.3-15.2
		c-1.8-9.4-1.8-21.9-1.8-34V2.8h7.4V0.2h-35.6v0.1h-0.1l0,2.5h9.6l0,95.7c0,23.6,3.6,50.7,31.6,50.7c11,0,18.6-6.9,22.5-20.4
		c3.1-10.8,3.1-23.2,3.1-29.9V2.8z M277.4,68.4h-3.5l0.1-65.6h4.4c10.1,0,12,12.3,12,35.1C290.3,52.7,289.3,68.4,277.4,68.4
		 M322.8,141.8l0.2-0.5l-1.5-1.7l-0.5,1c-0.2,0.3-0.4,0.7-0.6,1.1c-1.2,2.5-3.1,6.3-5.1,6.3c-3.5,0-3.7-6.5-4.4-28
		c-0.1-4.1-0.3-8.7-0.5-14c-1.1-28.3-9.9-33-22.4-37.4c9.7-2.5,20.1-12.4,20.1-33c0-32.7-20.1-35.4-26.5-35.4l-34.4,0v2.6h7.9
		l0,143.8h-7.9l0,2.7h36.3v-2.7h-9.7V71.4h6.2c12.3,0,12.8,21.1,13.4,43.4c0.3,13.7,0.8,34.3,17.1,35.8c0.7,0.1,1.3,0.1,1.9,0.1
		c6.1,0,7.7-3.2,9.8-7.5C322.4,142.7,322.6,142.3,322.8,141.8 M418.2,146.5l-8.2,0l0-143.8h8V0L391,0l-17.9,98.6L355.8,0.7L355.7,0
		H326l0,2.6h10.4v143.9h-10.3l0,2.7h22.7l-0.1-2.7H339V11.1l25.5,137.5l0.1,0.6h2.3l24.7-137.8l0,135.2H382l0,2.7h36.2L418.2,146.5z
		 M435.7,71.1h-11.8v2.1h4.7v12h2v-12h5.1V71.1z M490.2,39.5h1.8V0h-64.7v2.6h7.2l0,63.8h19.4l0-63.8l16.5,0c14,0,18,12.9,19.7,36.1
		L490.2,39.5z M503.1,71.1h-9.2v14.1h9.2V83h-6.9V79h6.2v-2.1h-6.2v-3.7h6.9V71.1z M570,39.6V0.2h-67.6v39.3h1.8l0.1-0.7
		c3-36,10.7-36,20.4-36h1.4l0,63.6h19.5V2.9l1.9,0c9.5,0,17.8,0,20.6,36l0.1,0.7H570z"/>
</g>
</svg>
