<?xml version="1.0" encoding="utf-8"?>
<!-- Generator: Adobe Illustrator 16.0.0, SVG Export Plug-In . SVG Version: 6.00 Build 0)  -->
<!DOCTYPE svg PUBLIC "-//W3C//DTD SVG 1.1//EN" "http://www.w3.org/Graphics/SVG/1.1/DTD/svg11.dtd">
<svg version="1.1" id="Layer_1" xmlns="http://www.w3.org/2000/svg" xmlns:xlink="http://www.w3.org/1999/xlink" x="0px" y="0px"
	 width="100.445px" height="31px" viewBox="0 -11.735 100.445 31" enable-background="new 0 -11.735 100.445 31"
	 xml:space="preserve">
	 <style>
		path {
			fill: #999999
		}
	</style>
<g>
	<g>
		<g>
			<path d="M62.482-9.148c0,0.009,0.008,0.013,0.024,0.013h0.337c0.008,0,0.008,0.053,0,0.053h-1.149c-0.008,0-0.008-0.053,0-0.053
				h0.3c0.017,0,0.023-0.004,0.023-0.013v-1.164h-1.098v1.164c0,0.009,0.008,0.013,0.024,0.013h0.3c0.008,0,0.008,0.053,0,0.053
				h-1.15c-0.007,0-0.007-0.053,0-0.053h0.337c0.017,0,0.024-0.004,0.024-0.013v-2.285c0-0.009-0.007-0.013-0.024-0.013h-0.337
				c-0.007,0-0.007-0.053,0-0.053h1.15c0.008,0,0.008,0.053,0,0.053h-0.3c-0.016,0-0.024,0.004-0.024,0.013v1.066h1.098v-1.066
				c0-0.009-0.007-0.013-0.023-0.013h-0.3c-0.008,0-0.008-0.053,0-0.053h1.149c0.009,0,0.009,0.053,0,0.053h-0.336
				c-0.016,0-0.024,0.004-0.024,0.013V-9.148L62.482-9.148z"/>
			<path d="M65.675-10.14c-0.105,0-0.177-0.05-0.177-0.132c0-0.074,0.045-0.072,0.045-0.126c0-0.056-0.036-0.081-0.094-0.081
				s-0.163,0.019-0.243,0.262v1.069c0,0.009,0.007,0.013,0.024,0.013h0.206c0.008,0,0.008,0.053,0,0.053h-0.809
				c-0.009,0-0.009-0.053,0-0.053h0.206c0.016,0,0.024-0.004,0.024-0.013v-1.32c0-0.009-0.008-0.013-0.024-0.013h-0.206
				c-0.009,0-0.009-0.053,0-0.053h0.568c0.008,0,0.011,0.004,0.011,0.009v0.226c0.06-0.187,0.191-0.266,0.346-0.266
				c0.187,0,0.31,0.099,0.31,0.251C65.863-10.217,65.788-10.14,65.675-10.14L65.675-10.14z"/>
			<path d="M68.903-10.432c0.079,0.089,0.104,0.228,0.111,0.505h-0.69c0.009-0.277,0.043-0.416,0.144-0.505
				c0.067-0.06,0.146-0.078,0.244-0.078C68.795-10.51,68.85-10.492,68.903-10.432L68.903-10.432z M68.711-9.051
				c0.263,0,0.474-0.128,0.617-0.323c0.003-0.006-0.039-0.038-0.041-0.034c-0.132,0.188-0.31,0.304-0.576,0.304
				c-0.098,0-0.177-0.019-0.244-0.079c-0.111-0.099-0.145-0.214-0.145-0.624c0-0.03,0-0.039,0-0.066h1.035
				c0.006,0,0.01-0.002,0.01-0.01c0-0.275-0.19-0.681-0.657-0.681c-0.432,0-0.756,0.338-0.756,0.757
				C67.956-9.391,68.28-9.051,68.711-9.051L68.711-9.051z"/>
			<path d="M63.125-10.269c0-0.121,0.151-0.296,0.444-0.296c0.432,0,0.644,0.19,0.644,0.617v0.693c0,0.081,0.04,0.115,0.097,0.115
				c0.067,0,0.12-0.055,0.134-0.088c0.002-0.007,0.039,0.028,0.035,0.035c-0.022,0.061-0.132,0.142-0.272,0.142
				c-0.16,0-0.299-0.093-0.324-0.221c-0.051,0.145-0.191,0.221-0.391,0.221c-0.333,0-0.547-0.116-0.547-0.357
				c0-0.357,0.381-0.44,0.528-0.452c0.206-0.017,0.391-0.031,0.391-0.104v-0.199c0-0.243-0.107-0.347-0.294-0.347
				c-0.094,0-0.151,0.043-0.151,0.143c0,0.057,0.03,0.076,0.03,0.131c0,0.062-0.05,0.122-0.168,0.122
				C63.168-10.114,63.125-10.192,63.125-10.269L63.125-10.269z M63.56-9.118c0.185,0,0.305-0.132,0.305-0.258V-9.88
				c-0.085,0.05-0.212,0.05-0.321,0.069c-0.124,0.022-0.256,0.088-0.256,0.402C63.287-9.17,63.443-9.118,63.56-9.118L63.56-9.118z"
				/>
			<path d="M67.703-9.799c0,0.378-0.32,0.748-0.765,0.748c-0.136,0-0.24-0.086-0.319-0.168v1.126c0,0.008,0.008,0.013,0.024,0.013
				h0.205c0.009,0,0.009,0.054,0,0.054H66.04c-0.008,0-0.008-0.054,0-0.054h0.206c0.016,0,0.024-0.005,0.024-0.013v-2.374
				c0-0.009-0.008-0.013-0.024-0.013H66.04c-0.008,0-0.008-0.053,0-0.053h0.569c0.008,0,0.01,0.004,0.01,0.01v0.129
				c0.08-0.083,0.184-0.17,0.319-0.17C67.383-10.564,67.703-10.177,67.703-9.799L67.703-9.799z M67.176-10.434
				c-0.063-0.059-0.147-0.077-0.238-0.077c-0.125,0-0.24,0.082-0.319,0.176v1.015c0.048,0.121,0.186,0.213,0.319,0.213
				c0.09,0,0.175-0.018,0.238-0.077C67.28-9.28,67.35-9.45,67.35-9.799S67.28-10.337,67.176-10.434L67.176-10.434z"/>
			<path d="M72.12-10.522c0.038,0,0.059-0.017,0.063-0.033c0.002-0.005,0.059-0.004,0.059,0v0.361c0,0.007-0.059,0.007-0.059,0
				c0-0.21-0.188-0.316-0.365-0.316c-0.185,0-0.273,0.083-0.273,0.213c0,0.167,0.12,0.253,0.395,0.33
				c0.286,0.08,0.475,0.22,0.475,0.439c0,0.275-0.223,0.477-0.58,0.477c-0.213,0-0.305-0.1-0.415-0.1
				c-0.069,0-0.106,0.047-0.115,0.074c-0.003,0.008-0.059,0.007-0.059,0l0.02-0.479c0-0.006,0.059-0.006,0.059,0
				c-0.009,0.252,0.225,0.452,0.51,0.452c0.214,0,0.336-0.099,0.336-0.281c0-0.184-0.144-0.256-0.407-0.336
				c-0.255-0.078-0.436-0.182-0.436-0.408c0-0.268,0.261-0.435,0.491-0.435C71.968-10.564,71.981-10.522,72.12-10.522L72.12-10.522z
				"/>
			<path d="M71.052-11.028c0-0.098,0.083-0.177,0.186-0.177c0.11,0,0.193,0.08,0.193,0.198c0,0.174-0.158,0.378-0.373,0.506
				c-0.006,0.004-0.04-0.035-0.035-0.038c0.156-0.09,0.268-0.202,0.334-0.359c-0.029,0.032-0.067,0.046-0.119,0.046
				C71.135-10.851,71.052-10.931,71.052-11.028L71.052-11.028z"/>
			<path d="M70.586-10.14c-0.106,0-0.178-0.05-0.178-0.132c0-0.074,0.045-0.072,0.045-0.126c0-0.056-0.036-0.081-0.093-0.081
				c-0.059,0-0.164,0.019-0.244,0.262v1.069c0,0.009,0.008,0.013,0.024,0.013h0.207c0.008,0,0.008,0.053,0,0.053h-0.81
				c-0.008,0-0.008-0.053,0-0.053h0.207c0.016,0,0.024-0.004,0.024-0.013v-1.32c0-0.009-0.008-0.013-0.024-0.013h-0.207
				c-0.008,0-0.008-0.053,0-0.053h0.569c0.009,0,0.01,0.004,0.01,0.009v0.226c0.061-0.187,0.191-0.266,0.347-0.266
				c0.187,0,0.31,0.099,0.31,0.251C70.773-10.217,70.699-10.14,70.586-10.14L70.586-10.14z"/>
		</g>
		<g>
			<path d="M22.563-6.39l3.131,11.411h-6.064L22.563-6.39L22.563-6.39z M17.885,11.171c-0.195,0.784-0.223,0.863-0.421,0.863h-2.231
				v0.153h5.056v-0.153h-2.314c-0.15,0-0.125-0.106,0.058-0.823l1.555-6.039h6.156l1.88,6.861H25.12v0.153h8.413v-0.153h-2.616
				l-6.976-24.195h-0.042L17.885,11.171L17.885,11.171z"/>
			<path d="M38.295,11.914c-0.025,0.055,0.004,0.121,0.122,0.121l5.522,0.001c1.7,0,3.895-2.514,3.895-10.616V0.576h0.153v11.613
				H34.802l9.989-23.415c0.024-0.055-0.004-0.12-0.122-0.12l-5.863,0.001c-1.539,0-3.773,2.81-3.773,10.616v0.844h-0.153v-11.613
				h13.415L38.295,11.914L38.295,11.914z"/>
			<path d="M88.702-11.344h2.078c3.2,0,4.105,2.434,4.105,5.653c0,3.015-0.904,5.653-4.105,5.653h-2.078V-11.344L88.702-11.344z
				 M88.702,0.116h1.924c1.706,0,4.219,0.734,4.219,3.718v5.402c0,2.21,1.221,3.604,3.374,3.604c2.261,0,2.226-2.285,2.226-3.933
				V7.171h-0.153v1.736c0,1.875-0.222,3.501-1.326,3.501c-0.977,0-1.188-0.605-1.188-3.148V3.834c0-2.511-2.035-3.431-5.177-3.795
				c3.915-0.466,5.388-2.966,5.388-5.729c0-4.088-1.888-5.807-6.749-5.807l-7.708-0.001v0.153h2.024
				c0.146,0,0.215,0.041,0.215,0.124V11.91c0,0.083-0.068,0.125-0.215,0.125h-2.024v0.153h7.086v-0.153h-1.701
				c-0.147,0-0.215-0.042-0.215-0.125V0.116L88.702,0.116z"/>
			<path d="M88.917-11.345c-0.147,0-0.215,0.041-0.215,0.124"/>
			<path d="M6.589-0.113c3.609,0,5.039,2.459,5.039,6.189c0,3.219-1.277,5.959-4.272,5.959l-2.008-0.001
				c-0.147,0-0.215-0.042-0.215-0.125V-0.116L6.589-0.113L6.589-0.113z M-0.038-11.499v0.153h2.024c0.146,0,0.214,0.041,0.214,0.124
				V11.91c0,0.083-0.068,0.125-0.214,0.125h-2.024v0.153l7.547,0.001c4.861,0,7.455-2.025,7.455-6.113
				c0-2.83-1.533-5.71-6.372-6.285c4.11-0.384,5.528-2.966,5.528-5.482c0-3.679-2.21-5.807-7.072-5.807L-0.038-11.499L-0.038-11.499
				z M6.589-11.344c3.2,0,4.503,2.434,4.503,5.653c0,3.015-1.304,5.423-4.503,5.423H5.133v-11.077H6.589L6.589-11.344z"/>
			<path d="M56.428-6.39L59.56,5.021h-6.064L56.428-6.39L56.428-6.39z M51.752,11.171c-0.197,0.784-0.224,0.863-0.421,0.863h-2.233
				v0.153h5.056v-0.153h-2.314c-0.15,0-0.125-0.106,0.057-0.823l1.556-6.039h6.156l1.878,6.861h-2.501v0.153h8.413v-0.153h-2.616
				l-6.977-24.195h-0.042L51.752,11.171L51.752,11.171z"/>
			<path d="M72.985-6.39l3.132,11.411h-6.064L72.985-6.39L72.985-6.39z M68.309,11.171c-0.195,0.784-0.223,0.863-0.421,0.863h-2.233
				v0.153h5.056v-0.153h-2.314c-0.149,0-0.125-0.106,0.057-0.823l1.556-6.039h6.156l1.878,6.861h-2.5v0.153h8.413v-0.153H81.34
				l-6.976-24.195h-0.042L68.309,11.171L68.309,11.171z"/>
		</g>
	</g>
</g>
</svg>
