<?xml version="1.0" encoding="utf-8"?>
<!-- Generator: Adobe Illustrator 20.1.0, SVG Export Plug-In . SVG Version: 6.00 Build 0)  -->
<svg version="1.1" id="Layer_1" xmlns="http://www.w3.org/2000/svg" xmlns:xlink="http://www.w3.org/1999/xlink" x="0px" y="0px"
	 viewBox="0 0 698.7 61.9" style="enable-background:new 0 0 698.7 61.9;" xml:space="preserve">
<style type="text/css">
	.st0{fill:#777;}
	.st1{fill:#3FC1CA;}
</style>
<g>
	<path class="st0" d="M318.5,60.9V7.8h-18.8V3.4h42.6v4.5h-18.8v53.1H318.5z"/>
	<path class="st0" d="M356.4,32.2c0-16.8,11-29.8,28-29.8c16.8,0,28,12.9,28,29.8s-11.1,29.8-28,29.8
		C367.5,61.9,356.4,49,356.4,32.2z M407.1,32.2c0-14.6-9-25.3-22.8-25.3c-13.9,0-22.8,10.7-22.8,25.3c0,14.5,8.9,25.3,22.8,25.3
		C398.2,57.4,407.1,46.7,407.1,32.2z"/>
	<path class="st0" d="M466.3,60.9V3.4h5v53.1h27.9v4.5H466.3z"/>
	<path class="st0" d="M514,32.2c0-16.8,11-29.8,28-29.8c16.8,0,28,12.9,28,29.8s-11.1,29.8-28,29.8C525,61.9,514,49,514,32.2z
		 M564.7,32.2c0-14.6-9-25.3-22.8-25.3c-13.9,0-22.8,10.7-22.8,25.3c0,14.5,8.9,25.3,22.8,25.3C555.7,57.4,564.7,46.7,564.7,32.2z"
		/>
	<path class="st0" d="M608.3,60.9L584.8,3.4h5.7l21,52l20.9-52h5.7l-23.6,57.5H608.3z"/>
	<path class="st0" d="M656.8,60.9V3.4h36.5v4.5h-31.6v21.3h31v4.5h-31v22.8h31.6v4.5H656.8z"/>
</g>
<path class="st1" d="M196.9,60.8l16.6-36.1l17.4,36.1h12.4l16.2-37.6c2.3-5.4,4.1-8.9,5.5-10.4c1.4-1.5,3.3-2.3,5.9-2.3V3.1h-25v7.3
	c5.4,0,8.2,1.2,8.2,3.6c0,0.7-0.3,1.7-0.8,3l-9.1,22.3L227,3.1h-12l-16.8,36.2l-9-21.2c-1-2.5-1.5-4.2-1.5-5c0-1.7,2.4-2.6,7.2-2.6
	V3.1h-38.6v7.3c2.4,0,4.2,0.5,5.4,1.4c1.2,0.9,2.8,3.6,4.7,8l18.1,41H196.9z M114.9,12.6c2.2-2.6,4.8-4,7.8-4c3.8,0,6.7,1.6,8.4,4.7
	c1.8,3.1,2.7,9,2.7,17.8c0,9.6-1,15.9-3,18.8c-2,2.9-4.7,4.4-8,4.4c-4.1,0-7-1.8-8.7-5.3c-1.7-3.5-2.5-9.7-2.5-18.5
	C111.6,21.2,112.7,15.2,114.9,12.6 M97.8,53.9c6.9,5.3,15.1,7.9,24.7,7.9c9.8,0,18.1-2.8,25-8.3c6.9-5.5,10.3-13,10.3-22.3
	c0-9.8-3.5-17.4-10.5-22.6c-7-5.2-15.3-7.8-24.8-7.8c-9.7,0-18,2.7-24.8,8.1c-6.8,5.4-10.3,12.8-10.3,22.3
	C87.5,41.1,90.9,48.7,97.8,53.9 M42.8,14.7c2.1-1.3,4.1-2,6-2c2,0,3.5,0.7,4.5,2.1c1.1,1.4,1.6,4,1.6,7.7v20.7c0,3.9-0.7,6.4-2,7.4
	c-1.3,1-3,1.6-5,1.7v7.3h39.2v-7.3c-3.8,0-6.3-0.6-7.5-1.9c-1.1-1.3-1.7-3.7-1.7-7.1V20.8c0-6.2-1.9-11.1-5.6-14.7
	c-3.8-3.6-8.9-5.3-15.5-5.3c-3.7,0-7.2,0.8-10.6,2.4c-3.4,1.6-6.6,4.1-9.7,7.4c-0.1-3.7-0.6-6.5-1.4-8.3l-31.2,5v7.3
	c4.1,0,6.7,0.7,7.8,2c1.1,1.3,1.7,3.7,1.7,7.2v19.3c0,3.5-0.6,5.9-1.7,7.1c-1.1,1.3-3.7,1.9-7.8,1.9v7.3h39.4v-7.3
	c-2.5,0-4.3-0.8-5.3-2.1c-1-1.4-1.5-3.7-1.5-6.9V20.8C38.6,18.1,40.7,16.1,42.8,14.7"/>
</svg>
