<?xml version="1.0" standalone="no"?>
<!DOCTYPE svg PUBLIC "-//W3C//DTD SVG 20010904//EN"
 "http://www.w3.org/TR/2001/REC-SVG-20010904/DTD/svg10.dtd">
<svg version="1.0" xmlns="http://www.w3.org/2000/svg"
 width="510.000000pt" height="510.000000pt" viewBox="0 0 510.000000 510.000000"
 preserveAspectRatio="xMidYMid meet">
<metadata>
Created by potrace 1.11, written by Peter Selinger 2001-2013
</metadata>
<g transform="translate(0.000000,510.000000) scale(0.100000,-0.100000)"
fill="#000000" stroke="none">
<path d="M1905 4814 c-236 -110 -490 -168 -787 -181 -116 -5 -148 -9 -148 -20
0 -7 8 -16 18 -19 51 -18 141 -64 170 -89 18 -15 43 -46 55 -69 l22 -41 3
-1190 c2 -784 -1 -1230 -8 -1308 -17 -188 -52 -265 -146 -318 -36 -21 -54 -37
-54 -50 0 -18 16 -19 580 -19 l580 0 0 24 c0 17 -7 26 -26 30 -71 18 -131 95
-161 206 -16 60 -18 174 -23 1571 l-5 1505 -70 -32z"/>
<path d="M2518 3760 c-210 -36 -413 -185 -510 -374 l-20 -40 31 31 c65 66 185
101 281 83 104 -20 171 -76 212 -177 l23 -58 6 -825 c5 -691 8 -837 21 -900
83 -396 184 -589 400 -756 176 -137 376 -204 609 -204 135 0 208 14 305 60 70
34 156 98 114 86 -223 -66 -445 23 -572 230 -47 76 -90 205 -119 354 -23 113
-23 133 -29 1045 -6 1011 -4 963 -63 1096 -54 121 -162 230 -290 296 -108 54
-265 75 -399 53z"/>
</g>
</svg>
