<?xml version="1.0" encoding="UTF-8" standalone="no"?>
<!-- Generator: Adobe Illustrator 16.0.3, SVG Export Plug-In . SVG Version: 6.00 Build 0)  -->
<!DOCTYPE svg  PUBLIC '-//W3C//DTD SVG 1.1//EN'  'http://www.w3.org/Graphics/SVG/1.1/DTD/svg11.dtd'>
<svg xmlns="http://www.w3.org/2000/svg" xml:space="preserve" height="25.625px" width="370.21px" version="1.1" y="0px" x="0px" xmlns:xlink="http://www.w3.org/1999/xlink" viewBox="11 6.5 370.208 25.625" enable-background="new 11 6.5 370.208 25.625">
<g id="simple_icon">
		<path d="m11.259 20.214c-0.1 0.124 0.029-0.004 0 0" fill="#49BF5C"/>
		<path d="m39.874 20.056c-0.774-0.181-6.064-5.481-6.292-5.191 0.008-0.093 0.161 0.087 0.167-0.077-0.902-0.521-1.511-1.389-2.325-2.021-0.388-0.302-1.817-1.023-1.593-1.468-0.123-0.089-0.776-0.069-0.611-0.365-0.253 0.09-1.26-0.611-1.547-0.794-0.199-0.127-1.623-0.982-1.523-1.272 0.12-0.005 0.215 0.041 0.286 0.137-0.448-0.323-0.882-0.664-1.293-1.033 0.014 0.443-0.462 1.442-0.911 1.599-0.232 0.078-0.313 0.115-0.437 0.338-0.156 0.282-0.512 0.217-0.688 0.471 0.292 0.071-0.808 0.791-0.913 0.876-0.314 0.257-0.484 0.603-0.729 0.918-0.025 0.033-0.923 0.61-0.621 0.489-0.349 0.471-0.866 0.776-1.29 1.171-0.332 0.309-1.134 0.73-1.217 1.203-0.132-0.065-0.463-0.25-0.328-0.458 0 0.179 0.152 0.458-0.031 0.604 0.096-0.231-0.286 0.324-0.273 0.474-0.086-0.037-0.028-0.255-0.177-0.188 0.121 0.08-0.083 0.205 0.085 0.259-0.105 0.011-0.758 0.298-0.447 0.354-0.034-0.008-0.493 0.374-0.443 0.231-0.066 0.115-0.118 0.237-0.154 0.365 0.084-0.151-0.5 0.222-0.564 0.229 0.007-0.397-0.093 0.04-0.167-0.255-0.167 0.069-0.036 0.437 0.069 0.503-0.111 0.146-0.178-0.083-0.302-0.008-0.124 0.076 0.155 0.181-0.032 0.392 0.05-0.174-0.024-0.28-0.208-0.276-0.045 0.011 0.065 0.275-0.093 0.315 0.336-0.051-0.06 0.292-0.182 0.311-0.034-0.102 0.228-0.131 0.093-0.234-0.15 0.252-0.369 0.548-0.664 0.639 0.167-0.052 0.269-0.277 0.308-0.43 0.089-0.356-0.31-0.044-0.336-0.121 0.177 0.195-0.393 0.979-0.609 0.929 0.093-0.054 0.167-0.035 0.224 0.056-0.075 0.051-0.257-0.111-0.229 0.081 0.184-0.623-0.65 0.221-0.693 0.259-0.135 0.143-0.854 0.315-0.701 0.616-0.073-0.184-0.852 0.318-0.851 0.507 0.003-0.044 0.009-0.429 0.07-0.424 0.093 0.006 0.079 0.237 0.168 0.274-0.007-0.003 0.328-1.256 0.586-0.613 0.501-1.145 1.559-1.861 2.472-2.65 1.093-0.944 2.165-1.926 3.234-2.898 1.085-0.985 2.035-2.106 3.146-3.062 0.905-0.778 2.022-1.468 2.647-2.506 0.522-0.868 0.979-1.424 1.991-0.81 0.547 0.332 0.832 0.832 1.279 1.263 0.45 0.433 1.013 0.73 1.53 1.073 2.384 1.582 4.446 3.581 6.6 5.449-0.075-0.044-0.102-0.025-0.081 0.058 1.087-0.021 1.564 1.233 2.226 1.876 0.465 0.451 1.011 0.819 1.417 1.329 0.458 0.575 0.951 1.135 1.551 1.566-0.208 0.073-0.405 0.054-0.594-0.06" fill="#49BF5C"/>
		<path d="m11.38 20.09c0.078-0.019 0.127 0.01 0.147 0.086-0.049-0.029-0.098-0.058-0.147-0.086" fill="#49BF5C"/>
		<path d="m13.762 18.737c0.024 0.037 0.016 0.102 0 0" fill="#49BF5C"/>
		<path d="m14.298 18.31c0.025 0.045-0.059 0.171-0.119 0.232l0.119-0.232z" fill="#49BF5C"/>
		<path d="m14.913 18.045c0.091-0.006 0.027 0.149 0 0" fill="#49BF5C"/>
		<path d="m14.872 17.93c0.23-0.21 0.064 0.112 0 0" fill="#49BF5C"/>
		<path d="m16.009 17.127c0.019-0.051 0.055-0.078 0.109-0.081-0.024 0.045-0.06 0.072-0.109 0.081" fill="#49BF5C"/>
		<path d="m16.445 16.647c0.062-0.04 0.105-0.007 0 0 0.017-0.011 0 0 0 0z" fill="#49BF5C"/>
		<path d="m25.046 8.52c-0.051 0.09-0.045 0.079 0 0z" fill="#49BF5C"/>
		<path d="m27.909 10.355s0.101 0.071 0 0" fill="#49BF5C"/>
		<path d="m30.191 11.944c0.025-0.049 0.069-0.136 0 0z" fill="#49BF5C"/>
		<path d="m15.601 16.809c-0.037-0.132-0.059 0.046 0 0" fill="#49BF5C"/>
		<path d="m22.042 31.563c-0.35 0.299-0.844 0.186-1.239 0.063-0.619-0.193-1.11-0.22-1.757-0.194-1.167 0.045-2.232-0.15-3.385-0.161-0.828-0.007-0.677-0.256-0.779-0.883-0.038-0.234-0.163-1.953-0.073-1.948 0.236 0.012-0.108-0.799 0.039-1.114 0.128-0.275-0.192-1.301 0.136-1.246-0.105-0.018-0.275-0.672 0.044-0.425 0.013-0.064-0.118-0.566-0.161-0.576 0.061 0.067 0.104 0.058 0.129-0.029-0.244-0.01-0.178-0.525 0.054-0.525-0.241 0.06-0.448-0.925-0.018-0.925-0.1-0.056-0.077-0.171-0.176-0.018-0.042-0.11-0.132-1.889-0.117-1.909 0.126-0.176 0.537 0.181 0.603-0.01-0.096-0.092-0.485 0.012-0.465-0.202 0.061 0.101 0.101 0.095 0.12-0.018-0.091-0.063-0.184-0.124-0.277-0.184 0.42-0.311-0.357-0.854 0.319-0.783-0.135-0.011-0.252-0.063-0.351-0.155 0.286 0.139 0.199-0.141 0.011-0.177 0.148-0.107 0.313-0.146 0.494-0.114 0.036-0.064-0.373-0.169-0.423-0.162-0.042-0.115 0.184-0.054 0.206-0.121 0.026-0.084-0.386-0.013-0.271-0.16 0.046-0.002 0.371 0.135 0.372 0.024-0.056-0.179-0.417-0.099-0.448-0.287 0.218-0.01 0.242 0.067 0.375-0.106 0.044-0.056-0.28-0.202-0.163-0.349-0.186 0.232 0.341 0.269 0.457 0.254 0.069-0.233-0.436-0.309-0.256-0.631-0.067 0.104-0.149 0.118-0.248 0.043 0.044-0.025 0.088-0.05 0.132-0.074-0.023 0.027 0.124 0.018 0.203-0.18 0.039-0.097 0.25-0.738 0.041-0.773 0.324 0.142 0.046-0.431 0.298-0.488 0.055 0.073 0.007 0.128-0.145 0.166 0.05-0.245 0.297 0.199 0.188 0.141 0.126 0.009 0.195 0.305 0.119 0.385-0.11 0.004-0.183-0.047-0.218-0.154 0.081-0.055 0.232 1.955 0.202 2.17-0.096 0.688 0.149 1.475 0.199 2.167 0.068 0.949 0.093 1.978 0.083 2.933-0.016 1.588-0.485 3.194-0.342 4.78 0.142 1.579 1.635 0.27 2.021 1.196 0.035-0.235 1.796-0.09 1.997-0.036 0.587 0.159 1.197 0.198 1.798 0.274 0.281 0.033 0.579 0.041 0.836 0.177 0.167 0.089 0.025 0.355 0.087 0.487-0.008-0.138-0.014-0.274-0.019-0.412-0.021 0.137-0.098 0.227-0.232 0.269" fill="#49BF5C"/>
		<path d="m15.011 18.389c-0.036-0.006-0.1-0.034 0 0" fill="#49BF5C"/>
		<path d="m14.973 18.77c-0.05-0.005-0.088-0.088-0.094-0.137l0.094 0.137z" fill="#49BF5C"/>
		<path d="m14.763 19.123c-0.086-0.027-0.086-0.027 0 0" fill="#49BF5C"/>
		<path d="m14.877 19.15c0.003 0.164-0.126-0.016 0 0" fill="#49BF5C"/>
		<path d="m14.722 19.919c0.037 0.154-0.048-0.009 0 0" fill="#49BF5C"/>
		<path d="m14.794 20.28c-0.008 0.02-0.119 0.05 0 0-0.004 0.01 0 0 0 0z" fill="#49BF5C"/>
		<path d="m14.854 26.797c0.003-0.062 0.002-0.049 0 0z" fill="#49BF5C"/>
		<path d="m14.71 29.645c-0.031-0.043 0.009 0.086 0 0" fill="#49BF5C"/>
		<path d="m14.949 31.232c0.013-0.017 0.072-0.092 0 0z" fill="#49BF5C"/>
		<path d="m22.117 31.163c0.012 0.165 0.008-0.011 0 0" fill="#49BF5C"/>
		<path d="m35.813 17.353c0.54 0.833-0.175 8.849 0.327 8.842-0.06 0.045-0.043-0.189-0.166-0.089 0.156 1.085-0.062 2.173-0.078 3.259-0.007 0.475-0.05 0.945-0.122 1.415-0.051 0.34 0.337 0.767 0.055 1.072 0.025-0.027-0.854-0.199-0.862-0.229-0.226 0.253-0.933 0.16-1.228 0.157-0.567-0.007-1.136-0.004-1.703-0.028-0.178-0.007-0.874-0.195-1.021-0.139 0.099-0.003 0.197 0.003 0.294 0.018-0.564 0.018-3.185 0.54-3.442-0.121 0.109 0.071-0.008-0.5-0.217-0.193 0.086-0.491-0.398-1.092-0.011-1.536 0.189-0.215-0.036-0.403-0.041-0.626-0.005-0.274 0.234-0.452 0.19-0.737-0.359 0.253-0.048-0.434-0.086-0.284 0.168-0.229-0.13-0.075-0.042-0.283-0.075-0.179 0.209-1.057 0.137-1.399-0.067-0.318-0.422-1.357 0.13-1.443-0.134-0.07-0.029-0.2-0.177 0.002-0.083-0.156 0.108-0.209 0.044-0.361-0.082 0.105-0.089 0.104-0.021-0.007-0.119 0.044-0.219 0.115-0.3 0.213 0.09-0.103-0.611-0.032-0.68-0.02-0.452 0.078-1.05-0.062-1.444 0.221-0.056-0.111-0.139-0.517 0.052-0.562-0.13 0.142-0.215 0.447-0.461 0.437 0.354-0.134-0.437 0.006-0.579 0.167-0.046-0.092 0.167-0.206-0.002-0.259 0.039 0.148-0.229 0.081-0.126 0.247 0.045-0.229-0.808-0.283-0.632-0.058-0.049-0.071-0.278-0.137-0.211 0.049-0.009-0.101-0.06-0.171-0.151-0.212-0.051 0.111-0.009 0.182 0.126 0.212-0.072-0.066-0.142-0.135-0.209-0.206 0.047 0.133 0.093 0.123 0.182 0.22-0.158-0.055-0.32-0.098-0.484-0.13-0.083 0.163 0.379 0.194 0.405 0.322-0.148 0.337 0.135 0.295 0.034 0.513-0.111-0.241-0.45-0.088-0.326 0.049 0.227 0.251 0.434 0.117 0.233 0.59-0.089-0.049 0.067-0.275-0.101-0.251 0.101 0.425-0.093 0.028-0.144 0.309-0.048 0.263 0.257 0.422 0.131 0.691 0.079-0.17 0.001-0.411-0.085-0.562-0.193-0.339-0.277 0.194-0.328 0.168 0.292 0.005 0.166 0.253 0.271 0.426-0.062 0.053-0.106 0.04-0.131-0.037 0.007 0.114 0.18 0.726 0.093 0.788 0.021-0.11 0.087-0.154 0.197-0.132-0.018 0.1-0.259 0.114-0.104 0.24-0.058-0.119-0.146-0.146-0.265-0.081-0.18 0.098-0.025 0.553-0.03 0.72-0.007 0.239-0.353 1.012-0.075 1.11-0.146-0.069-0.384 0.902-0.261 1.041-0.065-0.086-0.257-0.358-0.247-0.354 0.388 0.184 0.474-0.323 0.226-0.141-0.371 0.272-0.212-0.731-0.169-0.912 0.091 0.069 0.155 0.158 0.193 0.266 0.124-0.233-0.163-0.588-0.165-0.833-0.003-0.33 0.109-0.646 0.078-0.979-0.048-0.523-0.14-1.046-0.118-1.574 0.019-0.43 0.303-0.656 0.267-1.064-0.046-0.533-0.171-1.028 0.442-1.253 0.547-0.2 1.166-0.125 1.734-0.095 0.954 0.052 1.767 0.053 2.707-0.129 1.758-0.342 1.439 1.268 1.407 2.442-0.025 0.919 0.029 1.862-0.14 2.77-0.083 0.45-0.432 1.547 0.124 1.83 0.468 0.239 1.077 0.004 1.562-0.048 0.802-0.084 1.571 0.342 2.371 0.132 0.725-0.19 2.344 0.611 2.563-0.509 0.174-0.893-0.07-1.854 0.02-2.762 0.108-1.09 0.098-2.132 0.113-3.226 0.013 0.092 0.044 0.101 0.096 0.026-0.515-0.646-0.242-1.725-0.129-2.459 0.167-1.09 0.192-2.226 0.177-3.326-0.005-0.357 0.038-3.013 0.795-2.139-0.212-0.094-0.583-0.273-0.773-0.032-0.272 0.351 0.228 0.558 0.311 0.856" fill="#49BF5C"/>
		<path d="m22.122 30.977c0.042-0.073 0.098-0.088 0.166-0.043-0.053 0.023-0.109 0.038-0.166 0.043" fill="#49BF5C"/>
		<path d="m22.875 28.108c0.031 0.007 0.084 0.068 0 0" fill="#49BF5C"/>
		<path d="m22.947 27.367c0.05 0.014 0.081 0.175 0.082 0.27l-0.082-0.27z" fill="#49BF5C"/>
		<path d="m23.19 26.688c0.06-0.074 0.128 0.085 0 0" fill="#49BF5C"/>
		<path d="m23.079 26.632c0.021-0.037 0.042-0.073 0.063-0.11 0 0.048-0.021 0.084-0.063 0.11" fill="#49BF5C"/>
		<path d="m23.316 25.147c-0.009-0.07 0.032 0 0 0" fill="#49BF5C"/>
		<path d="m23.254 24.971c0.01-0.004 0.107 0.103 0 0 0.003-0.001 0 0 0 0z" fill="#49BF5C"/>
		<path d="m27.74 31.424c-0.046-0.093-0.044-0.09 0 0z" fill="#49BF5C"/>
		<path d="m33.452 31.838c0.01-0.003 0.125 0.001 0 0" fill="#49BF5C"/>
		<path d="m35.889 31.075c-0.034 0.002-0.166 0.009 0 0z" fill="#49BF5C"/>
		<path d="m30.113 11.332c0.047 0.036 0.063 0.003 0 0" fill="#49BF5C"/>
		<path d="m30.265 7.902c-0.097-0.022 0.364 0.044 0.462 0.044-0.374-0.04 0.068 0.089 0.154 0.1-0.083-0.086-0.15-0.064-0.201 0.066 0.048 0.032 0.29-0.04 0.306 0.179-0.062-0.045-0.106-0.028-0.133 0.049 0.037 0.083 0.114 0.086 0.158 0.15 0.058 0.084-0.522 0.249-0.04 0.275-0.313 0.241-0.227 0.294-0.113 0.285 0.137-0.011 0.313-0.112-0.123-0.084 0.271 0.055 0.171 0.328 0.038 0.292 0.047 0.012-0.074 0.015-0.06 0.139 0.128 0.125 0.277 0.228 0.286 0.249-0.087 0.047-0.176 0.043-0.268-0.014 0.083 0.014 0.348 0.453 0.071 0.371 0.043 0.055 0.087 0.061 0.13 0.017 0.057 0.164 0.026 0.224-0.093 0.183 0.527 0.493-0.332 0.119 0.187 0.245-0.197-0.061-0.396-0.087-0.596-0.079 0.211 0.121 0.409 0.189 0.609 0.265-0.417-0.073 0.203 0.148-0.193 0.084 0.032-0.028 0.906 0.233 0.009 0.12 0.216 0.091 0.119 0.141 0.182 0.173-0.051-0.056-0.218-0.185 0.011-0.031-0.165-0.012-0.378 0.017-0.38 0.043 0.134 0.107 0.068-0.012 0.293 0.284-0.175-0.05-0.348-0.12-0.518-0.212 0.07 0.009 0.262 0.125 0.319 0.052-0.056-0.004-0.108 0.019-0.157 0.065-0.012 0.093-0.104 0.031-0.112 0.109 0.356 0.239 0.018 0.266 0.072 0.269 0.01-0.002-0.142-0.477-0.338-0.717-0.109-0.014-0.329-0.432-0.062-0.259-0.108-0.045-0.326-0.694-0.089-0.615-0.109 0.021-0.349-1.405 0.023-1.305-0.036 0-0.342-0.716 0.113-0.359-0.189 0-0.027-0.036 0.018-0.091l0.035-0.342z" fill="#49BF5C"/>
		<path d="m30.104 11.314c0.053 0.008 0.107 0.016 0.16 0.024-0.053-0.007-0.106-0.015-0.16-0.024" fill="#49BF5C"/>
		<path d="m30.757 11.135c0.05 0.009 0.086 0.028 0.091 0.037l-0.091-0.037z" fill="#49BF5C"/>
		<path d="m31.021 10.996c-0.037-0.043 0.051 0.01 0 0" fill="#49BF5C"/>
		<path d="m30.955 10.928s0.162 0.02 0 0c0.004-0.001 0 0 0 0z" fill="#49BF5C"/>
		<path d="m30.901 9.891c-0.001 0.004-0.003 0.016 0 0z" fill="#49BF5C"/>
		<path d="m30.952 9.449c0.099 0.03 0.007 0.008 0 0" fill="#49BF5C"/>
		<path d="m30.729 9.185c-0.103-0.009-0.116-0.011 0 0z" fill="#49BF5C"/>
			<path d="m34.013 7.998c0.388-0.434-0.933-0.806-1.057-0.475 0-0.6-1.117 0.33-1.308-0.082-0.111 0.023-0.205 0.063-0.279 0.12 0.052-0.382-1.19-0.086-1.161 0.021l-0.09 0.771c-0.026 0.092 0.032 0.12 0.173 0.083-0.049-0.04-0.05-0.083-0.003-0.129-0.036 0.272 0.31-0.001 0.314-0.085-0.026 0.476 0.288 0.049 0.25-0.033 0.083 0.179 0.052-0.007 0.032-0.032-0.052 0.085-0.057 0.174-0.016 0.269 0.019-0.035 0.053-0.133 0.045-0.16 0.021 0.073 0.242 0.248 0.268-0.06 0.107 0.788-0.322-0.438 0.193 0.229-0.009-0.476 0.221 0.368 0.233-0.314 0.023-0.206-0.059 0.405 0.005 0.347 0.052-0.046 0.05-0.123 0.12-0.161 0.071 0.024 0.089 0.067 0.054 0.13 0.149-0.052 0.183-0.126 0.102-0.222-0.003 0.02-0.043-0.096 0.167-0.002-0.005-0.003 0.04-0.217 0 0 0.057-0.228-0.179-0.145 0.14-0.31 0.012 0.098 0.011 0.196-0.002 0.294 0.155-0.149 0.227-0.008 0.245-0.149-0.035 0.226 0.004 0.018 0.012-0.018-0.039 0.174 0.486-0.077 0.417 0.201 0.009-0.016 0.159-0.069 0.298-0.115 0.541-0.176-0.06-0.236 0.323-0.039 0.002-0.041 0.001-0.081-0.001-0.122-0.011-0.083 0.25 0.182 0.215 0.189 0.104-0.048 0.207-0.097 0.311-0.146" fill="#49BF5C"/>
		<path d="m30.475 7.902" fill="#49BF5C"/>
		<path d="m30.669 8.334c-0.015 0.116-0.003 0.027 0 0" fill="#49BF5C"/>
		<path d="m30.726 8.372c-0.004 0.05-0.02 0.088-0.027 0.093l0.027-0.093z" fill="#49BF5C"/>
		<path d="m30.765 8.582c-0.01 0.085-0.01 0.085 0 0" fill="#49BF5C"/>
		<path d="m30.777 8.468c0.022-0.003-0.011 0.125 0 0" fill="#49BF5C"/>
		<path d="m30.885 8.622c-0.005 0.053 0.038-0.044 0 0" fill="#49BF5C"/>
		<path d="m30.946 8.551c-0.001-0.003-0.006 0.16 0 0 0.002 0.003 0 0 0 0z" fill="#49BF5C"/>
		<path d="m31.965 8.423c-0.018 0-0.002 0 0 0z" fill="#49BF5C"/>
		<path d="m33.746 14.576c0.11 0.094 0.229 0.135 0.356 0.125-0.164-0.348 0.637-1.622 0.141-1.716 0.139-0.065 0.158-0.359-0.016-0.38 0.531-0.091 0.286-2.02-0.082-2.249 0.837-0.116-0.395-2.718-0.092-2.625l-0.597 0.051c0.297 0.143-0.303 0.025 0.199 0.219-0.299-0.038-0.201 0.414 0.009 0.417-0.097-0.063-0.171-0.044-0.223 0.06 0 0.092 0.186 0.301 0.039 0.167 0.096 0.07 0.093 0.112-0.009 0.127 0.07 0.026 0.139 0.06 0.206 0.102-0.025 0.106-0.349-0.147-0.168 0.111-0.012-0.018-0.086-0.061-0.107-0.061 0.069 0.06 0.14 0.117 0.211 0.169-0.3-0.177-0.104-0.02-0.025 0.025-0.19 0.008-0.275 0.279 0.051 0.349-0.175-0.137-0.112 0.213-0.249 0.004 0.344-0.208 0.225 0.313 0.001 0.366 0.129 0.056 0.306 0.169 0.012 0.152 0.123 0.002 0.156 0.072 0.1 0.209-0.009-0.152-0.209-0.086-0.143 0.139 0.075 0.231 0.184 0.422 0.328 0.571-0.122-0.104-0.166-0.072-0.133 0.098 0.052 0.095 0.338-0.135 0.063 0.083 0.04-0.031 0.253 0.139 0.262 0.204-0.097 0.074-0.201 0.076-0.312 0.007 0.399 0.109-0.306 1.612 0.139 1.673-0.239 0.126-0.005 0.551 0.143 0.552-0.223 0.078-0.366 0.929-0.104 1.051" fill="#49BF5C"/>
		<path d="m35.988 8.162" fill="#49BF5C"/>
		<path d="m33.487 8.426c-0.034-0.005-0.106-0.023 0 0" fill="#49BF5C"/>
		<path d="m33.245 11.03c0.001-0.028 0-0.012 0 0z" fill="#49BF5C"/>
	<path d="m221.63 8.586h-6.687c-0.353 0-0.454-0.21-0.454-0.525v-0.524c0-0.28 0.209-0.455 0.454-0.455h15.052c0.278 0 0.455 0.21 0.455 0.455v0.595c0 0.245-0.177 0.455-0.455 0.455h-6.722v22.542c0 0.245-0.211 0.455-0.562 0.455h-0.629c-0.246 0-0.455-0.21-0.455-0.455l0.01-22.543z" fill="#777"/>
	<path d="m251.84 6.731c7.035 0 12.638 5.636 12.638 12.636 0 7.035-5.603 12.566-12.638 12.566-7.002 0-12.604-5.531-12.604-12.566 0-7 5.59-12.636 12.6-12.636zm0 23.664c6.125 0 11.097-4.897 11.097-11.023 0-6.125-4.972-11.096-11.097-11.096-6.127 0-11.063 4.971-11.063 11.096s4.93 11.023 11.06 11.023z" fill="#777"/>
	<path d="m277.14 7.537c0-0.245 0.211-0.455 0.455-0.455h0.771c0.211 0 0.42 0.21 0.42 0.455v22.577h11.166c0.42 0 0.455 0.211 0.455 0.454v0.632c0 0.243-0.209 0.385-0.455 0.385h-12.355c-0.244 0-0.455-0.21-0.455-0.455v-23.593z" fill="#777"/>
	<path d="m311.72 6.731c7.034 0 12.637 5.636 12.637 12.636 0 7.035-5.603 12.566-12.637 12.566-7.002 0-12.604-5.531-12.604-12.566 0-7 5.6-12.636 12.6-12.636zm0 23.664c6.125 0 11.096-4.897 11.096-11.023 0-6.125-4.971-11.096-11.096-11.096-6.127 0-11.063 4.971-11.063 11.096s4.94 11.023 11.06 11.023z" fill="#777"/>
	<path d="m332.68 7.537c-0.141-0.28-0.033-0.455 0.279-0.455h0.945c0.209 0 0.35 0.14 0.385 0.245l9.451 21.737h0.066l9.559-21.737c0.033-0.105 0.176-0.245 0.387-0.245h0.91c0.313 0 0.453 0.21 0.313 0.49l-10.73 24.048c-0.066 0.175-0.209 0.313-0.42 0.313h-0.176c-0.211 0-0.352-0.209-0.385-0.313l-10.58-24.083z" fill="#777"/>
	<path d="m365.97 7.537c0-0.245 0.211-0.455 0.455-0.455h14.037c0.244 0 0.455 0.21 0.455 0.455v0.595c0 0.245-0.211 0.455-0.455 0.455h-12.813v9.661h11.096c0.244 0 0.455 0.21 0.455 0.455v0.595c0 0.245-0.211 0.455-0.455 0.455h-11.096v10.36h12.813c0.244 0 0.455 0.211 0.455 0.455v0.561c0 0.245-0.211 0.455-0.455 0.455h-14.037c-0.244 0-0.455-0.21-0.455-0.455v-23.592h0.03z" fill="#777"/>
</g>
<g id="homes_3_across">
	<g id="homes" fill="#49BF5C">
		<path d="m55.48 7.884c0-0.346 0.312-0.658 0.658-0.658h4.121c0.381 0 0.658 0.312 0.658 0.658v8.726h9.904v-8.726c0-0.346 0.277-0.658 0.658-0.658h4.12c0.346 0 0.658 0.312 0.658 0.658v22.922c0 0.347-0.312 0.659-0.658 0.659h-4.12c-0.381 0-0.658-0.313-0.658-0.659v-9.106h-9.904v9.106c0 0.347-0.276 0.659-0.658 0.659h-4.121c-0.346 0-0.658-0.313-0.658-0.659v-22.922z"/>
		<path d="m100.27 6.88c6.926 0 12.465 5.574 12.465 12.5s-5.54 12.432-12.465 12.432-12.431-5.506-12.431-12.432c-0.014-6.926 5.492-12.5 12.421-12.5zm0 19.392c3.809 0 6.926-3.118 6.926-6.892 0-3.81-3.117-6.96-6.926-6.96-3.775 0-6.892 3.15-6.892 6.96-0.003 3.774 3.114 6.892 6.892 6.892z"/>
		<path d="m126.7 7.434c0.035-0.312 0.346-0.554 0.623-0.554h0.554c0.174 0 0.485 0.138 0.589 0.346l8.033 14.959h0.069l8.034-14.959c0.104-0.208 0.416-0.346 0.589-0.346h0.554c0.277 0 0.589 0.242 0.623 0.554l3.913 23.27c0.069 0.449-0.243 0.762-0.658 0.762h-4.086c-0.311 0-0.624-0.278-0.658-0.554l-1.558-10.701h-0.069l-5.817 11.22c-0.104 0.208-0.416 0.382-0.589 0.382h-0.623c-0.207 0-0.485-0.174-0.588-0.382l-5.852-11.22h-0.07l-1.523 10.701c-0.035 0.275-0.312 0.554-0.658 0.554h-4.086c-0.416 0-0.728-0.313-0.658-0.762l3.95-23.27z"/>
		<path d="m162.27 7.884c0-0.346 0.277-0.658 0.657-0.658h14.336c0.383 0 0.658 0.312 0.658 0.658v3.775c0 0.346-0.275 0.657-0.658 0.657h-9.592v4.294h7.895c0.348 0 0.658 0.312 0.658 0.658v3.774c0 0.381-0.311 0.657-0.658 0.657h-7.895v4.675h9.592c0.383 0 0.658 0.312 0.658 0.658v3.773c0 0.347-0.275 0.659-0.658 0.659h-14.336c-0.38 0-0.657-0.313-0.657-0.659v-22.921z"/>
		<path d="m188.56 28.176l1.629-2.873c0.275-0.45 0.934-0.382 1.176-0.208 0.139 0.069 2.631 1.903 4.918 1.903 1.387 0 2.389-0.865 2.389-2.077 0-1.455-1.211-2.563-3.566-3.497-2.977-1.177-6.719-3.498-6.719-7.653 0-3.428 2.668-6.89 8-6.89 3.602 0 6.371 1.835 7.41 2.597 0.416 0.242 0.348 0.865 0.209 1.108l-1.768 2.665c-0.242 0.382-0.865 0.693-1.178 0.451-0.309-0.174-2.838-2.078-4.951-2.078-1.246 0-2.182 0.83-2.182 1.767 0 1.28 1.041 2.25 3.775 3.358 2.701 1.074 6.994 3.186 6.994 7.895 0 3.566-3.08 7.169-8.172 7.169-4.5 0-6.994-1.872-7.791-2.668-0.34-0.345-0.44-0.486-0.17-0.969z"/>
	</g>
	<g id="texture" opacity=".5">
		<g id="h" fill="#fff">
			<path d="m72.393 17.529c-0.097 0.018-0.178 0.147-0.255 0.234-0.052 0.062 0.025 0.217 0.105 0.222 0.072 0.005 0.146 0.013 0.214-0.003 0.499-0.103 0.993-0.145 1.487 0.031 0.085 0.031 0.209 0.043 0.281 0.003 0.108-0.062 0.187-0.176 0.314-0.302-0.734-0.401-1.441-0.318-2.146-0.185z"/>
			<path d="m64.036 18.604c-0.1 0.029-0.212 0.13-0.251 0.223-0.063 0.153 0.053 0.277 0.176 0.355 0.075 0.05 0.175 0.062 0.222 0.079 0.19-0.032 0.34-0.036 0.471-0.086 0.075-0.028 0.156-0.129 0.168-0.207 0.011-0.077-0.042-0.193-0.105-0.241-0.199-0.158-0.443-0.195-0.681-0.123z"/>
			<path d="m62.407 18.516c-0.257 0.032-0.517 0.056-0.766 0.117-0.137 0.036-0.245 0.148-0.186 0.426 0.347 0 0.679 0.004 1.01-0.002 0.146-0.003 0.25-0.144 0.233-0.297-0.014-0.147-0.144-0.263-0.291-0.244z"/>
			<path d="m72.027 14.331c0.013-0.122-0.065-0.2-0.169-0.227v0.428c0.091-0.034 0.16-0.095 0.169-0.201z"/>
			<path d="m73.426 21.04c-0.148 0.063-0.328 0.049-0.489 0.092-0.066 0.017-0.12 0.091-0.211 0.166 0.342 0.047 0.619 0.09 0.896 0.125 0.286 0.035 0.51-0.047 0.657-0.407-0.339-0.054-0.591-0.083-0.853 0.024z"/>
			<path d="m59.879 23.574v-0.195c-0.052 0.019-0.092 0.03-0.154 0.055 0.057 0.046 0.107 0.098 0.154 0.14z"/>
			<path d="m74.66 9.891c0.182-0.09 0.363-0.107 0.559-0.086v-0.263c-0.256 0.017-0.524 0.071-0.816 0.221 0.154 0.079 0.225 0.142 0.257 0.128z"/>
			<path d="m75.219 27.123v-0.405c-0.031 0.009-0.054 0.016-0.089 0.025 0.035 0.171 0.026 0.32 0.089 0.38z"/>
			<path d="m56.519 15.141v0.445c0.223-0.013 0.447-0.079 0.679-0.266-0.249-0.126-0.466-0.167-0.679-0.179z"/>
			<path d="m57.313 19.983c-0.25-0.193-0.504-0.179-0.794-0.14v0.295c0.194 0.069 0.418 0.022 0.794-0.155z"/>
			<path d="m74.039 16.519c0.041 0.062 0.076 0.161 0.118 0.165 0.353 0.029 0.713 0.202 1.062-0.013v-0.07c-0.228-0.284-0.372-0.285-1.18-0.082z"/>
			<path d="m72.403 22.17c-0.044 0.039-0.087 0.142-0.065 0.181 0.042 0.072 0.123 0.158 0.198 0.17 0.213 0.031 0.417-0.03 0.651-0.184-0.297-0.431-0.445-0.459-0.784-0.167z"/>
			<path d="m64.014 18.061c0.155 0.048 0.425-0.147 0.368-0.24-0.049-0.081-0.149-0.141-0.244-0.177h-0.66c-0.054 0.027-0.117 0.059-0.207 0.098 0.358 0.155 0.544 0.257 0.743 0.319z"/>
			<path d="m57.765 14.202c-0.019-0.058-0.09-0.132-0.145-0.138-0.215-0.025-0.427-0.003-0.588 0.174-0.059 0.063-0.042 0.213 0.036 0.25 0.063 0.031 0.13 0.055 0.243 0.099 0.122-0.055 0.275-0.111 0.413-0.196 0.039-0.024 0.058-0.135 0.041-0.189z"/>
			<path d="m69.979 18.827c-0.021 0.056 0.05 0.213 0.099 0.223 0.241 0.05 0.471 0.004 0.759-0.237-0.171-0.116-0.289-0.262-0.388-0.25-0.176 0.016-0.391 0.064-0.47 0.264z"/>
			<path d="m75.219 21.191v-0.039c-0.006 0.012-0.012 0.022-0.019 0.033 0.008 0.003 0.011 0.003 0.019 0.006z"/>
			<path d="m72.604 27.906c-0.282-0.114-0.405 0.117-0.704 0.323 0.399 0.076 0.647 0.145 0.884 0.008 0.066-0.187-0.045-0.277-0.18-0.331z"/>
			<path d="m58.101 15.064c-0.292-0.04-0.502 0.194-0.425 0.481 0.013 0.049 0.1 0.12 0.146 0.115 0.216-0.023 0.417-0.306 0.378-0.51-0.033-0.03-0.064-0.08-0.099-0.086z"/>
			<path d="m73.567 15.671c0.194 0.019 0.367-0.06 0.398-0.376h-0.756c-0.015 0.285 0.175 0.358 0.358 0.376z"/>
			<path d="m72.812 8.839c0.063-0.025 0.12-0.071 0.169-0.118 0.09-0.084 0.06-0.242-0.055-0.286-0.064-0.027-0.132-0.04-0.239-0.072-0.072 0.048-0.175 0.095-0.249 0.17-0.03 0.033-0.017 0.139 0.013 0.19 0.083 0.135 0.214 0.175 0.361 0.116z"/>
			<path d="m62.012 17.989c0.17 0.004 0.25-0.099 0.219-0.316-0.061-0.01-0.127-0.018-0.191-0.029h-0.372c-0.024 0.038-0.045 0.083-0.039 0.111 0.046 0.196 0.219 0.229 0.383 0.234z"/>
			<path d="m56.761 18.943c-0.01-0.093-0.111-0.199-0.242-0.257v0.48c0.138-0.009 0.254-0.106 0.242-0.223z"/>
			<path d="m58.177 10.758c-0.03-0.076-0.121-0.178-0.187-0.181-0.165-0.007-0.333 0.037-0.409 0.34 0.183 0.017 0.321 0.045 0.457 0.038 0.109-0.004 0.178-0.097 0.139-0.197z"/>
			<path d="m70.192 19.879c-0.036 0.036-0.127 0.086-0.152 0.159-0.046 0.135 0.137 0.303 0.314 0.278 0.06-0.009 0.146-0.119 0.149-0.183 0.007-0.16-0.119-0.265-0.311-0.254z"/>
			<path d="m72.911 25.754c0.421 0.188 0.676 0.039 0.931-0.119-0.277-0.047-0.553-0.127-0.931 0.119z"/>
			<path d="m71.77 18.754c-0.104-0.017-0.214 0.026-0.393 0.054 0.111 0.155 0.165 0.286 0.263 0.353 0.095 0.065 0.228 0.026 0.296-0.091 0.069-0.119-0.015-0.297-0.166-0.316z"/>
			<path d="m74.696 15.513c0.034 0.039 0.082 0.141 0.15 0.159 0.101 0.028 0.218 0.002 0.327-0.015 0.015-0.003 0.04-0.091 0.024-0.121-0.041-0.081-0.087-0.172-0.158-0.221-0.112-0.08-0.321 0.023-0.343 0.198z"/>
			<path d="m71.858 8.636v0.133c0.01-0.01 0.018-0.018 0.029-0.028-0.01-0.031-0.017-0.069-0.029-0.105z"/>
			<path d="m74.079 20.092c0.049-0.093-0.035-0.17-0.134-0.19-0.138-0.027-0.324 0.081-0.307 0.194 0.01 0.071 0.1 0.129 0.182 0.225 0.106-0.091 0.215-0.142 0.259-0.229z"/>
			<path d="m65.108 18.022c0.071 0.007 0.151-0.059 0.199-0.081 0.049-0.176-0.014-0.265-0.12-0.298h-0.148c-0.043 0.015-0.084 0.037-0.105 0.065-0.075 0.096 0.035 0.297 0.174 0.314z"/>
			<path d="m72.372 30.246c-0.085-0.051-0.17-0.127-0.269-0.151-0.119-0.032-0.284 0.106-0.241 0.185 0.032 0.062 0.104 0.117 0.173 0.145h0.194c0.057-0.029 0.107-0.08 0.143-0.179z"/>
			<path d="m58.834 16.623c0.025 0.052 0.107 0.107 0.162 0.107 0.171-0.006 0.312-0.072 0.344-0.31-0.138 0-0.267-0.012-0.392 0.004-0.104 0.013-0.165 0.097-0.114 0.199z"/>
			<path d="m72.85 16.789c-0.001 0.055 0.05 0.142 0.098 0.163 0.118 0.045 0.287-0.105 0.29-0.27-0.041-0.021-0.091-0.073-0.147-0.081-0.133-0.015-0.239 0.043-0.241 0.188z"/>
			<path d="m70.719 17.992c0.061 0.004 0.127-0.092 0.236-0.184-0.094-0.068-0.162-0.118-0.226-0.165h-0.087c-0.041 0.061-0.088 0.123-0.083 0.177 0.008 0.068 0.101 0.169 0.16 0.172z"/>
			<path d="m58.4 13.095c0.039 0.047 0.07 0.121 0.119 0.136 0.056 0.02 0.134-0.002 0.194-0.026 0.028-0.012 0.038-0.07 0.07-0.141-0.084-0.028-0.163-0.071-0.244-0.073-0.045-0.002-0.093 0.066-0.139 0.104z"/>
			<path d="m74.961 12.114c-0.244-0.278-0.244-0.278-0.453-0.086 0.064 0.028 0.122 0.07 0.185 0.084 0.077 0.014 0.158 0.002 0.268 0.002z"/>
			<path d="m73.096 30.226c-0.083 0.006-0.168 0.049-0.242 0.096-0.021 0.011-0.024 0.063-0.019 0.103h0.371c0.021-0.03 0.039-0.072 0.028-0.086-0.031-0.052-0.093-0.117-0.138-0.113z"/>
			<path d="m73.453 24.536c-0.196 0.011-0.393 0.022-0.589 0.035 0 0.026 0.001 0.051 0.002 0.079h0.604c-0.006-0.04-0.012-0.077-0.017-0.114z"/>
			<path d="m72.615 25.649c-0.091-0.022-0.17-0.046-0.251-0.054-0.016-0.002-0.037 0.066-0.057 0.104 0.076 0.036 0.151 0.073 0.229 0.098 0.007 0.004 0.038-0.069 0.079-0.148z"/>
			<path d="m74.358 10.869c-0.005-0.022-0.003-0.049-0.014-0.069-0.061-0.121-0.157-0.167-0.282-0.107-0.027 0.014-0.048 0.105-0.036 0.114 0.065 0.054 0.139 0.101 0.218 0.13 0.027 0.009 0.076-0.043 0.114-0.068z"/>
			<path d="m72.793 20.134c0.112-0.186-0.005-0.251-0.19-0.296-0.046 0.129-0.129 0.254 0.069 0.335 0.031 0.015 0.103-0.012 0.121-0.039z"/>
			<path d="m66.991 17.86c0.038 0.012 0.101-0.042 0.182-0.079-0.066-0.063-0.106-0.12-0.153-0.138h-0.031c-0.038 0.009-0.082 0.053-0.123 0.081 0.04 0.047 0.073 0.117 0.125 0.136z"/>
			<path d="m58.161 9.583c-0.042 0.082-0.098 0.141-0.09 0.188 0.007 0.045 0.082 0.078 0.126 0.117 0.039-0.048 0.111-0.1 0.109-0.146-0.002-0.048-0.078-0.091-0.145-0.159z"/>
			<path d="m73.349 29.14c0.022 0.047 0.04 0.099 0.07 0.142 0.004 0.006 0.064-0.027 0.1-0.043-0.019-0.039-0.029-0.09-0.06-0.108-0.024-0.018-0.073 0.003-0.11 0.009z"/>
			<path d="m73.933 27.861c0.039 0.045 0.079 0.094 0.117 0.137 0.03-0.024 0.087-0.059 0.083-0.077-0.012-0.052-0.049-0.103-0.079-0.159-0.056 0.047-0.089 0.071-0.121 0.099z"/>
			<path d="m68.804 20.094c0.053 0.024 0.104 0.057 0.158 0.065 0.013 0.002 0.064-0.086 0.057-0.091-0.042-0.042-0.094-0.071-0.145-0.105-0.018 0.036-0.038 0.071-0.07 0.131z"/>
			<path d="m63.369 20.075c0.02 0.032 0.076 0.043 0.117 0.061 0.017-0.042 0.034-0.085 0.051-0.128-0.041-0.015-0.088-0.05-0.121-0.039-0.026 0.01-0.06 0.086-0.047 0.106z"/>
			<path d="m56.782 13.072c0.027 0.045 0.053 0.09 0.08 0.136 0.028-0.026 0.057-0.052 0.083-0.078-0.021-0.04-0.034-0.091-0.062-0.104-0.024-0.009-0.067 0.028-0.101 0.046z"/>
			<path d="m59.061 20.025c0.021-0.006 0.046-0.008 0.063-0.018 0.008-0.005 0.005-0.029 0.006-0.045-0.021-0.007-0.041-0.015-0.062-0.021-0.002 0.03-0.004 0.056-0.007 0.084z"/>
			<path d="m65.658 18.889c0.001 0.005 0.027 0.009 0.042 0.015 0.005-0.019 0.012-0.035 0.017-0.054-0.015-0.003-0.039-0.015-0.043-0.011-0.011 0.013-0.017 0.033-0.016 0.05z"/>
			<path d="m75.054 17.661c-0.007 0.019-0.015 0.038-0.022 0.057 0.03 0.004 0.062 0.009 0.092 0.012-0.003-0.02 0-0.047-0.012-0.06-0.01-0.011-0.038-0.006-0.058-0.009z"/>
			<polygon points="60.869 17.702 60.871 17.657 60.819 17.679"/>
			<path d="m73.751 30.313c0.006-0.015 0.013-0.03 0.02-0.047-0.019-0.006-0.037-0.011-0.056-0.017 0.012 0.022 0.024 0.044 0.036 0.064z"/>
		</g>
		<g id="o" fill="#fff">
			<path d="m97.231 8.736c-0.212-0.157-0.276-0.239-0.35-0.25-0.079-0.012-0.162 0.007-0.244 0.021-0.252 0.084-0.505 0.167-0.75 0.268 0.246-0.005 0.492-0.004 0.739 0.023 0.139 0.015 0.284-0.027 0.605-0.062z"/>
			<path d="m108.33 24.346c-0.122 0.047-0.282 0.004-0.423-0.008-0.167-0.012-0.33-0.039-0.496-0.053-0.291-0.023-0.501 0.102-0.677 0.396 0.321 0.297 0.685 0.512 1.101 0.369 0.566-0.198 1.101-0.06 1.63 0.06 0.241 0.054 0.453 0.073 0.672 0.028 0.158-0.271 0.304-0.547 0.438-0.829-0.111-0.028-0.222-0.056-0.332-0.05-0.63 0.032-1.28-0.162-1.91 0.087z"/>
			<path d="m89.414 17.896c0.027-0.022 0.019-0.086 0.037-0.184-0.164 0.016-0.315 0.096-0.47 0.15-0.04 0.313-0.066 0.627-0.081 0.945 0.03-0.39 0.221-0.675 0.514-0.911z"/>
			<path d="m108.23 17.842c0.211-0.048 0.285-0.219 0.33-0.426 0.028-0.131 0.121-0.256 0.212-0.359 0.108-0.122 0.244-0.22 0.398-0.354-0.087-0.115-0.136-0.256-0.221-0.285-0.226-0.071-0.469-0.142-0.7-0.126-0.205 0.014-0.407 0.052-0.611 0.075 0.196 0.484 0.346 0.992 0.445 1.518 0.05-0.015 0.1-0.031 0.15-0.043z"/>
			<path d="m92.318 17.671c0.067 0.039 0.12 0.07 0.18 0.105 0.013-0.066 0.034-0.129 0.048-0.194-0.067 0.028-0.14 0.062-0.228 0.089z"/>
			<path d="m99.373 10.305c0.007 0.214 0.015 0.459 0.025 0.759 0.252-0.109 0.447-0.088 0.653 0.03 0.197 0.11 0.226 0.072 0.373-0.254-0.479-0.503-0.479-0.503-0.103-1.002-0.549-0.515-1.155-0.122-1.758-0.171 0.063 0.515 0.498 0.443 0.811 0.638z"/>
			<path d="m92.928 11.772c-0.419 0.056-0.716-0.091-1.071-0.006-0.043 0.01-0.088 0.009-0.133 0.013-0.167 0.19-0.328 0.383-0.481 0.583 0.403-0.002 0.806-0.006 1.209-0.018 0.293-0.009 0.405-0.198 0.476-0.572z"/>
			<path d="m92.94 24.434c-0.44-0.096-0.887-0.165-1.333-0.229-0.17-0.022-0.295 0.077-0.316 0.221-0.023 0.153 0.021 0.295 0.158 0.366 0.278 0.145 0.575 0.229 0.736 0.195 0.349-0.022 0.539-0.022 0.724-0.051 0.122-0.019 0.238-0.103 0.208-0.239-0.022-0.099-0.1-0.249-0.177-0.263z"/>
			<path d="m100.96 8.884c0.235 0.01 0.47 0.002 0.705 0.002v0.01c0.261 0 0.524 0.021 0.78-0.01 0.082-0.012 0.175-0.15 0.206-0.25 0.02-0.061-0.044-0.191-0.107-0.232-0.178-0.111-0.373-0.278-0.589-0.196-0.37 0.141-0.818 0.066-1.118 0.4-0.06 0.075 0.02 0.267 0.13 0.276z"/>
			<path d="m97.586 11.687c-0.109 0.081-0.196 0.184-0.3 0.208-0.125 0.028-0.265-0.012-0.399-0.019-0.022 0-0.054 0.007-0.065 0.024-0.04 0.053-0.102 0.113-0.099 0.167 0.003 0.042 0.053 0.094 0.092 0.119 0.315-0.155 0.64-0.292 0.977-0.404-0.068-0.032-0.132-0.06-0.206-0.095z"/>
			<path d="m102.49 30.046c-0.513 0.012-1.032 0.021-1.517 0.239 0.108 0.281 0.167 0.393 0.27 0.437 0.511-0.042 1.015-0.118 1.509-0.225 0.05-0.354-0.01-0.456-0.26-0.451z"/>
			<path d="m92.781 13.311c0.369 0.077 0.743 0.216 1.118 0.088 0.257-0.089 0.499-0.156 0.709-0.042 0.098 0 0.146 0.001 0.194 0 0.126-0.006 0.232-0.116 0.219-0.229-0.013-0.111-0.148-0.203-0.269-0.167-0.09 0.025-0.169 0.087-0.258 0.112-0.086 0.024-0.204 0.063-0.264 0.024-0.336-0.208-0.755-0.004-1.09-0.237-0.068-0.047-0.238 0.011-0.338 0.065-0.065 0.036-0.114 0.142-0.128 0.224-0.009 0.049 0.06 0.153 0.107 0.162z"/>
			<path d="m108.17 22.002c-0.133 0.003-0.277 0.168-0.384 0.284-0.122 0.135-0.017 0.354 0.171 0.372 0.328 0.03 0.658 0.045 0.997 0.067 0.112-0.123 0.22-0.243 0.352-0.387-0.34-0.34-0.75-0.357-1.14-0.336z"/>
			<path d="m101.8 27.155c0.477 0.018 0.956 0.012 1.434 0.006 0.118-0.002 0.238-0.028 0.353-0.06 0.12-0.03 0.24-0.098 0.196-0.239-0.017-0.057-0.145-0.11-0.224-0.11-0.149 0-0.299 0.012-0.449 0.021-0.422 0.161-0.859 0.293-1.313 0.381v0.001z"/>
			<path d="m109.22 21.414c0.216 0.09 0.436 0.195 0.664 0.23 0.204 0.032 0.428 0.035 0.578-0.196 0.05-0.075 0.21-0.079 0.315-0.122 0.078-0.03 0.15-0.075 0.25-0.127-0.087-0.055-0.135-0.105-0.16-0.096-0.403 0.155-0.781 0.133-1.16-0.098-0.1-0.063-0.282-0.02-0.414 0.016-0.067 0.019-0.131 0.129-0.153 0.209-0.02 0.051 0.03 0.164 0.07 0.184z"/>
			<path d="m92.976 27.071c0.147 0 0.396-0.015 0.456-0.302-0.153 0-0.291 0.002-0.428-0.002-0.164-0.006-0.342 0.021-0.488-0.033-0.324-0.121-0.621-0.062-0.955 0.027 0.091 0.108 0.19 0.212 0.286 0.316 0.377-0.013 0.753-0.011 1.129-0.006z"/>
			<path d="m108.69 27.095c0.14-0.151 0.286-0.3 0.417-0.459-0.118 0.02-0.227 0.064-0.31 0.151-0.07 0.075-0.09 0.204-0.11 0.308z"/>
			<path d="m110.46 23.553c0.13 0.081 0.258 0.139 0.385 0.182 0.058-0.141 0.101-0.287 0.153-0.43-0.097 0.003-0.193 0.01-0.291 0.023-0.06 0.01-0.12 0.114-0.24 0.225z"/>
			<path d="m103.26 9.925c0.384-0.042 0.748 0.044 1.115 0.138 0.109 0.028 0.236-0.003 0.353-0.019 0.116-0.017 0.182-0.171 0.109-0.281-0.048-0.073-0.153-0.187-0.193-0.173-0.32 0.117-0.6-0.112-1.073-0.063-0.022 0.007-0.198 0.066-0.369 0.141-0.032 0.012-0.069 0.085-0.057 0.113 0.02 0.058 0.08 0.148 0.11 0.144z"/>
			<path d="m90.102 20.822c-0.229 0-0.471-0.024-0.702 0.011-0.12 0.02-0.276 0.128-0.321 0.233-0.065 0.156 0.104 0.287 0.223 0.312 0.336 0.061 0.694 0.183 0.998-0.108 0.015-0.013 0.017-0.041 0.025-0.063-0.01-0.045-0.008-0.095-0.031-0.133-0.05-0.076-0.112-0.149-0.192-0.252z"/>
			<path d="m109.47 25.856c-0.004-0.246-0.101-0.388-0.29-0.378-0.256 0.013-0.514 0.063-0.761 0.132-0.092 0.024-0.211 0.149-0.218 0.235-0.015 0.174 0.157 0.215 0.294 0.235 0.34 0.057 0.65-0.035 0.98-0.224z"/>
			<path d="m105.87 25.823c-0.04 0.031-0.171-0.069-0.262-0.075-0.104-0.008-0.177 0.053-0.153 0.206 0.146 0.021 0.303 0.029 0.454 0.067 0.476 0.115 0.941 0.025 1.399-0.085 0.173-0.045 0.186-0.197 0.014-0.361-0.44 0.24-1-0.127-1.45 0.248z"/>
			<path d="m89.706 20.44c0.062-0.104 0.135-0.178 0.149-0.262 0.013-0.079-0.01-0.208-0.064-0.247-0.27-0.201-0.58-0.18-0.873-0.075-0.008 0.003-0.013 0.02-0.021 0.026 0.006 0.146 0.009 0.294 0.021 0.44 0.033 0.011 0.061 0.027 0.1 0.03 0.209 0.021 0.416 0.052 0.688 0.088z"/>
			<path d="m101.63 10.872c-0.004 0.249 0.128 0.38 0.31 0.313 0.338-0.122 0.657-0.257 1.032-0.16 0.065 0.015 0.17-0.121 0.363-0.265-0.243-0.067-0.335-0.119-0.425-0.114-0.352 0.025-0.704 0.058-1.054 0.104-0.08 0.01-0.15 0.085-0.22 0.122z"/>
			<path d="m91.874 23.814c0.271 0.043 0.506-0.037 0.703-0.327-0.358-0.09-0.631-0.16-0.906-0.228-0.069-0.018-0.151-0.04-0.21-0.02-0.079 0.03-0.182 0.09-0.203 0.159-0.021 0.067 0.024 0.212 0.08 0.239 0.166 0.084 0.35 0.148 0.536 0.177z"/>
			<path d="m93.991 11.19c0.229 0.047 0.458 0.029 0.634-0.279-0.359 0.073-0.618-0.043-0.88-0.229-0.106-0.075-0.323-0.018-0.48 0.02-0.128 0.033-0.176 0.145-0.106 0.255 0.29 0.083 0.556 0.175 0.832 0.233z"/>
			<path d="m93.53 28.078c0.057-0.098-0.042-0.275-0.147-0.278-0.263-0.007-0.535-0.067-0.817-0.003 0.125 0.114 0.247 0.232 0.375 0.34 0.125 0.024 0.25 0.063 0.377 0.078 0.068 0.006 0.174-0.069 0.212-0.137z"/>
			<path d="m107.05 23.771c0.035 0.004 0.075-0.041 0.178-0.104-0.064-0.052-0.129-0.091-0.194-0.131-0.044 0.071-0.084 0.146-0.131 0.215 0.04 0.006 0.09 0.015 0.14 0.02z"/>
			<path d="m109.8 14.336c-0.013 0.13 0.103 0.202 0.226 0.218 0.198 0.024 0.398 0.035 0.617 0.008-0.072-0.156-0.14-0.313-0.219-0.466-0.145 0.006-0.291 0.037-0.435 0.064-0.09 0.015-0.2 0.11-0.2 0.176z"/>
			<path d="m105.6 28.994c-0.143-0.014-0.166-0.018-0.189-0.018-0.168 0-0.268 0.09-0.288 0.247-0.019 0.144 0.073 0.2 0.175 0.271 0.047 0.033 0.092 0.047 0.136 0.057 0.184-0.093 0.364-0.191 0.543-0.294-0.003-0.058-0.046-0.143-0.095-0.165-0.12-0.061-0.26-0.091-0.28-0.098z"/>
			<path d="m91.601 16.49c-0.148-0.053-0.306-0.11-0.5-0.179-0.18 0.109-0.33 0.188-0.465 0.287-0.04 0.028-0.044 0.106-0.083 0.21 0.326 0.025 0.608 0.023 0.887-0.044 0.123-0.031 0.218-0.104 0.161-0.274z"/>
			<path d="m95.265 12.053c-0.45-0.452-0.45-0.452-0.893-0.165 0.221 0.475 0.318 0.498 0.893 0.165z"/>
			<path d="m106.46 26.928c-0.005 0.069 0.072 0.172 0.14 0.211 0.099 0.058 0.221 0.094 0.336 0.101 0.208 0.014 0.345-0.156 0.4-0.498-0.239 0-0.472-0.015-0.703 0.007-0.07 0.005-0.17 0.111-0.18 0.179z"/>
			<path d="m108.95 23.446c-0.127-0.033-0.71 0.01-0.959 0.082 0.289 0.131 0.537 0.243 0.785 0.354 0.021 0.01 0.052 0.018 0.067 0.008 0.097-0.058 0.206-0.104 0.276-0.185 0.05-0.068-0.07-0.228-0.18-0.259z"/>
			<path d="m97.185 9.868c0.208 0.046 0.419 0.082 0.63 0.088 0.057 0.001 0.137-0.111 0.166-0.188 0.014-0.038-0.055-0.144-0.106-0.16-0.155-0.05-0.32-0.074-0.375-0.085-0.159 0-0.219-0.019-0.25 0.005-0.071 0.046-0.146 0.108-0.177 0.181-0.015 0.034 0.061 0.147 0.112 0.159z"/>
			<path d="m96.261 11.092c0.061-0.11 0.036-0.25-0.093-0.291-0.198-0.063-0.408-0.1-0.613-0.116-0.068-0.004-0.143 0.096-0.268 0.184 0.273 0.246 0.521 0.312 0.767 0.368 0.058 0.012 0.169-0.076 0.207-0.145z"/>
			<path d="m107.4 11.009c-0.212-0.258-0.366-0.256-0.885 0.012 0.23 0.265 0.35 0.263 0.88-0.012z"/>
			<path d="m90.774 15.33c-0.279 0.024-0.591-0.081-0.921 0.189h1.047c-0.06-0.094-0.098-0.192-0.126-0.189z"/>
			<path d="m101.98 9.6c-0.016-0.051-0.105-0.115-0.157-0.113-0.21 0.019-0.435 0.03-0.582 0.316 0.268 0.199 0.482 0.178 0.678-0.017 0.04-0.043 0.08-0.135 0.06-0.186z"/>
			<path d="m99.328 27.955c-0.011 0.23 0.118 0.339 0.324 0.364 0.204 0.025 0.366-0.033 0.396-0.335-0.259-0.106-0.48-0.159-0.722-0.029z"/>
			<path d="m105.27 11.032c0.051 0.015 0.134-0.079 0.228-0.141-0.161-0.17-0.29-0.303-0.427-0.449-0.24 0.125-0.264 0.266-0.155 0.386 0.08 0.099 0.22 0.165 0.35 0.204z"/>
			<path d="m110.59 21.939c-0.141 0.012-0.261 0.152-0.254 0.294 0.008 0.162 0.152 0.249 0.435 0.229 0.022-0.037 0.097-0.108 0.099-0.177-0.01-0.205-0.14-0.356-0.29-0.346z"/>
			<path d="m91.955 22.323c-0.307-0.051-0.514-0.081-0.806-0.129 0.066 0.131 0.086 0.241 0.137 0.257 0.203 0.068 0.396 0.018 0.669-0.128z"/>
			<path d="m108.46 12.329c0.083-0.02 0.151-0.036 0.22-0.054 0.094-0.024 0.202-0.065 0.155-0.179-0.029-0.072-0.132-0.159-0.2-0.158-0.134 0.002-0.269 0.054-0.399 0.1-0.026 0.01-0.046 0.082-0.039 0.121 0.006 0.041 0.041 0.086 0.076 0.105 0.06 0.034 0.13 0.046 0.18 0.065z"/>
			<path d="m94.431 27.902c-0.122-0.017-0.256-0.017-0.274 0.146-0.017 0.147 0.101 0.203 0.223 0.229 0.131 0.027 0.234-0.016 0.274-0.145 0.013-0.172-0.099-0.213-0.223-0.23z"/>
			<path d="m99.023 8.786c0.073-0.017 0.163-0.032 0.244-0.068 0.028-0.012 0.054-0.08 0.045-0.115-0.044-0.186-0.362-0.276-0.507-0.134-0.039 0.041-0.022 0.169 0.011 0.236 0.023 0.044 0.121 0.05 0.207 0.081z"/>
			<path d="m107.67 15.821c0.121 0.036 0.27 0.003 0.401-0.025 0.031-0.007 0.054-0.116 0.054-0.179 0.001-0.032-0.05-0.095-0.083-0.098-0.18-0.021-0.36-0.028-0.539-0.038 0 0.141 0.02 0.295 0.17 0.34z"/>
			<path d="m107.5 15.481c-0.001-0.007-0.001-0.011-0.001-0.018l-0.006 0.018h0.01z"/>
			<path d="m111.37 16.724c0.002 0.002 0.005 0.003 0.007 0.005-0.007-0.032-0.016-0.063-0.023-0.095-0.01 0.039 0 0.074 0.01 0.09z"/>
			<path d="m92.791 14.213c-0.021 0.033-0.026 0.101-0.007 0.129 0.08 0.108 0.197 0.119 0.304 0.058 0.067-0.038 0.111-0.116 0.158-0.168-0.049-0.075-0.066-0.136-0.097-0.144-0.144-0.038-0.274-0.005-0.358 0.125z"/>
			<path d="m100.97 28.231c0.038-0.04 0.05-0.139 0.027-0.19-0.059-0.137-0.184-0.122-0.299-0.081-0.042 0.014-0.074 0.051-0.166 0.116 0.063 0.058 0.095 0.095 0.132 0.119 0.1 0.066 0.21 0.156 0.31 0.036z"/>
			<path d="m91.896 14.23c-0.065-0.061-0.122-0.153-0.196-0.169-0.129-0.031-0.244 0.052-0.256 0.181-0.005 0.06 0.093 0.13 0.174 0.235 0.116-0.103 0.197-0.176 0.278-0.247z"/>
			<path d="m102.75 28.952c-0.138-0.02-0.238 0.114-0.211 0.279 0.007 0.052 0.073 0.095 0.153 0.19 0.083-0.143 0.152-0.245 0.197-0.355 0-0.018-0.09-0.107-0.14-0.114z"/>
			<path d="m110.06 16.661c-0.023-0.081-0.024-0.146-0.049-0.158-0.187-0.09-0.362-0.056-0.495 0.103-0.03 0.034-0.004 0.118-0.004 0.211 0.2-0.06 0.37-0.108 0.54-0.156z"/>
			<path d="m90.583 19.789c-0.042 0.045-0.099 0.09-0.13 0.146-0.033 0.06-0.041 0.133-0.058 0.194 0.132 0.138 0.271 0.117 0.354-0.021 0.088-0.145 0.01-0.264-0.166-0.319z"/>
			<path d="m92.55 25.854c0.017 0.127 0.12 0.149 0.211 0.127 0.076-0.021 0.138-0.093 0.252-0.172-0.118-0.093-0.181-0.172-0.259-0.194-0.103-0.027-0.219 0.122-0.204 0.239z"/>
			<path d="m103.18 11.871c-0.02 0.007-0.04 0.029-0.061 0.047 0.079 0.03 0.161 0.055 0.239 0.088-0.02-0.093-0.09-0.167-0.18-0.135z"/>
			<path d="m98.236 30.272c-0.098-0.034-0.227 0.123-0.193 0.226 0.008 0.023 0.027 0.043 0.051 0.065 0.06 0.012 0.121 0.017 0.182 0.026 0.053-0.05 0.107-0.101 0.156-0.146-0.065-0.058-0.121-0.146-0.196-0.171z"/>
			<path d="m93.75 14.329c0.026 0.048 0.114 0.109 0.161 0.099 0.073-0.016 0.133-0.085 0.227-0.153-0.088-0.076-0.129-0.138-0.181-0.149-0.105-0.024-0.249 0.12-0.207 0.203z"/>
			<path d="m107 27.906c-0.109-0.021-0.207 0.08-0.16 0.149 0.034 0.049 0.102 0.069 0.174 0.115 0.047-0.058 0.115-0.107 0.111-0.15 0-0.041-0.08-0.105-0.12-0.114z"/>
			<path d="m92.256 19.993c0.047 0.038 0.084 0.075 0.119 0.105-0.004-0.048-0.004-0.098-0.007-0.146-0.033 0.013-0.066 0.027-0.112 0.041z"/>
			<path d="m103.91 10.782c0.015 0.078 0.065 0.15 0.122 0.265 0.079-0.096 0.155-0.149 0.151-0.194-0.004-0.057-0.068-0.134-0.122-0.151-0.04-0.015-0.16 0.06-0.15 0.08z"/>
			<path d="m103.96 8.63c0.013 0.057 0.058 0.107 0.088 0.16 0.05-0.038 0.102-0.075 0.182-0.135-0.055-0.036-0.088-0.055-0.126-0.077-0.027-0.009-0.053-0.019-0.08-0.028-0.02 0.013-0.07 0.059-0.06 0.08z"/>
			<path d="m106.6 14.296c0.025 0.056 0.057 0.106 0.086 0.16 0.035-0.025 0.069-0.049 0.125-0.091-0.058-0.041-0.108-0.08-0.162-0.113-0.02-0.003-0.06 0.037-0.06 0.044z"/>
			<path d="m100.87 29.199c0.042 0.045 0.077 0.114 0.126 0.127 0.033 0.008 0.086-0.067 0.13-0.104-0.048-0.039-0.097-0.08-0.143-0.119-0.05 0.039-0.09 0.068-0.12 0.096z"/>
			<path d="m99.588 29.203c0.018-0.01 0.035-0.013 0.053-0.019-0.007-0.019-0.014-0.036-0.027-0.065-0.01 0.033-0.018 0.058-0.026 0.084z"/>
			<path d="m95.307 28.043c0.026 0.05 0.053 0.101 0.079 0.15 0.035-0.026 0.069-0.05 0.104-0.074-0.02-0.039-0.033-0.094-0.063-0.104-0.031-0.015-0.079 0.016-0.12 0.028z"/>
			<path d="m95.594 12.013c0.066 0.048 0.117 0.109 0.158 0.104 0.049-0.007 0.12-0.072 0.123-0.117 0.003-0.039-0.077-0.123-0.113-0.121-0.052 0.004-0.096 0.072-0.168 0.134z"/>
			<path d="m97.711 11.089c0.019-0.039 0.037-0.076 0.055-0.115-0.035-0.026-0.07-0.052-0.106-0.078-0.015 0.042-0.044 0.087-0.039 0.128 0.004 0.025 0.059 0.044 0.09 0.065z"/>
			<path d="m95.505 9.655c-0.053-0.03-0.105-0.062-0.158-0.089-0.018 0.039-0.061 0.097-0.049 0.113 0.031 0.04 0.086 0.064 0.135 0.087 0.007 0.002 0.041-0.06 0.072-0.111z"/>
			<path d="m108.2 21.227c-0.006 0-0.01 0.038-0.014 0.06 0.039 0.002 0.078 0.006 0.115 0.01 0.003-0.021 0.005-0.043 0.007-0.063-0.04-0.004-0.07-0.011-0.11-0.007z"/>
			<path d="m93.219 23.504c-0.004 0.04 0.024 0.1 0.057 0.118 0.023 0.015 0.113-0.024 0.112-0.035-0.004-0.057-0.029-0.11-0.049-0.178-0.06 0.045-0.117 0.068-0.12 0.095z"/>
			<path d="m91.382 25.724c-0.038-0.007-0.099 0.008-0.121 0.037-0.016 0.021 0.018 0.112 0.026 0.112 0.057-0.002 0.112-0.021 0.179-0.037-0.037-0.054-0.056-0.107-0.084-0.112z"/>
			<path d="m107.5 15.463c-0.006 0.007-0.013 0.014-0.02 0.021 0.003 0 0.007 0.001 0.012 0.001 0.01-0.004 0.01-0.022 0.01-0.022z"/>
			<path d="m107.36 15.602c0.048-0.031 0.086-0.076 0.127-0.118-0.044 0.001-0.086-0.004-0.127 0.003-0.039 0.007-0.074 0.028-0.107 0.049 0.012 0.022 0.024 0.045 0.036 0.067 0.02 0.003 0.05 0.009 0.07-0.001z"/>
			<path d="m92.386 15.507c-0.031-0.026-0.062-0.072-0.094-0.072-0.033-0.001-0.068 0.041-0.102 0.063 0.032 0.025 0.063 0.07 0.097 0.072 0.031 0.003 0.066-0.039 0.099-0.063z"/>
			<path d="m91.477 15.645c-0.023-0.032-0.042-0.078-0.073-0.094-0.026-0.01-0.07 0.014-0.105 0.022 0.022 0.032 0.037 0.08 0.068 0.094 0.028 0.012 0.072-0.013 0.11-0.022z"/>
			<path d="m96.879 29.222c-0.006 0.008 0.007 0.032 0.013 0.049 0.018-0.006 0.043-0.006 0.052-0.019 0.007-0.01-0.006-0.034-0.011-0.051-0.019 0.006-0.042 0.008-0.054 0.021z"/>
		</g>
		<g id="m" fill="#fff">
			<path d="m137.78 26.716c-0.134-0.028-0.286 0.019-0.425 0.044-0.147 0.029-0.238 0.181-0.215 0.328 0.021 0.143 0.168 0.272 0.308 0.233 0.224-0.063 0.439-0.156 0.704-0.256 0.092 0.064 0.193 0.11 0.298 0.148l0.25-0.483c-0.31 0.027-0.61 0.054-0.92-0.014z"/>
			<path d="m135.81 23.759c0.337 0.14 0.598-0.002 0.85-0.255 0.461 0.255 0.466 0.215 0.934 0.27 0.613 0.069 1.25-0.086 1.844 0.194 0.079 0.037 0.192 0.032 0.282 0.01 0.161-0.041 0.353-0.101 0.372-0.288 0.012-0.123-0.08-0.254-0.128-0.395-0.223 0-0.413-0.004-0.603 0.002-0.213 0.006-0.428 0.035-0.641 0.031-0.189-0.005-0.379-0.058-0.568-0.062-0.207-0.005-0.394 0.114-0.627 0.034-0.149-0.053-0.351 0.049-0.554 0.084-0.085-0.046-0.194-0.109-0.305-0.166h-0.73c-0.07 0.045-0.139 0.103-0.206 0.175-0.09 0.102-0.04 0.313 0.09 0.366z"/>
			<path d="m148.23 24.772l-0.045-0.269c-0.047 0.035-0.102 0.077-0.146 0.112 0.08 0.067 0.14 0.112 0.2 0.157z"/>
			<path d="m144.11 12.141c0.068 0.126 0.088 0.197 0.114 0.202 0.209 0.026 0.425 0.079 0.628 0.049 0.435-0.063 0.859-0.104 1.294-0.011l-0.094-0.559c-0.48 0.05-0.958 0.167-1.448 0.137-0.14-0.011-0.3 0.107-0.49 0.182z"/>
			<path d="m127.11 11.908c-0.041 0.016-0.079 0.021-0.119 0.031l-0.049 0.292c0.146-0.008 0.29-0.021 0.437-0.021 0.02-0.309-0.11-0.362-0.27-0.302z"/>
			<path d="m134.26 21.308c0.205-0.019 0.412 0.01 0.619 0.041l-0.211-0.393c-0.047-0.006-0.097-0.018-0.144-0.02-0.19-0.009-0.32 0.101-0.27 0.372z"/>
				<rect transform="matrix(-.1406 .9901 -.9901 -.1406 176.47 -92.198)" height="0" width=".514" y="30.49" x="127.99"/>
			<path d="m126.43 28.912c-0.314 0.117-0.642 0.146-0.985 0.144-0.396-0.004-0.792 0.092-1.299 0.159 0.32 0.188 0.577 0.213 0.825 0.22 0.382 0.01 0.755-0.003 1.136 0.102 0.208 0.058 0.471-0.032 0.694-0.104 0.11-0.034 0.186-0.178 0.271-0.266-0.17-0.268-0.35-0.359-0.63-0.255z"/>
			<path d="m146.18 26.896c-0.031 0.021-0.036 0.082-0.053 0.124 0.028 0.037 0.047 0.097 0.083 0.108 0.476 0.178 0.976 0.188 1.475 0.172 0.081-0.002 0.21-0.145 0.22-0.234 0.011-0.086-0.083-0.222-0.168-0.272-0.33-0.19-1.2-0.121-1.55 0.102z"/>
			<path d="m127.62 14.833c0.118 0.048 0.236 0.027 0.315-0.086 0.106-0.149 0.107-0.366-0.014-0.451-0.113-0.082-0.244-0.152-0.377-0.185-0.27-0.066-0.546 0.013-0.832-0.066-0.023-0.006-0.047 0-0.07-0.001l-0.085 0.508c0.119 0.007 0.229 0.012 0.338 0.011 0.27-0.002 0.48 0.17 0.72 0.27z"/>
			<path d="m128.78 11.873c-0.141 0.01-0.284 0.021-0.417 0.058-0.049 0.013-0.088 0.1-0.105 0.161-0.01 0.031 0.03 0.095 0.063 0.117 0.08 0.048 0.167 0.11 0.255 0.115 0.448 0.022 0.899 0.05 1.348 0.036 0.038-0.001 0.076-0.01 0.112-0.021l-0.222-0.414c-0.35-0.031-0.69-0.08-1.04-0.052z"/>
			<path d="m126.9 27.161c0.045-0.006 0.107-0.104 0.113-0.164 0.004-0.057-0.047-0.161-0.089-0.171-0.363-0.08-0.719-0.225-1.105-0.141-0.162 0.037-0.334 0.049-0.486 0.113-0.093 0.035-0.155 0.146-0.282 0.278 0.324 0.076 0.525 0.162 0.727 0.164 0.38 0.003 0.75-0.04 1.12-0.079z"/>
			<path d="m140.77 21.483c0.209 0.036 0.418 0.047 0.627 0.047l0.217-0.419c-0.311 0.004-0.623 0.003-0.911 0.003-0.14 0.186-0.1 0.34 0.06 0.369z"/>
			<path d="m144.48 20.932l0.089 0.612c0.229-0.04 0.461-0.129 0.709-0.301-0.29-0.186-0.55-0.282-0.8-0.311z"/>
			<path d="m144.77 13.011c0.037 0.325 0.09 0.399 0.299 0.395 0.381-0.007 0.764-0.021 1.146-0.042 0.031-0.001 0.061-0.017 0.092-0.024l-0.069-0.411c-0.48 0.061-0.98-0.043-1.47 0.082z"/>
			<path d="m128.44 17.558c-0.157 0.045-0.308 0.146-0.465 0.155-0.177 0.009-0.359-0.082-0.541-0.085-0.184-0.005-0.37 0.043-0.725 0.091 0.178 0.165 0.229 0.254 0.299 0.271 0.515 0.126 1.033 0.124 1.551 0.026 0.045-0.009 0.113-0.028 0.125-0.059 0.029-0.079 0.064-0.179 0.04-0.25-0.06-0.118-0.17-0.186-0.3-0.149z"/>
			<path d="m129.58 18.88c-0.012-0.137-0.104-0.237-0.235-0.226-0.381 0.035-0.761 0.083-1.139 0.145-0.18 0.028-0.221 0.159-0.169 0.327 0.221 0.153 0.465 0.069 0.701 0.063 0.025 0 0.051-0.005 0.077-0.006l0.002-0.015h0.203c0.122-0.006 0.244-0.006 0.363-0.026 0.13-0.022 0.22-0.124 0.21-0.262z"/>
			<path d="m146.64 19.041c0.198 0.208 0.449 0.326 0.705 0.429l-0.113-0.675c-0.207 0.014-0.409 0.046-0.593 0.141-0.01 0.058-0.02 0.091 0 0.105z"/>
			<path d="m125.74 21.376c0.311-0.117 0.603-0.011 0.874 0.078 0.134-0.124 0.142-0.238 0.04-0.334-0.066-0.062-0.16-0.128-0.246-0.132-0.309-0.017-0.62-0.019-0.93 0-0.002 0-0.005 0.004-0.008 0.005l-0.058 0.343c0.038 0.02 0.077 0.035 0.114 0.038 0.09 0.004 0.17 0.024 0.23 0.002z"/>
			<path d="m143.39 17.776c0.024 0.25 0.187 0.267 0.317 0.248 0.371-0.054 0.795 0.129 1.174-0.241-0.127-0.066-0.208-0.151-0.278-0.14-0.4 0.058-0.83-0.076-1.21 0.133z"/>
			<path d="m135.27 26.889c0.013 0.205 0.156 0.272 0.328 0.31 0.398 0.088 0.59 0.053 0.898-0.17-0.51-0.403-0.72-0.427-1.23-0.14z"/>
			<polygon points="147.45 20.144 147.45 20.141 147.45 20.143"/>
			<path d="m145.54 23.794c0.055 0.019 0.138-0.021 0.199-0.053 0.037-0.019 0.086-0.074 0.081-0.106-0.012-0.062-0.05-0.158-0.091-0.168-0.181-0.03-0.369-0.035-0.552-0.051-0.002 0.014-0.003 0.028-0.005 0.042-0.109-0.007-0.22-0.017-0.33-0.021l0.048 0.329c0.21-0.096 0.42-0.045 0.64 0.028z"/>
			<path d="m127.29 21.122c-0.036 0.073-0.042 0.2 0.001 0.262 0.039 0.059 0.164 0.109 0.239 0.093 0.283-0.054 0.56-0.138 0.84-0.209 0.001-0.05 0.004-0.097 0.004-0.144-0.295-0.056-0.587-0.12-0.884-0.154-0.06-0.008-0.17 0.081-0.2 0.152z"/>
			<path d="m125.38 30.293c-0.059-0.014-0.16 0.031-0.192 0.131h1.28c0.031-0.013 0.051-0.018 0.083-0.032-0.44-0.287-0.81-0.009-1.17-0.099z"/>
			<path d="m140.04 19.236c0.073-0.028 0.163-0.121 0.166-0.188 0.002-0.075-0.07-0.185-0.14-0.221-0.125-0.06-0.272-0.073-0.41-0.104-0.02 0.003-0.037 0.009-0.058 0.011l-0.196 0.366c0.19 0.146 0.4 0.225 0.64 0.136z"/>
			<path d="m131.09 18.762c-0.272-0.043-0.549-0.083-0.824-0.089-0.085-0.002-0.169 0.11-0.312 0.21 0.147 0.106 0.232 0.221 0.32 0.225 0.278 0.007 0.558-0.021 0.833-0.053 0.042-0.001 0.106-0.099 0.102-0.147-0.01-0.054-0.07-0.138-0.12-0.146z"/>
			<path d="m129.2 14.03c-0.135-0.021-0.289-0.016-0.413 0.034-0.091 0.035-0.193 0.15-0.21 0.246-0.022 0.133 0.116 0.205 0.232 0.212 0.185 0.011 0.372-0.012 0.606-0.023 0.02-0.273-0.01-0.438-0.22-0.469z"/>
			<path d="m148.68 29.066c-0.251 0.053-0.494 0.137-0.672 0.343h1.004l-0.042-0.244c-0.08-0.096-0.16-0.124-0.29-0.099z"/>
			<path d="m140.15 18.005c0.299 0.1 0.59 0.094 0.889-0.189-0.312-0.1-0.555-0.252-0.843-0.195l-0.149 0.277c0.03 0.049 0.06 0.094 0.1 0.107z"/>
			<path d="m128.6 16.872c0.041-0.015 0.048-0.117 0.074-0.183-0.287-0.032-0.555-0.064-0.822-0.09-0.046-0.006-0.099 0.002-0.139 0.022-0.037 0.019-0.078 0.058-0.086 0.093-0.008 0.039 0.005 0.108 0.033 0.125 0.32 0.177 0.63 0.159 0.95 0.033z"/>
			<path d="m144.65 20.12c-0.148-0.096-0.24-0.145-0.318-0.171l0.016 0.107 0.05 0.343c0.13-0.063 0.15-0.103 0.25-0.279z"/>
			<path d="m137.48 28.343c0.229-0.008 0.406-0.086 0.466-0.373-0.143-0.062-0.282-0.145-0.431-0.182-0.163-0.035-0.297 0.116-0.303 0.305-0.02 0.146 0.1 0.254 0.26 0.25z"/>
			<path d="m126.04 20.316c-0.168-0.222-0.286-0.34-0.395-0.386l-0.068 0.407c0.14-0.002 0.28-0.012 0.47-0.021z"/>
			<path d="m130.36 17.944c0.103 0.049 0.222 0.064 0.325 0.092 0.081-0.013 0.153-0.015 0.216-0.039 0.037-0.015 0.074-0.062 0.086-0.1 0.013-0.038 0.008-0.1-0.017-0.126-0.158-0.167-0.36-0.21-0.576-0.148-0.053 0.016-0.112 0.096-0.119 0.153 0 0.054 0.04 0.147 0.09 0.168z"/>
			<path d="m144.97 22.453c0.023-0.198-0.167-0.159-0.299-0.167l0.047 0.325c0.12-0.004 0.24-0.033 0.25-0.158z"/>
			<path d="m137.14 29.058c-0.087-0.01-0.18 0.017-0.351 0.039 0.113 0.133 0.166 0.245 0.253 0.284 0.091 0.043 0.194 0.052 0.279 0l0.096-0.185c-0.03-0.068-0.12-0.126-0.28-0.138z"/>
			<path d="m126.67 22.674c0.101 0.009 0.208-0.045 0.373-0.09-0.117-0.127-0.183-0.218-0.271-0.284-0.043-0.033-0.157-0.046-0.183-0.018-0.054 0.064-0.107 0.161-0.095 0.234 0 0.066 0.1 0.152 0.17 0.158z"/>
			<path d="m140.57 22.353c-0.024 0.142 0.116 0.205 0.234 0.199 0.024-0.001 0.056-0.022 0.085-0.041l0.079-0.151c-0.03-0.083-0.087-0.165-0.159-0.29-0.1 0.122-0.22 0.195-0.23 0.283z"/>
			<path d="m145 19.011c0.008 0.058 0.06 0.134 0.111 0.152 0.152 0.063 0.327-0.005 0.366-0.175-0.068-0.045-0.146-0.12-0.239-0.157-0.1-0.041-0.26 0.077-0.24 0.18z"/>
			<path d="m130.82 16.753c0.036-0.02 0.082-0.087 0.072-0.11-0.025-0.06-0.084-0.154-0.121-0.149-0.126 0.012-0.248 0.063-0.379 0.099 0.11 0.26 0.27 0.255 0.43 0.16z"/>
			<path d="m129.66 17.774c-0.157-0.006-0.336-0.05-0.444 0.248 0.197-0.017 0.333-0.022 0.465-0.047 0.026-0.005 0.059-0.074 0.058-0.112-0.01-0.033-0.06-0.087-0.08-0.089z"/>
			<path d="m127.99 20.032c-0.066-0.052-0.142-0.142-0.232-0.16-0.053-0.014-0.156 0.08-0.189 0.147-0.042 0.095 0.015 0.185 0.125 0.203 0.12 0.02 0.23 0.012 0.29-0.19z"/>
			<path d="m136.29 28.003c-0.017 0.032-0.071 0.094-0.067 0.15 0.003 0.056 0.059 0.127 0.11 0.152 0.054 0.025 0.133 0.02 0.196 0.006 0.035-0.006 0.079-0.059 0.083-0.093 0.006-0.037-0.019-0.098-0.05-0.116-0.06-0.036-0.13-0.048-0.27-0.099z"/>
			<path d="m130.06 13.282c0.071-0.02 0.129-0.086 0.229-0.159-0.098-0.062-0.167-0.134-0.196-0.12-0.067 0.033-0.113 0.105-0.169 0.163 0.05 0.042 0.11 0.125 0.14 0.116z"/>
			<path d="m125.74 22.503c0.043 0.002 0.124-0.065 0.124-0.107 0-0.045-0.068-0.088-0.125-0.151-0.055 0.063-0.127 0.108-0.124 0.151 0 0.042 0.07 0.107 0.12 0.107z"/>
			<path d="m140.79 19.018c-0.006 0.004 0.04 0.114 0.048 0.112 0.082-0.017 0.161-0.046 0.246-0.075-0.037-0.075-0.068-0.146-0.071-0.144-0.08 0.028-0.16 0.064-0.23 0.107z"/>
			<path d="m126.24 20.032c0.024 0.053 0.069 0.098 0.126 0.17 0.061-0.08 0.099-0.133 0.138-0.185-0.059-0.022-0.116-0.058-0.177-0.063-0.03-0.004-0.09 0.067-0.09 0.078z"/>
			<path d="m143.73 14.356c0.052-0.018 0.084-0.089 0.143-0.155-0.083-0.026-0.144-0.062-0.204-0.062-0.105 0.002-0.176 0.122-0.114 0.176 0.04 0.037 0.12 0.059 0.17 0.041z"/>
			<path d="m145.9 21.157c-0.056 0.02-0.101 0.064-0.151 0.1 0.04 0.035 0.081 0.073 0.146 0.129 0.043-0.065 0.081-0.108 0.098-0.159-0.01-0.013-0.08-0.079-0.1-0.07z"/>
			<path d="m145.56 28.125c-0.011 0-0.022 0.005-0.033 0.007l0.021 0.147c0.019-0.006 0.038-0.013 0.057-0.019-0.03-0.061-0.04-0.135-0.05-0.135z"/>
			<path d="m124.75 25.832c-0.026-0.022-0.054-0.047-0.081-0.069 0 0.001-0.001 0.002-0.002 0.003l-0.02 0.117c0.002 0 0.006 0.005 0.008 0.004 0.03-0.012 0.06-0.036 0.09-0.055z"/>
			<path d="m131.66 21.313c0.031 0.051 0.062 0.098 0.092 0.146 0.03-0.025 0.061-0.054 0.092-0.08-0.021-0.035-0.037-0.093-0.068-0.103-0.03-0.011-0.07 0.024-0.11 0.037z"/>
			<path d="m140.65 20.059c-0.013 0.026 0.019 0.075 0.031 0.114 0.039-0.016 0.096-0.024 0.111-0.055 0.013-0.024-0.022-0.074-0.035-0.112-0.04 0.015-0.1 0.022-0.11 0.053z"/>
			<path d="m126.9 18.797c-0.039-0.007-0.083 0.028-0.126 0.045 0.038 0.047 0.075 0.095 0.112 0.146 0.028-0.034 0.056-0.064 0.083-0.096-0.01-0.033-0.03-0.091-0.06-0.095z"/>
			<path d="m145.7 10.991c-0.014-0.043-0.03-0.085-0.045-0.126-0.041 0.017-0.104 0.024-0.112 0.05-0.012 0.036 0.02 0.084 0.034 0.127 0.04-0.016 0.08-0.033 0.12-0.051z"/>
			<path d="m132.65 21.261c0.008 0.027 0.067 0.045 0.103 0.063 0.014-0.039 0.048-0.088 0.036-0.12-0.012-0.033-0.069-0.05-0.105-0.074-0.01 0.043-0.04 0.093-0.03 0.131z"/>
			<path d="m125.19 28.257c0.015-0.038 0.029-0.077 0.042-0.115-0.033-0.021-0.066-0.041-0.1-0.063-0.015 0.037-0.048 0.083-0.038 0.111 0.01 0.029 0.06 0.045 0.1 0.067z"/>
			<path d="m131.25 20.191c0.041 0.017 0.081 0.031 0.121 0.047 0.016-0.038 0.032-0.075 0.048-0.114-0.041-0.011-0.085-0.039-0.122-0.03-0.03 0.004-0.04 0.063-0.05 0.097z"/>
			<path d="m146.54 30.381c0 0.015 0.006 0.028 0.01 0.043h0.112c-0.021-0.025-0.041-0.053-0.066-0.073 0-0.006-0.05 0.02-0.05 0.03z"/>
			<path d="m131.81 16.562c-0.002 0.02 0.015 0.041 0.025 0.063 0.013-0.019 0.036-0.034 0.038-0.054 0.001-0.018-0.016-0.041-0.025-0.059-0.03 0.017-0.05 0.032-0.05 0.05z"/>
			<polygon points="127.7 26.957 127.71 26.909 127.65 26.93"/>
			<polygon points="136.06 29.274 136.12 29.259 136.07 29.228"/>
		</g>
		<g id="e" fill="#fff">
			<path d="m166.33 27.15c0.099 0.027 0.201 0.028 0.3 0.045v-0.356c-0.189 0.021-0.39 0.053-0.617 0.122 0.18 0.103 0.25 0.167 0.32 0.189z"/>
			<path d="m166.44 20.462c-0.002-0.068 0.008-0.142-0.006-0.209-0.028-0.117-0.207-0.2-0.361-0.162-0.148 0.037-0.164 0.151-0.119 0.28 0.018 0.045 0.051 0.084 0.064 0.129 0.088 0.306 0 0.478-0.283 0.531-0.21 0.04-0.425 0.097-0.636 0.097-0.596-0.003-1.193-0.019-1.791-0.031v0.448c0.159-0.006 0.318-0.011 0.477 0.001 0.403 0.031 0.796 0.062 1.203-0.014 0.325-0.06 0.666-0.058 1 0.041 0.213 0.065 0.429 0.073 0.646 0.062v-0.731c-0.17-0.067-0.19-0.152-0.19-0.442z"/>
			<path d="m173.03 19.952c-0.357 0.051-0.713 0.112-1.057-0.057-0.035-0.017-0.105-0.007-0.137 0.018-0.068 0.058-0.17 0.129-0.174 0.2-0.004 0.062 0.094 0.172 0.164 0.188 0.137 0.033 0.285 0.006 0.426 0.028 0.189 0.028 0.287 0.147 0.29 0.327h1.047c-0.065-0.229-0.13-0.457-0.199-0.694-0.13-0.002-0.25-0.026-0.36-0.01z"/>
			<path d="m176.38 30.424h0.497v-0.299c-0.056-0.004-0.11-0.019-0.166-0.02-0.16-0.001-0.29 0.138-0.33 0.319z"/>
			<path d="m164.58 14.65c0.243 0.063 0.408-0.048 0.633-0.316-0.451-0.054-0.78-0.038-1.113-0.04-0.264-0.001-0.53 0.005-0.794-0.003v0.267c0.43 0.13 0.86-0.019 1.27 0.092z"/>
			<path d="m172.65 18.172c0.037 0.081 0.074 0.164 0.113 0.251-0.123 0.2-0.236 0.38-0.396 0.642 0.428 0.19 0.697 0.076 0.955-0.215-0.154-0.305-0.215-0.62-0.221-0.955-0.001-0.082-0.02-0.177-0.071-0.251h-0.305c-0.2 0.211-0.2 0.26-0.07 0.528z"/>
			<path d="m168.79 19.176c0.217-0.019 0.43-0.056 0.641-0.068 0.201-0.013 0.408-0.04 0.488-0.243 0.084-0.221-0.119-0.343-0.238-0.487-0.014-0.015-0.041-0.02-0.102-0.047-0.322 0.101-0.617 0.191-0.91 0.286-0.15 0.047-0.254 0.208-0.205 0.331 0.06 0.145 0.16 0.243 0.33 0.228z"/>
			<path d="m176.88 29.452v-0.281c-0.064 0.048-0.129 0.101-0.195 0.163 0.09 0.049 0.15 0.086 0.2 0.118z"/>
			<path d="m176.46 27.998c-0.059 0.056-0.094 0.169-0.088 0.253 0.008 0.168 0.197 0.323 0.346 0.297 0.056-0.009 0.11-0.022 0.166-0.031v-0.652c-0.16-0.003-0.31 0.021-0.43 0.133z"/>
			<path d="m170 18.36c0.102 0.331 0.375 0.336 0.607 0.126 0.164-0.149 0.219-0.467 0.107-0.655-0.074-0.125-0.192-0.17-0.316-0.188h-0.2c-0.111 0.033-0.209 0.137-0.33 0.219 0.04 0.183 0.08 0.344 0.13 0.498z"/>
			<path d="m169.12 19.626c-0.064-0.012-0.152 0.008-0.199 0.045-0.186 0.146-0.344 0.316-0.295 0.633 0.398 0.097 0.773 0.123 1.197-0.077-0.12-0.359-0.36-0.543-0.7-0.601z"/>
			<path d="m164.41 23.766c0.073-0.003 0.136-0.153 0.2-0.233-0.063-0.065-0.088-0.11-0.127-0.129-0.061-0.032-0.134-0.063-0.201-0.063-0.323 0.006-0.647 0.012-0.971 0.032v0.416c0.36-0.001 0.73 0.006 1.1-0.023z"/>
			<path d="m165.42 15.454c-0.041 0.031-0.037 0.183 0.002 0.24 0.045 0.068 0.155 0.136 0.231 0.13 0.326-0.028 0.65-0.074 0.968-0.138 0.003 0 0.005-0.005 0.008-0.006v-0.305c-0.136-0.04-0.251-0.073-0.351-0.103-0.31-0.09-0.6-0.011-0.86 0.182z"/>
			<path d="m167.18 30.424h1.152c0.003-0.014 0.009-0.022 0.011-0.037-0.6-0.365-0.8-0.354-1.16 0.037z"/>
			<path d="m171.99 17.989c0.082-0.047 0.125-0.162 0.191-0.255-0.069-0.035-0.128-0.063-0.186-0.091h-0.723c-0.062 0.076-0.125 0.179-0.205 0.316 0.31 0.216 0.62 0.208 0.93 0.03z"/>
			<path d="m166.37 17.912c0.035 0.083 0.112 0.149 0.225 0.288 0.285-0.086 0.535-0.157 0.783-0.239 0.033-0.01 0.08-0.079 0.072-0.111-0.012-0.06-0.051-0.154-0.094-0.162-0.105-0.02-0.211-0.028-0.317-0.045h-0.407v-0.058c-0.038-0.004-0.076-0.013-0.113-0.016-0.12-0.006-0.21 0.204-0.15 0.343z"/>
			<path d="m171.37 19.214c0.084-0.063 0.137-0.175 0.229-0.291-0.123-0.144-0.213-0.281-0.336-0.384-0.057-0.046-0.186-0.051-0.266-0.023-0.213 0.072-0.354 0.417-0.256 0.584 0.1 0.163 0.46 0.239 0.64 0.114z"/>
			<path d="m174.54 11.201c0.035-0.002 0.096-0.105 0.098-0.163 0-0.059-0.051-0.156-0.096-0.169-0.178-0.044-0.363-0.074-0.549-0.088-0.152-0.012-0.305 0.007-0.457 0.011-0.01 0.055-0.02 0.111-0.029 0.167 0.133 0.073 0.26 0.181 0.404 0.211 0.21 0.043 0.43 0.037 0.64 0.031z"/>
			<path d="m163.74 29.07c-0.048 0.006-0.098 0.008-0.14 0.028-0.12 0.056-0.205 0.155-0.164 0.286 0.042 0.131 0.13 0.246 0.231 0.431 0.154-0.102 0.24-0.146 0.308-0.203 0.125-0.103 0.33-0.133 0.321-0.352-0.01-0.155-0.24-0.229-0.56-0.19z"/>
			<path d="m163.71 15.169c-0.158-0.037-0.37 0.149-0.392 0.343-0.016 0.129 0.111 0.282 0.25 0.305 0.232 0.035 0.446-0.068 0.467-0.228 0.02-0.169-0.14-0.378-0.33-0.42z"/>
			<path d="m166.21 24.596c-0.074 0.021-0.166 0.125-0.17 0.196-0.002 0.064 0.096 0.171 0.168 0.189 0.109 0.03 0.238 0.026 0.349-0.007 0.026-0.008 0.054-0.02 0.08-0.028v-0.334c-0.023-0.003-0.049-0.008-0.072-0.011-0.13-0.014-0.25-0.037-0.36-0.005z"/>
			<path d="m165.21 9.959c0.08-0.04 0.146-0.103 0.291-0.207-0.129-0.117-0.186-0.204-0.268-0.233-0.182-0.066-0.334-0.011-0.408 0.16-0.038 0.092-0.047 0.254 0.008 0.318 0.11 0.131 0.26 0.023 0.38-0.038z"/>
			<path d="m172.14 10.829c-0.074-0.014-0.223 0.043-0.232 0.089-0.021 0.098-0.01 0.243 0.055 0.31 0.021 0.022 0.042 0.032 0.063 0.047h0.311c0.062-0.032 0.132-0.075 0.218-0.135-0.05-0.225-0.24-0.274-0.41-0.311z"/>
			<path d="m166.54 25.851c-0.265-0.307-0.265-0.307-0.882-0.031 0.22 0.3 0.3 0.302 0.88 0.031z"/>
			<path d="m169.31 30.414c-0.002 0.001-0.002 0.008-0.004 0.01h0.965c-0.008-0.059-0.011-0.107-0.029-0.116-0.34-0.152-0.64-0.025-0.94 0.106z"/>
			<path d="m166.08 16.58c-0.047 0.05-0.066 0.177-0.037 0.245 0.031 0.071 0.143 0.158 0.207 0.151 0.113-0.014 0.227-0.076 0.38-0.143v-0.068c-0.118-0.105-0.207-0.196-0.304-0.244-0.06-0.028-0.19 0.008-0.25 0.059z"/>
			<path d="m173.94 28.313c0.094-0.023 0.141-0.213 0.084-0.299-0.096-0.146-0.24-0.122-0.379-0.116-0.164 0.006-0.258 0.086-0.256 0.316 0.19 0.142 0.37 0.14 0.56 0.099z"/>
			<path d="m164.49 24.557c-0.107 0.049-0.206 0.176-0.244 0.291-0.02 0.06 0.1 0.164 0.163 0.256 0.125-0.06 0.216-0.092 0.289-0.143 0.101-0.07 0.187-0.179 0.086-0.286-0.07-0.073-0.23-0.151-0.3-0.118z"/>
			<path d="m174.49 17.794c0 0.081-0.008 0.115 0.002 0.124 0.189 0.154 0.496 0.187 0.693 0.097v-0.268c-0.22-0.088-0.44-0.027-0.69 0.047z"/>
			<path d="m169.56 28.378c0.123 0 0.273-0.045 0.26-0.169-0.012-0.108-0.141-0.204-0.248-0.344-0.121 0.106-0.23 0.164-0.273 0.254-0.05 0.106 0.11 0.257 0.26 0.259z"/>
			<path d="m173.69 10.14c0.096-0.02 0.236-0.099 0.252-0.174 0.014-0.074-0.102-0.174-0.186-0.307-0.102 0.096-0.18 0.144-0.215 0.216-0.04 0.093 0.06 0.284 0.15 0.265z"/>
			<path d="m169.01 11.064c0.041 0.019 0.092 0.013 0.236 0.027 0-0.002 0.055-0.068 0.045-0.123-0.016-0.082-0.061-0.188-0.125-0.223-0.061-0.032-0.174-0.004-0.246 0.035-0.043 0.021-0.078 0.124-0.063 0.172 0.01 0.05 0.09 0.086 0.14 0.112z"/>
			<path d="m163.6 28.247c-0.042-0.084-0.069-0.173-0.126-0.238-0.034-0.036-0.123-0.064-0.169-0.049v0.412c0.037 0.033 0.117 0.052 0.16 0.036 0.06-0.019 0.09-0.095 0.14-0.161z"/>
			<path d="m169.16 9.964c0.16 0.044 0.361-0.092 0.307-0.192-0.049-0.092-0.158-0.15-0.279-0.259-0.086 0.11-0.178 0.183-0.201 0.275-0.01 0.045 0.1 0.156 0.17 0.176z"/>
			<path d="m171.06 9.975c0.047-0.01 0.094-0.019 0.139-0.028 0.094-0.021 0.205-0.053 0.17-0.166-0.021-0.063-0.131-0.123-0.209-0.139-0.084-0.017-0.184 0.011-0.271 0.038-0.031 0.012-0.074 0.08-0.066 0.113 0.016 0.057 0.057 0.117 0.104 0.155 0.03 0.027 0.09 0.018 0.14 0.027z"/>
			<path d="m166.43 19.048c0.023-0.054 0.021-0.165-0.008-0.183-0.069-0.043-0.169-0.071-0.246-0.054-0.08 0.017-0.148 0.093-0.26 0.17 0.098 0.081 0.16 0.146 0.234 0.181 0.14 0.058 0.24 0.009 0.29-0.114z"/>
			<path d="m174.56 10.166c0.076-0.129 0.156-0.213 0.172-0.307 0.008-0.046-0.1-0.152-0.164-0.162-0.152-0.021-0.279 0.132-0.227 0.265 0.03 0.068 0.12 0.112 0.22 0.204z"/>
			<path d="m165.71 28.046c-0.02 0.051-0.076 0.127-0.076 0.203-0.002 0.147 0.17 0.254 0.297 0.187 0.049-0.026 0.1-0.104 0.1-0.157 0-0.154-0.15-0.274-0.32-0.233z"/>
			<path d="m164.21 11c0.021 0.12 0.102 0.231 0.239 0.21 0.07-0.011 0.127-0.1 0.236-0.192-0.141-0.091-0.224-0.172-0.322-0.195-0.12-0.03-0.17 0.08-0.16 0.177z"/>
			<path d="m163.66 17.776c-0.091-0.059-0.142-0.118-0.196-0.123-0.061-0.005-0.115 0.018-0.156 0.05v0.195c0.052 0.046 0.119 0.086 0.173 0.082 0.07-0.005 0.12-0.115 0.19-0.204z"/>
			<path d="m163.92 26.963c0.041 0.049 0.074 0.125 0.124 0.137 0.08 0.019 0.17-0.004 0.411-0.021-0.216-0.123-0.298-0.189-0.392-0.215-0.03-0.011-0.09 0.064-0.14 0.099z"/>
			<path d="m164.6 8.675c-0.148-0.025-0.246-0.045-0.392-0.069 0.13 0.165 0.23 0.132 0.39 0.069z"/>
			<path d="m166.37 30.256c-0.01-0.01-0.104 0.041-0.103 0.054 0.007 0.04 0.028 0.077 0.046 0.114h0.123c0.011-0.006 0.027-0.014 0.038-0.019-0.04-0.051-0.07-0.108-0.11-0.149z"/>
			<path d="m172.99 28.225c0.016-0.041-0.047-0.105-0.094-0.206-0.063 0.088-0.109 0.133-0.127 0.185-0.006 0.028 0.053 0.108 0.064 0.104 0.06-0.018 0.15-0.039 0.16-0.083z"/>
			<path d="m170.68 28.013c-0.035-0.041-0.092-0.067-0.139-0.1-0.016 0.032-0.035 0.067-0.063 0.122 0.053 0.028 0.104 0.06 0.156 0.09 0.01-0.039 0.05-0.098 0.04-0.112z"/>
			<path d="m165.33 13.33c-0.008 0.037-0.004 0.079-0.006 0.119 0.037-0.005 0.074-0.009 0.111-0.014-0.014-0.04-0.025-0.081-0.043-0.119 0-0.005-0.05 0.005-0.06 0.014z"/>
			<path d="m165.08 23.63c-0.007 0.037 0.023 0.084 0.037 0.125 0.037-0.021 0.073-0.041 0.11-0.062-0.014-0.038-0.029-0.077-0.041-0.116-0.04 0.019-0.1 0.03-0.11 0.053z"/>
			<path d="m165.08 16.632c0.007 0.028 0.062 0.043 0.097 0.063 0.014-0.038 0.049-0.082 0.037-0.11-0.014-0.033-0.064-0.051-0.099-0.076-0.02 0.041-0.04 0.088-0.04 0.123z"/>
			<path d="m176.42 11.111c-0.025-0.063-0.033-0.123-0.061-0.132-0.035-0.012-0.098-0.004-0.125 0.021-0.018 0.019-0.004 0.115 0.004 0.115 0.06 0.007 0.12 0 0.18-0.004z"/>
			<path d="m172.86 30.418c0.001 0.002 0.001 0.004 0.002 0.006h0.148c-0.008-0.018-0.018-0.036-0.023-0.053-0.04 0.016-0.09 0.03-0.13 0.047z"/>
			<polygon points="165.86 23.645 165.84 23.698 165.88 23.698"/>
			<path d="m165.23 27.034c0.002 0.024 0.006 0.049 0.008 0.074 0.016-0.007 0.033-0.011 0.051-0.019-0.002-0.015 0.002-0.037-0.008-0.045s-0.03-0.008-0.05-0.01z"/>
		</g>
		<g id="s">
			<path d="m198.51 8.148c-0.103-0.022-0.212-0.035-0.316-0.055 0.12 0.051 0.22 0.067 0.32 0.055z" fill="none"/>
			<path d="m196.85 8.063c-0.4-0.085-0.75-0.002-1.104 0.145-0.043 0.02-0.064 0.101-0.123 0.196 0.131 0.025 0.217 0.06 0.303 0.055 0.309-0.018 0.625-0.104 0.922-0.06 0.311 0.045 0.607 0.097 0.922 0.046 0.135-0.021 0.301-0.006 0.418 0.055 0.369 0.191 0.744 0.1 1.127 0.108 0.043-0.082 0.075-0.149 0.108-0.218-0.292-0.091-0.595-0.172-0.907-0.241-0.102 0.011-0.206-0.005-0.316-0.055-0.096-0.018-0.193-0.032-0.29-0.048-0.056 0.002-0.113 0.005-0.167 0.005-0.3 0.004-0.61 0.074-0.89 0.012z" fill="#fff"/>
			<path d="m190.79 15.642c-0.102-0.252-0.277-0.247-0.439-0.226-0.217 0.027-0.433 0.032-0.648 0.034 0.047 0.143 0.102 0.283 0.16 0.42 0.117-0.015 0.23-0.041 0.348-0.088 0.17-0.07 0.36-0.089 0.58-0.14z" fill="#fff"/>
			<path d="m193.85 19.011c-0.029-0.161-0.201-0.234-0.406-0.193-0.203 0.04-0.293 0.17-0.246 0.36 0.01 0.046 0.021 0.093 0.045 0.138 0.013 0.024 0.026 0.049 0.038 0.073 0.228 0.133 0.457 0.26 0.688 0.378-0.009-0.007-0.021-0.017-0.029-0.023-0.03-0.256-0.05-0.497-0.09-0.733z" fill="#fff"/>
			<path d="m201.1 22.977c0.355 0.037 0.707 0.06 1.064 0.076 0.09 0.004 0.197-0.015 0.268-0.065 0.086-0.06 0.178-0.155 0.207-0.252 0.02-0.067-0.064-0.165-0.105-0.258-0.559 0.037-1.098 0.07-1.643 0.108-0.07 0.303 0.05 0.373 0.2 0.391z" fill="#fff"/>
			<path d="m191.66 26.661c-0.207 0.077-0.412 0.093-0.623 0.12-0.111 0.014-0.221 0.09-0.313 0.163-0.068 0.055-0.154 0.172-0.135 0.223 0.041 0.095 0.143 0.173 0.232 0.23 0.051 0.034 0.141 0.028 0.209 0.017 0.279-0.048 0.559-0.104 0.838-0.161 0.068-0.015 0.143-0.043 0.193-0.086 0.049-0.041 0.072-0.114 0.098-0.159-0.07-0.198-0.35-0.41-0.51-0.347z" fill="#fff"/>
			<path d="m199.38 27.178c0.156 0.022 0.355 0.057 0.475-0.017 0.322-0.198 0.635-0.096 0.953-0.054 0.09 0.011 0.195 0.07 0.266 0.044 0.088-0.033 0.146-0.136 0.275-0.269-0.771-0.238-1.445-0.347-2.152 0.097 0.06 0.084 0.11 0.192 0.17 0.199z" fill="#fff"/>
			<path d="m201.29 29.241c0.05-0.039 0.095-0.083 0.144-0.123-0.058 0.028-0.117 0.051-0.172 0.095 0.01 0.012 0.03 0.016 0.03 0.028z" fill="#fff"/>
			<path d="m200.8 19.752c-0.117-0.038-0.17 0.008-0.168 0.082 0.336 0.225 0.65 0.434 0.963 0.644 0.148 0.1 0.238 0.118 0.365 0.052-0.262-0.271-0.547-0.521-0.844-0.756-0.06 0.006-0.115 0-0.18 0.018-0.04 0.011-0.09-0.025-0.14-0.04z" fill="#fff"/>
			<path d="m199.42 28.959c-0.213 0.111-0.225 0.399-0.018 0.528 0.057 0.035 0.123 0.071 0.189 0.078 0.162 0.021 0.328 0.049 0.486 0.024 0.096-0.013 0.178-0.114 0.281-0.187-0.09-0.135-0.145-0.243-0.225-0.327-0.2-0.208-0.47-0.243-0.72-0.116z" fill="#fff"/>
			<path d="m197.44 29.021c-0.268 0.03-0.521 0.155-0.783 0.241 0.004 0.049 0.008 0.102 0.012 0.151 0.369-0.021 0.707 0.061 1.021 0.236 0.07 0.042 0.199 0.034 0.268-0.006 0.064-0.039 0.133-0.176 0.109-0.225-0.13-0.252-0.35-0.428-0.63-0.397z" fill="#fff"/>
			<path d="m195.65 29.07c-0.162-0.008-0.324 0.035-0.486 0.045-0.35 0.024-0.521 0.118-0.477 0.278 0.072 0.251 0.301 0.178 0.473 0.221 0.023 0.006 0.049 0.004 0.162 0.015 0.098-0.037 0.281-0.089 0.441-0.179 0.057-0.032 0.105-0.167 0.088-0.237-0.01-0.065-0.12-0.139-0.19-0.143z" fill="#fff"/>
			<path d="m197.52 17.938c0.087 0.012 0.158-0.014 0.223-0.055-0.143-0.06-0.285-0.118-0.424-0.173-0.095-0.039-0.187-0.08-0.28-0.119 0.002 0.069 0.009 0.132 0.042 0.161 0.13 0.095 0.29 0.166 0.44 0.186z" fill="#fff"/>
			<path d="m198.08 30.379c0.229 0.033 0.42 0.03 0.584 0.094 0.025 0.01 0.049 0.006 0.074 0.013 0.249-0.066 0.491-0.142 0.724-0.229-0.111-0.083-0.232-0.132-0.419-0.173-0.22-0.053-0.27-0.034-0.95 0.295z" fill="#fff"/>
			<path d="m199.68 10.375c-0.064 0.046-0.123 0.161-0.109 0.233 0.01 0.07 0.105 0.166 0.178 0.181 0.203 0.044 0.414 0.049 0.666 0.077 0.023-0.11 0.096-0.246 0.055-0.312-0.19-0.299-0.54-0.372-0.8-0.179z" fill="#fff"/>
			<path d="m198.68 19.568c-0.051-0.01-0.17 0.104-0.174 0.17-0.006 0.064 0.082 0.189 0.143 0.201 0.342 0.054 0.691 0.082 1.037 0.113 0.016 0.004 0.035-0.027 0.07-0.062-0.29-0.325-0.7-0.354-1.08-0.422z" fill="#fff"/>
			<path d="m198.28 10.889c0.131 0.003 0.277-0.168 0.299-0.345 0.016-0.167-0.135-0.288-0.389-0.31-0.121-0.009-0.242 0-0.27 0.15-0.04 0.252 0.14 0.503 0.36 0.505z" fill="#fff"/>
			<path d="m200.08 9.631c0.049-0.124 0.045-0.271-0.104-0.27-0.301 0.004-0.6 0.058-1.064 0.11 0.51 0.322 0.51 0.322 1.16 0.16z" fill="#fff"/>
			<path d="m193.21 9.739c-0.332 0.086-0.732-0.214-1.063 0.215 0.359 0.162 0.662 0.167 0.963 0.109 0.18-0.033 0.24-0.143 0.1-0.324z" fill="#fff"/>
			<path d="m200.54 24.066c0.164-0.013 0.324-0.074 0.369-0.31-0.291-0.118-0.568-0.331-0.928-0.016 0.16 0.216 0.32 0.348 0.56 0.326z" fill="#fff"/>
			<path d="m194.9 28.017c0.008 0.088 0.014 0.177 0.021 0.277 0.322 0.037 0.615 0.004 0.936-0.053-0.2-0.281-0.2-0.281-0.96-0.224z" fill="#fff"/>
			<path d="m200.06 11.681c0.24 0.199 0.441 0.192 0.549 0.009 0.107-0.182 0.123-0.41-0.15-0.563-0.12 0.178-0.25 0.345-0.4 0.554z" fill="#fff"/>
			<path d="m191.25 27.98c-0.068-0.011-0.15-0.041-0.203-0.017-0.076 0.037-0.17 0.108-0.186 0.182-0.016 0.065 0.039 0.176 0.098 0.227 0.063 0.059 0.166 0.069 0.293 0.114 0.098-0.065 0.234-0.118 0.301-0.216 0.07-0.117-0.07-0.243-0.3-0.29z" fill="#fff"/>
			<path d="m196.41 19.817c-0.254 0.03-0.51 0.073-0.76 0.129-0.049 0.012-0.113 0.1-0.111 0.149 0.002 0.045 0.082 0.12 0.133 0.126 0.314 0.031 0.596-0.077 0.895-0.234-0.06-0.078-0.11-0.172-0.15-0.17z" fill="#fff"/>
			<path d="m198.88 22.397c0.033-0.025 0.049-0.072 0.072-0.109-0.288-0.097-0.463-0.155-0.582-0.177 0.115 0.105 0.226 0.217 0.332 0.333 0.019 0.004 0.037 0.009 0.055 0.013 0.03 0.008 0.08-0.029 0.12-0.06z" fill="#fff"/>
			<path d="m196.49 18.508c-0.113 0.045-0.215 0.155-0.158 0.273 0.043 0.084 0.174 0.174 0.266 0.174 0.191 0 0.357-0.101 0.463-0.315-0.16-0.154-0.35-0.216-0.57-0.132z" fill="#fff"/>
			<path d="m199.39 11.498c0.112 0.056 0.224 0.11 0.332 0.167 0.02-0.021 0.031-0.031 0.054-0.055-0.19-0.146-0.26-0.185-0.38-0.112z" fill="#fff"/>
			<path d="m201.84 9.77c0.109-0.003 0.23-0.052 0.318-0.12 0.004-0.003 0.002-0.007 0.006-0.01-0.131-0.079-0.26-0.156-0.402-0.235-0.036 0.063-0.067 0.126-0.086 0.193-0.01 0.042 0.11 0.173 0.16 0.172z" fill="#fff"/>
			<path d="m198.93 18.84c0.041-0.003 0.109-0.104 0.1-0.145-0.01-0.056-0.078-0.128-0.133-0.141-0.225-0.056-0.395 0.024-0.592 0.293 0.27 0.001 0.44 0.01 0.62-0.007z" fill="#fff"/>
			<path d="m200.71 25.793c-0.029 0.106 0.129 0.215 0.318 0.19 0.092-0.015 0.176-0.099 0.324-0.183-0.148-0.11-0.227-0.213-0.32-0.226-0.15-0.019-0.28 0.061-0.32 0.219z" fill="#fff"/>
			<path d="m197.5 28.292c0.092-0.057 0.164-0.143 0.244-0.218-0.01-0.051-0.02-0.101-0.031-0.151-0.133 0-0.279-0.037-0.387 0.011-0.072 0.036-0.109 0.191-0.113 0.296 0 0.093 0.17 0.138 0.29 0.062z" fill="#fff"/>
			<path d="m199.3 18.738c0.02 0.08 0.059 0.179 0.121 0.217 0.132 0.081 0.196 0.062 0.287-0.12-0.103-0.059-0.206-0.118-0.31-0.174-0.05 0.025-0.1 0.061-0.1 0.077z" fill="#fff"/>
			<path d="m194.07 30.539c0.118 0.022 0.244 0.039 0.367 0.058-0.01-0.056-0.027-0.116-0.059-0.188-0.14 0.018-0.26 0.042-0.31 0.13z" fill="#fff"/>
			<path d="m199.03 28.288c0.104 0.01 0.193-0.012 0.209-0.135 0.014-0.124-0.094-0.255-0.213-0.227-0.107 0.028-0.205 0.103-0.328 0.168 0.084 0.072 0.133 0.124 0.191 0.16 0.04 0.026 0.09 0.03 0.14 0.034z" fill="#fff"/>
			<path d="m203.11 25.109c0.064-0.018 0.162-0.137 0.146-0.184-0.025-0.092-0.117-0.164-0.23-0.304-0.074 0.142-0.145 0.216-0.145 0.289 0 0.132 0.09 0.235 0.23 0.199z" fill="#fff"/>
			<path d="m191.12 10.006c0.328 0.072 0.328 0.072 0.494-0.203-0.35-0.071-0.35-0.071-0.49 0.203z" fill="#fff"/>
			<path d="m196.85 28.225c-0.098-0.063-0.166-0.139-0.201-0.126-0.072 0.026-0.131 0.099-0.195 0.154 0.064 0.057 0.129 0.153 0.189 0.153 0.05 0.002 0.12-0.1 0.2-0.181z" fill="#fff"/>
			<path d="m193.72 16.431c-0.115-0.033-0.232 0.092-0.199 0.208 0.021 0.072 0.096 0.13 0.18 0.24 0.094-0.127 0.176-0.203 0.203-0.295 0.02-0.034-0.1-0.131-0.18-0.153z" fill="#fff"/>
			<path d="m200.53 22.776c-0.199-0.069-0.309-0.108-0.461-0.163 0.09 0.215 0.22 0.192 0.46 0.163z" fill="#fff"/>
			<path d="m196.62 20.861c-0.018 0.022-0.037 0.043-0.057 0.063 0.07 0.034 0.143 0.072 0.215 0.11 0.001-0.016 0.018-0.031 0.01-0.045-0.03-0.048-0.1-0.075-0.17-0.128z" fill="#fff"/>
			<path d="m189.8 12.27c-0.018 0.134 0.105 0.256 0.195 0.207 0.051-0.027 0.076-0.101 0.133-0.184-0.08-0.059-0.145-0.12-0.221-0.15-0.03-0.008-0.11 0.079-0.11 0.127z" fill="#fff"/>
			<path d="m194.8 17.899c0.043 0.04 0.088 0.113 0.125 0.111 0.049-0.005 0.094-0.071 0.164-0.132-0.068-0.047-0.125-0.113-0.162-0.104-0.04 0.011-0.07 0.081-0.12 0.125z" fill="#fff"/>
			<path d="m197.34 9.522c0.059 0.003 0.119-0.046 0.225-0.096-0.141-0.097-0.201-0.166-0.234-0.156-0.049 0.019-0.105 0.088-0.109 0.14 0 0.037 0.07 0.11 0.12 0.112z" fill="#fff"/>
			<path d="m201.63 11.811c0.021-0.005 0.039-0.024 0.09-0.059-0.041-0.06-0.053-0.092-0.07-0.096-0.082-0.024-0.17-0.05-0.256-0.056-0.018-0.001-0.07 0.086-0.061 0.115 0.06 0.145 0.18 0.12 0.3 0.096z" fill="#fff"/>
			<path d="m199.7 24.685c0.002 0.022 0.004 0.044 0.005 0.066 0.013-0.008 0.024-0.016 0.037-0.022-0.02-0.015-0.03-0.03-0.04-0.044z" fill="#fff"/>
			<path d="m202.02 21.632c-0.051-0.042-0.092-0.09-0.143-0.108-0.031-0.014-0.078 0.019-0.119 0.029 0.051 0.057 0.098 0.116 0.152 0.165 0 0.003 0.05-0.047 0.11-0.086z" fill="#fff"/>
			<path d="m190.45 12.216c0.027 0.046 0.057 0.089 0.082 0.133 0.033-0.026 0.064-0.051 0.096-0.077-0.02-0.036-0.035-0.094-0.063-0.101-0.04-0.007-0.08 0.031-0.12 0.045z" fill="#fff"/>
			<path d="m197.18 10.543c-0.043 0.034-0.078 0.078-0.105 0.125-0.001 0.001 0.01 0.012 0.015 0.018 0.032 0.006 0.063 0.013 0.095 0.02 0.034-0.028 0.067-0.056 0.104-0.089-0.06-0.033-0.11-0.08-0.12-0.074z" fill="#fff"/>
			<path d="m197.09 30.465c0 0.008 0.027 0.011 0.041 0.015 0.006-0.017 0.014-0.035 0.018-0.052-0.016-0.006-0.039-0.018-0.045-0.014 0 0.014-0.01 0.034-0.01 0.051z" fill="#fff"/>
			<path d="m200.78 9.327c-0.014 0.004-0.037 0.001-0.043 0.012-0.012 0.014-0.01 0.038-0.014 0.054 0.027-0.004 0.051-0.011 0.078-0.016-0.02-0.017-0.02-0.033-0.03-0.05z" fill="#fff"/>
			<path d="m191.31 15.623c0.018-0.006 0.033-0.012 0.051-0.017-0.006-0.021-0.012-0.043-0.018-0.065 0 0.028-0.02 0.055-0.03 0.082z" fill="#fff"/>
			<path d="m202.76 21.607c0.016 0.004 0.032 0.012 0.046 0.009-0.011-0.018-0.02-0.036-0.031-0.054-0.001-0.001-0.003-0.001-0.005-0.002-0.01 0.015-0.01 0.03-0.02 0.047z" fill="#fff"/>
			<polygon points="190.32 28.241 190.34 28.188 190.29 28.188" fill="#fff"/>
			<polygon points="196.66 17.512 196.6 17.529 196.65 17.563" fill="#fff"/>
		</g>
	</g>
</g>
</svg>
