<?xml version="1.0" encoding="utf-8"?>
<!-- Generator: Adobe Illustrator 16.0.3, SVG Export Plug-In . SVG Version: 6.00 Build 0)  -->
<!DOCTYPE svg PUBLIC "-//W3C//DTD SVG 1.1//EN" "http://www.w3.org/Graphics/SVG/1.1/DTD/svg11.dtd">
<svg version="1.1" xmlns="http://www.w3.org/2000/svg" xmlns:xlink="http://www.w3.org/1999/xlink" x="0px" y="0px"
	 width="114.709px" height="35.333px" viewBox="-2.292 1.583 114.709 35.333" enable-background="new -2.292 1.583 114.709 35.333"
	 xml:space="preserve">
<g id="to_love">
	<g>
		<path fill="#777777" d="M33.284,30.568h-1.629c-0.11,0-0.19-0.09-0.19-0.189v-0.561c0-0.102,0.08-0.189,0.19-0.189h4.299
			c0.109,0,0.189,0.09,0.189,0.189v0.561c0,0.1-0.08,0.189-0.189,0.189h-1.63v5.867c0,0.1-0.09,0.188-0.19,0.188h-0.658
			c-0.102,0-0.19-0.09-0.19-0.188L33.284,30.568L33.284,30.568z"/>
		<path fill="#777777" d="M41.204,29.529c1.998,0,3.598,1.606,3.598,3.605s-1.6,3.59-3.598,3.59c-2,0-3.589-1.591-3.589-3.59
			S39.204,29.529,41.204,29.529z M41.204,35.727c1.428,0,2.598-1.16,2.598-2.59c0-1.419-1.168-2.606-2.598-2.606
			c-1.42,0-2.59,1.188-2.59,2.606C38.614,34.566,39.784,35.727,41.204,35.727z"/>
		<path fill="#777777" d="M50.436,29.818c0-0.102,0.08-0.189,0.189-0.189h0.66c0.1,0,0.189,0.09,0.189,0.189v5.877h2.707
			c0.108,0,0.188,0.09,0.188,0.188v0.552c0,0.1-0.08,0.188-0.188,0.188h-3.558c-0.109,0-0.189-0.09-0.189-0.188L50.436,29.818
			L50.436,29.818z"/>
		<path fill="#777777" d="M59.434,29.529c2,0,3.598,1.606,3.598,3.605s-1.598,3.59-3.598,3.59c-1.998,0-3.59-1.591-3.59-3.59
			S57.436,29.529,59.434,29.529z M59.434,35.727c1.43,0,2.6-1.16,2.6-2.59c0-1.419-1.17-2.606-2.6-2.606
			c-1.42,0-2.59,1.188-2.59,2.606C56.844,34.566,58.014,35.727,59.434,35.727z"/>
		<path fill="#777777" d="M64.485,29.889c-0.061-0.13,0.02-0.26,0.17-0.26h0.709c0.08,0,0.15,0.061,0.17,0.11l2.199,4.946h0.061
			l2.199-4.946c0.021-0.052,0.08-0.11,0.17-0.11h0.709c0.15,0,0.23,0.13,0.17,0.26l-3.066,6.729
			c-0.031,0.06-0.092,0.107-0.172,0.107h-0.1c-0.07,0-0.141-0.05-0.17-0.107L64.485,29.889z"/>
		<path fill="#777777" d="M73.055,29.818c0-0.102,0.078-0.189,0.189-0.189h3.998c0.107,0,0.188,0.09,0.188,0.189v0.561
			c0,0.1-0.08,0.189-0.188,0.189h-3.158v2.039h2.668c0.102,0,0.188,0.09,0.188,0.188v0.561c0,0.109-0.09,0.189-0.188,0.189h-2.668
			v2.146h3.158c0.107,0,0.188,0.092,0.188,0.19v0.55c0,0.102-0.08,0.189-0.188,0.189h-3.998c-0.111,0-0.189-0.09-0.189-0.189V29.818
			z"/>
	</g>
	<g>
		<g>
			<path fill="#777777" d="M17.518,33.063C17.51,33.086,17.512,33.078,17.518,33.063L17.518,33.063z M22.739,33.144
				C22.739,33.14,22.741,33.161,22.739,33.144L22.739,33.144z M22.735,33.145c-0.022-0.011-0.046-0.014-0.069-0.01
				c0.004,0.022,0.045,0.014,0.058,0.022C22.698,33.15,22.729,33.145,22.735,33.145C22.717,33.139,22.717,33.139,22.735,33.145
				C22.712,33.134,22.724,33.146,22.735,33.145z M15.016,32.738C15.025,32.719,15.018,32.735,15.016,32.738L15.016,32.738z
				 M26.883,32.958c-0.672-0.699-1.531-0.414-2.424-0.478c-0.988-0.07-2.076,0.202-3.044,0.013c0,0.051-1.891,0.046-2.078,0.031
				c-0.213-0.092-0.452,0.009-0.668,0.011c-0.331,0.002-0.656-0.026-0.986-0.01c-0.372,0.018-0.739,0.022-1.109,0.008
				c-0.281-0.013-0.675-0.108-0.944-0.001c0.016,0.011,0.032,0.021,0.048,0.032c-0.106,0.009-0.214-0.02-0.318,0.006
				c-0.069,0.004-0.16,0.008-0.216-0.037c0.072,0.051-0.086,0.045-0.112,0.011c-0.022,0.019-0.046,0.034-0.071,0.051
				c-0.039,0.011-0.076-0.017-0.113,0.013c0.045,0,0.104,0.066,0.129,0.099c-0.038-0.01,0.025,0.03,0.034,0.034
				c0.002-0.008,0.343,0.059,0.355,0.107c0.026,0.02,0.187,0.043,0.183,0.036c0.026,0.02,0.005-0.005,0.001-0.009
				c0.055-0.023,0.113,0.047,0.167,0.036c-0.025-0.104,0.129-0.04,0.188-0.032c-0.018-0.025-0.037-0.051-0.055-0.075
				c0.052,0.023,0.121,0.06,0.176,0.07c0.016,0.001,0.142,0.009,0.049,0.005c0.032,0.012,0.063,0.025,0.093,0.043
				c0.007-0.047,0.232,0.019,0.186,0.057c0.059-0.066,0.203-0.009,0.274,0.007c-0.008-0.006,0.323,0.08,0.269,0.05
				c0.015-0.068,0.562-0.044,0.503,0.048c0.021-0.024,0.033-0.031,0.063-0.042c0.029,0.035,0.121,0.045,0.057-0.068
				c0.04-0.02,0.216,0.013,0.215,0.013c0.035-0.006,0.321,0.045,0.329,0.026c0.031,0.02,0.103,0.02,0.125,0.03
				c-0.042-0.081,0.076-0.016,0.065,0.042c0.023-0.046,0.142,0.002,0.188-0.029c-0.052,0.024-0.065,0.016-0.039-0.028
				c0.031-0.003,0.061-0.004,0.091-0.006c0.024-0.015,0.204-0.035,0.196,0.042c0.02-0.04,0.234-0.035,0.241,0.028
				c0.009-0.035,0.205-0.048,0.195,0.009c0.638,0.053,1.382,0.104,2.023,0.044c0.054,0.005,0.062-0.007,0.023-0.035
				c0.072,0.025,0.232,0.027,0.287,0.065c-0.011-0.014-0.021-0.029-0.032-0.045c0.012,0.003,0.117-0.003,0.059,0.021
				c0.283-0.075,0.574,0.047,0.857-0.021c-0.007,0.009,0.434,0.052,0.445,0.025c0.019-0.009,0.037-0.02,0.054-0.034
				c-0.032,0.025-0.017,0.034,0.047,0.025c0.421,0.062,0.847,0.02,1.269,0.054c-0.041-0.026-0.031-0.033,0.031-0.02
				c0.245,0.002,0.493-0.018,0.716,0.006c0.361-0.021,0.718,0.008,1.079-0.005c0.175-0.006,0.41,0.041,0.576-0.03
				c-0.007,0.002,0.438-0.302,0.26-0.207C26.785,32.993,26.806,32.999,26.883,32.958C26.822,32.894,26.739,33.037,26.883,32.958z
				 M15.908,32.881C15.908,32.882,15.926,32.909,15.908,32.881L15.908,32.881z M14.947,32.574
				C14.914,32.572,15.006,32.601,14.947,32.574C14.936,32.573,14.954,32.577,14.947,32.574z"/>
		</g>
	</g>
	<g>
		<g>
			<path fill="#777777" d="M92.57,33.063C92.576,33.078,92.578,33.086,92.57,33.063L92.57,33.063z M87.348,33.144
				C87.346,33.161,87.349,33.14,87.348,33.144L87.348,33.144z M87.353,33.145C87.371,33.139,87.371,33.139,87.353,33.145
				c0.006,0,0.037,0.006,0.011,0.013c0.013-0.009,0.054,0,0.058-0.022C87.398,33.131,87.375,33.134,87.353,33.145
				C87.363,33.146,87.375,33.134,87.353,33.145z M95.072,32.738C95.07,32.735,95.062,32.719,95.072,32.738L95.072,32.738z
				 M83.205,32.958c0.076,0.041,0.098,0.035,0.063-0.016c-0.178-0.095,0.268,0.209,0.26,0.207c0.166,0.071,0.401,0.024,0.576,0.03
				c0.361,0.013,0.719-0.016,1.08,0.005c0.223-0.023,0.471-0.004,0.716-0.006c0.062-0.014,0.071-0.007,0.03,0.02
				c0.423-0.034,0.849,0.008,1.27-0.054c0.064,0.009,0.08,0,0.047-0.025c0.018,0.015,0.035,0.025,0.055,0.034
				c0.01,0.026,0.451-0.017,0.444-0.025c0.283,0.068,0.575-0.054,0.857,0.021c-0.058-0.023,0.047-0.018,0.06-0.021
				c-0.012,0.016-0.021,0.031-0.033,0.045c0.055-0.038,0.216-0.04,0.287-0.065c-0.038,0.028-0.03,0.04,0.023,0.035
				c0.642,0.061,1.386,0.009,2.023-0.044c-0.01-0.057,0.186-0.044,0.195-0.009c0.006-0.063,0.221-0.068,0.24-0.028
				c-0.008-0.077,0.172-0.057,0.195-0.042c0.031,0.002,0.061,0.003,0.092,0.006c0.027,0.044,0.014,0.053-0.039,0.028
				c0.047,0.031,0.166-0.017,0.189,0.029c-0.012-0.058,0.107-0.123,0.064-0.042c0.023-0.011,0.094-0.011,0.125-0.03
				c0.008,0.019,0.295-0.032,0.329-0.026c-0.001,0,0.175-0.032,0.216-0.013c-0.064,0.113,0.027,0.104,0.057,0.068
				c0.029,0.011,0.041,0.018,0.063,0.042c-0.059-0.092,0.488-0.116,0.502-0.048c-0.055,0.03,0.277-0.056,0.27-0.05
				c0.07-0.016,0.215-0.073,0.273-0.007c-0.046-0.038,0.179-0.104,0.186-0.057c0.03-0.018,0.061-0.031,0.094-0.043
				c-0.094,0.004,0.033-0.004,0.049-0.005c0.055-0.011,0.123-0.047,0.176-0.07c-0.018,0.024-0.037,0.05-0.055,0.075
				c0.059-0.008,0.212-0.071,0.188,0.032c0.054,0.011,0.112-0.06,0.167-0.036c-0.005,0.004-0.024,0.028,0.001,0.009
				c-0.004,0.007,0.156-0.017,0.183-0.036c0.013-0.049,0.354-0.115,0.355-0.107c0.009-0.004,0.071-0.044,0.034-0.034
				c0.025-0.032,0.084-0.099,0.129-0.099c-0.036-0.029-0.074-0.002-0.112-0.013c-0.025-0.017-0.05-0.032-0.071-0.051
				c-0.025,0.034-0.184,0.04-0.111-0.011c-0.057,0.045-0.146,0.041-0.217,0.037c-0.104-0.025-0.211,0.003-0.318-0.006
				c0.017-0.012,0.033-0.021,0.049-0.032c-0.27-0.107-0.664-0.012-0.945,0.001c-0.37,0.015-0.737,0.01-1.109-0.008
				c-0.329-0.017-0.654,0.012-0.985,0.01c-0.216-0.002-0.456-0.103-0.669-0.011c-0.187,0.015-2.077,0.02-2.077-0.031
				c-0.969,0.189-2.056-0.083-3.044-0.013C84.736,32.544,83.876,32.259,83.205,32.958C83.348,33.037,83.265,32.894,83.205,32.958z
				 M94.179,32.881C94.162,32.909,94.179,32.882,94.179,32.881L94.179,32.881z M95.14,32.574
				C95.082,32.601,95.173,32.572,95.14,32.574C95.134,32.577,95.152,32.573,95.14,32.574z"/>
		</g>
	</g>
</g>
<g id="homes">
	<g>
		<path fill="#49BF5C" d="M-2.052,2.58c0-0.265,0.239-0.503,0.503-0.503h3.154c0.292,0,0.503,0.238,0.503,0.503v6.677h7.579V2.58
			c0-0.265,0.213-0.503,0.504-0.503h3.153c0.265,0,0.503,0.238,0.503,0.503v17.539c0,0.268-0.238,0.507-0.503,0.507H10.19
			c-0.291,0-0.504-0.239-0.504-0.507v-6.966H2.107v6.966c0,0.268-0.211,0.507-0.503,0.507h-3.154c-0.264,0-0.503-0.239-0.503-0.507
			V2.58z"/>
		<path fill="#49BF5C" d="M32.219,1.812c5.3,0,9.539,4.265,9.539,9.565c0,5.3-4.239,9.515-9.539,9.515
			c-5.299,0-9.512-4.215-9.512-9.515C22.707,6.077,26.92,1.812,32.219,1.812z M32.219,16.652c2.916,0,5.3-2.387,5.3-5.275
			c0-2.914-2.384-5.325-5.3-5.325c-2.888,0-5.273,2.411-5.273,5.325C26.946,14.265,29.331,16.652,32.219,16.652z"/>
		<path fill="#49BF5C" d="M52.447,2.235c0.027-0.238,0.266-0.424,0.478-0.424h0.424c0.135,0,0.372,0.106,0.452,0.265l6.146,11.447
			H60l6.148-11.447c0.078-0.159,0.318-0.265,0.45-0.265h0.424c0.211,0,0.452,0.186,0.478,0.424l2.994,17.806
			c0.053,0.346-0.188,0.585-0.503,0.585h-3.127c-0.238,0-0.479-0.216-0.505-0.427l-1.192-8.187h-0.053l-4.451,8.586
			c-0.08,0.158-0.319,0.293-0.452,0.293h-0.477c-0.157,0-0.37-0.135-0.448-0.293l-4.48-8.586h-0.051l-1.167,8.187
			c-0.027,0.211-0.239,0.427-0.503,0.427h-3.128c-0.318,0-0.557-0.239-0.503-0.585L52.447,2.235z"/>
		<path fill="#49BF5C" d="M79.666,2.58c0-0.265,0.213-0.503,0.504-0.503h10.972c0.291,0,0.502,0.238,0.502,0.503v2.889
			c0,0.264-0.211,0.503-0.502,0.503h-7.342v3.286h6.041c0.268,0,0.505,0.238,0.505,0.504v2.888c0,0.29-0.237,0.504-0.505,0.504
			h-6.041v3.576h7.342c0.291,0,0.502,0.24,0.502,0.504v2.886c0,0.268-0.211,0.507-0.502,0.507H80.169
			c-0.291,0-0.504-0.239-0.504-0.507V2.58z"/>
		<path fill="#49BF5C" d="M99.789,18.107l1.246-2.198c0.211-0.344,0.715-0.292,0.899-0.159c0.105,0.053,2.012,1.455,3.765,1.455
			c1.06,0,1.826-0.662,1.826-1.588c0-1.113-0.925-1.962-2.729-2.677c-2.278-0.898-5.141-2.676-5.141-5.855
			c0-2.623,2.041-5.272,6.121-5.272c2.757,0,4.875,1.404,5.671,1.988c0.319,0.186,0.266,0.662,0.158,0.848l-1.353,2.04
			c-0.185,0.292-0.661,0.53-0.9,0.345c-0.236-0.133-2.172-1.59-3.788-1.59c-0.954,0-1.672,0.635-1.672,1.353
			c0,0.979,0.798,1.721,2.891,2.57c2.069,0.822,5.353,2.437,5.353,6.041c0,2.729-2.356,5.486-6.254,5.486
			c-3.444,0-5.351-1.434-5.961-2.043C99.656,18.585,99.578,18.479,99.789,18.107z"/>
	</g>
</g>
<g id="top_texture">
	<g id="h" opacity="0.4">
		<path fill="#FFFFFF" d="M-1.185,11.957c-0.027-0.022-0.04-0.041-0.055-0.043c-0.006-0.001-0.012-0.004-0.018-0.005v0.269
			c0.02-0.027,0.027-0.056,0.05-0.083C-1.18,12.065-1.19,11.998-1.185,11.957z"/>
		<path fill="#FFFFFF" d="M0.995,16.472c0.004,0.103,0.069,0.171,0.171,0.187c0.047,0.006,0.101,0.007,0.147-0.002v-0.4
			c-0.053,0.008-0.106,0.016-0.159,0.023C1.051,16.295,0.991,16.369,0.995,16.472z"/>
		<path fill="#FFFFFF" d="M0.992,17.019c-0.181,0.006-0.362,0.034-0.541,0.018c-0.189-0.019-0.369,0.114-0.572-0.003
			c-0.083-0.046-0.253,0.019-0.363,0.077c-0.059,0.031-0.099,0.152-0.097,0.23c0.002,0.112,0.137,0.208,0.233,0.177
			c0.172-0.059,0.338-0.131,0.524-0.205c0.259,0.155,0.54,0.206,0.869,0.138c0.088-0.018,0.179-0.013,0.268-0.017v-0.483
			c-0.054,0.019-0.108,0.035-0.16,0.074C1.12,17.05,1.047,17.018,0.992,17.019z"/>
		<path fill="#FFFFFF" d="M-0.762,4.983c0.082-0.029,0.18-0.017,0.27-0.012c0.232,0.014,0.425-0.07,0.627-0.238
			c-0.198-0.302-0.43-0.493-0.809-0.412c-0.209-0.196-0.305-0.543-0.584-0.629v1.236C-1.102,4.992-0.944,5.049-0.762,4.983z"/>
		<path fill="#FFFFFF" d="M-0.69,14.507c-0.176-0.093-0.352-0.185-0.534-0.282c-0.013,0.007-0.021,0.013-0.034,0.02v0.535
			c0.105-0.032,0.202-0.094,0.285-0.207c0.367,0.199,0.369,0.178,0.723,0.209c0.487,0.04,0.99-0.056,1.458,0.173
			c0.036,0.018,0.071,0.024,0.106,0.024V14.43c-0.569-0.009-1.138-0.019-1.709-0.016C-0.497,14.415-0.599,14.477-0.69,14.507z"/>
		<path fill="#FFFFFF" d="M12.236,12.871c-0.034,0.196-0.066,0.394-0.1,0.589c-0.024,0.144,0.069,0.243,0.268,0.227
			c0.036-0.031,0.143-0.078,0.153-0.142c0.04-0.256,0.125-0.489,0.245-0.717c0.023-0.042-0.052-0.185-0.113-0.212
			C12.502,12.534,12.27,12.677,12.236,12.871z"/>
		<path fill="#FFFFFF" d="M0.849,19.069c0.14,0.171,0.282,0.225,0.465,0.188v-0.499c-0.163,0.011-0.324,0.026-0.513,0.04
			C0.818,18.908,0.802,19.014,0.849,19.069z"/>
		<path fill="#FFFFFF" d="M-1.258,17.13v0.273c0.087-0.023,0.177-0.058,0.272-0.122C-1.08,17.224-1.17,17.172-1.258,17.13z"/>
		<path fill="#FFFFFF" d="M11.845,10.805c-0.105,0.028-0.188,0.114-0.143,0.327c0.266,0,0.52,0.003,0.774-0.002
			c0.111-0.002,0.191-0.11,0.178-0.227c-0.012-0.114-0.112-0.201-0.223-0.188C12.234,10.74,12.036,10.758,11.845,10.805z"/>
		<path fill="#FFFFFF" d="M11.258,14.61c0.029-0.002,0.05-0.08,0.077-0.126c-0.384-0.171-0.487-0.18-0.854-0.043v0.134
			c0.034,0.033,0.066,0.058,0.099,0.06C10.805,14.645,11.031,14.629,11.258,14.61z"/>
		<path fill="#FFFFFF" d="M0.561,6.259C0.455,6.272,0.346,6.282,0.243,6.315C0.211,6.326,0.188,6.397,0.18,6.444
			c-0.003,0.02,0.043,0.067,0.071,0.069C0.57,6.545,0.891,6.577,1.313,6.356V6.35C1.019,6.312,0.844,6.288,0.67,6.267
			C0.634,6.262,0.597,6.254,0.561,6.259z"/>
		<path fill="#FFFFFF" d="M1.604,10.99c-0.123-0.03-0.251-0.064-0.374-0.056c-0.069,0.004-0.132,0.094-0.25,0.184
			c0.404,0.218,0.404,0.219,0.584,0.212c0.098-0.004,0.188-0.033,0.198-0.146C1.772,11.078,1.696,11.013,1.604,10.99z"/>
		<path fill="#FFFFFF" d="M1.583,10.188c0.233,0.313,0.303,0.318,0.772,0.04C2.102,10.168,1.854,9.916,1.583,10.188z"/>
		<path fill="#FFFFFF" d="M7.665,11.765c0.239,0.285,0.409,0.289,0.868,0.074C8.271,11.636,8.001,11.73,7.665,11.765z"/>
		<path fill="#FFFFFF" d="M12.625,4.93c0.155,0.021,0.293,0.053,0.428,0.049V4.643c-0.101-0.019-0.209-0.03-0.304-0.004
			C12.655,4.665,12.553,4.746,12.625,4.93z"/>
		<path fill="#FFFFFF" d="M11.865,17.944c0.278,0.25,0.326,0.254,0.812,0.062C12.407,17.761,12.296,17.753,11.865,17.944z"/>
		<path fill="#FFFFFF" d="M1.313,3.933V3.616C1.229,3.647,1.136,3.722,1.011,3.856C1.124,3.885,1.222,3.91,1.313,3.933z"/>
		<path fill="#FFFFFF" d="M-0.123,3.524C-0.164,3.499-0.221,3.5-0.264,3.491C-0.387,3.595-0.42,3.722-0.353,3.842
			c0.074,0.133,0.211,0.128,0.339,0.085c0.064-0.021,0.123-0.063,0.271-0.14C0.081,3.665-0.017,3.588-0.123,3.524z"/>
		<path fill="#FFFFFF" d="M0.32,9.315c-0.032,0.012-0.056,0.097-0.047,0.14c0.009,0.043,0.064,0.108,0.099,0.108
			c0.126,0,0.253-0.013,0.375-0.041C0.905,9.484,0.912,9.4,0.768,9.176C0.625,9.218,0.469,9.257,0.32,9.315z"/>
		<path fill="#FFFFFF" d="M-0.288,18.294c0.154-0.027,0.276-0.091,0.299-0.332c-0.128-0.036-0.229-0.078-0.333-0.086
			c-0.141-0.011-0.227,0.109-0.208,0.254C-0.514,18.242-0.407,18.313-0.288,18.294z"/>
		<path fill="#FFFFFF" d="M11.599,5.03c0.143-0.04,0.285-0.072,0.42-0.124c0.034-0.013,0.068-0.091,0.062-0.132
			c-0.007-0.043-0.059-0.1-0.102-0.111c-0.17-0.048-0.33-0.004-0.462,0.108c-0.032,0.027-0.05,0.1-0.038,0.142
			C11.492,4.955,11.55,4.985,11.599,5.03z"/>
		<path fill="#FFFFFF" d="M0.929,18.268c-0.027-0.104-0.022-0.224-0.072-0.255c-0.099-0.061-0.227-0.088-0.345-0.094
			c-0.04-0.002-0.102,0.088-0.123,0.149c-0.011,0.031,0.03,0.102,0.067,0.128C0.574,18.283,0.707,18.33,0.929,18.268z"/>
		<path fill="#FFFFFF" d="M12.128,10.313c0.13,0.003,0.191-0.076,0.167-0.242c-0.125-0.023-0.26-0.051-0.396-0.062
			c-0.019-0.002-0.072,0.088-0.063,0.125C11.871,10.283,12.003,10.309,12.128,10.313z"/>
		<path fill="#FFFFFF" d="M7.891,11.217c0.12,0.01,0.23-0.077,0.22-0.174C8.1,10.945,7.96,10.829,7.81,10.814
			c-0.028,0.037-0.088,0.084-0.104,0.142C7.667,11.098,7.75,11.205,7.891,11.217z"/>
		<path fill="#FFFFFF" d="M4.729,10.827c0.111,0.169,0.25,0.167,0.389,0.121c0.038-0.011,0.075-0.079,0.076-0.124
			c0-0.043-0.035-0.107-0.073-0.127C4.971,10.621,4.85,10.676,4.729,10.827z"/>
		<path fill="#FFFFFF" d="M-1.186,11.302c0.15-0.044,0.318-0.072,0.369-0.272c-0.178-0.071-0.309-0.008-0.426,0.075
			c-0.008,0.006-0.01,0.023-0.015,0.036v0.124C-1.243,11.284-1.205,11.307-1.186,11.302z"/>
		<path fill="#FFFFFF" d="M-0.504,5.669c0.071-0.02,0.125-0.096,0.224-0.177c-0.108-0.078-0.168-0.146-0.242-0.168
			C-0.611,5.3-0.736,5.449-0.709,5.542C-0.682,5.638-0.597,5.699-0.504,5.669z"/>
		<path fill="#FFFFFF" d="M-0.441,8.636C-0.394,8.44-0.413,8.373-0.54,8.345c-0.106-0.021-0.22-0.048-0.304,0.056
			c-0.056,0.067,0.06,0.185,0.24,0.234C-0.553,8.648-0.495,8.636-0.441,8.636z"/>
		<path fill="#FFFFFF" d="M-0.642,10.291c0.044-0.005,0.09-0.003,0.134-0.012c0.052-0.01,0.102-0.04,0.153-0.043
			c0.071-0.005,0.146,0.019,0.216,0.008c0.038-0.005,0.07-0.056,0.116-0.095C-0.274,10.073-0.274,10.073-0.642,10.291z"/>
		<path fill="#FFFFFF" d="M-0.778,18.917c-0.01,0.038,0.02,0.109,0.054,0.133c0.113,0.075,0.233,0.069,0.368-0.035
			c-0.06-0.19-0.198-0.182-0.314-0.193C-0.705,18.818-0.769,18.876-0.778,18.917z"/>
		<path fill="#FFFFFF" d="M11.236,19.679c-0.03,0-0.058,0.07-0.087,0.107c0.016,0.012,0.033,0.027,0.05,0.042h0.184
			c0.084-0.031,0.176-0.07,0.314-0.126C11.479,19.687,11.357,19.673,11.236,19.679z"/>
		<path fill="#FFFFFF" d="M1.313,7.311V7.279c-0.013,0.009-0.02,0.012-0.034,0.022C1.293,7.306,1.301,7.307,1.313,7.311z"/>
		<path fill="#FFFFFF" d="M-0.946,18.128c-0.094-0.03-0.175-0.063-0.258-0.082c-0.015-0.002-0.035,0.02-0.053,0.038v0.138
			C-1.181,18.319-1.093,18.298-0.946,18.128z"/>
		<path fill="#FFFFFF" d="M1.305,3.021c0.003,0,0.006,0,0.009,0V2.867H1.25C1.24,2.88,1.227,2.895,1.227,2.905
			C1.227,2.946,1.273,3.018,1.305,3.021z"/>
		<path fill="#FFFFFF" d="M0.65,2.991C0.649,2.945,0.637,2.907,0.628,2.867H0.455C0.486,2.928,0.538,2.977,0.65,2.991z"/>
		<path fill="#FFFFFF" d="M-1.217,2.867h-0.041v0.054c0.018-0.019,0.034-0.028,0.056-0.048C-1.208,2.87-1.21,2.87-1.217,2.867z"/>
		<path fill="#FFFFFF" d="M12.49,3.101c0.005-0.02-0.028-0.072-0.047-0.074c-0.082-0.009-0.166-0.003-0.249-0.003
			c-0.007,0.031-0.014,0.063-0.021,0.096c0.081,0.016,0.164,0.042,0.247,0.048C12.442,3.17,12.483,3.127,12.49,3.101z"/>
		<path fill="#FFFFFF" d="M2.353,11.051c-0.056,0.036-0.106,0.081-0.158,0.121c0.027,0.019,0.054,0.038,0.112,0.081
			c0.037-0.044,0.08-0.089,0.114-0.14C2.424,11.109,2.362,11.046,2.353,11.051z"/>
		<path fill="#FFFFFF" d="M11.655,8.246c-0.023,0.067-0.047,0.109-0.045,0.149c0.001,0.02,0.062,0.057,0.079,0.049
			c0.037-0.017,0.063-0.058,0.093-0.089C11.747,8.325,11.712,8.296,11.655,8.246z"/>
		<path fill="#FFFFFF" d="M5.269,10.048H5.082c0.044,0.038,0.081,0.082,0.108,0.077C5.22,10.119,5.254,10.081,5.269,10.048z"/>
		<path fill="#FFFFFF" d="M11.495,17.055c-0.03-0.009-0.063-0.028-0.09-0.022c-0.016,0.001-0.024,0.043-0.038,0.068
			c0.029,0.01,0.063,0.037,0.084,0.029C11.472,17.124,11.481,17.08,11.495,17.055z"/>
		<path fill="#FFFFFF" d="M2.077,11.998c0.028,0.013,0.063,0.038,0.086,0.033c0.022-0.008,0.033-0.049,0.048-0.077
			c-0.03-0.013-0.061-0.022-0.09-0.034C2.105,11.947,2.091,11.974,2.077,11.998z"/>
		<path fill="#FFFFFF" d="M-1.035,15.443c0.012-0.003,0.024-0.008,0.037-0.012c-0.017-0.01-0.034-0.024-0.051-0.037
			C-1.045,15.411-1.041,15.428-1.035,15.443z"/>
		<path fill="#FFFFFF" d="M9.87,11.87c0.016-0.004,0.036-0.006,0.048-0.013c0.007-0.003,0.004-0.022,0.005-0.034
			c-0.016-0.005-0.031-0.011-0.047-0.015C9.875,11.829,9.873,11.849,9.87,11.87z"/>
		<polygon fill="#FFFFFF" points="11.254,10.093 11.255,10.059 11.216,10.076 		"/>
		<polygon fill="#FFFFFF" points="-0.438,6.499 -0.452,6.453 -0.479,6.491 		"/>
	</g>
	<g id="o" opacity="0.4">
		<path fill="#FFFFFF" d="M33.807,2.902c-0.088-0.021-0.18-0.069-0.263-0.058c-0.364,0.048-0.727,0.11-1.088,0.178
			c-0.057,0.011-0.103,0.077-0.165,0.128c0.327,0.195,0.61,0.26,0.901,0.238c0.511-0.038,1.021-0.149,1.538-0.064
			c0.089,0.014,0.186,0.01,0.275-0.004c0.193-0.026,0.387-0.043,0.58-0.054c-0.411-0.17-0.84-0.299-1.275-0.405
			C34.022,2.95,34.012,2.95,33.807,2.902z"/>
		<path fill="#FFFFFF" d="M34.82,2.173c0.003,0.001,0.007,0.002,0.01,0.003C34.827,2.175,34.824,2.174,34.82,2.173z"/>
		<path fill="#FFFFFF" d="M30.964,4.521c-0.164,0.047-0.331,0.095-0.536,0.153C30.518,4.923,30.653,5,30.831,5.018
			c0.306,0.032,0.605,0.027,0.899,0.19c0.212,0.118,0.461,0.005,0.598-0.214c-0.042-0.289-0.33-0.362-0.429-0.567
			c0.044-0.521,0.044-0.521-0.433-0.623c-0.019-0.005-0.037-0.006-0.053-0.014c-0.333-0.146-0.587,0.017-0.833,0.18
			C30.591,4.264,30.878,4.319,30.964,4.521z"/>
		<path fill="#FFFFFF" d="M37.915,13.51c-0.04,0.104-0.079,0.208-0.124,0.31c0.068,0.011,0.136,0.016,0.205,0.029
			c0.25,0.053,0.513,0.057,0.77,0.048c0.115-0.001,0.229-0.082,0.365-0.135c-0.124-0.208-0.268-0.274-0.475-0.266
			C38.409,13.506,38.162,13.507,37.915,13.51z"/>
		<path fill="#FFFFFF" d="M32.759,19.534c-0.143,0-0.29,0.025-0.426,0.066c-0.177,0.053-0.342,0.072-0.534,0.045
			c-0.249-0.039-0.509-0.014-0.763-0.006c-0.042,0.002-0.123,0.064-0.119,0.078c0.018,0.057,0.047,0.136,0.095,0.159
			c0.336,0.164,0.674,0.127,0.988-0.029c0.526,0.166,0.602,0.17,1.019,0.059C33.007,19.622,32.953,19.53,32.759,19.534z"/>
		<path fill="#FFFFFF" d="M27.32,7.365c-0.148,0.326-0.28,0.618-0.417,0.919c0.022,0.014,0.042,0.028,0.063,0.042
			c0.175-0.306,0.372-0.597,0.595-0.867C27.513,7.404,27.447,7.362,27.32,7.365z"/>
		<path fill="#FFFFFF" d="M37.568,5.681c-0.046,0.023-0.139-0.023-0.206-0.049c-0.101-0.04-0.197-0.09-0.307-0.142
			c-0.083,0.061-0.15,0.141-0.23,0.159C36.73,5.67,36.623,5.64,36.521,5.635c-0.017,0-0.041,0.005-0.049,0.019
			c-0.031,0.04-0.079,0.086-0.076,0.128c0.003,0.04,0.07,0.111,0.096,0.107c0.179-0.041,0.344-0.037,0.517,0.046
			c0.071,0.035,0.183,0.019,0.265-0.008c0.376-0.121,0.744-0.18,1.117,0.017c0.05,0.026,0.14-0.012,0.206-0.036
			c0.132-0.048,0.134-0.077,0.049-0.288c-0.183,0-0.366,0.017-0.543-0.003C37.914,5.593,37.743,5.587,37.568,5.681z"/>
		<path fill="#FFFFFF" d="M26.354,13.396c-0.352-0.088-0.69-0.025-1.017,0.112c-0.052,0.023-0.077,0.109-0.119,0.172
			c0.07,0.044,0.113,0.098,0.159,0.101c0.292,0.026,0.587,0.045,0.881,0.054c0.068,0.001,0.142-0.039,0.207-0.068
			c0.098-0.048,0.112-0.207,0.024-0.285C26.448,13.448,26.404,13.408,26.354,13.396z"/>
		<path fill="#FFFFFF" d="M25.715,13.06c0.196-0.009,0.391-0.059,0.63-0.099c-0.041-0.314-0.074-0.37-0.237-0.376
			c-0.232-0.009-0.466-0.001-0.676-0.001c-0.121,0.144-0.115,0.275-0.006,0.368C25.501,13.013,25.62,13.063,25.715,13.06z"/>
		<path fill="#FFFFFF" d="M34.304,5.109c0.175,0.037,0.351,0.022,0.485-0.213c-0.274,0.056-0.472-0.033-0.674-0.175
			c-0.082-0.058-0.246-0.014-0.368,0.015c-0.097,0.025-0.134,0.111-0.081,0.195C33.89,4.994,34.093,5.065,34.304,5.109z"/>
		<path fill="#FFFFFF" d="M33.256,18.681c-0.203,0.129-0.405,0.129-0.624,0.065c-0.038-0.012-0.091,0.031-0.133,0.048
			c0,0.035-0.007,0.059,0.001,0.071c0.236,0.293,0.552,0.212,0.853,0.175c0.092-0.015,0.158-0.173,0.123-0.276
			C33.439,18.656,33.331,18.633,33.256,18.681z"/>
		<path fill="#FFFFFF" d="M25.545,14.336c-0.249-0.025-0.499-0.034-0.749-0.037c-0.035,0-0.069,0.076-0.127,0.143
			c0.276,0.25,0.562,0.262,0.854,0.222c0.057-0.006,0.13-0.072,0.149-0.129C25.708,14.434,25.641,14.349,25.545,14.336z"/>
		<path fill="#FFFFFF" d="M33.839,17.82c-0.303-0.007-0.621-0.132-0.96,0.165c0.125,0.062,0.229,0.152,0.272,0.131
			c0.225-0.122,0.427-0.002,0.639,0.021c0.051,0.004,0.132-0.053,0.162-0.105C33.996,17.957,33.92,17.822,33.839,17.82z"/>
		<path fill="#FFFFFF" d="M30.408,3.349c0.163-0.014,0.327-0.025,0.489-0.042c0.034-0.004,0.071-0.02,0.098-0.042
			c0.025-0.021,0.049-0.056,0.051-0.087c0.002-0.03-0.02-0.086-0.039-0.09C30.75,3.035,30.5,2.878,30.224,3.04
			c-0.081,0.045-0.184,0.067-0.148,0.178c0.018,0.051,0.105,0.088,0.168,0.115C30.292,3.351,30.353,3.344,30.408,3.349z"/>
		<path fill="#FFFFFF" d="M24.489,13.798c0.018-0.195-0.11-0.271-0.233-0.341c-0.132-0.074-0.274-0.089-0.421-0.036
			c-0.035,0.013-0.051,0.046-0.071,0.074c0.022,0.091,0.042,0.183,0.067,0.272c0.066,0.058,0.142,0.097,0.236,0.088
			C24.209,13.849,24.35,13.819,24.489,13.798z"/>
		<path fill="#FFFFFF" d="M40.031,14.4c-0.048,0.011-0.113,0.108-0.106,0.157c0.006,0.052,0.084,0.103,0.14,0.139
			c0.023,0.016,0.07,0.001,0.104-0.005c0.052-0.011,0.109-0.024,0.164-0.036c0.03-0.075,0.053-0.152,0.081-0.228
			c-0.02-0.007-0.042-0.018-0.062-0.023C40.248,14.384,40.134,14.378,40.031,14.4z"/>
		<path fill="#FFFFFF" d="M25.242,11.992c-0.008-0.108-0.009-0.163-0.016-0.214c-0.005-0.036-0.014-0.072-0.029-0.104
			c-0.075-0.156-0.22-0.198-0.352-0.098c-0.055,0.042-0.102,0.101-0.137,0.162c-0.058,0.098,0.004,0.242,0.114,0.251
			C24.944,12.001,25.069,11.992,25.242,11.992z"/>
		<path fill="#FFFFFF" d="M35.279,5.77c-0.345-0.346-0.345-0.346-0.683-0.126c0.026,0.057,0.049,0.09,0.072,0.13
			c0.101,0.044,0.198,0.094,0.296,0.144C35.045,5.893,35.14,5.85,35.279,5.77z"/>
		<path fill="#FFFFFF" d="M36.748,4.098c0.153,0.033,0.308,0.058,0.462,0.064c-0.146-0.102-0.297-0.195-0.449-0.288
			c-0.039,0.031-0.082,0.061-0.099,0.102C36.651,4.002,36.71,4.089,36.748,4.098z"/>
		<path fill="#FFFFFF" d="M23.587,11.95c0.281,0.069,0.539,0.239,0.833-0.056C23.933,11.662,23.868,11.667,23.587,11.95z"/>
		<path fill="#FFFFFF" d="M36.042,5.034c0.046-0.084,0.027-0.191-0.071-0.222c-0.152-0.049-0.312-0.077-0.469-0.089
			c-0.052-0.003-0.109,0.073-0.205,0.14c0.209,0.188,0.398,0.239,0.587,0.281C35.927,5.155,36.012,5.087,36.042,5.034z"/>
		<path fill="#FFFFFF" d="M31.657,3.347c0.126-0.043,0.215-0.174,0.203-0.289c-0.006-0.017-0.007-0.047-0.018-0.05
			c-0.098-0.027-0.21-0.089-0.294-0.062c-0.085,0.026-0.146,0.138-0.208,0.219c-0.012,0.014,0.011,0.068,0.03,0.094
			C31.441,3.359,31.544,3.385,31.657,3.347z"/>
		<path fill="#FFFFFF" d="M26.296,7.622c0.12-0.025,0.258-0.033,0.287-0.195c-0.071-0.128-0.189-0.156-0.32-0.146
			c-0.112,0.009-0.218,0.113-0.216,0.205C26.049,7.575,26.171,7.646,26.296,7.622z"/>
		<path fill="#FFFFFF" d="M27.351,5.523C27.231,5.55,27.16,5.62,27.175,5.79c0.391,0.026,0.391,0.026,0.542-0.109
			C27.493,5.494,27.493,5.491,27.351,5.523z"/>
		<path fill="#FFFFFF" d="M40.189,13.735c-0.047-0.026-0.091-0.056-0.139-0.076c-0.068-0.024-0.138-0.042-0.208-0.05
			c-0.069-0.008-0.149-0.014-0.159,0.091C40.004,13.923,40.004,13.923,40.189,13.735z"/>
		<path fill="#FFFFFF" d="M27.134,5c0.101-0.052,0.188-0.131,0.383-0.276c-0.243,0.012-0.359,0.009-0.471,0.03
			c-0.026,0.004-0.065,0.101-0.049,0.128C27.026,4.933,27.112,5.011,27.134,5z"/>
		<path fill="#FFFFFF" d="M34.641,17.898c-0.093-0.012-0.197-0.012-0.209,0.112c-0.013,0.112,0.077,0.156,0.171,0.175
			c0.1,0.021,0.179-0.011,0.209-0.11C34.822,17.943,34.735,17.911,34.641,17.898z"/>
		<path fill="#FFFFFF" d="M25.701,15.406c-0.005,0.042,0.026,0.117,0.059,0.127c0.153,0.056,0.302,0.053,0.464-0.119
			c-0.174-0.048-0.301-0.089-0.432-0.114C25.767,15.296,25.707,15.365,25.701,15.406z"/>
		<path fill="#FFFFFF" d="M28.384,18.793c-0.092,0.028-0.175,0.086-0.266,0.132c0.105,0.165,0.214,0.193,0.338,0.092
			c0.032-0.026,0.056-0.1,0.042-0.137C28.486,18.839,28.413,18.784,28.384,18.793z"/>
		<path fill="#FFFFFF" d="M26.371,6.768c0.051-0.001,0.148-0.083,0.142-0.108c-0.017-0.073-0.078-0.137-0.144-0.239
			c-0.069,0.078-0.135,0.122-0.146,0.175C26.2,6.698,26.273,6.772,26.371,6.768z"/>
		<path fill="#FFFFFF" d="M30.221,17.166c0.101,0.027,0.204,0.051,0.307,0.054c0.006,0,0.012-0.013,0.018-0.019
			c-0.113-0.033-0.224-0.07-0.334-0.108C30.207,17.124,30.212,17.166,30.221,17.166z"/>
		<path fill="#FFFFFF" d="M26.093,9.987c-0.048,0.031-0.098,0.055-0.127,0.093c-0.014,0.018,0,0.076,0.02,0.099
			c0.071,0.084,0.203,0.074,0.283,0.009c0.008-0.041,0.018-0.082,0.026-0.123C26.234,10.033,26.167,10.014,26.093,9.987z"/>
		<path fill="#FFFFFF" d="M38.426,12.777c0.037,0.106,0.131,0.122,0.221,0.096c0.039-0.01,0.062-0.075,0.114-0.146
			c-0.093-0.041-0.166-0.103-0.241-0.107C38.441,12.618,38.397,12.695,38.426,12.777z"/>
		<path fill="#FFFFFF" d="M39.024,14.49c-0.001,0.088,0.057,0.176,0.159,0.172c0.052-0.005,0.101-0.064,0.19-0.121
			c-0.099-0.08-0.154-0.148-0.223-0.171C39.122,14.363,39.025,14.447,39.024,14.49z"/>
		<path fill="#FFFFFF" d="M38.509,17.283c0.048,0.023,0.092,0.019,0.137,0.02c0.054-0.059,0.108-0.117,0.161-0.177
			C38.58,17.021,38.556,17.046,38.509,17.283z"/>
		<path fill="#FFFFFF" d="M27.242,6.693c0.023,0.054,0.093,0.123,0.143,0.122c0.047,0,0.093-0.082,0.171-0.158
			c-0.096-0.052-0.15-0.105-0.208-0.109C27.262,6.542,27.208,6.614,27.242,6.693z"/>
		<path fill="#FFFFFF" d="M36.325,6.773c0.055-0.016,0.096-0.076,0.199-0.164c-0.145-0.031-0.225-0.069-0.296-0.058
			c-0.042,0.007-0.102,0.083-0.105,0.126c0.039,0.032,0.074,0.068,0.111,0.102C36.264,6.781,36.296,6.782,36.325,6.773z"/>
		<path fill="#FFFFFF" d="M38.153,14.53c0.034,0.034,0.062,0.088,0.103,0.102c0.076,0.021,0.148-0.016,0.153-0.102
			c0.002-0.039-0.047-0.079-0.088-0.138C38.254,14.447,38.203,14.489,38.153,14.53z"/>
		<path fill="#FFFFFF" d="M29.013,18.846c-0.055,0.019-0.011,0.136,0.074,0.161c0.058,0.014,0.126,0.002,0.245,0.002
			c-0.062-0.09-0.083-0.15-0.118-0.16C29.151,18.827,29.072,18.823,29.013,18.846z"/>
		<path fill="#FFFFFF" d="M29.356,17.903c-0.028-0.015-0.129,0.035-0.128,0.047c0.012,0.074,0.042,0.148,0.086,0.283
			c0.083-0.099,0.155-0.143,0.155-0.192C29.469,17.991,29.408,17.929,29.356,17.903z"/>
		<path fill="#FFFFFF" d="M29.247,17.14c0.004,0.03,0.003,0.048,0.01,0.064c0.042,0.099,0.122,0.129,0.213,0.087
			c0.038-0.018,0.059-0.077,0.088-0.114c-0.059-0.031-0.113-0.076-0.175-0.087C29.342,17.08,29.292,17.122,29.247,17.14z"/>
		<path fill="#FFFFFF" d="M27.168,17.142c-0.017,0.068,0.083,0.143,0.135,0.101c0.045-0.035,0.078-0.104,0.087-0.163
			c0.005-0.039-0.038-0.089-0.084-0.186C27.228,17.033,27.182,17.082,27.168,17.142z"/>
		<path fill="#FFFFFF" d="M40.495,12.775c-0.063-0.06-0.102-0.119-0.156-0.141c-0.02-0.009-0.111,0.069-0.105,0.087
			c0.019,0.058,0.062,0.111,0.11,0.143C40.36,12.876,40.421,12.82,40.495,12.775z"/>
		<path fill="#FFFFFF" d="M25.264,16.305c-0.042-0.045-0.085-0.088-0.126-0.132c-0.044,0.044-0.099,0.082-0.123,0.135
			c-0.003,0.006,0.009,0.021,0.021,0.036c0.008,0.011,0.017,0.022,0.024,0.033c0.018,0.021,0.038,0.041,0.057,0.065
			C25.174,16.388,25.218,16.345,25.264,16.305z"/>
		<path fill="#FFFFFF" d="M28.235,5.776c-0.067-0.031-0.112-0.069-0.148-0.064c-0.036,0.007-0.063,0.062-0.095,0.092
			c0.039,0.029,0.078,0.08,0.114,0.077C28.143,5.878,28.178,5.826,28.235,5.776z"/>
		<path fill="#FFFFFF" d="M30.013,18.923c-0.005,0.028,0.069,0.104,0.088,0.097c0.054-0.016,0.097-0.066,0.175-0.125
			c-0.083-0.042-0.131-0.085-0.161-0.077C30.072,18.832,30.022,18.882,30.013,18.923z"/>
		<path fill="#FFFFFF" d="M29.869,19.681c-0.021,0.002-0.038,0.043-0.056,0.077c0.047,0.014,0.096,0.023,0.143,0.035
			c0.008-0.017,0.017-0.035,0.026-0.054C29.946,19.718,29.905,19.679,29.869,19.681z"/>
		<path fill="#FFFFFF" d="M26.559,17.979c-0.008,0.011-0.014,0.019-0.022,0.029c0.034,0.029,0.065,0.062,0.1,0.09
			c0.017-0.013,0.033-0.027,0.05-0.042C26.649,18.032,26.612,18.01,26.559,17.979z"/>
		<path fill="#FFFFFF" d="M35.312,18.006c0.021,0.038,0.04,0.077,0.06,0.115c0.027-0.019,0.054-0.038,0.08-0.057
			c-0.015-0.03-0.025-0.073-0.048-0.079C35.38,17.973,35.343,17.997,35.312,18.006z"/>
		<path fill="#FFFFFF" d="M28.454,16.208c0.006,0.036,0.056,0.068,0.105,0.123c0.018-0.038,0.035-0.068,0.048-0.094
			c-0.041-0.03-0.082-0.06-0.121-0.091C28.467,16.167,28.451,16.188,28.454,16.208z"/>
		<path fill="#FFFFFF" d="M27.335,16.176c-0.028,0.013-0.07,0.019-0.082,0.039c-0.009,0.02,0.015,0.056,0.025,0.085
			c0.029-0.013,0.071-0.018,0.083-0.041C27.373,16.244,27.346,16.207,27.335,16.176z"/>
		<path fill="#FFFFFF" d="M39.104,7.501c-0.031-0.034-0.062-0.07-0.093-0.104c-0.034,0.031-0.082,0.062-0.078,0.074
			c0.014,0.04,0.047,0.074,0.073,0.111C39.039,7.555,39.072,7.53,39.104,7.501z"/>
		<path fill="#FFFFFF" d="M39.337,6.645c-0.02-0.044-0.03-0.096-0.048-0.099c-0.041-0.007-0.086,0.012-0.129,0.019
			c0.014,0.039,0.022,0.106,0.042,0.109C39.243,6.682,39.29,6.656,39.337,6.645z"/>
		<path fill="#FFFFFF" d="M35.53,5.739c0.051,0.037,0.09,0.083,0.122,0.079c0.038-0.006,0.092-0.056,0.095-0.09
			c0.001-0.029-0.06-0.093-0.087-0.092C35.62,5.64,35.585,5.692,35.53,5.739z"/>
		<path fill="#FFFFFF" d="M37.193,4.944c-0.027-0.02-0.054-0.039-0.081-0.059c-0.011,0.032-0.034,0.066-0.029,0.098
			c0.002,0.019,0.044,0.033,0.068,0.049C37.166,5.003,37.179,4.975,37.193,4.944z"/>
		<path fill="#FFFFFF" d="M35.463,3.936c-0.041-0.023-0.08-0.048-0.121-0.068c-0.013,0.029-0.047,0.075-0.038,0.087
			c0.025,0.031,0.066,0.049,0.104,0.066C35.413,4.021,35.439,3.974,35.463,3.936z"/>
		<path fill="#FFFFFF" d="M25.617,17.001c-0.019,0.01-0.038,0.021-0.054,0.031c0.02,0.023,0.042,0.045,0.062,0.068
			c0.016-0.011,0.033-0.022,0.049-0.032C25.655,17.046,25.636,17.024,25.617,17.001z"/>
		<path fill="#FFFFFF" d="M39.584,7.53c-0.028-0.011-0.056-0.023-0.086-0.029c-0.007-0.003-0.03,0.029-0.029,0.029
			c0.021,0.026,0.043,0.049,0.066,0.072C39.551,7.579,39.568,7.555,39.584,7.53z"/>
		<path fill="#FFFFFF" d="M38.016,9.213c-0.014,0.023-0.031,0.047-0.04,0.071c-0.003,0.008,0.019,0.022,0.03,0.033
			c0.014-0.023,0.026-0.045,0.041-0.068C38.035,9.237,38.026,9.225,38.016,9.213z"/>
		<path fill="#FFFFFF" d="M39.376,12.812c-0.006,0.011-0.01,0.022-0.016,0.034c0.016,0.006,0.032,0.009,0.047,0.014
			C39.398,12.845,39.386,12.828,39.376,12.812z"/>
		<path fill="#FFFFFF" d="M36.514,18.908c-0.004,0.006,0.005,0.024,0.01,0.037c0.013-0.004,0.033-0.004,0.04-0.015
			c0.004-0.007-0.005-0.025-0.008-0.039C36.542,18.896,36.523,18.898,36.514,18.908z"/>
	</g>
	<g id="m" opacity="0.4">
		<path fill="none" d="M66.805,16.969c0.203-0.15,0.422-0.087,0.644-0.075c0.375,0.021,0.751,0.042,1.175,0.067
			c-0.07-0.135-0.104-0.271-0.188-0.343c-0.068-0.057-0.199-0.049-0.307-0.054c-0.183-0.009-0.366-0.002-0.546-0.011
			c-0.219-0.012-0.433-0.078-0.644,0.062c-0.104,0.067-0.209-0.017-0.289-0.094c-0.018-0.017-0.027-0.04-0.034-0.063l0.077,0.529
			C66.737,16.988,66.78,16.989,66.805,16.969z"/>
		<path fill="none" d="M69.176,16.992l-0.075-0.443c-0.068,0.012-0.154,0.044-0.252,0.068C68.91,16.798,69.062,16.89,69.176,16.992z
			"/>
		<path fill="none" d="M51.692,13.174c-0.049-0.055-0.111-0.138-0.166-0.136c-0.029,0-0.059-0.005-0.087-0.008l-0.096,0.568
			c0.107-0.027,0.193-0.048,0.265-0.072C51.776,13.461,51.815,13.308,51.692,13.174z"/>
		<path fill="#FFFFFF" d="M67.865,16.126c-0.383,0.04-0.769,0.074-1.149,0.121c-0.071,0.009-0.109,0.095-0.104,0.174l0.005,0.036
			c0.007,0.023,0.017,0.047,0.034,0.063c0.08,0.078,0.186,0.162,0.289,0.094c0.211-0.14,0.425-0.074,0.644-0.062
			c0.18,0.009,0.363,0.002,0.546,0.011c0.107,0.005,0.238-0.003,0.307,0.054c0.084,0.073,0.117,0.208,0.188,0.343
			c-0.424-0.025-0.8-0.045-1.175-0.067c-0.222-0.012-0.44-0.075-0.644,0.075c-0.025,0.02-0.068,0.019-0.111,0.017l0.06,0.405
			c0.196-0.034,0.4-0.053,0.605,0.015c0.311,0.1,0.635,0.105,0.96,0.084c0.086-0.083,0.17-0.168,0.25-0.249
			c0.358,0.211,0.392,0.221,0.67,0.123l-0.063-0.372c-0.114-0.103-0.267-0.194-0.327-0.375c0.098-0.024,0.184-0.057,0.252-0.068
			l-0.045-0.27c-0.078-0.008-0.156-0.024-0.237-0.062C68.495,16.25,68.168,16.31,67.865,16.126z"/>
		<path fill="#FFFFFF" d="M53.548,13.371c-0.308,0.138-0.61,0.122-0.92,0.06c-0.168-0.034-0.281,0.022-0.379,0.154
			c-0.021,0.029-0.088,0.022-0.186,0.045c0.033-0.138,0.045-0.243,0.084-0.333c0.064-0.151,0.158-0.286,0.217-0.441
			c0.039-0.102-0.053-0.24-0.16-0.245c-0.231-0.012-0.468-0.03-0.694-0.006l-0.071,0.426c0.028,0.002,0.058,0.008,0.087,0.008
			c0.055-0.002,0.117,0.082,0.166,0.136c0.123,0.134,0.084,0.288-0.084,0.352c-0.071,0.024-0.157,0.045-0.265,0.072l-0.015,0.085
			c0.063,0.043,0.11,0.077,0.152,0.084c0.197,0.034,0.418,0.008,0.593,0.089c0.182,0.084,0.352,0.086,0.525,0.064
			c0.313-0.035,0.62-0.042,0.932,0.028c0.045,0.009,0.095,0.008,0.143,0.008l0.089-0.624C53.685,13.332,53.609,13.344,53.548,13.371
			z"/>
		<path fill="#FFFFFF" d="M67.004,14.896c0.123-0.031,0.27-0.078,0.285-0.222c0.009-0.094-0.063-0.194-0.1-0.302
			c-0.17,0-0.314-0.003-0.461,0.002c-0.136,0.003-0.274,0.017-0.412,0.021l0.056,0.38c0.141,0.019,0.28,0.048,0.417,0.112
			C66.85,14.916,66.936,14.912,67.004,14.896z"/>
		<path fill="#FFFFFF" d="M53.372,5.131c0.206-0.104,0.429-0.11,0.646-0.091c0.17,0.015,0.339,0.041,0.508,0.063l-0.201-0.375
			c-0.238,0-0.476-0.017-0.713-0.032c-0.107-0.006-0.235-0.033-0.325,0.012c-0.148,0.075-0.306,0.098-0.466,0.111l-0.061,0.357
			C52.963,5.22,53.168,5.233,53.372,5.131z"/>
		<path fill="#FFFFFF" d="M63.79,11.872c0.033,0.151,0.066,0.306,0.107,0.487c-0.1,0.104-0.207,0.217-0.295,0.308
			c-0.224-0.04-0.399-0.091-0.579-0.098c-0.141-0.008-0.236,0.076-0.201,0.284c0.302-0.027,0.604,0.069,0.921,0.077l0.554-1.067
			C64.1,11.777,64.043,11.788,63.79,11.872z"/>
		<path fill="#FFFFFF" d="M61.619,15.782c0.027-0.05,0.086-0.126,0.102-0.209c0.01-0.058-0.023-0.145-0.068-0.186
			c-0.092-0.082-0.207-0.076-0.303,0.001c-0.074,0.063-0.111,0.145-0.063,0.245c0.031,0.065,0.057,0.131,0.082,0.186
			c-0.088,0.21-0.382,0.296-0.286,0.591c0.283,0.091,0.572,0.018,0.86-0.009l0.104-0.2C61.888,16.071,61.691,16.015,61.619,15.782z"
			/>
		<path fill="#FFFFFF" d="M53.828,12.874l0.022-0.16c-0.044,0.02-0.094,0.047-0.173,0.082
			C53.727,12.831,53.778,12.851,53.828,12.874z"/>
		<path fill="#FFFFFF" d="M67.806,12.986c0.234,0.04,0.468,0.045,0.701,0.031l-0.053-0.315c-0.238,0.002-0.478,0.001-0.699,0.001
			C67.65,12.846,67.685,12.964,67.806,12.986z"/>
		<path fill="#FFFFFF" d="M68.933,18.145c-0.296-0.332-0.298-0.333-0.456-0.343c-0.213-0.012-0.334,0.168-0.242,0.366
			c0.051,0.115,0.143,0.162,0.26,0.165c0.143,0.005,0.318-0.049,0.427,0.014c0.204,0.122,0.347,0.071,0.478-0.03l-0.058-0.343
			C69.199,17.976,69.076,18.072,68.933,18.145z"/>
		<path fill="#FFFFFF" d="M53.131,10.136c-0.039-0.067-0.137-0.138-0.213-0.142c-0.231-0.009-0.464,0.011-0.696,0.025
			c-0.051,0.003-0.113,0.026-0.146,0.063c-0.045,0.049-0.102,0.13-0.088,0.179c0.021,0.075,0.096,0.139,0.156,0.198
			c0.021,0.021,0.07,0.016,0.105,0.016c0.287-0.029,0.577-0.06,0.888-0.09C53.137,10.302,53.167,10.202,53.131,10.136z"/>
		<path fill="#FFFFFF" d="M51.569,18.718c-0.264,0.059-0.581-0.053-0.819,0.215c0.172,0.133,0.318,0.275,0.509,0.25
			c0.248-0.034,0.51-0.027,0.798-0.181C51.786,18.74,51.731,18.681,51.569,18.718z"/>
		<path fill="#FFFFFF" d="M57.271,10.313c0.019,0.004,0.037,0.003,0.057,0.007l-0.129-0.239c-0.052,0.008-0.092,0.015-0.156,0.024
			C57.179,10.232,57.218,10.3,57.271,10.313z"/>
		<path fill="#FFFFFF" d="M50.753,17.102l-0.013,0.075c0.007-0.026,0.023-0.038,0.022-0.073
			C50.76,17.104,50.757,17.103,50.753,17.102z"/>
		<path fill="#FFFFFF" d="M60.875,17.115c-0.018,0.005-0.018,0.062-0.029,0.108c0.047,0.018,0.092,0.056,0.139,0.059
			c0.166,0.003,0.333,0.003,0.499,0.004l0.161-0.312c-0.087-0.005-0.175-0.008-0.261,0C61.21,16.991,61.043,17.061,60.875,17.115z"
			/>
		<path fill="#FFFFFF" d="M60.005,17.956c-0.031,0.003-0.078,0.082-0.074,0.122c0.006,0.043,0.059,0.111,0.096,0.114
			c0.313,0.027,0.627,0.099,0.971,0.032l0.11-0.213C60.726,17.869,60.366,17.901,60.005,17.956z"/>
		<path fill="#FFFFFF" d="M67.3,18.919c-0.021-0.078-0.083-0.177-0.153-0.204c-0.061-0.022-0.132-0.02-0.203-0.015l0.07,0.485
			c0.06-0.022,0.121-0.052,0.188-0.096C67.252,19.054,67.314,18.966,67.3,18.919z"/>
		<path fill="#FFFFFF" d="M67.859,17.956c-0.32-0.1-0.634-0.113-0.942,0.119c0.02,0.058,0.02,0.149,0.066,0.18
			c0.084,0.056,0.193,0.109,0.291,0.108c0.196-0.003,0.394-0.034,0.587-0.075c0.053-0.013,0.115-0.081,0.135-0.138
			C68.029,18.046,67.955,17.986,67.859,17.956z"/>
		<path fill="#FFFFFF" d="M51.799,10.885l-0.062,0.368c0.104-0.04,0.202-0.091,0.273-0.194
			C51.924,10.981,51.861,10.93,51.799,10.885z"/>
		<path fill="#FFFFFF" d="M64.341,8.553c0.018-0.062-0.012-0.136-0.021-0.208c-0.2-0.083-0.396-0.101-0.59-0.091l-0.165,0.307
			c0.198,0.114,0.425,0.135,0.652,0.142C64.261,8.704,64.326,8.612,64.341,8.553z"/>
		<path fill="#FFFFFF" d="M68.91,19.774c0.025,0.024,0.048,0.033,0.073,0.054h0.67l-0.037-0.223
			c-0.015-0.006-0.028-0.013-0.042-0.019C69.326,19.483,69.109,19.519,68.91,19.774z"/>
		<path fill="#FFFFFF" d="M56.976,12.964c0.102-0.096,0.107-0.181,0.029-0.255c-0.051-0.047-0.123-0.099-0.188-0.102
			c-0.236-0.012-0.476-0.013-0.712,0c-0.022,0.001-0.047,0.02-0.07,0.042l0.133,0.255c0.047,0.004,0.099,0.015,0.137,0.001
			C56.543,12.814,56.767,12.896,56.976,12.964z"/>
		<path fill="#FFFFFF" d="M52.836,5.628c-0.051-0.004-0.103,0-0.153-0.002l-0.051,0.306c0.116-0.012,0.234-0.034,0.356-0.089
			C52.93,5.756,52.887,5.632,52.836,5.628z"/>
		<path fill="#FFFFFF" d="M58.656,12.796l-0.049-0.092c-0.011,0.005-0.019,0.01-0.029,0.015
			C58.609,12.746,58.63,12.77,58.656,12.796z"/>
		<path fill="#FFFFFF" d="M52.109,12.084c-0.063-0.083-0.094-0.159-0.149-0.192c-0.098-0.053-0.203-0.091-0.308-0.129l-0.061,0.361
			c0.116,0.032,0.233,0.067,0.353,0.082C51.99,12.211,52.044,12.132,52.109,12.084z"/>
		<path fill="#FFFFFF" d="M58.32,12.711c-0.228-0.043-0.45-0.093-0.675-0.118c-0.049-0.006-0.129,0.061-0.154,0.116
			c-0.027,0.056-0.033,0.154,0,0.201c0.029,0.044,0.127,0.083,0.184,0.069c0.215-0.041,0.429-0.104,0.644-0.159
			C58.318,12.784,58.32,12.747,58.32,12.711z"/>
		<path fill="#FFFFFF" d="M67.375,11.123c0-0.058-0.055-0.142-0.108-0.169c-0.096-0.047-0.207-0.056-0.314-0.081
			c-0.053,0.012-0.115,0.009-0.158,0.031c-0.043,0.023-0.094,0.068-0.102,0.111c-0.01,0.042,0.016,0.109,0.051,0.137
			c0.146,0.119,0.316,0.185,0.504,0.115C67.302,11.246,67.373,11.173,67.375,11.123z"/>
		<path fill="#FFFFFF" d="M53.006,8.395c-0.152-0.034-0.242-0.081-0.325-0.068c-0.155,0.023-0.313,0.038-0.465,0.079l-0.023,0.14
			c0.209,0,0.418,0.003,0.626-0.004C52.866,8.54,52.913,8.471,53.006,8.395z"/>
		<path fill="#FFFFFF" d="M53.9,7.581c-0.076-0.064-0.145-0.167-0.205-0.162c-0.204,0.017-0.435-0.104-0.618,0.09
			C53.35,7.795,53.459,7.806,53.9,7.581z"/>
		<path fill="#FFFFFF" d="M53.418,11.089c0.308,0.148,0.604,0.116,0.895,0.016c0.018-0.007,0.01-0.093,0.014-0.177
			c-0.274,0.034-0.522,0.063-0.774,0.097C53.507,11.03,53.463,11.065,53.418,11.089z"/>
		<path fill="#FFFFFF" d="M54.099,5.928c0.186,0.083,0.401,0.023,0.53-0.147c0.021-0.024-0.002-0.119-0.027-0.134
			c-0.061-0.031-0.135-0.033-0.227-0.053c-0.091,0.021-0.196,0.034-0.292,0.073c-0.035,0.014-0.066,0.086-0.064,0.131
			C54.021,5.846,54.058,5.912,54.099,5.928z"/>
		<path fill="#FFFFFF" d="M67.332,10.325c0.229,0.076,0.453,0.072,0.68-0.145c-0.24-0.078-0.428-0.196-0.65-0.148
			c-0.055,0.011-0.136,0.083-0.138,0.129C67.221,10.214,67.28,10.307,67.332,10.325z"/>
		<path fill="#FFFFFF" d="M68.147,18.896c-0.025,0.062-0.043,0.148-0.02,0.205c0.023,0.052,0.104,0.083,0.137,0.106
			c0.072-0.011,0.111-0.013,0.145-0.022c0.193-0.05,0.293-0.178,0.24-0.299c-0.055-0.125-0.225-0.168-0.381-0.094
			C68.221,18.814,68.165,18.852,68.147,18.896z"/>
		<path fill="#FFFFFF" d="M54.428,10.115c-0.025,0.01-0.055,0.061-0.053,0.087c0.012,0.05,0.033,0.118,0.07,0.134
			c0.1,0.042,0.209,0.082,0.313,0.077c0.139-0.007,0.225-0.109,0.271-0.252C54.842,9.953,54.635,10.029,54.428,10.115z"/>
		<path fill="#FFFFFF" d="M66.376,9.153c-0.143,0.022-0.283,0.052-0.42,0.096c-0.035,0.013-0.08,0.099-0.07,0.131
			c0.023,0.06,0.092,0.152,0.129,0.146c0.156-0.026,0.307-0.078,0.459-0.125c0.012-0.003,0.018-0.027,0.025-0.044
			C66.539,9.294,66.451,9.141,66.376,9.153z"/>
		<path fill="#FFFFFF" d="M55.999,11.83c-0.041,0.024-0.094,0.096-0.084,0.128c0.018,0.061,0.076,0.145,0.125,0.151
			c0.137,0.013,0.279-0.006,0.498-0.016C56.292,11.767,56.188,11.724,55.999,11.83z"/>
		<path fill="#FFFFFF" d="M60.261,16.074c-0.094-0.007-0.201,0.045-0.281,0.102c-0.037,0.031-0.047,0.138-0.025,0.192
			c0.021,0.054,0.102,0.08,0.154,0.121c0.086-0.03,0.16-0.041,0.215-0.081c0.049-0.039,0.12-0.125,0.104-0.16
			C60.398,16.176,60.324,16.078,60.261,16.074z"/>
		<path fill="#FFFFFF" d="M53.35,12.594c-0.148-0.018-0.293,0.112-0.314,0.243c-0.014,0.096,0.086,0.165,0.234,0.165
			c0.166,0,0.243-0.072,0.233-0.271C53.467,12.696,53.415,12.603,53.35,12.594z"/>
		<path fill="#FFFFFF" d="M64.941,10.271c0.132-0.031,0.226-0.068,0.321-0.073c0.117-0.006,0.248,0.073,0.365-0.12
			C65.149,10.015,65.118,10.023,64.941,10.271z"/>
		<path fill="#FFFFFF" d="M66.156,4.774c-0.055,0.202,0.061,0.26,0.176,0.305c0.152,0.06,0.274,0.018,0.378-0.224
			C66.494,4.824,66.328,4.798,66.156,4.774z"/>
		<path fill="#FFFFFF" d="M66.537,3.028l-0.18,0.333c0.065,0.013,0.136,0.003,0.214-0.044C66.652,3.269,66.629,3.18,66.537,3.028z"
			/>
		<path fill="#FFFFFF" d="M54.877,10.906c-0.045-0.008-0.117,0.059-0.152,0.107c-0.016,0.02,0.021,0.108,0.061,0.132
			c0.065,0.046,0.135,0.067,0.21,0.07h0.063c0.092-0.012,0.194-0.055,0.321-0.138C55.146,10.994,55.016,10.936,54.877,10.906z"/>
		<path fill="#FFFFFF" d="M60.883,13.561c0-0.001-0.002-0.001-0.002-0.003l-0.118,0.219C60.845,13.75,60.907,13.656,60.883,13.561z"
			/>
		<path fill="#FFFFFF" d="M60.226,14.498c0.004-0.099-0.098-0.175-0.227-0.17c-0.125,0.003-0.219,0.078-0.199,0.19
			c0.014,0.074,0.086,0.132,0.119,0.179C60.093,14.706,60.218,14.61,60.226,14.498z"/>
		<path fill="#FFFFFF" d="M58.451,14.365c-0.111-0.024-0.26,0.047-0.256,0.13c0.004,0.123,0.088,0.189,0.199,0.216
			c0.049,0.011,0.1,0.001,0.146,0.001c0.016-0.04,0.041-0.071,0.045-0.105C58.599,14.498,58.589,14.393,58.451,14.365z"/>
		<path fill="#FFFFFF" d="M65.159,8.569c0.023-0.004,0.041-0.05,0.063-0.076c0.021-0.093-0.059-0.2-0.186-0.216
			c-0.101-0.015-0.22-0.043-0.276,0.087c-0.037,0.08,0.045,0.173,0.188,0.2C65.016,8.578,65.09,8.578,65.159,8.569z"/>
		<path fill="#FFFFFF" d="M55.298,7.44c-0.117-0.038-0.232-0.002-0.207,0.057c0.025,0.057,0.072,0.121,0.129,0.143
			c0.076,0.03,0.168,0.03,0.254,0.032c0.02,0,0.041-0.044,0.063-0.068c-0.014-0.03-0.02-0.078-0.041-0.09
			C55.433,7.481,55.365,7.459,55.298,7.44z"/>
		<path fill="#FFFFFF" d="M53.949,12.023l0.018-0.125l0.005-0.037c-0.026,0.025-0.047,0.056-0.052,0.104
			C53.917,11.985,53.938,12.003,53.949,12.023z"/>
		<path fill="#FFFFFF" d="M56.951,13.598c-0.041,0.049-0.082,0.123-0.072,0.179c0.008,0.05,0.086,0.116,0.137,0.12
			c0.074,0.008,0.156-0.035,0.283-0.069c-0.088-0.097-0.139-0.166-0.209-0.216C57.058,13.586,56.97,13.576,56.951,13.598z"/>
		<path fill="#FFFFFF" d="M58.154,15.3c-0.053,0.047,0.018,0.195,0.104,0.212c0.084,0.018,0.174,0.011,0.262,0.015
			c0.018-0.032,0.033-0.065,0.049-0.099c-0.076-0.066-0.143-0.148-0.23-0.19C58.292,15.222,58.199,15.26,58.154,15.3z"/>
		<path fill="#FFFFFF" d="M59.305,16.943c-0.053,0.035-0.113,0.106-0.109,0.159c0.002,0.047,0.08,0.112,0.137,0.129
			c0.082,0.02,0.178,0.013,0.225-0.129c-0.029-0.042-0.059-0.107-0.111-0.146C59.413,16.929,59.334,16.919,59.305,16.943z"/>
		<path fill="#FFFFFF" d="M69.345,19.096c0.117-0.03,0.127-0.134,0.096-0.216c-0.025-0.07-0.1-0.125-0.186-0.224
			c-0.064,0.118-0.131,0.191-0.135,0.262C69.115,19.026,69.25,19.124,69.345,19.096z"/>
		<path fill="#FFFFFF" d="M53.286,15.316c-0.025,0.033-0.033,0.112-0.014,0.147c0.046,0.087,0.106,0.109,0.173,0.098l0.031-0.217
			c-0.018-0.017-0.032-0.039-0.052-0.052C53.397,15.272,53.309,15.288,53.286,15.316z"/>
		<path fill="#FFFFFF" d="M67.832,13.805c0.051-0.002,0.145-0.081,0.143-0.11c-0.016-0.078-0.072-0.146-0.141-0.259
			c-0.082,0.094-0.172,0.149-0.18,0.216C67.634,13.759,67.74,13.809,67.832,13.805z"/>
		<path fill="#FFFFFF" d="M52.544,18.971c-0.035,0.077,0.064,0.186,0.16,0.164c0.056-0.013,0.128-0.081,0.134-0.128
			c0.006-0.052-0.064-0.11-0.12-0.193C52.64,18.882,52.574,18.917,52.544,18.971z"/>
		<path fill="#FFFFFF" d="M58.8,16.264c-0.004,0.045,0.027,0.111,0.064,0.132c0.036,0.02,0.122,0.017,0.144-0.009
			c0.039-0.045,0.068-0.124,0.057-0.178c-0.014-0.059-0.08-0.105-0.183-0.225C58.835,16.132,58.802,16.199,58.8,16.264z"/>
		<path fill="#FFFFFF" d="M64.367,11.083c-0.02,0.011-0.027,0.072-0.018,0.098c0.014,0.025,0.064,0.059,0.084,0.05
			c0.113-0.047,0.221-0.103,0.328-0.16c0.01-0.004,0.01-0.039,0-0.051c-0.016-0.028-0.041-0.052-0.08-0.1
			C64.582,10.97,64.47,11.021,64.367,11.083z"/>
		<path fill="#FFFFFF" d="M57.801,12.022c0.092,0.014,0.182,0.009,0.225-0.146c-0.049-0.041-0.107-0.109-0.176-0.122
			c-0.041-0.012-0.119,0.06-0.145,0.112C57.674,11.939,57.717,12.008,57.801,12.022z"/>
		<path fill="#FFFFFF" d="M67.118,19.771c-0.007,0.007-0.009,0.021-0.014,0.03l0.004,0.027h0.298
			c-0.07-0.041-0.117-0.068-0.153-0.075C67.208,19.741,67.141,19.741,67.118,19.771z"/>
		<path fill="#FFFFFF" d="M66.156,5.808c-0.002-0.038-0.055-0.092-0.096-0.104c-0.121-0.037-0.209,0.001-0.234,0.173
			c0.08,0.015,0.164,0.041,0.242,0.036C66.101,5.911,66.158,5.844,66.156,5.808z"/>
		<path fill="#FFFFFF" d="M66.06,6.694c0.025-0.021,0.033-0.059,0.068-0.126c-0.035-0.028-0.047-0.045-0.063-0.05
			c-0.098-0.034-0.23,0.022-0.264,0.12c-0.008,0.026,0.008,0.074,0.029,0.094C65.921,6.816,65.994,6.752,66.06,6.694z"/>
		<path fill="#FFFFFF" d="M52.5,11.056c0.057,0.064,0.082,0.114,0.125,0.134c0.082,0.041,0.181-0.024,0.181-0.123
			c-0.002-0.042-0.06-0.122-0.067-0.119C52.66,10.97,52.589,11.011,52.5,11.056z"/>
		<path fill="#FFFFFF" d="M52.632,17.179c-0.014,0.083,0.082,0.16,0.179,0.131c0.039-0.014,0.098-0.09,0.094-0.097
			c-0.043-0.055-0.098-0.105-0.165-0.172C52.685,17.109,52.64,17.14,52.632,17.179z"/>
		<path fill="#FFFFFF" d="M68.475,19.755c0.016,0.024,0.032,0.048,0.048,0.073h0.165c-0.043-0.051-0.089-0.101-0.133-0.147
			C68.528,19.704,68.502,19.728,68.475,19.755z"/>
		<path fill="#FFFFFF" d="M67.822,11.1c-0.004,0.003,0.031,0.088,0.037,0.087c0.063-0.015,0.121-0.037,0.188-0.058
			c-0.029-0.058-0.053-0.112-0.055-0.11C67.935,11.04,67.875,11.066,67.822,11.1z"/>
		<path fill="#FFFFFF" d="M56.689,11.876c0.02,0.041,0.053,0.075,0.098,0.131c0.047-0.063,0.076-0.103,0.105-0.143
			c-0.047-0.016-0.09-0.043-0.137-0.048C56.734,11.813,56.685,11.867,56.689,11.876z"/>
		<path fill="#FFFFFF" d="M58.613,13.628c-0.006,0.019,0.039,0.08,0.045,0.077c0.045-0.012,0.1-0.028,0.117-0.063
			c0.014-0.026-0.029-0.077-0.063-0.142C58.667,13.558,58.628,13.588,58.613,13.628z"/>
		<path fill="#FFFFFF" d="M53.096,18.015l0.005-0.037c-0.006,0.005-0.012,0.01-0.019,0.016
			C53.087,18.001,53.092,18.006,53.096,18.015z"/>
		<path fill="#FFFFFF" d="M67.716,11.896c-0.012,0.021,0.012,0.059,0.021,0.089c0.029-0.012,0.074-0.021,0.086-0.043
			c0.01-0.019-0.018-0.057-0.027-0.086C67.767,11.867,67.724,11.873,67.716,11.896z"/>
		<path fill="#FFFFFF" d="M57.248,11.003c-0.018-0.025-0.033-0.069-0.055-0.073c-0.029-0.005-0.063,0.022-0.096,0.034
			c0.029,0.037,0.059,0.073,0.086,0.112C57.205,11.051,57.226,11.028,57.248,11.003z"/>
		<path fill="#FFFFFF" d="M67.597,7.605l-0.021-0.122c-0.011,0.005-0.022,0.01-0.034,0.016C67.56,7.534,67.579,7.57,67.597,7.605z"
			/>
		<path fill="#FFFFFF" d="M52.634,7.513c-0.002,0.004,0.051,0.051,0.072,0.047c0.039-0.007,0.073-0.038,0.14-0.078
			c-0.068-0.04-0.114-0.085-0.14-0.076C52.673,7.42,52.652,7.474,52.634,7.513z"/>
		<path fill="#FFFFFF" d="M59.504,14.53c-0.012-0.021-0.025-0.041-0.039-0.063c-0.029,0.012-0.059,0.024-0.09,0.036
			c0.01,0.014,0.02,0.038,0.029,0.038C59.438,14.542,59.473,14.533,59.504,14.53z"/>
		<path fill="#FFFFFF" d="M61.595,12.817c0.006,0.02,0.053,0.034,0.078,0.047c0.012-0.03,0.037-0.068,0.027-0.09
			c-0.008-0.027-0.053-0.04-0.082-0.058C61.611,12.75,61.587,12.787,61.595,12.817z"/>
		<path fill="#FFFFFF" d="M67.09,7.559c-0.021-0.02-0.041-0.038-0.061-0.058c-0.014,0.026-0.031,0.049-0.037,0.077
			c-0.002,0.006,0.029,0.033,0.033,0.031C67.049,7.595,67.069,7.576,67.09,7.559z"/>
		<path fill="#FFFFFF" d="M67.82,15.49c0.014,0.021,0.035,0.055,0.051,0.055c0.025-0.001,0.047-0.031,0.07-0.049
			c-0.029-0.01-0.059-0.027-0.088-0.034C67.843,15.459,67.82,15.489,67.82,15.49z"/>
		<path fill="#FFFFFF" d="M53.35,14.474c0.012,0.018,0.02,0.037,0.033,0.05c0.004,0.002,0.025-0.014,0.039-0.022
			c-0.008-0.012-0.014-0.029-0.025-0.034C53.385,14.464,53.366,14.473,53.35,14.474z"/>
	</g>
	<g id="e" opacity="0.4">
		<path fill="#FFFFFF" d="M85.149,12.045c-0.023-0.09-0.158-0.154-0.278-0.125c-0.113,0.03-0.125,0.116-0.09,0.214
			c0.012,0.035,0.039,0.065,0.049,0.099c0.015,0.051-0.003,0.08-0.001,0.121h0.333c-0.005-0.041-0.008-0.086-0.009-0.149
			C85.151,12.153,85.159,12.097,85.149,12.045z"/>
		<path fill="#FFFFFF" d="M81.997,12.721c-0.037,0.01-0.076,0.082-0.078,0.13c-0.004,0.042,0.035,0.119,0.068,0.128
			c0.139,0.033,0.281,0.057,0.424,0.06c0.199,0.006,0.398-0.008,0.597-0.004v-0.339c-0.23-0.005-0.46-0.009-0.69-0.012
			C82.209,12.682,82.102,12.693,81.997,12.721z"/>
		<path fill="#FFFFFF" d="M89.283,11.785c-0.053,0.044-0.131,0.098-0.133,0.153c-0.004,0.047,0.07,0.131,0.125,0.144
			c0.089,0.022,0.183,0.014,0.275,0.019v-0.275c-0.055-0.013-0.109-0.028-0.164-0.055C89.359,11.758,89.306,11.765,89.283,11.785z"
			/>
		<path fill="#FFFFFF" d="M80.893,18.565c-0.102,0.336-0.102,0.336,0.1,0.647c0.292,0.01,0.61,0.115,0.835-0.24
			c-0.158-0.226-0.314-0.447-0.326-0.736c-0.004-0.09-0.1-0.205-0.186-0.251c-0.241-0.14-0.511-0.2-0.792-0.18
			c-0.021,0.002-0.042,0.013-0.063,0.021v0.442c0.031,0.016,0.061,0.037,0.093,0.051C80.684,18.378,80.834,18.409,80.893,18.565z"/>
		<path fill="#FFFFFF" d="M80.825,14.741c0.246,0.163,0.505,0.035,0.755,0.089c0.047,0.008,0.139-0.101,0.178-0.172
			c0.051-0.095,0.002-0.19-0.096-0.224c-0.098-0.035-0.225-0.086-0.307-0.053c-0.217,0.083-0.401,0.122-0.632,0.006
			c-0.069-0.035-0.168-0.015-0.263,0v0.302C80.589,14.678,80.732,14.68,80.825,14.741z"/>
		<path fill="#FFFFFF" d="M81.689,7.443c-0.049,0.043-0.104,0.122-0.096,0.179s0.076,0.144,0.129,0.153
			c0.123,0.024,0.255,0.02,0.382,0.004c0.219-0.028,0.459-0.15,0.647-0.093c0.085,0.026,0.171,0.038,0.256,0.042V7.486
			c-0.319,0.001-0.641-0.008-0.954-0.098C81.918,7.349,81.792,7.355,81.689,7.443z"/>
		<path fill="#FFFFFF" d="M80.864,6.06c0.109-0.047,0.15-0.163,0.1-0.272c-0.051-0.106-0.15-0.197-0.256-0.144
			c-0.082,0.042-0.165,0.054-0.247,0.072v0.487c0.01,0.002,0.017,0.004,0.026,0.006C80.596,6.166,80.731,6.119,80.864,6.06z"/>
		<path fill="#FFFFFF" d="M86.95,11.222c0.166-0.016,0.331-0.044,0.491-0.053c0.154-0.011,0.311-0.032,0.373-0.187
			c0.064-0.168-0.09-0.262-0.182-0.372c-0.01-0.011-0.031-0.015-0.078-0.036c-0.246,0.078-0.474,0.146-0.696,0.219
			c-0.115,0.037-0.193,0.159-0.156,0.253C86.743,11.157,86.825,11.232,86.95,11.222z"/>
		<path fill="#FFFFFF" d="M87.875,10.597c0.076,0.253,0.288,0.257,0.464,0.096c0.127-0.114,0.168-0.357,0.082-0.5
			c-0.057-0.095-0.145-0.13-0.237-0.144h-0.156c-0.086,0.026-0.161,0.105-0.252,0.168C87.812,10.354,87.835,10.479,87.875,10.597z"
			/>
		<path fill="#FFFFFF" d="M87.206,11.565c-0.049-0.009-0.115,0.006-0.152,0.034c-0.143,0.112-0.262,0.242-0.227,0.484
			c0.307,0.073,0.595,0.094,0.917-0.059C87.652,11.751,87.468,11.609,87.206,11.565z"/>
		<path fill="#FFFFFF" d="M82.567,14.567c-0.012,0.033,0.039,0.097,0.073,0.134c0.021,0.025,0.061,0.049,0.092,0.049
			c0.092,0,0.184-0.006,0.275-0.006v-0.322c-0.104,0.004-0.208,0.003-0.313,0.011C82.648,14.438,82.588,14.514,82.567,14.567z"/>
		<path fill="#FFFFFF" d="M85.721,19.828h0.874c0.004-0.013,0.012-0.016,0.015-0.03C86.148,19.521,85.998,19.527,85.721,19.828z"/>
		<path fill="#FFFFFF" d="M89.4,10.313c0.064-0.036,0.096-0.124,0.147-0.195c-0.063-0.032-0.101-0.046-0.152-0.07h-0.543
			c-0.047,0.058-0.097,0.137-0.158,0.243C88.925,10.456,89.166,10.45,89.4,10.313z"/>
		<path fill="#FFFFFF" d="M80.46,6.428v0.301c0.098-0.033,0.201-0.068,0.317-0.108C80.672,6.506,80.567,6.455,80.46,6.428z"/>
		<path fill="#FFFFFF" d="M85.102,10.253c0.025,0.064,0.084,0.115,0.172,0.222c0.217-0.066,0.411-0.121,0.599-0.185
			c0.025-0.008,0.063-0.06,0.057-0.084c-0.01-0.046-0.039-0.118-0.072-0.124c-0.082-0.016-0.164-0.022-0.247-0.035H85.13
			C85.092,10.103,85.073,10.187,85.102,10.253z"/>
		<path fill="#FFFFFF" d="M88.923,11.25c0.064-0.048,0.105-0.134,0.176-0.222c-0.096-0.111-0.164-0.215-0.258-0.295
			c-0.043-0.037-0.142-0.04-0.204-0.019c-0.162,0.056-0.27,0.319-0.195,0.448C88.512,11.287,88.789,11.346,88.923,11.25z"/>
		<path fill="#FFFFFF" d="M81.564,12.899c0.006-0.014-0.004-0.044-0.014-0.047c-0.25-0.147-0.509-0.281-0.808-0.194
			c-0.053,0.014-0.111,0.102-0.115,0.159c0,0.054,0.055,0.152,0.104,0.162c0.135,0.038,0.279,0.038,0.34,0.044
			c0.206-0.016,0.329-0.022,0.452-0.037C81.541,12.983,81.554,12.929,81.564,12.899z"/>
		<path fill="#FFFFFF" d="M90.562,4.933c0.095,0.052,0.186,0.124,0.287,0.152V4.799c-0.088,0-0.177,0.003-0.266,0.006
			C90.576,4.847,90.57,4.89,90.562,4.933z"/>
		<path fill="#FFFFFF" d="M82.855,19.032c0.031,0.1,0.098,0.188,0.176,0.33c0.117-0.076,0.184-0.112,0.234-0.156
			c0.096-0.079,0.253-0.101,0.247-0.268c-0.008-0.121-0.179-0.177-0.427-0.146c-0.037,0.004-0.074,0.006-0.105,0.022
			C82.888,18.855,82.824,18.933,82.855,19.032z"/>
		<path fill="#FFFFFF" d="M81.967,16.158c-0.114,0.071-0.114,0.181-0.039,0.325c0.166,0.023,0.311,0.044,0.455,0.064
			c0.018,0.003,0.041,0.006,0.053-0.004c0.043-0.031,0.102-0.059,0.121-0.1c0.018-0.043,0.02-0.118-0.008-0.154
			C82.418,16.096,82.157,16.037,81.967,16.158z"/>
		<path fill="#FFFFFF" d="M82.765,8.417c-0.012,0.1,0.084,0.216,0.191,0.233c0.019,0.003,0.032-0.007,0.051-0.007V8.16
			C82.898,8.175,82.78,8.291,82.765,8.417z"/>
		<path fill="#FFFFFF" d="M81.496,6.816c0.043-0.011,0.092-0.059,0.105-0.102c0.012-0.043,0-0.112-0.029-0.149
			c-0.098-0.124-0.236-0.152-0.4-0.159c-0.053,0.06-0.112,0.125-0.196,0.222C81.138,6.828,81.308,6.861,81.496,6.816z"/>
		<path fill="#FFFFFF" d="M82.249,15.641c0.068-0.146,0.039-0.263-0.098-0.257c-0.225,0.01-0.446,0.069-0.763,0.122
			C81.718,15.77,81.999,15.629,82.249,15.641z"/>
		<path fill="#FFFFFF" d="M80.67,16.088c-0.039,0.017-0.086,0.084-0.08,0.121c0.016,0.086,0.047,0.173,0.096,0.245
			c0.066,0.096,0.182,0.144,0.277,0.076c0.076-0.054,0.111-0.164,0.151-0.23c-0.025-0.068-0.029-0.109-0.052-0.134
			C80.989,16.076,80.786,16.031,80.67,16.088z"/>
		<path fill="#FFFFFF" d="M82.241,17.177c0.264,0.129,0.359,0.127,0.429,0.012c0.102-0.165,0.049-0.301-0.106-0.46
			C82.448,16.885,82.356,17.016,82.241,17.177z"/>
		<path fill="#FFFFFF" d="M80.954,7.575c0.002-0.058-0.045-0.119-0.064-0.173c-0.213,0.044-0.335,0.071-0.429,0.096v0.191
			c0.104,0.006,0.201,0.012,0.296,0.017C80.856,7.709,80.946,7.685,80.954,7.575z"/>
		<path fill="#FFFFFF" d="M84.212,4.167c0.061-0.03,0.111-0.079,0.223-0.158c-0.1-0.09-0.143-0.157-0.205-0.179
			c-0.14-0.051-0.257-0.009-0.312,0.123c-0.031,0.07-0.037,0.194,0.006,0.243C84.01,4.297,84.12,4.213,84.212,4.167z"/>
		<path fill="#FFFFFF" d="M89.513,4.833c-0.057-0.011-0.17,0.033-0.178,0.068c-0.016,0.075-0.008,0.187,0.043,0.237
			c0.028,0.029,0.058,0.023,0.086,0.036h0.171c0.057-0.023,0.109-0.043,0.195-0.104C89.793,4.899,89.649,4.862,89.513,4.833z"/>
		<path fill="#FFFFFF" d="M81.597,13.622c-0.045-0.024-0.1-0.033-0.16-0.05c-0.064,0.011-0.146,0.008-0.201,0.042
			c-0.051,0.033-0.107,0.102-0.107,0.158c-0.002,0.101,0.082,0.169,0.176,0.161c0.104-0.008,0.209-0.048,0.305-0.091
			c0.033-0.017,0.047-0.092,0.051-0.139C81.662,13.678,81.625,13.637,81.597,13.622z"/>
		<path fill="#FFFFFF" d="M87.349,19.82c-0.002,0.001-0.002,0.006-0.003,0.008h0.736c-0.005-0.045-0.008-0.082-0.021-0.091
			C87.808,19.622,87.576,19.72,87.349,19.82z"/>
		<path fill="#FFFFFF" d="M90.47,18.137c0.126,0.098,0.25,0.102,0.379,0.08v-0.304c-0.058-0.018-0.119-0.02-0.182-0.018
			C90.541,17.9,90.468,17.96,90.47,18.137z"/>
		<path fill="#FFFFFF" d="M80.747,17.257c0.02-0.018,0.008-0.114-0.023-0.142c-0.047-0.047-0.117-0.069-0.166-0.091
			c-0.034,0.007-0.067,0.008-0.097,0.012v0.312c0.021,0.009,0.04,0.024,0.06,0.025C80.592,17.375,80.682,17.311,80.747,17.257z"/>
		<path fill="#FFFFFF" d="M87.544,18.262c0.094,0,0.207-0.034,0.199-0.129c-0.01-0.083-0.109-0.155-0.191-0.263
			c-0.092,0.082-0.176,0.125-0.209,0.194C87.306,18.145,87.425,18.261,87.544,18.262z"/>
		<path fill="#FFFFFF" d="M80.774,10.15c-0.155-0.118-0.245-0.173-0.313-0.184v0.28C80.556,10.26,80.657,10.249,80.774,10.15z"/>
		<path fill="#FFFFFF" d="M81.564,17.174c-0.012,0.031,0.031,0.118,0.063,0.126c0.168,0.041,0.319,0.01,0.411-0.165
			C81.812,16.963,81.64,16.979,81.564,17.174z"/>
		<path fill="#FFFFFF" d="M82.331,6.739c0.008,0.052,0.07,0.131,0.117,0.14c0.123,0.023,0.241-0.099,0.233-0.231
			c-0.004-0.054-0.065-0.105-0.087-0.139C82.413,6.503,82.313,6.598,82.331,6.739z"/>
		<path fill="#FFFFFF" d="M90.591,4.103c-0.037,0.071,0.045,0.218,0.113,0.203c0.05-0.01,0.104-0.042,0.145-0.079V4.066
			c-0.028-0.038-0.063-0.079-0.094-0.127C90.679,4.012,90.619,4.048,90.591,4.103z"/>
		<path fill="#FFFFFF" d="M80.637,13.716c-0.009-0.114-0.085-0.173-0.177-0.195v0.281c0.013,0,0.024,0.002,0.038,0
			C80.553,13.795,80.604,13.74,80.637,13.716z"/>
		<path fill="#FFFFFF" d="M87.124,5.013c0.031,0.014,0.07,0.01,0.183,0.021c0-0.001,0.041-0.052,0.033-0.093
			c-0.012-0.063-0.047-0.144-0.096-0.171c-0.048-0.025-0.134-0.003-0.188,0.027c-0.033,0.016-0.061,0.094-0.049,0.131
			C87.022,4.966,87.081,4.993,87.124,5.013z"/>
		<path fill="#FFFFFF" d="M82.677,18.064c0.002,0.064,0.029,0.135,0.07,0.188c0.021,0.03,0.096,0.046,0.133,0.033
			c0.037-0.015,0.063-0.072,0.102-0.123c-0.033-0.064-0.053-0.134-0.096-0.182c-0.027-0.029-0.098-0.052-0.133-0.037
			C82.716,17.957,82.673,18.022,82.677,18.064z"/>
		<path fill="#FFFFFF" d="M87.238,4.171c0.121,0.034,0.275-0.07,0.232-0.147c-0.037-0.07-0.121-0.115-0.213-0.198
			c-0.067,0.085-0.136,0.141-0.153,0.21C87.094,4.071,87.18,4.155,87.238,4.171z"/>
		<path fill="#FFFFFF" d="M88.686,4.18c0.035-0.007,0.073-0.015,0.108-0.021c0.07-0.017,0.156-0.041,0.129-0.127
			c-0.016-0.048-0.1-0.094-0.16-0.106c-0.063-0.013-0.142,0.009-0.208,0.029c-0.023,0.009-0.057,0.061-0.051,0.086
			c0.012,0.044,0.043,0.09,0.08,0.119C88.608,4.18,88.653,4.173,88.686,4.18z"/>
		<path fill="#FFFFFF" d="M85.149,11.123c0.02-0.042,0.018-0.127-0.006-0.141c-0.053-0.032-0.129-0.054-0.188-0.042
			c-0.062,0.014-0.114,0.072-0.2,0.13c0.076,0.062,0.123,0.112,0.18,0.138C85.032,11.255,85.114,11.217,85.149,11.123z"/>
		<path fill="#FFFFFF" d="M84.761,18.306c0.037-0.019,0.076-0.079,0.076-0.119c0-0.119-0.111-0.209-0.246-0.179
			c-0.014,0.039-0.057,0.098-0.057,0.156C84.533,18.276,84.664,18.358,84.761,18.306z"/>
		<path fill="#FFFFFF" d="M83.45,4.964c0.016,0.091,0.078,0.177,0.184,0.161c0.053-0.008,0.096-0.077,0.18-0.147
			c-0.107-0.069-0.17-0.131-0.246-0.148C83.477,4.806,83.436,4.89,83.45,4.964z"/>
		<path fill="#FFFFFF" d="M82.459,5.852c-0.004-0.039-0.063-0.102-0.094-0.099c-0.057,0.003-0.111,0.044-0.178,0.078
			c0.041,0.077,0.055,0.136,0.09,0.159C82.338,6.028,82.467,5.934,82.459,5.852z"/>
		<path fill="#FFFFFF" d="M82.72,10.21c0.035,0.051,0.113,0.1,0.168,0.097c0.045-0.005,0.084-0.09,0.139-0.157
			c-0.07-0.045-0.109-0.09-0.15-0.094C82.767,10.047,82.673,10.146,82.72,10.21z"/>
		<path fill="#FFFFFF" d="M82.424,9.325c-0.016,0.025,0.023,0.082,0.047,0.147c0.063-0.043,0.123-0.064,0.139-0.101
			c0.011-0.027-0.037-0.11-0.063-0.111C82.506,9.257,82.442,9.289,82.424,9.325z"/>
		<path fill="#FFFFFF" d="M83.745,3.185c-0.113-0.02-0.189-0.035-0.301-0.053C83.543,3.259,83.624,3.233,83.745,3.185z"/>
		<path fill="#FFFFFF" d="M85.1,19.698c-0.008-0.008-0.08,0.031-0.078,0.041c0.006,0.031,0.021,0.06,0.035,0.089h0.095
			c0.009-0.004,0.021-0.01,0.028-0.014C85.155,19.772,85.133,19.729,85.1,19.698z"/>
		<path fill="#FFFFFF" d="M90.167,18.145c0.012-0.031-0.035-0.081-0.072-0.157c-0.047,0.067-0.084,0.102-0.096,0.141
			c-0.006,0.022,0.041,0.083,0.049,0.08C90.09,18.196,90.157,18.18,90.167,18.145z"/>
		<path fill="#FFFFFF" d="M88.399,17.983c-0.027-0.032-0.07-0.052-0.105-0.077c-0.012,0.024-0.027,0.05-0.047,0.093
			c0.039,0.022,0.078,0.046,0.117,0.069C88.377,18.038,88.409,17.994,88.399,17.983z"/>
		<path fill="#FFFFFF" d="M90.069,19.824c0,0.001,0.001,0.003,0.002,0.004h0.113c-0.006-0.014-0.014-0.028-0.018-0.042
			C90.133,19.798,90.102,19.811,90.069,19.824z"/>
	</g>
	<g id="s" opacity="0.4">
		<path fill="none" d="M107.402,2.782c-0.078-0.017-0.16-0.026-0.239-0.042C107.246,2.778,107.325,2.791,107.402,2.782z"/>
		<path fill="#FFFFFF" d="M106.126,2.716c-0.307-0.065-0.575-0.001-0.845,0.111c-0.033,0.015-0.049,0.078-0.094,0.15
			c0.1,0.019,0.166,0.045,0.23,0.042c0.237-0.014,0.479-0.079,0.706-0.045c0.238,0.034,0.466,0.074,0.706,0.035
			c0.102-0.016,0.23-0.005,0.319,0.042c0.283,0.147,0.568,0.077,0.862,0.083c0.033-0.063,0.059-0.114,0.085-0.167
			c-0.225-0.07-0.457-0.131-0.695-0.184c-0.077,0.008-0.156-0.004-0.239-0.042c-0.074-0.014-0.15-0.025-0.226-0.037
			c-0.043,0.001-0.087,0.003-0.128,0.004C106.581,2.709,106.343,2.764,106.126,2.716z"/>
		<path fill="#FFFFFF" d="M101.494,8.517c-0.078-0.193-0.213-0.19-0.336-0.173c-0.167,0.021-0.332,0.024-0.498,0.026
			c0.037,0.11,0.078,0.217,0.124,0.322c0.089-0.011,0.177-0.03,0.267-0.067C101.179,8.57,101.324,8.555,101.494,8.517z"/>
		<path fill="#FFFFFF" d="M103.834,11.094c-0.023-0.124-0.156-0.179-0.311-0.147c-0.156,0.029-0.226,0.13-0.189,0.276
			c0.008,0.035,0.018,0.071,0.035,0.105c0.01,0.019,0.02,0.038,0.029,0.056c0.174,0.102,0.349,0.198,0.526,0.289
			c-0.008-0.005-0.016-0.012-0.022-0.018C103.877,11.459,103.862,11.275,103.834,11.094z"/>
		<path fill="#FFFFFF" d="M109.382,14.129c0.272,0.028,0.542,0.046,0.815,0.059c0.069,0.002,0.151-0.012,0.204-0.05
			c0.066-0.046,0.137-0.12,0.16-0.192c0.014-0.053-0.051-0.128-0.082-0.198c-0.429,0.028-0.839,0.054-1.258,0.083
			C109.175,14.062,109.269,14.116,109.382,14.129z"/>
		<path fill="#FFFFFF" d="M102.155,16.949c-0.158,0.058-0.314,0.07-0.478,0.091c-0.084,0.01-0.168,0.068-0.238,0.125
			c-0.053,0.042-0.119,0.131-0.104,0.17c0.031,0.072,0.109,0.132,0.178,0.176c0.039,0.025,0.107,0.021,0.162,0.013
			c0.212-0.037,0.427-0.08,0.64-0.124c0.053-0.011,0.109-0.032,0.148-0.065c0.037-0.032,0.055-0.088,0.074-0.123
			C102.497,17.062,102.282,16.9,102.155,16.949z"/>
		<path fill="#FFFFFF" d="M108.067,17.344c0.117,0.017,0.27,0.043,0.359-0.013c0.249-0.152,0.487-0.073,0.731-0.042
			c0.068,0.009,0.148,0.055,0.203,0.034c0.066-0.025,0.112-0.104,0.21-0.206c-0.591-0.182-1.105-0.265-1.647,0.075
			C107.979,17.255,108.018,17.339,108.067,17.344z"/>
		<path fill="#FFFFFF" d="M109.513,18.906c0.013-0.01,0.024-0.019,0.037-0.028c-0.014,0.009-0.028,0.012-0.042,0.023
			C109.509,18.903,109.512,18.904,109.513,18.906z"/>
		<path fill="#FFFFFF" d="M109.156,11.662c-0.088-0.028-0.129,0.006-0.129,0.063c0.256,0.171,0.499,0.332,0.737,0.493
			c0.113,0.076,0.182,0.09,0.279,0.039c-0.2-0.208-0.419-0.399-0.646-0.579c-0.046,0.005-0.088,0-0.138,0.013
			C109.228,11.7,109.191,11.673,109.156,11.662z"/>
		<path fill="#FFFFFF" d="M108.1,18.706c-0.164,0.086-0.175,0.307-0.014,0.406c0.043,0.026,0.094,0.054,0.145,0.059
			c0.123,0.015,0.252,0.038,0.373,0.019c0.071-0.009,0.136-0.087,0.214-0.142c-0.068-0.103-0.109-0.187-0.173-0.251
			C108.495,18.636,108.29,18.609,108.1,18.706z"/>
		<path fill="#FFFFFF" d="M106.581,18.755c-0.204,0.022-0.399,0.119-0.599,0.185c0.002,0.037,0.006,0.078,0.01,0.115
			c0.281-0.014,0.54,0.046,0.78,0.182c0.055,0.032,0.15,0.025,0.205-0.005c0.049-0.03,0.102-0.135,0.084-0.172
			C106.965,18.865,106.795,18.73,106.581,18.755z"/>
		<path fill="#FFFFFF" d="M105.209,18.792c-0.125-0.006-0.248,0.026-0.372,0.034c-0.27,0.02-0.4,0.091-0.365,0.214
			c0.055,0.191,0.23,0.135,0.361,0.168c0.018,0.004,0.038,0.003,0.126,0.01c0.074-0.028,0.215-0.067,0.336-0.135
			c0.043-0.026,0.08-0.129,0.066-0.183C105.35,18.852,105.264,18.794,105.209,18.792z"/>
		<path fill="#FFFFFF" d="M106.645,10.273c0.067,0.009,0.121-0.01,0.17-0.042c-0.109-0.045-0.219-0.09-0.325-0.133
			c-0.072-0.029-0.143-0.061-0.214-0.091c0.001,0.054,0.006,0.101,0.032,0.123C106.401,10.204,106.528,10.258,106.645,10.273z"/>
		<path fill="#FFFFFF" d="M107.071,19.792c0.175,0.026,0.321,0.026,0.446,0.073c0.002,0.001,0.004,0,0.006,0.001
			c0.204-0.053,0.415-0.098,0.604-0.169c-0.085-0.063-0.177-0.1-0.319-0.132C107.632,19.526,107.593,19.54,107.071,19.792z"/>
		<path fill="#FFFFFF" d="M108.293,4.486c-0.049,0.035-0.094,0.122-0.084,0.178c0.008,0.054,0.08,0.127,0.137,0.139
			c0.154,0.033,0.316,0.037,0.509,0.059c0.02-0.085,0.074-0.188,0.043-0.239C108.759,4.395,108.495,4.338,108.293,4.486z"/>
		<path fill="#FFFFFF" d="M107.531,11.521c-0.039-0.008-0.131,0.081-0.133,0.129c-0.006,0.049,0.061,0.146,0.107,0.154
			c0.262,0.042,0.53,0.063,0.794,0.086c0.012,0.003,0.027-0.021,0.053-0.046C108.135,11.596,107.822,11.572,107.531,11.521z"/>
		<path fill="#FFFFFF" d="M107.228,4.879c0.098,0.002,0.211-0.129,0.227-0.264c0.012-0.127-0.102-0.22-0.297-0.236
			c-0.093-0.007-0.187,0-0.206,0.115C106.917,4.686,107.057,4.877,107.228,4.879z"/>
		<path fill="#FFFFFF" d="M108.6,3.917c0.037-0.096,0.035-0.208-0.08-0.207c-0.23,0.003-0.457,0.044-0.813,0.084
			C108.106,4.041,108.106,4.041,108.6,3.917z"/>
		<path fill="#FFFFFF" d="M103.348,3.999c-0.257,0.066-0.562-0.164-0.816,0.165c0.276,0.125,0.507,0.127,0.737,0.083
			C103.403,4.222,103.454,4.138,103.348,3.999z"/>
		<path fill="#FFFFFF" d="M108.953,14.962c0.123-0.009,0.246-0.057,0.281-0.236c-0.223-0.091-0.436-0.253-0.71-0.012
			C108.643,14.878,108.773,14.979,108.953,14.962z"/>
		<path fill="#FFFFFF" d="M104.64,17.986c0.006,0.067,0.012,0.135,0.018,0.213c0.247,0.028,0.47,0.003,0.716-0.041
			C105.219,17.943,105.219,17.943,104.64,17.986z"/>
		<path fill="#FFFFFF" d="M108.588,5.485c0.187,0.152,0.339,0.147,0.421,0.008c0.082-0.141,0.096-0.314-0.115-0.431
			C108.796,5.197,108.705,5.325,108.588,5.485z"/>
		<path fill="#FFFFFF" d="M101.844,17.957c-0.054-0.007-0.116-0.031-0.157-0.012c-0.059,0.029-0.129,0.083-0.143,0.139
			c-0.012,0.05,0.031,0.136,0.074,0.174c0.049,0.044,0.129,0.053,0.226,0.087c0.076-0.05,0.18-0.09,0.23-0.165
			C102.129,18.091,102.022,17.994,101.844,17.957z"/>
		<path fill="#FFFFFF" d="M105.791,11.712c-0.194,0.022-0.392,0.055-0.581,0.099c-0.037,0.009-0.088,0.075-0.086,0.113
			c0.002,0.035,0.063,0.093,0.102,0.099c0.24,0.023,0.456-0.061,0.685-0.18C105.857,11.782,105.82,11.71,105.791,11.712z"/>
		<path fill="#FFFFFF" d="M107.679,13.687c0.025-0.021,0.037-0.056,0.055-0.084c-0.225-0.077-0.347-0.114-0.438-0.13
			c0.086,0.079,0.169,0.162,0.247,0.248c0.015,0.003,0.029,0.007,0.043,0.01C107.613,13.737,107.654,13.708,107.679,13.687z"/>
		<path fill="#FFFFFF" d="M105.857,10.708c-0.088,0.034-0.164,0.121-0.121,0.21c0.031,0.063,0.131,0.132,0.201,0.132
			c0.146,0,0.273-0.078,0.355-0.24C106.167,10.692,106.021,10.645,105.857,10.708z"/>
		<path fill="#FFFFFF" d="M108.074,5.345c0.085,0.042,0.17,0.084,0.253,0.128c0.015-0.016,0.024-0.023,0.041-0.042
			C108.221,5.319,108.165,5.29,108.074,5.345z"/>
		<path fill="#FFFFFF" d="M109.952,4.022c0.082-0.002,0.176-0.039,0.242-0.091c0.003-0.002,0.002-0.006,0.005-0.008
			c-0.098-0.059-0.194-0.117-0.301-0.176c-0.026,0.046-0.06,0.095-0.073,0.144C109.817,3.924,109.909,4.023,109.952,4.022z"/>
		<path fill="#FFFFFF" d="M107.72,10.964c0.031-0.002,0.084-0.079,0.076-0.111c-0.008-0.042-0.059-0.098-0.1-0.108
			c-0.174-0.042-0.303,0.018-0.453,0.226C107.451,10.97,107.587,10.976,107.72,10.964z"/>
		<path fill="#FFFFFF" d="M109.082,16.284c-0.023,0.082,0.098,0.164,0.242,0.146c0.07-0.012,0.135-0.077,0.249-0.14
			c-0.114-0.084-0.175-0.164-0.245-0.173C109.216,16.101,109.117,16.163,109.082,16.284z"/>
		<path fill="#FFFFFF" d="M106.624,18.197c0.07-0.043,0.125-0.109,0.188-0.168c-0.008-0.039-0.016-0.075-0.025-0.115
			c-0.1,0-0.213-0.028-0.293,0.008c-0.057,0.028-0.084,0.146-0.088,0.228C106.401,18.221,106.534,18.255,106.624,18.197z"/>
		<path fill="#FFFFFF" d="M108.006,10.885c0.016,0.062,0.045,0.137,0.094,0.166c0.1,0.062,0.149,0.048,0.22-0.09
			c-0.079-0.045-0.158-0.091-0.238-0.134C108.042,10.846,108.002,10.874,108.006,10.885z"/>
		<path fill="#FFFFFF" d="M104.002,19.917c0.091,0.017,0.188,0.029,0.282,0.044c-0.008-0.042-0.021-0.089-0.045-0.143
			C104.135,19.83,104.042,19.849,104.002,19.917z"/>
		<path fill="#FFFFFF" d="M107.796,18.194c0.078,0.008,0.147-0.009,0.159-0.103c0.012-0.096-0.071-0.196-0.163-0.174
			c-0.082,0.021-0.156,0.078-0.252,0.129c0.064,0.056,0.102,0.094,0.146,0.122C107.718,18.188,107.757,18.19,107.796,18.194z"/>
		<path fill="#FFFFFF" d="M110.917,15.76c0.049-0.013,0.126-0.104,0.112-0.14c-0.018-0.071-0.089-0.125-0.177-0.232
			c-0.057,0.108-0.109,0.165-0.109,0.223C110.744,15.71,110.812,15.788,110.917,15.76z"/>
		<path fill="#FFFFFF" d="M101.746,4.204c0.251,0.054,0.251,0.054,0.378-0.156C101.856,3.994,101.856,3.994,101.746,4.204z"/>
		<path fill="#FFFFFF" d="M106.13,18.145c-0.076-0.048-0.129-0.106-0.154-0.096c-0.057,0.02-0.1,0.075-0.15,0.119
			c0.051,0.043,0.1,0.116,0.145,0.116C106.017,18.286,106.066,18.208,106.13,18.145z"/>
		<path fill="#FFFFFF" d="M103.737,9.12c-0.088-0.025-0.178,0.07-0.152,0.158c0.018,0.056,0.072,0.101,0.137,0.184
			c0.072-0.097,0.135-0.155,0.156-0.226C103.885,9.211,103.792,9.137,103.737,9.12z"/>
		<path fill="#FFFFFF" d="M108.943,13.976c-0.152-0.053-0.234-0.083-0.353-0.126C108.663,14.015,108.763,13.998,108.943,13.976z"/>
		<path fill="#FFFFFF" d="M105.958,12.51c-0.014,0.018-0.029,0.033-0.043,0.048c0.053,0.026,0.108,0.056,0.163,0.084
			c0.001-0.012,0.014-0.024,0.007-0.034C106.064,12.571,106.009,12.55,105.958,12.51z"/>
		<path fill="#FFFFFF" d="M100.731,5.936c-0.014,0.103,0.08,0.196,0.148,0.158c0.039-0.02,0.059-0.077,0.102-0.14
			c-0.061-0.045-0.109-0.091-0.168-0.116C100.799,5.833,100.733,5.9,100.731,5.936z"/>
		<path fill="#FFFFFF" d="M104.564,10.244c0.033,0.031,0.068,0.086,0.096,0.085c0.037-0.004,0.072-0.055,0.125-0.102
			c-0.053-0.036-0.096-0.086-0.123-0.079C104.625,10.156,104.597,10.209,104.564,10.244z"/>
		<path fill="#FFFFFF" d="M106.5,3.833c0.047,0.002,0.094-0.036,0.174-0.073c-0.107-0.074-0.154-0.126-0.18-0.12
			c-0.037,0.015-0.08,0.068-0.084,0.106C106.411,3.776,106.467,3.831,106.5,3.833z"/>
		<path fill="#FFFFFF" d="M109.784,5.584c0.018-0.003,0.031-0.019,0.07-0.045c-0.031-0.046-0.041-0.07-0.055-0.074
			c-0.061-0.019-0.129-0.039-0.195-0.043c-0.012,0-0.053,0.066-0.045,0.088C109.602,5.623,109.698,5.603,109.784,5.584z"/>
		<path fill="#FFFFFF" d="M108.306,15.436c0.001,0.017,0.003,0.034,0.004,0.051c0.01-0.006,0.019-0.011,0.028-0.017
			C108.329,15.458,108.317,15.447,108.306,15.436z"/>
		<path fill="#FFFFFF" d="M110.083,13.101c-0.039-0.034-0.07-0.069-0.109-0.084c-0.023-0.01-0.059,0.015-0.09,0.022
			c0.039,0.043,0.074,0.09,0.115,0.127C110.002,13.168,110.043,13.131,110.083,13.101z"/>
		<path fill="#FFFFFF" d="M101.234,5.895c0.02,0.035,0.043,0.068,0.063,0.101c0.023-0.02,0.049-0.038,0.072-0.058
			c-0.014-0.027-0.025-0.072-0.049-0.077C101.296,5.855,101.263,5.884,101.234,5.895z"/>
		<path fill="#FFFFFF" d="M106.38,4.615c-0.033,0.025-0.061,0.059-0.082,0.095c-0.001,0.001,0.008,0.009,0.012,0.014
			c0.024,0.005,0.049,0.01,0.072,0.015c0.027-0.021,0.054-0.042,0.081-0.068C106.426,4.646,106.386,4.61,106.38,4.615z"/>
		<path fill="#FFFFFF" d="M106.316,19.859c0,0.006,0.02,0.008,0.031,0.012c0.004-0.014,0.01-0.027,0.014-0.041
			c-0.012-0.004-0.029-0.012-0.035-0.01C106.318,19.83,106.314,19.848,106.316,19.859z"/>
		<path fill="#FFFFFF" d="M109.136,3.684c-0.01,0.003-0.029,0.001-0.031,0.009c-0.01,0.011-0.01,0.029-0.012,0.042
			c0.02-0.004,0.039-0.008,0.061-0.012C109.146,3.709,109.142,3.696,109.136,3.684z"/>
		<path fill="#FFFFFF" d="M101.893,8.502c0.012-0.005,0.025-0.009,0.037-0.013c-0.004-0.017-0.008-0.033-0.012-0.051
			C101.911,8.46,101.901,8.481,101.893,8.502z"/>
		<path fill="#FFFFFF" d="M110.654,13.081c0.014,0.003,0.025,0.01,0.037,0.007c-0.009-0.014-0.017-0.028-0.024-0.042
			c-0.001,0-0.002,0-0.003-0.001C110.662,13.057,110.658,13.067,110.654,13.081z"/>
		<polygon fill="#FFFFFF" points="101.132,18.158 101.148,18.116 101.111,18.116 		"/>
		<polygon fill="#FFFFFF" points="105.984,9.947 105.935,9.96 105.978,9.985 		"/>
	</g>
</g>
</svg>
