<?xml version="1.0" encoding="UTF-8" standalone="no"?>
<!-- Generator: Adobe Illustrator 16.0.3, SVG Export Plug-In . SVG Version: 6.00 Build 0)  -->
<!DOCTYPE svg  PUBLIC '-//W3C//DTD SVG 1.1//EN'  'http://www.w3.org/Graphics/SVG/1.1/DTD/svg11.dtd'>
<svg xmlns="http://www.w3.org/2000/svg" xml:space="preserve" height="25.583px" width="325.88px" version="1.1" y="0px" x="0px" xmlns:xlink="http://www.w3.org/1999/xlink" viewBox="54.959 6.542 325.875 25.583" enable-background="new 54.959 6.542 325.875 25.583">
<g id="to_love" fill="#777">
	<path d="m221.3 8.586h-6.686c-0.354 0-0.455-0.21-0.455-0.525v-0.524c0-0.28 0.209-0.455 0.455-0.455h15.051c0.279 0 0.455 0.21 0.455 0.455v0.595c0 0.245-0.176 0.455-0.455 0.455h-6.721v22.542c0 0.245-0.211 0.455-0.563 0.455h-0.629c-0.246 0-0.455-0.21-0.455-0.455v-22.543z"/>
	<path d="m251.5 6.731c7.035 0 12.639 5.636 12.639 12.636 0 7.035-5.604 12.566-12.639 12.566-7.002 0-12.604-5.531-12.604-12.566 0-7 5.6-12.636 12.6-12.636zm0 23.664c6.125 0 11.098-4.897 11.098-11.023 0-6.125-4.973-11.096-11.098-11.096-6.127 0-11.063 4.971-11.063 11.096s4.94 11.023 11.06 11.023z"/>
	<path d="m276.81 7.537c0-0.245 0.211-0.455 0.455-0.455h0.77c0.211 0 0.42 0.21 0.42 0.455v22.577h11.166c0.42 0 0.455 0.211 0.455 0.454v0.632c0 0.243-0.209 0.385-0.455 0.385h-12.355c-0.244 0-0.455-0.21-0.455-0.455v-23.593h0.01z"/>
	<path d="m311.39 6.731c7.033 0 12.637 5.636 12.637 12.636 0 7.035-5.604 12.566-12.637 12.566-7.002 0-12.605-5.531-12.605-12.566 0.01-7 5.61-12.636 12.61-12.636zm0 23.664c6.125 0 11.096-4.897 11.096-11.023 0-6.125-4.971-11.096-11.096-11.096-6.127 0-11.064 4.971-11.064 11.096s4.93 11.023 11.06 11.023z"/>
	<path d="m332.35 7.537c-0.141-0.28-0.033-0.455 0.279-0.455h0.945c0.209 0 0.35 0.14 0.385 0.245l9.451 21.737h0.066l9.559-21.737c0.033-0.105 0.176-0.245 0.387-0.245h0.91c0.313 0 0.453 0.21 0.313 0.49l-10.75 24.048c-0.066 0.175-0.209 0.313-0.42 0.313h-0.176c-0.211 0-0.352-0.209-0.385-0.313l-10.57-24.083z"/>
	<path d="m365.64 7.537c0-0.245 0.211-0.455 0.455-0.455h14.037c0.244 0 0.455 0.21 0.455 0.455v0.595c0 0.245-0.211 0.455-0.455 0.455h-12.813v9.661h11.096c0.244 0 0.455 0.21 0.455 0.455v0.595c0 0.245-0.211 0.455-0.455 0.455h-11.096v10.36h12.813c0.244 0 0.455 0.211 0.455 0.455v0.561c0 0.245-0.211 0.455-0.455 0.455h-14.03c-0.244 0-0.455-0.21-0.455-0.455v-23.592z"/>
</g>
<g id="homes_1_">
	<g id="homes" fill="#49BF5C">
		<path d="m55.147 7.884c0-0.346 0.312-0.658 0.658-0.658h4.121c0.381 0 0.658 0.312 0.658 0.658v8.726h9.904v-8.726c0-0.346 0.277-0.658 0.658-0.658h4.12c0.346 0 0.658 0.312 0.658 0.658v22.922c0 0.347-0.312 0.659-0.658 0.659h-4.12c-0.381 0-0.658-0.313-0.658-0.659v-9.106h-9.904v9.106c0 0.347-0.276 0.659-0.658 0.659h-4.121c-0.346 0-0.658-0.313-0.658-0.659v-22.922z"/>
		<path d="m99.933 6.88c6.926 0 12.465 5.574 12.465 12.5s-5.54 12.432-12.465 12.432-12.431-5.506-12.431-12.432c-0.002-6.926 5.503-12.5 12.429-12.5zm0 19.392c3.809 0 6.926-3.118 6.926-6.892 0-3.81-3.117-6.96-6.926-6.96-3.775 0-6.892 3.15-6.892 6.96 0 3.774 3.116 6.892 6.891 6.892z"/>
		<path d="m126.37 7.434c0.035-0.312 0.346-0.554 0.623-0.554h0.554c0.174 0 0.485 0.138 0.589 0.346l8.033 14.959h0.068l8.034-14.959c0.104-0.208 0.415-0.346 0.589-0.346h0.554c0.277 0 0.589 0.242 0.623 0.554l3.913 23.27c0.069 0.449-0.242 0.762-0.658 0.762h-4.086c-0.311 0-0.623-0.278-0.658-0.554l-1.558-10.701h-0.069l-5.817 11.22c-0.104 0.208-0.416 0.382-0.589 0.382h-0.623c-0.207 0-0.485-0.174-0.588-0.382l-5.853-11.22h-0.07l-1.523 10.701c-0.035 0.275-0.312 0.554-0.658 0.554h-4.086c-0.416 0-0.728-0.313-0.658-0.762l3.95-23.27z"/>
		<path d="m161.94 7.884c0-0.346 0.277-0.658 0.657-0.658h14.336c0.383 0 0.658 0.312 0.658 0.658v3.775c0 0.346-0.275 0.657-0.658 0.657h-9.592v4.294h7.895c0.348 0 0.658 0.312 0.658 0.658v3.774c0 0.381-0.311 0.657-0.658 0.657h-7.895v4.675h9.592c0.383 0 0.658 0.312 0.658 0.658v3.773c0 0.347-0.275 0.659-0.658 0.659h-14.336c-0.38 0-0.657-0.313-0.657-0.659v-22.921z"/>
		<path d="m188.23 28.176l1.629-2.873c0.275-0.45 0.934-0.382 1.176-0.208 0.139 0.069 2.631 1.903 4.918 1.903 1.387 0 2.389-0.865 2.389-2.077 0-1.455-1.211-2.563-3.566-3.497-2.977-1.177-6.719-3.498-6.719-7.653 0-3.428 2.668-6.89 8-6.89 3.602 0 6.371 1.835 7.41 2.597 0.416 0.242 0.348 0.865 0.209 1.108l-1.768 2.665c-0.242 0.382-0.865 0.693-1.178 0.451-0.309-0.174-2.838-2.078-4.951-2.078-1.246 0-2.182 0.83-2.182 1.767 0 1.28 1.041 2.25 3.775 3.358 2.701 1.074 6.994 3.186 6.994 7.895 0 3.566-3.08 7.169-8.172 7.169-4.5 0-6.994-1.872-7.791-2.668-0.35-0.345-0.46-0.486-0.18-0.969z"/>
	</g>
</g>
<g id="bottom_texture" fill="#fff">
	<g opacity=".4">
		<path d="m56.28 20.139c-0.036-0.029-0.052-0.054-0.072-0.058-0.008-0.002-0.015-0.005-0.023-0.007v0.351c0.025-0.034 0.036-0.072 0.065-0.106 0.037-0.04 0.023-0.128 0.03-0.18z"/>
		<path d="m59.129 26.038c0.005 0.135 0.09 0.226 0.223 0.244 0.062 0.008 0.132 0.009 0.193-0.003v-0.522c-0.069 0.011-0.138 0.021-0.207 0.03-0.135 0.019-0.213 0.116-0.209 0.251z"/>
		<path d="m59.125 26.754c-0.236 0.008-0.474 0.045-0.707 0.023-0.248-0.025-0.481 0.148-0.748-0.004-0.108-0.062-0.331 0.025-0.474 0.1-0.076 0.041-0.129 0.198-0.127 0.3 0.003 0.146 0.18 0.273 0.306 0.232 0.225-0.075 0.441-0.171 0.685-0.267 0.338 0.201 0.705 0.269 1.136 0.179 0.115-0.023 0.233-0.017 0.35-0.022v-0.63c-0.07 0.024-0.141 0.046-0.208 0.097-0.045 0.033-0.141-0.01-0.213-0.008z"/>
		<path d="m56.834 11.025c0.106-0.039 0.234-0.022 0.352-0.016 0.304 0.019 0.556-0.091 0.82-0.312-0.258-0.395-0.563-0.644-1.057-0.538-0.273-0.255-0.399-0.708-0.763-0.822v1.616c0.203 0.084 0.409 0.157 0.648 0.072z"/>
		<path d="m56.926 23.471c-0.229-0.121-0.458-0.241-0.697-0.367-0.016 0.009-0.028 0.017-0.043 0.025v0.706c0.137-0.041 0.263-0.13 0.372-0.278 0.48 0.26 0.482 0.231 0.945 0.272 0.635 0.054 1.293-0.072 1.904 0.227 0.047 0.023 0.094 0.032 0.139 0.031v-0.716c-0.744-0.013-1.488-0.025-2.233-0.021-0.134 0-0.268 0.082-0.387 0.121z"/>
		<path d="m73.818 21.333c-0.043 0.256-0.086 0.514-0.129 0.77-0.032 0.188 0.09 0.316 0.35 0.295 0.046-0.039 0.186-0.102 0.199-0.185 0.054-0.335 0.163-0.64 0.321-0.936 0.029-0.055-0.068-0.242-0.147-0.277-0.246-0.108-0.549 0.079-0.594 0.333z"/>
		<path d="m58.938 29.433c0.183 0.223 0.369 0.293 0.607 0.244v-0.652c-0.21 0.015-0.425 0.035-0.669 0.054 0.022 0.143 0.002 0.281 0.062 0.354z"/>
		<path d="m56.186 26.899v0.356c0.114-0.03 0.23-0.075 0.355-0.158-0.123-0.076-0.241-0.143-0.355-0.198z"/>
		<path d="m73.308 18.633c-0.137 0.036-0.245 0.148-0.186 0.426 0.347 0 0.679 0.004 1.01-0.002 0.146-0.003 0.25-0.144 0.233-0.297-0.016-0.147-0.146-0.263-0.292-0.245-0.256 0.033-0.516 0.056-0.765 0.118z"/>
		<path d="m72.541 23.605c0.038-0.002 0.066-0.104 0.101-0.165-0.502-0.225-0.637-0.235-1.116-0.055v0.175c0.044 0.042 0.086 0.075 0.129 0.078 0.294 0.012 0.59-0.008 0.886-0.033z"/>
		<path d="m58.562 12.691c-0.14 0.019-0.281 0.032-0.415 0.075-0.043 0.013-0.073 0.107-0.083 0.169-0.004 0.025 0.058 0.087 0.094 0.091 0.416 0.041 0.835 0.082 1.388-0.206v-0.009c-0.387-0.051-0.614-0.081-0.84-0.109-0.048-0.007-0.097-0.017-0.144-0.011z"/>
		<path d="m59.924 18.874c-0.16-0.039-0.328-0.084-0.488-0.073-0.09 0.005-0.173 0.122-0.326 0.239 0.529 0.286 0.529 0.288 0.764 0.278 0.127-0.006 0.246-0.043 0.258-0.19 0.013-0.138-0.087-0.222-0.208-0.254z"/>
		<path d="m59.896 17.826c0.306 0.409 0.396 0.416 1.01 0.052-0.331-0.078-0.655-0.407-1.01-0.052z"/>
		<path d="m67.845 19.889c0.313 0.37 0.534 0.376 1.134 0.095-0.342-0.266-0.694-0.142-1.134-0.095z"/>
		<path d="m74.488 10.576c-0.122 0.033-0.255 0.139-0.162 0.379 0.203 0.027 0.383 0.07 0.559 0.064v-0.449c-0.131-0.024-0.273-0.028-0.397 0.006z"/>
		<path d="m73.334 27.962c0.363 0.326 0.426 0.332 1.061 0.081-0.353-0.32-0.497-0.331-1.061-0.081z"/>
		<path d="m59.545 9.652v-0.414c-0.11 0.042-0.231 0.139-0.396 0.315l0.396 0.099z"/>
		<path d="m57.668 9.119c-0.053-0.033-0.128-0.031-0.185-0.044-0.161 0.136-0.204 0.302-0.116 0.459 0.096 0.173 0.276 0.167 0.443 0.111 0.084-0.028 0.161-0.082 0.354-0.183-0.229-0.16-0.357-0.259-0.496-0.343z"/>
		<path d="m58.247 16.685c-0.041 0.016-0.073 0.127-0.062 0.183 0.012 0.058 0.084 0.141 0.129 0.141 0.164 0 0.331-0.015 0.49-0.052 0.207-0.05 0.216-0.16 0.028-0.451-0.186 0.054-0.391 0.105-0.585 0.179z"/>
		<path d="m57.453 28.419c0.201-0.035 0.361-0.119 0.392-0.433-0.168-0.047-0.3-0.103-0.436-0.114-0.184-0.013-0.296 0.143-0.271 0.333 0.02 0.146 0.158 0.24 0.315 0.214z"/>
		<path d="m72.986 11.086c0.187-0.053 0.373-0.095 0.549-0.162 0.045-0.017 0.089-0.12 0.081-0.174-0.01-0.056-0.078-0.129-0.133-0.145-0.222-0.063-0.43-0.005-0.603 0.14-0.042 0.035-0.066 0.131-0.049 0.186 0.016 0.057 0.091 0.097 0.155 0.155z"/>
		<path d="m59.043 28.386c-0.035-0.137-0.029-0.293-0.095-0.334-0.128-0.08-0.297-0.114-0.451-0.123-0.052-0.002-0.132 0.115-0.16 0.196-0.015 0.04 0.04 0.132 0.088 0.167 0.154 0.114 0.327 0.174 0.618 0.094z"/>
		<path d="m73.678 17.989c0.17 0.004 0.25-0.099 0.219-0.316-0.164-0.028-0.34-0.065-0.518-0.08-0.024-0.003-0.094 0.114-0.083 0.162 0.045 0.196 0.218 0.229 0.382 0.234z"/>
		<path d="m68.14 19.171c0.157 0.015 0.301-0.099 0.288-0.228-0.013-0.127-0.196-0.28-0.394-0.297-0.037 0.047-0.115 0.108-0.136 0.183-0.05 0.187 0.058 0.325 0.242 0.342z"/>
		<path d="m64.008 18.661c0.146 0.222 0.326 0.219 0.509 0.159 0.048-0.015 0.098-0.104 0.099-0.162 0-0.056-0.046-0.141-0.095-0.166-0.195-0.1-0.354-0.028-0.513 0.169z"/>
		<path d="m56.28 19.283c0.196-0.059 0.415-0.094 0.481-0.355-0.232-0.095-0.403-0.011-0.557 0.097-0.01 0.008-0.013 0.029-0.019 0.045v0.163c0.021 0.026 0.07 0.056 0.095 0.05z"/>
		<path d="m57.171 11.922c0.093-0.026 0.164-0.125 0.291-0.232-0.14-0.101-0.219-0.19-0.316-0.218-0.116-0.033-0.278 0.162-0.245 0.284 0.036 0.125 0.147 0.204 0.27 0.166z"/>
		<path d="m57.251 15.799c0.063-0.256 0.038-0.345-0.128-0.38-0.138-0.029-0.287-0.063-0.396 0.072-0.073 0.089 0.077 0.241 0.313 0.306 0.066 0.018 0.142 0.002 0.211 0.002z"/>
		<path d="m56.99 17.96c0.058-0.005 0.118-0.003 0.175-0.016 0.068-0.014 0.133-0.052 0.201-0.056 0.093-0.007 0.19 0.025 0.282 0.011 0.05-0.008 0.092-0.074 0.152-0.125-0.33-0.098-0.33-0.098-0.81 0.186z"/>
		<path d="m56.813 29.231c-0.012 0.052 0.025 0.146 0.07 0.174 0.148 0.099 0.306 0.092 0.481-0.045-0.078-0.247-0.258-0.237-0.411-0.251-0.045-0.004-0.128 0.07-0.14 0.122z"/>
		<path d="m72.511 30.228c-0.039 0.002-0.075 0.094-0.112 0.144 0.021 0.014 0.043 0.034 0.064 0.053h0.24c0.11-0.041 0.23-0.091 0.411-0.163-0.284-0.022-0.444-0.04-0.603-0.034z"/>
		<path d="m59.545 14.07v-0.045c-0.017 0.011-0.026 0.016-0.044 0.029 0.017 0.006 0.029 0.011 0.044 0.016z"/>
		<path d="m56.592 28.203c-0.123-0.04-0.228-0.082-0.337-0.106-0.019-0.004-0.046 0.014-0.07 0.035v0.194c0.101 0.125 0.216 0.098 0.407-0.123z"/>
		<path d="m59.534 8.461c0.004 0 0.008-0.001 0.012 0v-0.202h-0.083c-0.013 0.018-0.031 0.036-0.031 0.049 0 0.055 0.06 0.149 0.102 0.153z"/>
		<path d="m58.678 8.422c-0.001-0.06-0.017-0.11-0.029-0.163h-0.234c0.04 0.081 0.115 0.144 0.263 0.163z"/>
		<path d="m56.241 8.259h-0.056v0.08c0.023-0.023 0.045-0.046 0.073-0.072-0.007-0.003-0.01-0.005-0.017-0.008z"/>
		<path d="m74.15 8.565c0.007-0.026-0.037-0.094-0.062-0.097-0.107-0.011-0.216-0.004-0.325-0.004-0.009 0.041-0.019 0.083-0.028 0.125 0.107 0.021 0.214 0.054 0.323 0.063 0.03 0.003 0.084-0.051 0.092-0.087z"/>
		<path d="m60.904 18.955c-0.073 0.046-0.138 0.104-0.206 0.159 0.035 0.024 0.071 0.048 0.147 0.103 0.048-0.056 0.104-0.116 0.149-0.181 0.003-0.005-0.079-0.087-0.09-0.081z"/>
		<path d="m73.059 15.289c-0.03 0.087-0.062 0.143-0.06 0.195 0.002 0.025 0.082 0.075 0.103 0.063 0.048-0.021 0.082-0.075 0.122-0.116-0.045-0.038-0.09-0.077-0.165-0.142z"/>
		<path d="m64.714 17.644h-0.245c0.058 0.05 0.106 0.106 0.142 0.1 0.039-0.008 0.084-0.057 0.103-0.1z"/>
		<path d="m72.851 26.801c-0.04-0.012-0.083-0.037-0.118-0.029-0.021 0.002-0.032 0.057-0.048 0.089 0.038 0.015 0.081 0.049 0.109 0.039 0.026-0.01 0.038-0.066 0.057-0.099z"/>
		<path d="m60.542 20.191c0.038 0.017 0.083 0.051 0.113 0.043 0.029-0.01 0.043-0.065 0.063-0.101-0.039-0.016-0.079-0.028-0.118-0.042-0.019 0.033-0.039 0.068-0.058 0.1z"/>
		<path d="m56.476 24.693c0.016-0.004 0.032-0.01 0.048-0.016-0.021-0.015-0.044-0.031-0.067-0.048 0.006 0.023 0.012 0.044 0.019 0.064z"/>
		<path d="m70.728 20.025c0.021-0.006 0.046-0.008 0.063-0.018 0.008-0.005 0.005-0.029 0.006-0.045-0.021-0.007-0.041-0.015-0.062-0.021-0.002 0.03-0.005 0.056-0.007 0.084z"/>
		<polygon points="72.535 17.702 72.537 17.657 72.485 17.679"/>
		<polygon points="57.257 13.006 57.239 12.945 57.204 12.995"/>
	</g>
	<g opacity=".4">
		<path d="m102.01 8.305c-0.115-0.028-0.234-0.09-0.343-0.076-0.476 0.063-0.95 0.144-1.422 0.232-0.074 0.014-0.134 0.101-0.215 0.167 0.427 0.255 0.797 0.34 1.178 0.311 0.668-0.05 1.333-0.195 2.01-0.084 0.117 0.019 0.242 0.014 0.359-0.005 0.253-0.035 0.505-0.057 0.758-0.071-0.538-0.223-1.098-0.392-1.668-0.53-0.39 0.119-0.4 0.119-0.67 0.056z"/>
		<path d="m98.292 10.42c-0.215 0.063-0.433 0.124-0.7 0.201 0.117 0.325 0.294 0.426 0.526 0.449 0.399 0.042 0.791 0.035 1.175 0.249 0.276 0.154 0.602 0.007 0.781-0.279-0.054-0.378-0.431-0.474-0.561-0.743 0.059-0.679 0.059-0.679-0.565-0.813-0.024-0.007-0.048-0.009-0.069-0.019-0.437-0.191-0.768 0.022-1.089 0.235 0.019 0.386 0.394 0.456 0.506 0.72z"/>
		<path d="m108.34 22.149c-0.322 0.013-0.645 0.014-0.967 0.018-0.052 0.136-0.104 0.272-0.163 0.405 0.089 0.015 0.178 0.021 0.268 0.039 0.326 0.067 0.669 0.073 1.005 0.063 0.149-0.002 0.298-0.106 0.477-0.176-0.16-0.272-0.35-0.36-0.62-0.349z"/>
		<path d="m100.64 30.04c-0.187 0-0.378 0.034-0.557 0.088-0.231 0.069-0.447 0.094-0.697 0.057-0.325-0.049-0.665-0.015-0.997-0.004-0.056 0.002-0.16 0.082-0.155 0.098 0.023 0.078 0.062 0.179 0.125 0.211 0.44 0.214 0.88 0.164 1.292-0.043 0.688 0.219 0.787 0.223 1.331 0.082-0.02-0.373-0.09-0.492-0.34-0.489z"/>
		<path d="m93.529 14.137c-0.193 0.427-0.365 0.809-0.544 1.202 0.029 0.018 0.055 0.036 0.082 0.055 0.229-0.399 0.486-0.78 0.777-1.132-0.062-0.074-0.148-0.129-0.315-0.125z"/>
		<path d="m107.62 11.852c-0.246-0.03-0.469-0.037-0.698 0.085-0.061 0.031-0.181-0.03-0.269-0.063-0.133-0.052-0.258-0.118-0.401-0.186-0.109 0.081-0.196 0.184-0.3 0.208-0.125 0.028-0.265-0.012-0.399-0.019-0.022 0-0.054 0.007-0.065 0.024-0.04 0.053-0.102 0.113-0.099 0.167 0.004 0.053 0.092 0.146 0.125 0.14 0.234-0.054 0.45-0.05 0.676 0.06 0.093 0.046 0.239 0.025 0.346-0.01 0.491-0.157 0.973-0.234 1.46 0.021 0.065 0.035 0.183-0.016 0.269-0.046 0.173-0.063 0.176-0.101 0.065-0.376-0.23-0.001-0.47 0.021-0.7-0.005z"/>
		<path d="m92.268 22.019c-0.459-0.114-0.902-0.032-1.329 0.147-0.067 0.028-0.099 0.142-0.154 0.224 0.091 0.06 0.147 0.129 0.207 0.134 0.382 0.032 0.767 0.059 1.15 0.069 0.09 0.002 0.186-0.05 0.271-0.09 0.127-0.062 0.145-0.271 0.031-0.37-0.052-0.045-0.111-0.098-0.176-0.114z"/>
		<path d="m91.434 21.579c0.257-0.011 0.51-0.076 0.823-0.129-0.054-0.41-0.096-0.484-0.311-0.491-0.304-0.012-0.609-0.002-0.883-0.002-0.158 0.189-0.15 0.359-0.008 0.479 0.099 0.084 0.254 0.149 0.379 0.143z"/>
		<path d="m102.66 11.19c0.229 0.047 0.458 0.029 0.634-0.279-0.359 0.073-0.618-0.043-0.88-0.229-0.106-0.075-0.323-0.018-0.48 0.02-0.128 0.033-0.176 0.145-0.106 0.255 0.3 0.083 0.56 0.175 0.84 0.233z"/>
		<path d="m101.29 28.926c-0.265 0.169-0.53 0.169-0.816 0.085-0.049-0.015-0.118 0.041-0.173 0.063 0 0.045-0.01 0.076 0.001 0.092 0.308 0.383 0.721 0.276 1.115 0.228 0.12-0.017 0.205-0.224 0.16-0.358-0.05-0.144-0.19-0.174-0.29-0.11z"/>
		<path d="m91.211 23.248c-0.325-0.033-0.652-0.045-0.979-0.049-0.045 0-0.091 0.1-0.167 0.188 0.361 0.325 0.734 0.342 1.116 0.288 0.074-0.008 0.17-0.094 0.195-0.167 0.049-0.133-0.041-0.245-0.165-0.26z"/>
		<path d="m102.05 27.8c-0.396-0.01-0.812-0.171-1.254 0.215 0.164 0.082 0.3 0.2 0.355 0.173 0.294-0.16 0.558-0.004 0.835 0.027 0.067 0.006 0.173-0.069 0.211-0.137 0.04-0.098-0.05-0.275-0.16-0.278z"/>
		<path d="m97.352 8.868c0.063 0.023 0.141 0.015 0.213 0.021 0.213-0.019 0.427-0.033 0.64-0.055 0.045-0.005 0.093-0.026 0.128-0.056 0.033-0.028 0.065-0.073 0.067-0.113 0.003-0.04-0.026-0.113-0.051-0.117-0.337-0.068-0.662-0.274-1.022-0.063-0.105 0.06-0.241 0.088-0.194 0.233 0.021 0.067 0.136 0.115 0.219 0.15z"/>
		<path d="m89.832 22.545c0.023-0.257-0.144-0.356-0.305-0.446-0.172-0.097-0.358-0.116-0.55-0.047-0.046 0.017-0.067 0.06-0.093 0.097 0.029 0.119 0.055 0.238 0.088 0.355 0.086 0.076 0.185 0.127 0.31 0.117 0.183-0.011 0.366-0.049 0.55-0.076z"/>
		<path d="m110.14 23.332c-0.063 0.014-0.149 0.141-0.14 0.204 0.008 0.069 0.11 0.135 0.183 0.183 0.03 0.021 0.091 0.002 0.136-0.007 0.068-0.015 0.143-0.031 0.215-0.047 0.04-0.098 0.069-0.198 0.106-0.298-0.026-0.009-0.055-0.023-0.081-0.029-0.15-0.028-0.29-0.035-0.43-0.006z"/>
		<path d="m90.265 20.18c0.161 0.018 0.323 0.004 0.549 0.004-0.01-0.142-0.012-0.213-0.021-0.28-0.006-0.047-0.019-0.095-0.039-0.137-0.098-0.202-0.287-0.258-0.459-0.126-0.072 0.055-0.133 0.13-0.179 0.211-0.075 0.128 0.005 0.315 0.149 0.328z"/>
		<path d="m103.93 12.053c-0.45-0.452-0.45-0.452-0.893-0.165 0.034 0.074 0.064 0.117 0.094 0.169 0.132 0.058 0.26 0.123 0.387 0.188 0.1-0.031 0.23-0.087 0.41-0.192z"/>
		<path d="m105.74 9.708c-0.014 0.035 0.063 0.148 0.113 0.16 0.199 0.044 0.403 0.076 0.605 0.084-0.194-0.135-0.395-0.26-0.596-0.382-0.05 0.04-0.1 0.085-0.12 0.138z"/>
		<path d="m88.652 20.128c0.368 0.092 0.705 0.313 1.088-0.071-0.636-0.305-0.72-0.297-1.088 0.071z"/>
		<path d="m104.93 11.092c0.061-0.11 0.036-0.25-0.093-0.291-0.198-0.063-0.408-0.1-0.613-0.116-0.068-0.004-0.143 0.096-0.268 0.184 0.273 0.246 0.521 0.312 0.767 0.368 0.05 0.012 0.16-0.076 0.2-0.145z"/>
		<path d="m99.198 8.886c0.165-0.057 0.28-0.228 0.265-0.377-0.007-0.021-0.01-0.061-0.022-0.065-0.129-0.036-0.276-0.116-0.386-0.082-0.111 0.034-0.19 0.181-0.272 0.287-0.016 0.019 0.014 0.089 0.039 0.123 0.095 0.131 0.228 0.164 0.376 0.114z"/>
		<path d="m92.192 14.473c0.157-0.033 0.337-0.042 0.375-0.254-0.093-0.167-0.246-0.204-0.417-0.191-0.147 0.012-0.285 0.148-0.282 0.267 0.002 0.117 0.16 0.21 0.324 0.178z"/>
		<path d="m93.571 11.73c-0.156 0.036-0.25 0.126-0.23 0.349 0.511 0.035 0.511 0.035 0.709-0.143-0.294-0.244-0.294-0.248-0.479-0.206z"/>
		<path d="m110.35 22.463c-0.062-0.035-0.119-0.075-0.182-0.101-0.088-0.031-0.18-0.055-0.272-0.066-0.09-0.01-0.195-0.018-0.208 0.119 0.42 0.292 0.42 0.292 0.66 0.048z"/>
		<path d="m93.288 11.047c0.132-0.068 0.245-0.172 0.5-0.362-0.318 0.016-0.469 0.012-0.616 0.039-0.033 0.006-0.084 0.132-0.064 0.168 0.038 0.067 0.15 0.17 0.18 0.155z"/>
		<path d="m103.1 27.902c-0.122-0.017-0.256-0.017-0.274 0.146-0.017 0.147 0.101 0.203 0.223 0.229 0.131 0.027 0.234-0.016 0.274-0.145 0.01-0.172-0.1-0.213-0.22-0.23z"/>
		<path d="m91.415 24.646c-0.007 0.054 0.034 0.151 0.076 0.165 0.201 0.073 0.395 0.069 0.606-0.156-0.227-0.062-0.393-0.117-0.564-0.147-0.033-0.006-0.111 0.084-0.118 0.138z"/>
		<path d="m94.921 29.072c-0.12 0.037-0.229 0.11-0.348 0.172 0.137 0.215 0.28 0.253 0.441 0.12 0.042-0.034 0.073-0.131 0.056-0.18-0.016-0.052-0.112-0.124-0.149-0.112z"/>
		<path d="m92.29 13.357c0.067-0.001 0.194-0.108 0.186-0.142-0.022-0.095-0.101-0.178-0.188-0.312-0.09 0.103-0.176 0.159-0.191 0.228-0.03 0.135 0.066 0.231 0.193 0.226z"/>
		<path d="m97.321 26.944c0.132 0.035 0.267 0.067 0.401 0.071 0.008 0 0.016-0.018 0.024-0.025-0.148-0.043-0.293-0.092-0.437-0.143-0.006 0.042 0.001 0.097 0.012 0.097z"/>
		<path d="m91.928 17.564c-0.063 0.041-0.128 0.071-0.167 0.121-0.018 0.023 0 0.099 0.026 0.13 0.088 0.104 0.259 0.111 0.366 0.036 0.012-0.062 0.025-0.123 0.038-0.184-0.079-0.043-0.167-0.068-0.263-0.103z"/>
		<path d="m108.04 21.208c0.048 0.139 0.17 0.161 0.289 0.127 0.051-0.013 0.081-0.097 0.149-0.188-0.122-0.056-0.217-0.135-0.316-0.141-0.1-0.004-0.15 0.098-0.12 0.202z"/>
		<path d="m108.82 23.448c-0.002 0.116 0.074 0.229 0.208 0.225 0.068-0.006 0.132-0.081 0.249-0.157-0.129-0.104-0.201-0.194-0.291-0.223-0.04-0.011-0.16 0.1-0.17 0.155z"/>
		<path d="m108.15 27.1c0.056 0.027 0.109 0.039 0.161 0.043 0.077-0.082 0.153-0.165 0.228-0.25-0.3-0.137-0.33-0.105-0.39 0.207z"/>
		<path d="m93.429 13.259c0.03 0.071 0.121 0.161 0.186 0.16 0.062 0 0.122-0.106 0.224-0.206-0.125-0.068-0.196-0.138-0.272-0.142-0.112-0.008-0.182 0.084-0.138 0.188z"/>
		<path d="m105.3 13.364c0.071-0.02 0.125-0.099 0.259-0.214-0.188-0.04-0.293-0.09-0.387-0.075-0.055 0.009-0.133 0.107-0.138 0.165 0.053 0.044 0.101 0.093 0.152 0.139 0.04 0 0.08-0.004 0.12-0.015z"/>
		<path d="m107.69 23.501c0.044 0.046 0.082 0.115 0.135 0.131 0.1 0.029 0.192-0.02 0.2-0.131 0.003-0.051-0.062-0.104-0.115-0.182-0.08 0.074-0.15 0.127-0.21 0.182z"/>
		<path d="m95.742 29.14c-0.071 0.024-0.015 0.178 0.096 0.209 0.077 0.021 0.165 0.004 0.32 0.004-0.081-0.116-0.108-0.194-0.154-0.209-0.081-0.027-0.183-0.033-0.262-0.004z"/>
		<path d="m96.191 27.908c-0.036-0.021-0.169 0.047-0.167 0.062 0.016 0.099 0.056 0.193 0.113 0.369 0.109-0.128 0.203-0.188 0.203-0.25-0.001-0.064-0.082-0.146-0.149-0.181z"/>
		<path d="m96.048 26.912c0.006 0.038 0.005 0.063 0.014 0.083 0.056 0.129 0.159 0.168 0.279 0.113 0.05-0.023 0.077-0.099 0.115-0.147-0.076-0.041-0.147-0.101-0.228-0.115-0.055-0.012-0.121 0.043-0.18 0.066z"/>
		<path d="m93.332 26.914c-0.021 0.09 0.109 0.188 0.176 0.133 0.059-0.047 0.102-0.138 0.114-0.215 0.008-0.051-0.049-0.116-0.109-0.242-0.103 0.181-0.163 0.246-0.181 0.324z"/>
		<path d="m110.75 21.206c-0.082-0.078-0.133-0.153-0.204-0.183-0.026-0.012-0.145 0.091-0.137 0.115 0.023 0.073 0.079 0.145 0.142 0.186 0.02 0.015 0.1-0.058 0.2-0.118z"/>
		<path d="m90.843 25.819c-0.055-0.059-0.111-0.114-0.166-0.172-0.057 0.058-0.128 0.106-0.161 0.176-0.004 0.008 0.012 0.026 0.024 0.043 0.013 0.019 0.027 0.036 0.04 0.055 0.022 0.025 0.045 0.05 0.069 0.079 0.078-0.07 0.136-0.127 0.194-0.181z"/>
		<path d="m94.727 12.061c-0.088-0.04-0.147-0.091-0.195-0.083-0.047 0.009-0.082 0.08-0.124 0.121 0.05 0.037 0.101 0.103 0.148 0.1 0.05-0.005 0.095-0.073 0.171-0.138z"/>
		<path d="m97.049 29.242c-0.007 0.036 0.09 0.137 0.115 0.127 0.07-0.022 0.127-0.086 0.229-0.164-0.108-0.055-0.17-0.112-0.21-0.1-0.057 0.018-0.122 0.082-0.134 0.137z"/>
		<path d="m96.862 30.231c-0.027 0.002-0.049 0.056-0.072 0.102 0.062 0.017 0.125 0.029 0.187 0.046 0.01-0.022 0.021-0.046 0.033-0.069-0.049-0.029-0.101-0.082-0.148-0.079z"/>
		<path d="m92.702 28.107c-0.048-0.029-0.097-0.06-0.167-0.101-0.011 0.015-0.019 0.024-0.029 0.038 0.046 0.039 0.088 0.083 0.135 0.122 0.021-0.018 0.041-0.041 0.061-0.059z"/>
		<path d="m103.97 28.043c0.026 0.05 0.053 0.101 0.079 0.15 0.035-0.026 0.069-0.05 0.104-0.074-0.02-0.039-0.033-0.094-0.063-0.104-0.03-0.015-0.08 0.016-0.12 0.028z"/>
		<path d="m95.012 25.692c0.007 0.048 0.072 0.09 0.138 0.16 0.023-0.05 0.046-0.089 0.063-0.122-0.053-0.039-0.106-0.078-0.158-0.118-0.025 0.029-0.047 0.056-0.043 0.08z"/>
		<path d="m93.55 25.652c-0.037 0.016-0.091 0.022-0.106 0.051-0.013 0.024 0.019 0.071 0.032 0.11 0.039-0.017 0.094-0.022 0.109-0.053 0.014-0.021-0.022-0.07-0.035-0.108z"/>
		<path d="m108.93 14.315c-0.041-0.045-0.081-0.092-0.122-0.136-0.045 0.041-0.107 0.081-0.102 0.096 0.019 0.053 0.061 0.098 0.095 0.146 0.04-0.035 0.09-0.069 0.13-0.106z"/>
		<path d="m109.23 13.195c-0.025-0.057-0.04-0.124-0.064-0.129-0.053-0.009-0.112 0.016-0.168 0.025 0.018 0.05 0.028 0.137 0.054 0.143 0.06 0.01 0.12-0.023 0.18-0.039z"/>
		<path d="m104.26 12.013c0.066 0.048 0.117 0.109 0.158 0.104 0.049-0.007 0.12-0.072 0.123-0.117 0.003-0.039-0.077-0.123-0.113-0.121-0.05 0.004-0.1 0.072-0.17 0.134z"/>
		<path d="m106.43 10.975c-0.035-0.026-0.07-0.052-0.106-0.078-0.015 0.042-0.044 0.087-0.039 0.128 0.003 0.024 0.058 0.043 0.09 0.064 0.03-0.038 0.05-0.075 0.06-0.114z"/>
		<path d="m104.17 9.655c-0.053-0.03-0.105-0.062-0.158-0.089-0.018 0.039-0.061 0.097-0.049 0.113 0.031 0.04 0.086 0.064 0.135 0.087 0.01 0.002 0.04-0.06 0.07-0.111z"/>
		<path d="m91.305 26.73c-0.023 0.012-0.052 0.023-0.073 0.037 0.026 0.031 0.056 0.061 0.083 0.092 0.021-0.015 0.043-0.029 0.063-0.042-0.023-0.028-0.048-0.057-0.073-0.087z"/>
		<path d="m109.56 14.353c-0.037-0.014-0.074-0.031-0.113-0.038-0.009-0.004-0.04 0.038-0.038 0.038 0.026 0.034 0.057 0.064 0.085 0.095 0.01-0.031 0.04-0.062 0.06-0.095z"/>
		<path d="m107.51 16.553c-0.019 0.03-0.041 0.061-0.053 0.093-0.003 0.009 0.025 0.028 0.039 0.043 0.018-0.031 0.035-0.06 0.053-0.089-0.02-0.017-0.03-0.033-0.04-0.047z"/>
		<path d="m109.29 21.255c-0.007 0.015-0.014 0.03-0.021 0.045 0.021 0.008 0.042 0.013 0.062 0.019-0.02-0.021-0.03-0.042-0.04-0.064z"/>
		<path d="m105.54 29.222c-0.006 0.008 0.007 0.032 0.013 0.049 0.018-0.006 0.043-0.006 0.052-0.019 0.007-0.01-0.006-0.034-0.011-0.051-0.01 0.006-0.03 0.008-0.05 0.021z"/>
	</g>
	<g opacity=".4">
		<path d="m146.51 25.587c-0.502 0.051-1.002 0.096-1.502 0.157-0.091 0.011-0.14 0.119-0.136 0.222l0.008 0.057c0.009 0.029 0.02 0.059 0.042 0.079 0.107 0.101 0.248 0.211 0.381 0.123 0.275-0.183 0.554-0.097 0.838-0.08 0.238 0.011 0.478 0.002 0.717 0.013 0.137 0.008 0.311-0.004 0.4 0.071 0.111 0.096 0.152 0.271 0.245 0.449-0.554-0.033-1.046-0.062-1.538-0.088-0.283-0.017-0.574-0.099-0.838 0.098-0.034 0.027-0.091 0.025-0.146 0.021l0.077 0.53c0.257-0.045 0.524-0.07 0.791 0.02 0.407 0.132 0.831 0.137 1.255 0.112 0.111-0.109 0.223-0.221 0.328-0.326 0.466 0.274 0.511 0.287 0.873 0.16l-0.083-0.496c-0.148-0.132-0.345-0.25-0.423-0.48 0.121-0.03 0.237-0.083 0.326-0.102l-0.057-0.34c-0.101-0.011-0.203-0.031-0.309-0.08-0.42 0.041-0.85 0.118-1.25-0.12z"/>
		<path d="m127.8 21.986c-0.399 0.18-0.795 0.159-1.199 0.077-0.222-0.045-0.37 0.029-0.498 0.201-0.027 0.037-0.114 0.029-0.242 0.059 0.044-0.182 0.057-0.316 0.109-0.436 0.084-0.196 0.207-0.374 0.283-0.575 0.053-0.133-0.067-0.314-0.209-0.32-0.302-0.017-0.61-0.041-0.908-0.009l-0.093 0.557c0.039 0.004 0.077 0.012 0.116 0.011 0.071-0.002 0.153 0.106 0.216 0.178 0.16 0.176 0.11 0.376-0.11 0.458-0.094 0.032-0.206 0.06-0.347 0.095l-0.019 0.112c0.081 0.057 0.144 0.101 0.199 0.109 0.258 0.045 0.549 0.012 0.775 0.118 0.237 0.108 0.459 0.11 0.688 0.082 0.409-0.045 0.809-0.056 1.217 0.036 0.059 0.013 0.123 0.011 0.186 0.012l0.116-0.815c-0.12 0-0.22 0.015-0.3 0.05z"/>
		<path d="m145.39 23.978c0.161-0.041 0.353-0.101 0.371-0.288 0.013-0.123-0.079-0.254-0.128-0.395-0.223 0-0.413-0.004-0.603 0.002-0.18 0.005-0.36 0.022-0.54 0.026l0.073 0.498c0.184 0.024 0.367 0.063 0.545 0.146 0.09 0.038 0.2 0.033 0.29 0.011z"/>
		<path d="m127.57 11.218c0.269-0.136 0.558-0.144 0.843-0.119 0.222 0.019 0.442 0.053 0.664 0.081l-0.257-0.479c-0.312 0-0.623-0.033-0.936-0.053-0.142-0.008-0.309-0.042-0.425 0.016-0.195 0.098-0.401 0.127-0.611 0.145l-0.079 0.467c0.29 0.058 0.56 0.076 0.82-0.058z"/>
		<path d="m141.19 20.026c0.044 0.198 0.089 0.4 0.142 0.637-0.129 0.135-0.272 0.284-0.388 0.403-0.288-0.053-0.521-0.119-0.755-0.13-0.184-0.01-0.311 0.101-0.264 0.371 0.395-0.036 0.789 0.097 1.2 0.107l0.727-1.401c-0.26-0.109-0.33-0.095-0.66 0.013z"/>
		<path d="m138.35 25.139c0.034-0.067 0.111-0.166 0.133-0.276 0.012-0.074-0.031-0.189-0.091-0.242-0.119-0.106-0.269-0.099-0.396 0.002-0.099 0.08-0.145 0.188-0.082 0.318 0.04 0.086 0.075 0.172 0.107 0.243-0.115 0.275-0.497 0.386-0.374 0.773 0.369 0.117 0.747 0.023 1.124-0.013l0.136-0.262c-0.21-0.167-0.47-0.24-0.56-0.543z"/>
		<path d="m128.17 21.338l0.03-0.21c-0.058 0.025-0.124 0.062-0.227 0.108 0.07 0.045 0.13 0.071 0.2 0.102z"/>
		<path d="m146.44 21.483c0.307 0.053 0.612 0.062 0.917 0.043l-0.07-0.415c-0.311 0.004-0.625 0.003-0.913 0.003-0.15 0.186-0.1 0.34 0.06 0.369z"/>
		<path d="m147.91 28.225c-0.387-0.435-0.388-0.437-0.594-0.449-0.281-0.017-0.438 0.221-0.32 0.478 0.067 0.151 0.189 0.213 0.341 0.217 0.187 0.007 0.417-0.063 0.557 0.019 0.268 0.158 0.454 0.092 0.624-0.04l-0.08-0.45c-0.19 0.004-0.35 0.13-0.53 0.225z"/>
		<path d="m127.26 17.76c-0.05-0.089-0.178-0.181-0.277-0.186-0.303-0.011-0.606 0.014-0.91 0.034-0.067 0.003-0.151 0.033-0.193 0.081-0.058 0.064-0.133 0.171-0.114 0.234 0.028 0.099 0.124 0.182 0.205 0.259 0.026 0.026 0.092 0.021 0.138 0.019 0.376-0.037 0.752-0.077 1.161-0.117-0.01-0.109 0.03-0.24-0.02-0.324z"/>
		<path d="m125.22 28.975c-0.343 0.077-0.759-0.071-1.069 0.281 0.224 0.174 0.417 0.358 0.663 0.325 0.325-0.045 0.669-0.034 1.044-0.236-0.35-0.342-0.42-0.419-0.63-0.37z"/>
		<path d="m132.67 17.991c0.024 0.006 0.048 0.004 0.072 0.01l-0.167-0.312c-0.063 0.01-0.128 0.02-0.204 0.03 0.18 0.165 0.23 0.254 0.3 0.272z"/>
		<path d="m124.15 26.86l-0.034 0.2c0.029-0.047 0.05-0.106 0.047-0.196l-0.02-0.004z"/>
		<path d="m137.38 26.879c-0.021 0.008-0.021 0.082-0.033 0.142 0.058 0.024 0.117 0.075 0.178 0.077 0.217 0.004 0.434 0.003 0.651 0.005l0.212-0.408c-0.114-0.006-0.228-0.01-0.34 0.001-0.23 0.021-0.45 0.112-0.67 0.183z"/>
		<path d="m136.24 27.978c-0.043 0.005-0.102 0.108-0.096 0.158 0.006 0.058 0.074 0.146 0.123 0.15 0.407 0.035 0.818 0.13 1.267 0.043l0.145-0.279c-0.5-0.187-0.97-0.143-1.44-0.072z"/>
		<path d="m145.78 29.236c-0.028-0.103-0.11-0.231-0.2-0.266-0.08-0.029-0.173-0.025-0.266-0.02l0.092 0.634c0.078-0.028 0.159-0.068 0.245-0.126 0.07-0.044 0.15-0.161 0.14-0.222z"/>
		<path d="m146.5 27.979c-0.42-0.131-0.827-0.149-1.231 0.155 0.025 0.075 0.027 0.195 0.086 0.234 0.109 0.073 0.254 0.143 0.382 0.141 0.255-0.004 0.513-0.045 0.765-0.098 0.071-0.015 0.155-0.105 0.179-0.18 0.05-0.136-0.05-0.214-0.18-0.252z"/>
		<path d="m125.52 18.734l-0.082 0.484c0.138-0.052 0.266-0.119 0.359-0.254-0.12-0.098-0.2-0.172-0.28-0.23z"/>
		<path d="m141.91 15.69c0.022-0.081-0.017-0.178-0.028-0.271-0.261-0.107-0.516-0.132-0.771-0.119l-0.214 0.399c0.26 0.149 0.556 0.178 0.852 0.186 0.05 0.001 0.14-0.117 0.16-0.195z"/>
		<path d="m147.88 30.356c0.032 0.03 0.061 0.042 0.092 0.067h0.877l-0.049-0.29c-0.018-0.008-0.035-0.017-0.053-0.024-0.33-0.134-0.61-0.089-0.87 0.247z"/>
		<path d="m131.41 21.376c0.311-0.117 0.603-0.011 0.874 0.078 0.134-0.124 0.142-0.238 0.04-0.334-0.066-0.062-0.16-0.128-0.246-0.132-0.309-0.017-0.62-0.019-0.93 0-0.03 0.002-0.062 0.026-0.092 0.054l0.175 0.336c0.07 0.006 0.14 0.017 0.19-0.002z"/>
		<path d="m126.88 11.868c-0.067-0.005-0.135 0-0.202-0.002l-0.067 0.4c0.153-0.016 0.307-0.045 0.467-0.117-0.08-0.115-0.14-0.276-0.2-0.281z"/>
		<path d="m134.48 21.234l-0.064-0.119c-0.014 0.007-0.023 0.013-0.037 0.02 0.04 0.035 0.07 0.066 0.1 0.099z"/>
		<path d="m125.92 20.304c-0.08-0.106-0.121-0.206-0.194-0.249-0.127-0.07-0.266-0.119-0.403-0.169l-0.081 0.483c0.152 0.041 0.308 0.073 0.465 0.093 0.05 0.008 0.12-0.095 0.2-0.158z"/>
		<path d="m134.04 21.124c-0.295-0.056-0.587-0.12-0.884-0.154-0.063-0.008-0.167 0.081-0.2 0.152-0.036 0.073-0.042 0.2 0.001 0.262 0.039 0.059 0.164 0.109 0.239 0.093 0.283-0.054 0.56-0.138 0.84-0.209v-0.144z"/>
		<path d="m145.05 19.085c0.191 0.156 0.412 0.243 0.658 0.151 0.074-0.028 0.163-0.121 0.166-0.188 0.002-0.075-0.07-0.185-0.14-0.221-0.124-0.06-0.272-0.073-0.409-0.104-0.072 0.013-0.15 0.011-0.209 0.041-0.058 0.03-0.123 0.088-0.135 0.144-0.01 0.054 0.02 0.142 0.07 0.177z"/>
		<path d="m127.1 15.484c-0.198-0.045-0.317-0.105-0.424-0.089-0.204 0.03-0.41 0.049-0.609 0.102l-0.031 0.182c0.273 0.001 0.546 0.004 0.819-0.004 0.06-0.003 0.11-0.092 0.24-0.191z"/>
		<path d="m128.26 14.419c-0.1-0.083-0.189-0.218-0.269-0.212-0.265 0.022-0.568-0.137-0.807 0.118 0.37 0.375 0.51 0.388 1.08 0.094z"/>
		<path d="m127.64 19.003c0.401 0.194 0.788 0.151 1.167 0.022 0.023-0.009 0.011-0.122 0.018-0.233-0.356 0.045-0.684 0.082-1.012 0.127-0.07 0.009-0.13 0.054-0.18 0.084z"/>
		<path d="m129.22 12.068c0.025-0.032-0.002-0.155-0.038-0.175-0.078-0.041-0.177-0.043-0.295-0.068-0.117 0.027-0.256 0.044-0.382 0.095-0.047 0.019-0.087 0.113-0.084 0.172 0.004 0.061 0.053 0.147 0.104 0.169 0.25 0.107 0.53 0.029 0.7-0.193z"/>
		<path d="m145.82 18.005c0.299 0.1 0.59 0.094 0.889-0.189-0.314-0.101-0.559-0.256-0.851-0.194-0.072 0.014-0.177 0.108-0.18 0.168-0.01 0.071 0.07 0.191 0.14 0.215z"/>
		<path d="m146.88 29.207c-0.032 0.08-0.056 0.192-0.023 0.268 0.027 0.068 0.134 0.106 0.176 0.138 0.098-0.015 0.146-0.017 0.193-0.028 0.248-0.064 0.381-0.235 0.311-0.392-0.07-0.161-0.293-0.22-0.498-0.122-0.06 0.028-0.14 0.077-0.16 0.136z"/>
		<path d="m128.95 17.73c-0.035 0.014-0.073 0.08-0.067 0.114 0.013 0.065 0.042 0.155 0.09 0.176 0.13 0.053 0.274 0.107 0.409 0.101 0.18-0.01 0.295-0.143 0.353-0.331-0.23-0.27-0.51-0.171-0.78-0.06z"/>
		<path d="m144.57 16.474c-0.186 0.03-0.371 0.069-0.55 0.126-0.046 0.016-0.104 0.128-0.09 0.171 0.028 0.078 0.12 0.198 0.167 0.191 0.204-0.034 0.402-0.103 0.602-0.164 0.015-0.004 0.021-0.036 0.033-0.057 0.05-0.083-0.06-0.282-0.16-0.267z"/>
		<path d="m131.01 19.973c-0.054 0.03-0.124 0.127-0.11 0.168 0.024 0.077 0.099 0.189 0.163 0.196 0.181 0.019 0.367-0.007 0.653-0.021-0.32-0.425-0.46-0.482-0.7-0.343z"/>
		<path d="m136.58 25.52c-0.12-0.01-0.263 0.058-0.366 0.133-0.05 0.038-0.063 0.18-0.036 0.249 0.029 0.071 0.133 0.106 0.203 0.159 0.111-0.039 0.211-0.053 0.281-0.106 0.065-0.051 0.155-0.163 0.137-0.21-0.03-0.094-0.13-0.223-0.21-0.225z"/>
		<path d="m127.55 20.97c-0.195-0.022-0.385 0.148-0.411 0.318-0.019 0.126 0.112 0.216 0.306 0.216 0.217 0 0.317-0.094 0.304-0.354-0.05-0.045-0.12-0.169-0.2-0.18z"/>
		<path d="m142.69 17.936c0.169-0.041 0.293-0.089 0.419-0.096 0.152-0.008 0.324 0.096 0.478-0.156-0.63-0.084-0.67-0.073-0.9 0.252z"/>
		<path d="m144.51 11.15c0.201 0.078 0.359 0.023 0.494-0.292-0.283-0.042-0.501-0.075-0.725-0.107-0.07 0.265 0.08 0.341 0.23 0.399z"/>
		<path d="m144.82 8.849c0.11-0.067 0.097-0.171-0.04-0.387l-0.241 0.449c0.09 0.017 0.18 0 0.28-0.062z"/>
		<path d="m129.54 18.766c-0.06-0.011-0.155 0.077-0.201 0.14-0.021 0.026 0.031 0.14 0.079 0.172 0.087 0.061 0.177 0.087 0.274 0.091h0.086c0.12-0.017 0.253-0.072 0.419-0.181-0.31-0.108-0.48-0.185-0.66-0.222z"/>
		<path d="m137.39 22.233c0-0.002-0.002-0.003-0.003-0.005l-0.164 0.307c0.11-0.027 0.19-0.172 0.16-0.302z"/>
		<path d="m136.53 23.458c0.006-0.128-0.126-0.229-0.295-0.223-0.164 0.004-0.286 0.103-0.259 0.25 0.017 0.096 0.111 0.172 0.153 0.233 0.23 0.012 0.39-0.113 0.4-0.26z"/>
		<path d="m134.21 23.284c-0.145-0.03-0.34 0.063-0.336 0.172 0.006 0.16 0.114 0.246 0.262 0.282 0.063 0.013 0.129 0.002 0.191 0.002 0.021-0.053 0.053-0.094 0.058-0.137 0.03-0.145 0.01-0.282-0.17-0.319z"/>
		<path d="m142.98 15.711c0.031-0.004 0.055-0.065 0.081-0.099 0.031-0.122-0.076-0.261-0.241-0.283-0.132-0.019-0.285-0.057-0.362 0.114-0.047 0.104 0.062 0.226 0.248 0.261 0.08 0.018 0.18 0.018 0.27 0.007z"/>
		<path d="m130.09 14.235c-0.153-0.049-0.304-0.002-0.27 0.075 0.033 0.074 0.096 0.158 0.167 0.187 0.101 0.04 0.221 0.04 0.333 0.042 0.027 0 0.054-0.058 0.081-0.088-0.017-0.041-0.023-0.102-0.053-0.118-0.08-0.044-0.17-0.072-0.26-0.098z"/>
		<path d="m128.33 20.226l0.023-0.165 0.007-0.05c-0.035 0.033-0.062 0.075-0.068 0.138 0 0.027 0.02 0.05 0.04 0.077z"/>
		<path d="m132.43 22.3c-0.043-0.033-0.157-0.046-0.183-0.018-0.054 0.064-0.107 0.161-0.095 0.234 0.011 0.065 0.11 0.151 0.176 0.157 0.101 0.009 0.208-0.045 0.373-0.09-0.12-0.126-0.19-0.217-0.28-0.283z"/>
		<path d="m133.82 24.508c-0.068 0.062 0.023 0.253 0.137 0.276 0.11 0.023 0.227 0.015 0.342 0.021l0.065-0.13c-0.099-0.085-0.188-0.193-0.302-0.247-0.06-0.025-0.18 0.026-0.24 0.08z"/>
		<path d="m135.33 26.653c-0.067 0.047-0.146 0.14-0.143 0.209 0.003 0.062 0.105 0.147 0.179 0.168 0.108 0.028 0.235 0.019 0.294-0.168-0.037-0.055-0.076-0.14-0.143-0.191-0.05-0.034-0.15-0.047-0.19-0.018z"/>
		<path d="m148.45 29.469c0.15-0.039 0.163-0.176 0.124-0.284-0.033-0.092-0.13-0.161-0.244-0.291-0.084 0.154-0.171 0.248-0.176 0.343 0 0.14 0.17 0.267 0.3 0.232z"/>
		<path d="m127.46 24.528c-0.035 0.043-0.045 0.145-0.019 0.192 0.061 0.113 0.137 0.153 0.225 0.139l0.042-0.297c-0.022-0.021-0.041-0.05-0.065-0.067-0.03-0.024-0.14-0.004-0.18 0.033z"/>
		<path d="m146.47 22.552c0.068-0.002 0.192-0.104 0.186-0.143-0.018-0.102-0.095-0.19-0.18-0.34-0.111 0.123-0.227 0.195-0.24 0.283-0.03 0.142 0.11 0.206 0.23 0.2z"/>
		<path d="m126.5 29.304c-0.049 0.1 0.082 0.243 0.207 0.216 0.071-0.018 0.167-0.105 0.175-0.171 0.006-0.065-0.084-0.142-0.156-0.252-0.1 0.09-0.19 0.134-0.22 0.207z"/>
		<path d="m134.67 25.767c-0.002 0.06 0.038 0.145 0.084 0.172 0.049 0.028 0.158 0.024 0.188-0.011 0.05-0.06 0.091-0.163 0.073-0.232-0.019-0.076-0.105-0.137-0.235-0.294-0.06 0.192-0.11 0.279-0.11 0.365z"/>
		<path d="m142.35 18.783c-0.132 0.067-0.277 0.132-0.413 0.213-0.024 0.013-0.035 0.093-0.021 0.128 0.016 0.032 0.084 0.077 0.109 0.065 0.147-0.062 0.288-0.136 0.429-0.209 0.011-0.005 0.011-0.05-0.001-0.067-0.02-0.037-0.06-0.069-0.11-0.13z"/>
		<path d="m133.36 20.223c0.121 0.02 0.236 0.012 0.296-0.19-0.066-0.052-0.142-0.142-0.232-0.16-0.053-0.014-0.156 0.08-0.189 0.147-0.04 0.094 0.01 0.184 0.12 0.203z"/>
		<path d="m145.54 30.349c-0.008 0.009-0.011 0.026-0.017 0.04l0.005 0.035h0.388c-0.091-0.052-0.15-0.088-0.198-0.098-0.05-0.013-0.14-0.013-0.17 0.023z"/>
		<path d="m144.28 12.103c-0.002-0.05-0.07-0.12-0.123-0.136-0.159-0.049-0.276 0.001-0.309 0.225 0.105 0.019 0.213 0.053 0.318 0.047 0.04-0.002 0.11-0.09 0.11-0.136z"/>
		<path d="m144.16 13.261c0.033-0.028 0.045-0.078 0.09-0.165-0.047-0.037-0.063-0.059-0.084-0.065-0.127-0.045-0.3 0.03-0.342 0.157-0.012 0.034 0.01 0.096 0.037 0.123 0.1 0.11 0.2 0.025 0.29-0.05z"/>
		<path d="m126.44 18.96c0.074 0.084 0.108 0.15 0.162 0.176 0.109 0.054 0.234-0.032 0.234-0.161-0.002-0.056-0.074-0.159-0.087-0.155-0.1 0.03-0.19 0.082-0.3 0.14z"/>
		<path d="m126.61 26.963c-0.019 0.108 0.108 0.208 0.23 0.172 0.052-0.019 0.13-0.117 0.124-0.127-0.055-0.073-0.127-0.139-0.214-0.225-0.07 0.088-0.13 0.129-0.14 0.18z"/>
		<path d="m147.31 30.328c0.02 0.032 0.042 0.063 0.063 0.096h0.213c-0.055-0.066-0.112-0.13-0.17-0.192-0.03 0.031-0.06 0.063-0.1 0.096z"/>
		<path d="m146.46 19.018c-0.006 0.004 0.039 0.114 0.048 0.112 0.082-0.017 0.161-0.046 0.246-0.075-0.037-0.075-0.067-0.146-0.071-0.144-0.09 0.028-0.16 0.064-0.23 0.107z"/>
		<path d="m131.91 20.032c0.024 0.053 0.069 0.098 0.126 0.17 0.061-0.08 0.099-0.133 0.138-0.185-0.059-0.022-0.116-0.058-0.177-0.063-0.03-0.004-0.1 0.067-0.09 0.078z"/>
		<path d="m134.42 22.321c-0.009 0.025 0.049 0.106 0.061 0.102 0.055-0.016 0.129-0.037 0.15-0.082 0.017-0.033-0.039-0.099-0.08-0.186-0.06 0.074-0.11 0.114-0.13 0.166z"/>
		<path d="m127.21 28.061l0.008-0.053c-0.008 0.006-0.016 0.013-0.024 0.02 0 0.009 0.01 0.021 0.01 0.033z"/>
		<path d="m146.32 20.059c-0.013 0.026 0.019 0.075 0.031 0.114 0.039-0.016 0.096-0.024 0.111-0.055 0.013-0.024-0.022-0.074-0.035-0.112-0.04 0.015-0.09 0.022-0.1 0.053z"/>
		<path d="m132.64 18.893c-0.023-0.034-0.042-0.091-0.069-0.095-0.039-0.007-0.083 0.028-0.126 0.045 0.038 0.047 0.075 0.095 0.112 0.146 0.03-0.034 0.06-0.065 0.09-0.096z"/>
		<path d="m146.16 14.453l-0.027-0.161c-0.015 0.007-0.029 0.014-0.044 0.021 0.03 0.046 0.05 0.093 0.07 0.14z"/>
		<path d="m126.61 14.331c-0.003 0.006 0.066 0.066 0.094 0.061 0.051-0.009 0.095-0.05 0.183-0.101-0.09-0.051-0.149-0.111-0.183-0.1-0.04 0.018-0.06 0.088-0.09 0.14z"/>
		<path d="m135.59 23.502c-0.017-0.027-0.035-0.056-0.051-0.082-0.041 0.016-0.08 0.03-0.12 0.047 0.013 0.019 0.024 0.049 0.036 0.049 0.04 0.002 0.09-0.01 0.13-0.014z"/>
		<path d="m138.32 21.261c0.008 0.027 0.066 0.045 0.102 0.063 0.015-0.039 0.049-0.088 0.037-0.12-0.013-0.033-0.07-0.05-0.105-0.074-0.02 0.043-0.05 0.093-0.04 0.131z"/>
		<path d="m145.42 14.456c0.031-0.018 0.057-0.042 0.084-0.065-0.025-0.025-0.053-0.049-0.078-0.076-0.019 0.034-0.04 0.064-0.049 0.1 0 0.008 0.04 0.043 0.05 0.041z"/>
		<path d="m146.46 24.755c0.02 0.027 0.045 0.073 0.066 0.072 0.033-0.002 0.061-0.041 0.09-0.063-0.037-0.015-0.074-0.035-0.115-0.046-0.01-0.004-0.05 0.035-0.04 0.037z"/>
		<path d="m127.55 23.428c0.014 0.022 0.025 0.049 0.042 0.065 0.004 0.004 0.033-0.017 0.051-0.028-0.009-0.017-0.018-0.039-0.032-0.045-0.02-0.006-0.04 0.006-0.06 0.008z"/>
	</g>
	<g opacity=".4">
		<path d="m164.98 21.137c-0.049 0.014-0.102 0.106-0.104 0.169-0.004 0.056 0.046 0.157 0.09 0.169 0.182 0.043 0.369 0.074 0.556 0.078 0.26 0.008 0.52-0.012 0.777-0.007v-0.443c-0.3-0.007-0.6-0.012-0.9-0.016-0.15-0.002-0.29 0.015-0.43 0.05z"/>
		<path d="m169.1 20.253c-0.027-0.117-0.206-0.2-0.36-0.162-0.148 0.037-0.164 0.151-0.119 0.28 0.018 0.045 0.051 0.084 0.064 0.129 0.017 0.059 0.021 0.108 0.025 0.157h0.407c-0.006-0.054-0.01-0.113-0.012-0.195 0-0.068 0.01-0.142 0-0.209z"/>
		<path d="m174.5 19.913c-0.068 0.058-0.17 0.129-0.174 0.2-0.004 0.062 0.094 0.172 0.164 0.188 0.116 0.028 0.24 0.017 0.361 0.025v-0.359c-0.072-0.018-0.144-0.037-0.215-0.072-0.04-0.016-0.11-0.006-0.14 0.018z"/>
		<path d="m163.54 28.772c-0.131 0.44-0.131 0.44 0.131 0.848 0.378 0.013 0.796 0.148 1.093-0.314-0.209-0.295-0.412-0.584-0.429-0.963-0.006-0.116-0.131-0.265-0.241-0.328-0.315-0.184-0.669-0.262-1.035-0.233-0.028 0.002-0.056 0.017-0.084 0.028v0.576c0.041 0.021 0.08 0.048 0.121 0.067 0.17 0.076 0.36 0.117 0.44 0.319z"/>
		<path d="m163.45 23.777c0.323 0.213 0.663 0.045 0.987 0.115 0.061 0.012 0.184-0.132 0.232-0.226 0.065-0.123 0.003-0.247-0.123-0.292-0.13-0.047-0.295-0.113-0.404-0.07-0.283 0.108-0.522 0.16-0.824 0.009-0.091-0.046-0.219-0.02-0.344 0.001v0.395c0.15-0.014 0.34-0.012 0.46 0.068z"/>
		<path d="m164.58 14.24c-0.064 0.056-0.136 0.158-0.127 0.233 0.008 0.076 0.1 0.188 0.168 0.2 0.161 0.032 0.334 0.025 0.498 0.005 0.286-0.036 0.602-0.196 0.848-0.121 0.111 0.034 0.222 0.049 0.332 0.055v-0.317c-0.418 0.001-0.836-0.01-1.244-0.128-0.18-0.051-0.34-0.042-0.48 0.073z"/>
		<path d="m163.5 12.432c0.144-0.061 0.196-0.213 0.131-0.355-0.065-0.14-0.196-0.258-0.335-0.188-0.107 0.055-0.215 0.071-0.322 0.094v0.637c0.012 0.002 0.021 0.005 0.034 0.007 0.14-0.057 0.32-0.119 0.49-0.195z"/>
		<path d="m171.45 19.176c0.217-0.019 0.43-0.056 0.641-0.068 0.201-0.013 0.408-0.04 0.488-0.243 0.084-0.221-0.119-0.343-0.238-0.487-0.014-0.015-0.041-0.02-0.102-0.047-0.322 0.101-0.617 0.191-0.91 0.286-0.15 0.047-0.254 0.208-0.205 0.331 0.06 0.145 0.17 0.243 0.33 0.228z"/>
		<path d="m172.66 18.36c0.102 0.331 0.375 0.336 0.607 0.126 0.164-0.149 0.219-0.467 0.107-0.655-0.074-0.125-0.192-0.17-0.316-0.188h-0.2c-0.111 0.033-0.209 0.137-0.33 0.219 0.05 0.183 0.08 0.344 0.13 0.498z"/>
		<path d="m171.79 19.626c-0.064-0.012-0.152 0.008-0.199 0.045-0.186 0.146-0.344 0.316-0.295 0.633 0.398 0.097 0.773 0.123 1.197-0.077-0.13-0.359-0.37-0.543-0.71-0.601z"/>
		<path d="m165.72 23.551c-0.014 0.043 0.053 0.124 0.096 0.174 0.027 0.032 0.078 0.063 0.121 0.063h0.357v-0.427c-0.136 0.005-0.271 0.004-0.406 0.014-0.06 0.006-0.14 0.105-0.17 0.176z"/>
		<path d="m169.84 30.424h1.152c0.003-0.014 0.009-0.022 0.011-0.037-0.6-0.365-0.79-0.354-1.16 0.037z"/>
		<path d="m174.66 17.989c0.082-0.047 0.125-0.162 0.191-0.255-0.069-0.035-0.128-0.063-0.186-0.091h-0.723c-0.062 0.076-0.125 0.179-0.205 0.316 0.29 0.216 0.61 0.208 0.92 0.03z"/>
		<path d="m162.97 12.913v0.393c0.127-0.043 0.263-0.089 0.416-0.14-0.14-0.151-0.28-0.218-0.42-0.253z"/>
		<path d="m169.04 17.912c0.035 0.083 0.111 0.149 0.225 0.288 0.285-0.086 0.535-0.157 0.783-0.239 0.033-0.01 0.08-0.079 0.072-0.111-0.012-0.06-0.051-0.154-0.094-0.162-0.105-0.02-0.211-0.028-0.317-0.045h-0.632c-0.05 0.073-0.07 0.183-0.03 0.269z"/>
		<path d="m174.03 19.214c0.084-0.063 0.137-0.175 0.229-0.291-0.123-0.144-0.213-0.281-0.336-0.384-0.057-0.046-0.186-0.051-0.266-0.023-0.213 0.072-0.354 0.417-0.256 0.584 0.11 0.163 0.47 0.239 0.64 0.114z"/>
		<path d="m164.42 21.369c0.006-0.019-0.004-0.057-0.019-0.062-0.326-0.191-0.662-0.366-1.057-0.253-0.066 0.019-0.145 0.133-0.148 0.206-0.002 0.072 0.072 0.199 0.135 0.214 0.177 0.049 0.365 0.049 0.445 0.058 0.268-0.021 0.429-0.028 0.589-0.049 0.03-0.003 0.05-0.075 0.07-0.114z"/>
		<path d="m176.17 10.959c0.124 0.067 0.243 0.161 0.375 0.199v-0.375c-0.115 0-0.23 0.005-0.346 0.008 0 0.056-0.01 0.112-0.02 0.168z"/>
		<path d="m166.1 29.385c0.043 0.131 0.131 0.246 0.231 0.431 0.154-0.102 0.24-0.146 0.308-0.203 0.125-0.103 0.33-0.133 0.321-0.352-0.008-0.155-0.232-0.229-0.556-0.19-0.048 0.006-0.098 0.008-0.141 0.028-0.12 0.055-0.2 0.155-0.16 0.286z"/>
		<path d="m164.94 25.629c-0.148 0.091-0.149 0.235-0.051 0.424 0.217 0.03 0.406 0.058 0.594 0.084 0.023 0.004 0.057 0.008 0.072-0.006 0.057-0.039 0.131-0.076 0.154-0.132 0.025-0.057 0.025-0.153-0.008-0.2-0.16-0.252-0.5-0.328-0.75-0.17z"/>
		<path d="m165.98 15.512c-0.016 0.129 0.111 0.282 0.25 0.305 0.022 0.003 0.042 0 0.064 0v-0.642c-0.13 0.024-0.29 0.174-0.31 0.337z"/>
		<path d="m164.33 13.42c0.055-0.014 0.12-0.077 0.135-0.133 0.02-0.058 0-0.146-0.037-0.195-0.125-0.162-0.307-0.199-0.523-0.208-0.067 0.078-0.143 0.164-0.254 0.29 0.21 0.261 0.43 0.305 0.68 0.246z"/>
		<path d="m165.31 24.952c0.089-0.19 0.05-0.343-0.128-0.336-0.294 0.014-0.583 0.09-0.997 0.158 0.44 0.346 0.8 0.163 1.13 0.178z"/>
		<path d="m163.25 25.536c-0.051 0.024-0.113 0.111-0.105 0.159 0.02 0.112 0.063 0.227 0.125 0.32 0.086 0.125 0.238 0.187 0.362 0.099 0.099-0.07 0.145-0.215 0.197-0.301-0.033-0.09-0.038-0.142-0.065-0.176-0.1-0.116-0.36-0.174-0.51-0.101z"/>
		<path d="m165.3 26.961c0.347 0.167 0.47 0.165 0.561 0.016 0.134-0.217 0.065-0.394-0.138-0.603-0.15 0.205-0.27 0.376-0.42 0.587z"/>
		<path d="m163.62 14.412c0.004-0.076-0.057-0.156-0.085-0.226-0.267 0.056-0.438 0.092-0.56 0.123v0.252c0.136 0.008 0.263 0.016 0.389 0.021 0.12 0.006 0.24-0.026 0.25-0.17z"/>
		<path d="m167.88 9.959c0.08-0.04 0.146-0.103 0.291-0.207-0.129-0.117-0.186-0.204-0.268-0.233-0.182-0.066-0.334-0.011-0.408 0.16-0.037 0.092-0.047 0.254 0.008 0.318 0.11 0.131 0.26 0.023 0.38-0.038z"/>
		<path d="m174.8 10.829c-0.074-0.014-0.223 0.043-0.232 0.089-0.021 0.098-0.01 0.243 0.055 0.31 0.021 0.022 0.042 0.032 0.063 0.047h0.32c0.062-0.032 0.132-0.075 0.218-0.135-0.05-0.225-0.24-0.274-0.42-0.311z"/>
		<path d="m164.46 22.313c-0.061-0.031-0.132-0.043-0.212-0.065-0.083 0.015-0.188 0.011-0.263 0.056-0.066 0.043-0.139 0.134-0.14 0.207-0.003 0.131 0.106 0.221 0.229 0.209 0.137-0.009 0.275-0.062 0.4-0.119 0.043-0.021 0.061-0.118 0.064-0.182 0-0.033-0.04-0.086-0.08-0.106z"/>
		<path d="m171.97 30.414c-0.002 0.001-0.002 0.008-0.004 0.01h0.965c-0.008-0.059-0.011-0.107-0.029-0.116-0.33-0.152-0.64-0.025-0.94 0.106z"/>
		<path d="m176.31 27.898c-0.164 0.006-0.258 0.086-0.256 0.316 0.163 0.127 0.327 0.131 0.494 0.103v-0.405c-0.07-0.022-0.15-0.017-0.23-0.014z"/>
		<path d="m163.35 27.064c0.027-0.022 0.01-0.148-0.029-0.186-0.061-0.062-0.154-0.09-0.219-0.119-0.045 0.009-0.087 0.012-0.125 0.016v0.408c0.026 0.012 0.051 0.03 0.076 0.032 0.09 0.004 0.2-0.08 0.29-0.151z"/>
		<path d="m172.23 28.378c0.123 0 0.273-0.045 0.26-0.169-0.012-0.108-0.141-0.204-0.248-0.344-0.121 0.106-0.23 0.164-0.273 0.254-0.05 0.106 0.1 0.257 0.26 0.259z"/>
		<path d="m163.38 17.776c-0.204-0.154-0.321-0.226-0.411-0.24v0.365c0.13 0.018 0.26 0.005 0.41-0.125z"/>
		<path d="m164.42 26.957c-0.016 0.04 0.043 0.153 0.082 0.163 0.222 0.053 0.419 0.015 0.535-0.215-0.3-0.223-0.52-0.205-0.62 0.052z"/>
		<path d="m165.42 13.319c0.009 0.069 0.091 0.171 0.155 0.184 0.158 0.03 0.313-0.129 0.302-0.303-0.005-0.071-0.083-0.138-0.112-0.182-0.25-0.007-0.38 0.117-0.35 0.301z"/>
		<path d="m176.21 9.875c-0.049 0.093 0.059 0.284 0.148 0.265 0.063-0.013 0.134-0.055 0.188-0.102v-0.214c-0.037-0.048-0.082-0.102-0.121-0.165-0.11 0.096-0.18 0.144-0.22 0.216z"/>
		<path d="m163.21 22.438c-0.012-0.154-0.106-0.259-0.232-0.283v0.395c0.017 0 0.031 0.004 0.049 0.001 0.06-0.01 0.13-0.082 0.18-0.113z"/>
		<path d="m171.68 11.064c0.041 0.019 0.092 0.013 0.236 0.027 0-0.002 0.055-0.068 0.045-0.123-0.016-0.082-0.061-0.188-0.125-0.223-0.061-0.032-0.174-0.004-0.246 0.035-0.043 0.021-0.078 0.124-0.063 0.172 0.01 0.05 0.09 0.086 0.15 0.112z"/>
		<path d="m165.87 28.119c0.004 0.084 0.038 0.175 0.091 0.245 0.029 0.04 0.127 0.061 0.174 0.044 0.053-0.02 0.084-0.095 0.135-0.161-0.041-0.084-0.068-0.173-0.125-0.238-0.035-0.037-0.129-0.067-0.174-0.049-0.05 0.02-0.11 0.104-0.1 0.159z"/>
		<path d="m171.83 9.964c0.16 0.044 0.361-0.092 0.307-0.192-0.049-0.092-0.158-0.15-0.279-0.259-0.086 0.11-0.178 0.183-0.201 0.275-0.02 0.045 0.09 0.156 0.17 0.176z"/>
		<path d="m173.72 9.975c0.047-0.01 0.094-0.019 0.139-0.028 0.094-0.021 0.205-0.053 0.17-0.166-0.021-0.063-0.131-0.123-0.209-0.139-0.084-0.017-0.184 0.011-0.271 0.038-0.031 0.012-0.074 0.08-0.066 0.113 0.016 0.057 0.057 0.117 0.104 0.155 0.04 0.027 0.1 0.018 0.14 0.027z"/>
		<path d="m169.1 19.048c0.023-0.054 0.021-0.165-0.008-0.183-0.068-0.043-0.169-0.071-0.245-0.054-0.08 0.017-0.148 0.093-0.26 0.17 0.098 0.081 0.16 0.146 0.234 0.181 0.13 0.058 0.24 0.009 0.29-0.114z"/>
		<path d="m168.59 28.436c0.049-0.026 0.1-0.104 0.1-0.157 0-0.153-0.145-0.273-0.32-0.232-0.02 0.051-0.076 0.127-0.076 0.203 0 0.146 0.18 0.253 0.3 0.186z"/>
		<path d="m166.88 11c0.021 0.12 0.102 0.231 0.238 0.21 0.07-0.011 0.128-0.1 0.236-0.192-0.141-0.091-0.224-0.172-0.321-0.195-0.12-0.03-0.18 0.08-0.16 0.177z"/>
		<path d="m165.58 12.159c-0.004-0.049-0.08-0.132-0.121-0.129-0.074 0.004-0.146 0.059-0.233 0.101 0.055 0.101 0.072 0.178 0.119 0.208 0.08 0.051 0.25-0.072 0.23-0.18z"/>
		<path d="m165.92 17.856c0.047 0.067 0.15 0.13 0.223 0.125 0.059-0.006 0.107-0.117 0.179-0.205-0.091-0.059-0.142-0.118-0.196-0.123-0.13-0.011-0.26 0.118-0.2 0.203z"/>
		<path d="m165.54 16.698c-0.02 0.033 0.031 0.108 0.063 0.193 0.08-0.056 0.158-0.083 0.178-0.132 0.014-0.036-0.045-0.144-0.076-0.146-0.05-0.002-0.14 0.038-0.16 0.085z"/>
		<path d="m167.26 8.675c-0.148-0.025-0.246-0.045-0.392-0.069 0.13 0.165 0.24 0.132 0.39 0.069z"/>
		<path d="m169.04 30.256c-0.01-0.01-0.104 0.041-0.103 0.054 0.007 0.04 0.028 0.077 0.046 0.114h0.123c0.011-0.006 0.027-0.014 0.037-0.019-0.04-0.051-0.07-0.108-0.11-0.149z"/>
		<path d="m175.66 28.225c0.016-0.041-0.047-0.105-0.094-0.206-0.063 0.088-0.109 0.133-0.127 0.185-0.006 0.028 0.053 0.108 0.064 0.104 0.06-0.018 0.14-0.039 0.16-0.083z"/>
		<path d="m173.35 28.013c-0.035-0.041-0.092-0.067-0.139-0.1-0.016 0.032-0.035 0.067-0.063 0.122 0.053 0.028 0.104 0.06 0.156 0.09 0.01-0.039 0.05-0.098 0.04-0.112z"/>
		<path d="m175.53 30.418c0.001 0.002 0.001 0.004 0.002 0.006h0.148c-0.008-0.018-0.018-0.036-0.023-0.053-0.05 0.016-0.09 0.03-0.13 0.047z"/>
	</g>
	<g opacity=".4">
		<path d="m196.51 8.063c-0.4-0.085-0.75-0.002-1.104 0.145-0.043 0.02-0.064 0.101-0.123 0.196 0.131 0.025 0.217 0.06 0.303 0.055 0.309-0.018 0.625-0.104 0.922-0.06 0.311 0.045 0.607 0.097 0.922 0.046 0.135-0.021 0.301-0.006 0.418 0.055 0.369 0.191 0.744 0.1 1.127 0.108 0.043-0.082 0.075-0.149 0.108-0.218-0.292-0.091-0.595-0.172-0.907-0.241-0.102 0.011-0.206-0.005-0.316-0.055-0.096-0.018-0.193-0.032-0.29-0.048-0.056 0.002-0.113 0.005-0.167 0.005-0.29 0.004-0.6 0.074-0.89 0.012z"/>
		<polygon points="199.31 31.293 199.32 31.291"/>
		<path d="m190.46 15.642c-0.102-0.252-0.277-0.247-0.439-0.226-0.217 0.027-0.433 0.032-0.648 0.034 0.047 0.143 0.102 0.283 0.16 0.42 0.117-0.015 0.23-0.041 0.348-0.088 0.17-0.07 0.36-0.089 0.58-0.14z"/>
		<path d="m193.52 19.011c-0.029-0.161-0.201-0.234-0.406-0.193-0.203 0.04-0.293 0.17-0.246 0.36 0.01 0.046 0.021 0.093 0.045 0.138 0.013 0.024 0.026 0.049 0.038 0.073 0.228 0.133 0.457 0.26 0.688 0.378-0.009-0.007-0.021-0.017-0.029-0.023-0.02-0.256-0.04-0.497-0.08-0.733z"/>
		<path d="m200.77 22.977c0.355 0.037 0.707 0.06 1.064 0.076 0.09 0.004 0.197-0.015 0.268-0.065 0.086-0.06 0.178-0.155 0.207-0.252 0.02-0.067-0.064-0.165-0.105-0.258-0.559 0.037-1.098 0.07-1.643 0.108-0.06 0.303 0.06 0.373 0.21 0.391z"/>
		<path d="m191.32 26.661c-0.207 0.077-0.412 0.093-0.623 0.12-0.111 0.014-0.221 0.09-0.313 0.163-0.068 0.055-0.154 0.172-0.135 0.223 0.041 0.095 0.143 0.173 0.232 0.23 0.051 0.034 0.141 0.028 0.209 0.017 0.279-0.048 0.559-0.104 0.838-0.161 0.068-0.015 0.143-0.043 0.193-0.086 0.049-0.041 0.072-0.114 0.098-0.159-0.06-0.198-0.34-0.41-0.51-0.347z"/>
		<path d="m199.04 27.178c0.156 0.022 0.355 0.057 0.475-0.017 0.322-0.198 0.635-0.096 0.953-0.054 0.09 0.011 0.195 0.07 0.266 0.044 0.088-0.033 0.146-0.136 0.275-0.269-0.771-0.238-1.445-0.347-2.152 0.097 0.06 0.084 0.11 0.192 0.17 0.199z"/>
		<path d="m200.96 29.241c0.05-0.039 0.095-0.083 0.144-0.123-0.058 0.028-0.117 0.051-0.172 0.095 0.01 0.012 0.02 0.016 0.03 0.028z"/>
		<path d="m200.47 19.752c-0.117-0.038-0.17 0.008-0.168 0.082 0.336 0.225 0.65 0.434 0.963 0.644 0.148 0.1 0.238 0.118 0.365 0.052-0.262-0.271-0.547-0.521-0.844-0.756-0.06 0.006-0.115 0-0.18 0.018-0.03 0.011-0.08-0.025-0.13-0.04z"/>
		<path d="m199.09 28.959c-0.213 0.111-0.225 0.399-0.018 0.528 0.057 0.035 0.123 0.071 0.189 0.078 0.162 0.021 0.328 0.049 0.486 0.024 0.096-0.013 0.178-0.114 0.281-0.187-0.09-0.135-0.145-0.243-0.225-0.327-0.19-0.208-0.46-0.243-0.71-0.116z"/>
		<path d="m197.11 29.021c-0.268 0.03-0.521 0.155-0.783 0.241 0.004 0.049 0.008 0.102 0.012 0.151 0.369-0.021 0.707 0.061 1.021 0.236 0.07 0.042 0.199 0.034 0.268-0.006 0.064-0.039 0.133-0.176 0.109-0.225-0.13-0.252-0.36-0.428-0.63-0.397z"/>
		<path d="m195.31 29.07c-0.162-0.008-0.324 0.035-0.486 0.045-0.35 0.024-0.521 0.118-0.477 0.278 0.072 0.251 0.301 0.178 0.473 0.221 0.023 0.006 0.049 0.004 0.162 0.015 0.098-0.037 0.281-0.089 0.441-0.179 0.057-0.032 0.105-0.167 0.088-0.237 0-0.065-0.12-0.139-0.19-0.143z"/>
		<path d="m197.19 17.938c0.087 0.012 0.158-0.014 0.223-0.055-0.143-0.06-0.285-0.118-0.424-0.173-0.095-0.039-0.187-0.08-0.28-0.119 0.002 0.069 0.009 0.132 0.042 0.161 0.12 0.095 0.29 0.166 0.44 0.186z"/>
		<path d="m197.75 30.379c0.229 0.033 0.42 0.03 0.584 0.094 0.025 0.01 0.049 0.006 0.074 0.013 0.249-0.066 0.491-0.142 0.724-0.229-0.111-0.083-0.232-0.132-0.419-0.173-0.22-0.053-0.27-0.034-0.95 0.295z"/>
		<path d="m199.34 10.375c-0.064 0.046-0.123 0.161-0.109 0.233 0.01 0.07 0.105 0.166 0.178 0.181 0.203 0.044 0.414 0.049 0.666 0.077 0.023-0.11 0.096-0.246 0.055-0.312-0.19-0.299-0.53-0.372-0.8-0.179z"/>
		<path d="m198.35 19.568c-0.051-0.01-0.17 0.104-0.174 0.17-0.006 0.064 0.082 0.189 0.143 0.201 0.342 0.054 0.691 0.082 1.037 0.113 0.016 0.004 0.035-0.027 0.07-0.062-0.29-0.325-0.7-0.354-1.08-0.422z"/>
		<path d="m197.95 10.889c0.131 0.003 0.277-0.168 0.299-0.345 0.016-0.167-0.135-0.288-0.389-0.31-0.121-0.009-0.242 0-0.27 0.15-0.05 0.252 0.14 0.503 0.36 0.505z"/>
		<path d="m199.74 9.631c0.049-0.124 0.045-0.271-0.104-0.27-0.301 0.004-0.6 0.058-1.064 0.11 0.52 0.322 0.52 0.322 1.16 0.16z"/>
		<path d="m192.88 9.739c-0.332 0.086-0.732-0.214-1.063 0.215 0.359 0.162 0.662 0.167 0.963 0.109 0.17-0.033 0.24-0.143 0.1-0.324z"/>
		<path d="m200.2 24.066c0.164-0.013 0.324-0.074 0.369-0.31-0.291-0.118-0.568-0.331-0.928-0.016 0.16 0.216 0.33 0.348 0.56 0.326z"/>
		<path d="m194.57 28.017c0.008 0.088 0.014 0.177 0.021 0.277 0.322 0.037 0.615 0.004 0.936-0.053-0.2-0.281-0.2-0.281-0.96-0.224z"/>
		<path d="m199.73 11.681c0.24 0.199 0.441 0.192 0.549 0.009 0.107-0.182 0.123-0.41-0.15-0.563-0.13 0.178-0.25 0.345-0.4 0.554z"/>
		<path d="m190.92 27.98c-0.068-0.011-0.15-0.041-0.203-0.017-0.076 0.037-0.17 0.108-0.186 0.182-0.016 0.065 0.039 0.176 0.098 0.227 0.063 0.059 0.166 0.069 0.293 0.114 0.098-0.065 0.234-0.118 0.301-0.216 0.07-0.117-0.07-0.243-0.3-0.29z"/>
		<path d="m196.07 19.817c-0.254 0.03-0.51 0.073-0.76 0.129-0.049 0.012-0.113 0.1-0.111 0.149 0.002 0.045 0.082 0.12 0.133 0.126 0.314 0.031 0.596-0.077 0.895-0.234-0.06-0.078-0.11-0.172-0.15-0.17z"/>
		<path d="m198.54 22.397c0.033-0.025 0.049-0.072 0.072-0.109-0.288-0.097-0.463-0.155-0.582-0.177 0.115 0.105 0.226 0.217 0.332 0.333 0.019 0.004 0.037 0.009 0.055 0.013 0.03 0.008 0.09-0.029 0.12-0.06z"/>
		<path d="m196.16 18.508c-0.113 0.045-0.215 0.155-0.158 0.273 0.043 0.084 0.174 0.174 0.266 0.174 0.191 0 0.357-0.101 0.463-0.315-0.17-0.154-0.35-0.216-0.57-0.132z"/>
		<path d="m199.06 11.498c0.112 0.056 0.224 0.11 0.332 0.167 0.02-0.021 0.031-0.031 0.054-0.055-0.19-0.146-0.27-0.185-0.38-0.112z"/>
		<path d="m201.51 9.77c0.109-0.003 0.23-0.052 0.318-0.12 0.004-0.003 0.002-0.007 0.006-0.01-0.131-0.079-0.26-0.156-0.402-0.235-0.036 0.063-0.067 0.126-0.086 0.193-0.01 0.042 0.1 0.173 0.16 0.172z"/>
		<path d="m198.6 18.84c0.041-0.003 0.109-0.104 0.1-0.145-0.01-0.056-0.078-0.128-0.133-0.141-0.225-0.056-0.395 0.024-0.592 0.293 0.26 0.001 0.44 0.01 0.62-0.007z"/>
		<path d="m200.37 25.793c-0.029 0.106 0.129 0.215 0.318 0.19 0.092-0.015 0.176-0.099 0.324-0.183-0.148-0.11-0.227-0.213-0.32-0.226-0.14-0.019-0.27 0.061-0.32 0.219z"/>
		<path d="m197.16 28.292c0.092-0.057 0.164-0.143 0.244-0.218-0.01-0.051-0.02-0.101-0.031-0.151-0.133 0-0.279-0.037-0.387 0.011-0.072 0.036-0.109 0.191-0.113 0.296 0 0.093 0.17 0.138 0.29 0.062z"/>
		<path d="m198.97 18.738c0.02 0.08 0.059 0.179 0.121 0.217 0.132 0.081 0.196 0.062 0.287-0.12-0.103-0.059-0.206-0.118-0.31-0.174-0.05 0.025-0.11 0.061-0.1 0.077z"/>
		<path d="m193.74 30.539c0.118 0.022 0.244 0.039 0.367 0.058-0.01-0.056-0.027-0.116-0.059-0.188-0.14 0.018-0.26 0.042-0.31 0.13z"/>
		<path d="m198.69 28.288c0.104 0.01 0.193-0.012 0.209-0.135 0.014-0.124-0.094-0.255-0.213-0.227-0.107 0.028-0.205 0.103-0.328 0.168 0.084 0.072 0.133 0.124 0.191 0.16 0.04 0.026 0.09 0.03 0.14 0.034z"/>
		<path d="m202.77 25.109c0.064-0.018 0.162-0.137 0.146-0.184-0.025-0.092-0.117-0.164-0.23-0.304-0.074 0.142-0.145 0.216-0.145 0.289 0 0.132 0.1 0.235 0.23 0.199z"/>
		<path d="m190.79 10.006c0.328 0.072 0.328 0.072 0.494-0.203-0.35-0.071-0.35-0.071-0.49 0.203z"/>
		<path d="m196.52 28.225c-0.098-0.063-0.166-0.139-0.201-0.126-0.072 0.026-0.131 0.099-0.195 0.154 0.064 0.057 0.129 0.153 0.189 0.153 0.06 0.002 0.12-0.1 0.21-0.181z"/>
		<path d="m193.39 16.431c-0.115-0.033-0.232 0.092-0.199 0.208 0.021 0.072 0.096 0.13 0.18 0.24 0.094-0.127 0.176-0.203 0.203-0.295 0.01-0.034-0.11-0.131-0.18-0.153z"/>
		<path d="m200.19 22.776c-0.199-0.069-0.309-0.108-0.461-0.163 0.1 0.215 0.23 0.192 0.46 0.163z"/>
		<path d="m196.29 20.861c-0.018 0.022-0.037 0.043-0.057 0.063 0.07 0.034 0.143 0.072 0.215 0.11 0.001-0.016 0.018-0.031 0.01-0.045-0.02-0.048-0.09-0.075-0.16-0.128z"/>
		<path d="m189.46 12.27c-0.018 0.134 0.105 0.256 0.195 0.207 0.051-0.027 0.076-0.101 0.133-0.184-0.08-0.059-0.145-0.12-0.221-0.15-0.02-0.008-0.11 0.079-0.11 0.127z"/>
		<path d="m194.47 17.899c0.043 0.04 0.088 0.113 0.125 0.111 0.049-0.005 0.094-0.071 0.164-0.132-0.068-0.047-0.125-0.113-0.162-0.104-0.05 0.011-0.09 0.081-0.13 0.125z"/>
		<path d="m197 9.522c0.059 0.003 0.119-0.046 0.225-0.096-0.141-0.097-0.201-0.166-0.234-0.156-0.049 0.019-0.105 0.088-0.109 0.14 0 0.037 0.08 0.11 0.12 0.112z"/>
		<path d="m201.29 11.811c0.021-0.005 0.039-0.024 0.09-0.059-0.041-0.06-0.053-0.092-0.07-0.096-0.082-0.024-0.17-0.05-0.256-0.056-0.018-0.001-0.07 0.086-0.061 0.115 0.06 0.145 0.19 0.12 0.3 0.096z"/>
		<path d="m199.36 24.685c0.002 0.022 0.004 0.044 0.005 0.066 0.013-0.008 0.024-0.016 0.037-0.022-0.01-0.015-0.02-0.03-0.04-0.044z"/>
		<path d="m201.68 21.632c-0.051-0.042-0.092-0.09-0.143-0.108-0.031-0.014-0.078 0.019-0.119 0.029 0.051 0.057 0.098 0.116 0.152 0.165 0.01 0.003 0.06-0.047 0.11-0.086z"/>
		<path d="m190.12 12.216c0.027 0.046 0.057 0.089 0.082 0.133 0.033-0.026 0.064-0.051 0.096-0.077-0.02-0.036-0.035-0.094-0.063-0.101-0.04-0.007-0.08 0.031-0.12 0.045z"/>
		<path d="m196.84 10.543c-0.043 0.034-0.078 0.078-0.105 0.125-0.001 0.001 0.01 0.012 0.015 0.018 0.032 0.006 0.063 0.013 0.095 0.02 0.034-0.028 0.067-0.056 0.104-0.089-0.06-0.033-0.11-0.08-0.12-0.074z"/>
		<path d="m196.76 30.465c0 0.008 0.027 0.011 0.041 0.015 0.006-0.017 0.014-0.035 0.018-0.052-0.016-0.006-0.039-0.018-0.045-0.014-0.02 0.014-0.02 0.034-0.02 0.051z"/>
		<path d="m200.45 9.327c-0.014 0.004-0.037 0.001-0.043 0.012-0.012 0.014-0.01 0.038-0.014 0.054 0.027-0.004 0.051-0.011 0.078-0.016-0.02-0.017-0.03-0.033-0.03-0.05z"/>
		<path d="m190.98 15.623c0.018-0.006 0.033-0.012 0.051-0.017-0.006-0.021-0.012-0.043-0.018-0.065-0.01 0.028-0.02 0.055-0.03 0.082z"/>
		<path d="m202.43 21.607c0.016 0.004 0.032 0.012 0.046 0.009-0.011-0.018-0.02-0.036-0.031-0.054-0.001-0.001-0.003-0.001-0.005-0.002 0 0.015-0.01 0.03-0.01 0.047z"/>
		<polygon points="189.98 28.241 190.01 28.188 189.96 28.188"/>
		<polygon points="196.33 17.512 196.26 17.529 196.32 17.563"/>
	</g>
</g>
</svg>
