<svg xmlns="http://www.w3.org/2000/svg" viewBox="0 0 58.49 43.21" width="20px" height="15px">
  <path fill-rule="evenodd" d="M6.67 39.46l16.57-15.31L28 28.53a1.88 1.88 0 0 0 2.55 0l4.73-4.37 16.57 15.3zM3.75 6.16L20.47 21.6 3.75 37.05zm48.07-2.41L29.24 24.6 6.67 3.75zm2.92 33.3L38 21.6 54.74 6.16zm3.7-35.45a2.35 2.35 0 0 0-.09-.4 1.51 1.51 0 0 0-.22-.37A1.76 1.76 0 0 0 58 .6a1.74 1.74 0 0 0-.38-.27 1 1 0 0 0-.21-.15 1.55 1.55 0 0 0-.31-.07 1.75 1.75 0 0 0-.45-.11H1.84a2.4 2.4 0 0 0-.48.1 1.05 1.05 0 0 0-.24.06 1.84 1.84 0 0 0-.25.17 2 2 0 0 0-.35.25 1.09 1.09 0 0 0-.16.25 1.51 1.51 0 0 0-.22.37 2.35 2.35 0 0 0-.09.4 2.33 2.33 0 0 0 0 .28v39.45a2.74 2.74 0 0 0 .05.28 2.59 2.59 0 0 0 .09.4 2 2 0 0 0 .22.37c0 .07.07.16.14.22a2.35 2.35 0 0 0 .56.39h.06a2 2 0 0 0 .74.15h54.7a2.08 2.08 0 0 0 .74-.15h.06a2.12 2.12 0 0 0 .55-.39 1.64 1.64 0 0 0 .14-.22 2 2 0 0 0 .22-.37 2.59 2.59 0 0 0 .09-.4 2.74 2.74 0 0 0 .05-.28V1.88a2.33 2.33 0 0 0-.05-.28z"/>
</svg>
