<svg xmlns="http://www.w3.org/2000/svg" width="314.61mm" height="280.64mm" viewBox="0 0 891.8 795.51"><title>Home</title><path d="M747.06,338.11v374.6c0,17.3-.5,34.7,0,52.1v.7l30-30h-241l30,30V567.61c0-17.9.7-35.6-2.7-53.3-9-46.7-49.9-85.9-96.9-92.9-26.4-4-52-.3-76,11.7a118.45,118.45,0,0,0-49.5,48.4,123.92,123.92,0,0,0-14.9,58.4v225.6l30-30h-241l30,30V390.91c0-17.3.4-34.7,0-52.1v-.7c0-15.7-13.8-30.7-30-30s-30,13.2-30,30v374.6c0,17.3-.4,34.7,0,52.1v.7a30.42,30.42,0,0,0,30,30h241a30.42,30.42,0,0,0,30-30V562.91c0-11.9-.7-24.1.9-35.9-.4,2.7-.7,5.3-1.1,8a93.13,93.13,0,0,1,6-22l-3,7.2a94.75,94.75,0,0,1,8-15.1c.7-1.1,1.5-2.1,2.2-3.2,2.9-4.3-5.3,6.2-1.1,1.4,1.9-2.1,3.7-4.3,5.7-6.3,1.8-1.8,3.8-3.6,5.8-5.3,5.1-4.3-3.4,2.3-1.5,1.1,1.3-.8,2.5-1.8,3.8-2.6a94.75,94.75,0,0,1,15.1-8l-7.2,3a93.13,93.13,0,0,1,22-6c-2.7.4-5.3.7-8,1.1a94.35,94.35,0,0,1,24.9,0c-2.7-.4-5.3-.7-8-1.1a93.13,93.13,0,0,1,22,6l-7.2-3a94.75,94.75,0,0,1,15.1,8c1.1.7,2.1,1.5,3.2,2.2,4.3,2.9-6.2-5.3-1.4-1.1,2.1,1.9,4.3,3.7,6.3,5.7,1.8,1.8,3.6,3.8,5.3,5.8,4.3,5.1-2.3-3.4-1.1-1.5.8,1.3,1.8,2.5,2.6,3.8a94.75,94.75,0,0,1,8,15.1l-3-7.2a93.13,93.13,0,0,1,6,22c-.4-2.7-.7-5.3-1.1-8,1.3,10.1.9,20.4.9,30.5v207.9a30.42,30.42,0,0,0,30,30h241a30.42,30.42,0,0,0,30-30V390.81c0-17.3.4-34.7,0-52.1V338c0-15.7-13.8-30.7-30-30-16.3.9-30.1,13.3-30.1,30.1Z"/><path d="M51.06,430.91c13.6-12.6,27.2-25.3,40.9-37.9l98.1-90.9q59.1-54.75,118.2-109.6,51.15-47.4,102.2-94.8c16.6-15.4,33.6-30.4,49.8-46.2.2-.2.5-.4.7-.6h-42.4l42.1,37.9q50.55,45.45,101,90.9,60.9,54.75,121.7,109.6l105.3,94.8c17.1,15.4,34.1,31,51.4,46.2.2.2.5.4.7.6,11.7,10.5,31.1,12.4,42.4,0,10.5-11.5,12.5-31.2,0-42.4l-42.1-37.9q-50.55-45.45-101-90.9-60.9-54.75-121.7-109.6l-105.3-94.8c-17.1-15.4-34.1-31-51.4-46.2-.2-.2-.5-.4-.7-.6-12.4-11.2-30-11.5-42.4,0-13.6,12.6-27.2,25.3-40.9,37.9l-98.1,90.9q-59.1,54.75-118.2,109.6-51.15,47.4-102.2,94.8c-16.6,15.4-33.6,30.4-49.8,46.2-.2.2-.5.4-.7.6-11.5,10.7-11.6,31.7,0,42.4,12.3,11.3,30.1,11.4,42.4,0Z"/></svg>