<?xml version="1.0" encoding="utf-8"?>
<!-- Generator: Adobe Illustrator 20.1.0, SVG Export Plug-In . SVG Version: 6.00 Build 0)  -->
<svg version="1.1" id="Layer_1" xmlns="http://www.w3.org/2000/svg" xmlns:xlink="http://www.w3.org/1999/xlink" x="0px" y="0px"
	 viewBox="0 0 25.9 25.5" style="enable-background:new 0 0 25.9 25.5;" xml:space="preserve">
<path d="M25.3,21.8L17.6,14c0,0,0,0,0,0c0.8-1.4,1.2-2.9,1.2-4.6c0-5.2-4.2-9.4-9.4-9.4S0,4.2,0,9.4c0,5.2,4.2,9.4,9.4,9.4
	c1.9,0,3.6-0.6,5.1-1.5l7.7,7.7c0.7,0.7,1.9,0.7,2.6,0l0.6-0.6C26.1,23.6,26.1,22.5,25.3,21.8z M9.4,15.1c-3.2,0-5.7-2.6-5.7-5.7
	c0-3.2,2.6-5.7,5.7-5.7s5.7,2.6,5.7,5.7C15.1,12.5,12.5,15.1,9.4,15.1z"/>
</svg>
