<?xml version="1.0" encoding="UTF-8" standalone="no"?>
<svg
   xmlns:dc="http://purl.org/dc/elements/1.1/"
   xmlns:cc="http://creativecommons.org/ns#"
   xmlns:rdf="http://www.w3.org/1999/02/22-rdf-syntax-ns#"
   xmlns:svg="http://www.w3.org/2000/svg"
   xmlns="http://www.w3.org/2000/svg"
   id="svg3821"
   version="1.1"
   viewBox="0 0 120.43866 21.404791"
   height="21.404791mm"
   width="120.43866mm">
  <defs
     id="defs3815" />
  <metadata
     id="metadata3818">
    <rdf:RDF>
      <cc:Work
         rdf:about="">
        <dc:format>image/svg+xml</dc:format>
        <dc:type
           rdf:resource="http://purl.org/dc/dcmitype/StillImage" />
        <dc:title></dc:title>
      </cc:Work>
    </rdf:RDF>
  </metadata>
  <g
     transform="translate(-60.733052,-129.05951)"
     id="layer1">
    <g
       transform="matrix(0.26458333,0,0,0.26458333,59.886711,128.5568)"
       id="g3847">
	<path
   style="fill:#d5be8c"
   d="m 26.2,81.2 c -1.2,1.1 -2.8,1.6 -5,1.6 C 9.1,82.8 3.1,65 3.2,40.1 3.2,18.8 10.7,1.9 21.1,1.9 c 2,0 3.9,0.7 5.3,1.5 v 10.1 c -0.8,-0.4 -2.1,-0.9 -3.1,-0.9 -6.8,0 -8.9,12.5 -8.9,28.3 v 6.3 c 0,10 1.7,24.3 8.7,24.3 1.3,0 2.3,-0.5 3.1,-1 z"
   id="path3823" />

	<path
   style="fill:#d5be8c"
   d="M 46,4.3 C 47.2,3.1 49.1,2 51.7,2 c 2.4,0 4.2,1 5.8,2.6 4.8,4.8 8.4,16.3 8.4,38.6 0,19.2 -3.3,32 -8.3,37 -1.6,1.6 -3.4,2.6 -5.8,2.6 C 38.9,82.8 37.3,54.3 37.3,43.5 37.2,27.9 38.8,11.4 46,4.3 Z m 2.5,35 c 0,21.1 0.6,27 3.3,31.6 2.9,-5.6 3,-12.1 3,-29.8 0,-17.7 -0.9,-23.3 -3.2,-27 -2.4,3.8 -3.1,10.5 -3.1,25.2 z"
   id="path3825" />

	<path
   style="fill:#d5be8c"
   d="m 81.6,2.5 h 10.6 v 58.2 c 0,4.3 1,8.3 2.9,9.7 1.6,-1.9 2.5,-4.3 2.5,-8.7 V 2.5 h 10.6 v 59 c 0,13.6 -6.9,21.2 -12.9,21.2 C 86,82.7 81.6,71.1 81.6,60.5 Z"
   id="path3827" />

	<polygon
   style="fill:#d5be8c"
   points="153.6,2.5 153.6,82.3 144,82.3 136.8,38 136.3,38 137.5,82.3 126.9,82.3 126.9,2.5 136.6,2.5 143.4,44.1 144,44.1 142.8,2.5 "
   id="polygon3829" />

	<polygon
   style="fill:#d5be8c"
   points="176.3,82.3 176.3,12.9 168.7,12.9 168.7,2.5 194.5,2.5 194.5,13 186.9,13 186.9,82.3 "
   id="polygon3831" />

	<path
   style="fill:#d5be8c"
   d="m 209.7,2.5 h 5.7 c 8.2,0 12.5,2.6 15.1,5.2 4.5,4.4 6.2,10.9 6.2,16.8 0,5.7 -1.6,12.3 -7.3,16.8 6.4,6 8.7,20.9 10,40.9 h -10.8 c -0.3,-15.7 -3.8,-33.1 -8.3,-35 v 35 H 209.7 Z M 220.3,37 c 4,-1.5 5.6,-7.3 5.6,-11.3 0,-4.7 -1.4,-10.2 -5.6,-11.7 z"
   id="path3833" />

	<polygon
   style="fill:#d5be8c"
   points="268,44.2 268,82.3 257.3,82.3 257.3,44.2 248.1,2.5 259.1,2.5 262.7,22.8 266.5,2.5 277.2,2.5 "
   id="polygon3835" />

	<path
   style="fill:#919191"
   d="m 292.7,70.6 c 1.4,0.6 2.6,1.1 4.8,1.1 3.2,0 6.1,-2.1 6.1,-7.3 0,-5.8 -2.7,-12.8 -5.4,-19.8 -2.8,-7 -5.5,-14.5 -5.5,-22.8 C 292.7,9.7 297.3,2 307,2 c 3,0 5,0.6 6.9,1.2 v 10.6 c -0.9,-0.5 -2.5,-1.1 -4,-1.1 -4.1,0 -6.6,3.5 -6.6,8.9 0,5.4 2.7,12.7 5.4,20 2.7,7.2 5.4,15 5.4,23.6 0,12.5 -7.5,17.5 -14.8,17.5 -1.7,0 -4.2,-0.4 -6.6,-1.1 z"
   id="path3837" />

	<polygon
   style="fill:#919191"
   points="335.4,82.3 335.4,12.9 327.8,12.9 327.8,2.5 353.6,2.5 353.6,13 346,13 346,82.3 "
   id="polygon3839" />

	<polygon
   style="fill:#919191"
   points="385.7,44.2 385.7,82.3 375,82.3 375,44.2 365.9,2.5 376.8,2.5 380.4,22.8 384.2,2.5 394.9,2.5 "
   id="polygon3841" />

	<polygon
   style="fill:#919191"
   points="409,82.3 409,2.5 419.8,2.5 419.8,71.6 426.1,71.6 426.1,82.3 "
   id="polygon3843" />

	<polygon
   style="fill:#919191"
   points="458.2,38.3 458.2,48.6 450.7,48.6 450.7,71.7 458.3,71.7 458.3,82.3 440,82.3 440,2.5 458.4,2.5 458.4,13 450.7,13 450.7,38.3 "
   id="polygon3845" />

</g>
  </g>
</svg>
