<?xml version="1.0" encoding="UTF-8" standalone="no"?>
<svg
   xmlns:dc="http://purl.org/dc/elements/1.1/"
   xmlns:cc="http://creativecommons.org/ns#"
   xmlns:rdf="http://www.w3.org/1999/02/22-rdf-syntax-ns#"
   xmlns:svg="http://www.w3.org/2000/svg"
   xmlns="http://www.w3.org/2000/svg"
   xmlns:xlink="http://www.w3.org/1999/xlink"
   id="svg8"
   version="1.1"
   viewBox="0 0 150.28333 21.140207"
   height="21.140207mm"
   width="150.28333mm">
  <defs
     id="defs2">
    <rect
       id="SVGID_1_"
       x="7.8000002"
       y="381"
       width="579.59998"
       height="79.900002" />
    <rect
       id="SVGID_3_"
       x="7.8000002"
       y="381"
       width="579.59998"
       height="79.900002" />
  </defs>
  <metadata
     id="metadata5">
    <rdf:RDF>
      <cc:Work
         rdf:about="">
        <dc:format>image/svg+xml</dc:format>
        <dc:type
           rdf:resource="http://purl.org/dc/dcmitype/StillImage" />
        <dc:title></dc:title>
      </cc:Work>
    </rdf:RDF>
  </metadata>
  <g
     transform="translate(-18.596429,-123.90013)"
     id="layer1">
    <g
       transform="matrix(0.26458333,0,0,0.26458333,14.865804,23.067427)"
       id="g3783">
      <g
         id="g3745">
	<g
   id="g3727">
		<g
   id="g3725">
			<g
   id="g3723">
				<defs
   id="defs3714">
					<rect
   id="rect3760"
   x="7.8000002"
   y="381"
   width="579.59998"
   height="79.900002" />

				</defs>

				<clipPath
   id="SVGID_2_">
					<use
   height="100%"
   width="100%"
   y="0"
   x="0"
   style="overflow:visible"
   xlink:href="#SVGID_1_"
   overflow="visible"
   id="use3716" />

				</clipPath>

				<g
   clip-path="url(#SVGID_2_)"
   id="g3721">
					<path
   style="stroke:#000000;stroke-miterlimit:10"
   stroke-miterlimit="10"
   d="m 581.3,459.3 h -56.6 v -76.6 h 55 v 18.2 h -33.2 v 10.8 h 23.7 v 17.1 h -23.7 v 12.5 h 35.1 V 459 h -0.3 z m -55.1,-1.4 h 54 v -15 h -35.1 v -15.2 h 23.7 v -14.6 h -23.7 v -13.5 h 33.2 V 384 H 526 v 73.8 h 0.2 z m -45.6,1.4 H 459 v -76.6 h 53.1 v 18.2 h -31.5 v 13.8 h 22.1 v 17.2 h -22.1 z m -20.4,-1.4 h 19 v -27.4 h 22.1 v -14.6 h -22.1 v -16.4 h 31.5 V 384 h -50.4 v 73.9 z m -20.3,1.4 h -21.6 v -76.6 h 21.6 z m -20.4,-1.4 h 19 v -73.8 h -19 z m -14.2,1.4 h -53.1 v -76.6 h 21.6 v 58.7 h 31.5 z m -51.9,-1.4 h 50.4 v -15 h -31.5 v -58.7 h -19 v 73.7 z"
   id="path3719" />

				</g>

			</g>

		</g>

	</g>

	<g
   id="g3743">
		<g
   id="g3741">
			<g
   id="g3739">
				<defs
   id="defs3730">
					<rect
   id="rect3770"
   x="7.8000002"
   y="381"
   width="579.59998"
   height="79.900002" />

				</defs>

				<clipPath
   id="SVGID_4_">
					<use
   height="100%"
   width="100%"
   y="0"
   x="0"
   style="overflow:visible"
   xlink:href="#SVGID_3_"
   overflow="visible"
   id="use3732" />

				</clipPath>

				<g
   clip-path="url(#SVGID_4_)"
   id="g3737">
					<path
   d="m 339,460 v -16.8 h -36.3 v -14.4 h 24.6 v -16.6 h -24.6 v -12.7 h 34.5 V 382.3 H 281.6 V 460 c -0.1,0 57.4,0 57.4,0 z m -137.9,0 v -49.2 h 0.2 c 1.7,10.2 2.7,13.6 4.4,20.1 l 8,29.1 h 18.6 l 8.3,-29.1 c 1.7,-6.1 3,-11 4.2,-19 H 245 V 460 h 20.2 V 382.3 H 236.7 L 224,435 h -0.2 L 210.2,382.2 H 182.3 V 460 Z m -187,0 H 35.2 V 428.7 H 61 v 31.5 h 21.1 v -77.9 h -21 v 28.8 H 35.2 V 382.3 H 14.1 Z"
   id="path3735" />

				</g>

			</g>

		</g>

	</g>

</g>
      <g
         id="g3749">
	<path
   d="m 92.1,421.1 c 0,-30.1 20.6,-40 39.3,-40 18.6,0 39.2,9.9 39.2,40 0,29.8 -20.6,39.9 -39.2,39.9 -18.6,0 -39.3,-10.1 -39.3,-39.9 z m 55.3,0.1 c 0,-12.8 -4.5,-23.2 -16,-23.2 -11.1,0 -16.1,9.4 -16.1,23.2 0,12.8 4.3,23.5 16.1,23.5 11,0 16,-9.5 16,-23.5 z"
   id="path3747" />

</g>
    </g>
  </g>
</svg>
