<svg xmlns="http://www.w3.org/2000/svg" xmlns:xlink="http://www.w3.org/1999/xlink" preserveAspectRatio="xMidYMid" width="166" height="36" viewBox="0 0 166 36">
  <path d="M142.650,19.342 C142.650,19.342 142.650,24.644 142.650,24.644 C142.650,24.644 151.054,24.644 151.054,24.644 C151.054,24.644 151.054,33.080 151.054,33.080 C151.054,33.080 156.336,33.080 156.336,33.080 C156.336,33.080 156.336,24.644 156.336,24.644 C156.336,24.644 164.741,24.644 164.741,24.644 C164.741,24.644 164.741,19.342 164.741,19.342 C164.741,19.342 156.336,19.342 156.336,19.342 C156.336,19.342 156.336,10.906 156.336,10.906 C156.336,10.906 151.054,10.906 151.054,10.906 C151.054,10.906 151.054,19.342 151.054,19.342 C151.054,19.342 142.650,19.342 142.650,19.342 ZM117.929,32.741 C120.768,34.841 124.304,35.992 127.641,35.992 C132.721,35.992 137.253,33.141 137.253,28.492 C137.253,20.094 125.549,21.343 125.549,18.193 C125.549,16.944 127.043,16.244 128.836,16.244 C130.579,16.244 132.223,16.993 133.467,17.893 C133.467,17.893 136.506,13.194 136.506,13.194 C134.912,11.944 131.476,10.744 128.338,10.744 C123.557,10.744 119.074,13.644 119.074,18.293 C119.074,26.092 130.778,24.792 130.778,28.442 C130.778,29.642 129.433,30.492 127.690,30.492 C125.250,30.492 122.710,29.592 121.067,28.092 C121.067,28.092 117.929,32.741 117.929,32.741 ZM100.499,20.243 C100.798,18.043 102.989,15.994 105.678,15.994 C108.318,15.994 110.260,18.093 110.460,20.243 C110.460,20.243 100.499,20.243 100.499,20.243 ZM112.800,27.942 C111.655,29.192 109.463,30.742 106.724,30.742 C103.288,30.742 100.549,28.392 100.200,24.992 C100.200,24.992 116.934,24.992 116.934,24.992 C117.033,24.443 117.084,23.793 117.084,23.143 C117.084,16.393 112.352,10.744 105.678,10.744 C98.507,10.744 93.925,16.643 93.925,23.392 C93.925,30.992 99.353,35.992 106.575,35.992 C110.310,35.992 114.145,34.442 116.486,31.641 C116.486,31.641 112.800,27.942 112.800,27.942 ZM59.062,35.491 C59.062,35.491 59.062,19.743 59.062,19.743 C59.959,18.594 61.951,16.743 64.690,16.743 C65.935,16.743 67.330,17.143 68.326,18.243 C69.073,19.093 69.521,20.193 69.521,22.392 C69.521,22.392 69.521,35.491 69.521,35.491 C69.521,35.491 75.995,35.491 75.995,35.491 C75.995,35.491 75.995,22.642 75.995,22.642 C75.995,21.643 75.896,20.743 75.796,19.944 C76.643,18.693 78.834,16.743 81.623,16.743 C82.868,16.743 84.263,17.143 85.259,18.243 C86.006,19.093 86.454,20.193 86.454,22.392 C86.454,22.392 86.454,35.491 86.454,35.491 C86.454,35.491 92.928,35.491 92.928,35.491 C92.928,35.491 92.928,22.642 92.928,22.642 C92.928,19.043 92.032,16.543 90.489,14.643 C88.546,12.244 85.358,10.744 82.022,10.744 C78.436,10.744 75.398,12.494 73.456,14.543 C71.563,12.244 68.624,10.744 65.338,10.744 C62.997,10.744 60.706,11.494 58.813,13.194 C58.813,13.194 58.813,11.244 58.813,11.244 C58.813,11.244 52.588,11.244 52.588,11.244 C52.588,11.244 52.588,35.491 52.588,35.491 C52.588,35.491 59.062,35.491 59.062,35.491 ZM31.869,23.392 C31.869,19.743 34.459,16.743 38.244,16.743 C42.030,16.743 44.619,19.743 44.619,23.392 C44.619,27.043 42.030,29.992 38.244,29.992 C34.459,29.992 31.869,27.043 31.869,23.392 M25.395,23.392 C25.395,30.391 30.923,35.992 38.244,35.992 C45.566,35.992 51.094,30.391 51.094,23.392 C51.094,16.393 45.566,10.744 38.244,10.744 C30.923,10.744 25.395,16.393 25.395,23.392 M6.470,19.743 C7.366,18.493 9.607,16.743 12.347,16.743 C13.841,16.743 15.136,17.243 15.982,18.093 C16.879,18.993 17.427,20.243 17.427,22.642 C17.427,22.642 17.427,35.491 17.427,35.491 C17.427,35.491 23.901,35.491 23.901,35.491 C23.901,35.491 23.901,23.143 23.901,23.143 C23.901,18.993 23.005,16.543 21.411,14.643 C19.419,12.244 16.381,10.744 13.044,10.744 C10.554,10.744 8.263,11.594 6.470,12.994 C6.470,12.994 6.470,-0.005 6.470,-0.005 C6.470,-0.005 -0.005,-0.005 -0.005,-0.005 C-0.005,-0.005 -0.005,35.491 -0.005,35.491 C-0.005,35.491 6.470,35.491 6.470,35.491 C6.470,35.491 6.470,19.743 6.470,19.743 Z" id="path-1" fill="#f64592" fill-rule="evenodd"/>
</svg>
