<?xml version="1.0" encoding="utf-8"?>
<!-- Generator: Adobe Illustrator 20.1.0, SVG Export Plug-In . SVG Version: 6.00 Build 0)  -->
<svg version="1.1" id="Layer_1" xmlns="http://www.w3.org/2000/svg" xmlns:xlink="http://www.w3.org/1999/xlink" x="0px" y="0px"
	 viewBox="0 0 441 42.333" enable-background="new 0 0 441 42.333" xml:space="preserve">
<path d="M2.609,40.771v-8.217h9.538v-1.352H2.609v-6.423h9.724v-1.352H1.094v17.344H2.609z"/>
<path d="M26.625,41.083c5.181,0,8.608-3.901,8.608-8.971s-3.427-8.971-8.608-8.971c-5.208,0-8.608,3.901-8.608,8.971
	S21.417,41.083,26.625,41.083z M26.625,39.731c-4.278,0-7.014-3.25-7.014-7.619c0-4.395,2.737-7.619,7.014-7.619
	c4.251,0,7.014,3.224,7.014,7.619C33.639,36.48,30.876,39.731,26.625,39.731z"/>
<path d="M51.915,40.771v-1.352h-8.582V23.427h-1.541v17.344H51.915z"/>
<path d="M67.96,40.771v-1.352h-8.582V23.427h-1.541v17.344H67.96z"/>
<path d="M81.217,41.083c5.181,0,8.608-3.901,8.608-8.971s-3.427-8.971-8.608-8.971c-5.208,0-8.609,3.901-8.609,8.971
	S76.009,41.083,81.217,41.083z M81.217,39.731c-4.278,0-7.014-3.25-7.014-7.619c0-4.395,2.737-7.619,7.014-7.619
	c4.251,0,7.014,3.224,7.014,7.619C88.231,36.48,85.468,39.731,81.217,39.731z"/>
<path d="M111.502,40.771l5.048-17.344h-1.701l-4.278,15.264l-4.331-15.264h-1.382l-4.357,15.264l-4.278-15.264h-1.701l5.075,17.344
	h1.7l4.251-14.9l4.251,14.9H111.502z"/>
<path d="M325.152,40.771V24.779h5.792v-1.352h-13.125v1.352h5.792v15.992H325.152z"/>
<path d="M344.439,41.083c5.181,0,8.608-3.901,8.608-8.971s-3.427-8.971-8.608-8.971c-5.208,0-8.608,3.901-8.608,8.971
	S339.231,41.083,344.439,41.083z M344.439,39.731c-4.278,0-7.014-3.25-7.014-7.619c0-4.395,2.737-7.619,7.014-7.619
	c4.251,0,7.014,3.224,7.014,7.619C351.453,36.48,348.69,39.731,344.439,39.731z"/>
<path d="M379.797,40.771v-1.352h-8.582V23.427h-1.541v17.344H379.797z"/>
<path d="M393.053,41.083c5.181,0,8.608-3.901,8.608-8.971s-3.427-8.971-8.608-8.971c-5.208,0-8.608,3.901-8.608,8.971
	S387.846,41.083,393.053,41.083z M393.053,39.731c-4.278,0-7.014-3.25-7.014-7.619c0-4.395,2.737-7.619,7.014-7.619
	c4.251,0,7.014,3.224,7.014,7.619C400.068,36.48,397.305,39.731,393.053,39.731z"/>
<path d="M415.395,40.771l7.253-17.344h-1.754l-6.43,15.68l-6.456-15.68h-1.754l7.253,17.344H415.395z"/>
<path d="M439.676,40.771v-1.352h-9.724v-6.865h9.538v-1.352h-9.538v-6.423h9.724v-1.352h-11.239v17.344H439.676z"/>
<path fill="#51B95D" d="M286.778,41.509c0.265-0.691,0.675-1.228,1.228-1.612c2.925,1.075,5.727,1.612,8.407,1.612
	c3.498,0,6.433-0.797,8.806-2.39c2.373-1.592,3.559-3.645,3.559-6.159c0-1.554-0.456-2.921-1.366-4.101
	c-0.91-1.18-2.158-2.077-3.743-2.691c-1.585-0.614-3.953-1.218-7.103-1.813c-3.027-0.556-4.93-1.017-5.707-1.382
	c-0.798-0.364-1.197-0.93-1.197-1.698c0-0.729,0.491-1.328,1.473-1.798c0.982-0.47,2.24-0.706,3.774-0.706
	c4.705,0,7.845,1.468,9.42,4.404h2.455l-0.277-7.138h-2.546c-0.287,0.557-0.675,1.056-1.166,1.497
	c-2.803-0.997-5.553-1.497-8.254-1.497c-3.498,0-6.29,0.744-8.377,2.231c-2.086,1.487-3.129,3.43-3.129,5.828
	c0,1.612,0.511,3.047,1.534,4.303c1.023,1.257,2.373,2.187,4.05,2.792c1.677,0.604,4.275,1.243,7.793,1.914
	c2.271,0.441,3.733,0.825,4.388,1.151c0.634,0.346,0.951,0.835,0.951,1.468c0,0.729-0.583,1.381-1.749,1.957
	c-1.166,0.576-2.638,0.864-4.418,0.864c-4.255,0-7.18-1.622-8.775-4.864h-3.008l0.215,7.829H286.778z M265.021,20.814
	c0.634-1.055,1.585-1.583,2.854-1.583c2.516,0,3.835,2.121,3.958,6.361h-7.763C264.07,23.462,264.387,21.869,265.021,20.814
	 M281.222,28.499c0-4.183-1.263-7.306-3.789-9.369c-2.527-2.062-5.764-3.094-9.711-3.094c-3.928,0-7.288,1.122-10.08,3.368
	c-2.792,2.245-4.188,5.335-4.188,9.268c0,3.934,1.442,7.056,4.327,9.368c2.884,2.313,6.352,3.469,10.401,3.469
	c2.639,0,5.047-0.514,7.226-1.54c2.178-1.026,3.851-2.326,5.016-3.9l-2.854-1.612c-2.025,2.302-4.245,3.454-6.658,3.454
	c-2.271,0-3.974-0.786-5.109-2.36c-1.135-1.573-1.703-3.924-1.703-7.051H281.222z M211.63,21.735
	c1.084-0.652,2.178-0.979,3.283-0.979c1.268,0,2.214,0.399,2.838,1.195c0.624,0.796,0.936,1.99,0.936,3.583v8.203
	c0,1.42-0.236,2.399-0.706,2.935c-0.471,0.538-1.462,0.816-2.976,0.835v3.051h17.459v-3.051c-1.576,0-2.608-0.273-3.099-0.82
	c-0.491-0.546-0.736-1.53-0.736-2.95v-9.066c0.92-1.343,1.913-2.35,2.976-3.022c1.063-0.672,2.199-1.008,3.406-1.008
	c1.289,0,2.25,0.403,2.884,1.209c0.634,0.806,0.951,2.015,0.951,3.626v8.261c0,1.401-0.23,2.38-0.69,2.935
	c-0.46,0.557-1.478,0.835-3.053,0.835v3.051h18.165v-3.051c-1.944,0-3.176-0.254-3.698-0.763c-0.522-0.508-0.782-1.511-0.782-3.007
	v-7.599c0-1.765-0.128-3.113-0.383-4.044c-0.256-0.931-0.772-1.861-1.55-2.792c-0.778-0.93-1.913-1.707-3.406-2.331
	c-1.493-0.623-3.151-0.936-4.971-0.936c-2.209,0-4.183,0.417-5.922,1.252c-1.739,0.835-3.253,2.097-4.541,3.785
	c-0.675-1.689-1.764-2.95-3.268-3.785c-1.503-0.834-3.421-1.252-5.753-1.252c-2.128,0-4.076,0.365-5.845,1.094
	c-1.769,0.729-3.349,1.833-4.741,3.31c0-1.65-0.174-2.897-0.521-3.741l-13.563,2.101v3.051c1.821,0,2.976,0.273,3.467,0.82
	s0.737,1.55,0.737,3.008v8.059c0,1.381-0.225,2.356-0.676,2.922c-0.45,0.566-1.555,0.849-3.313,0.849h-0.798v3.051h18.502v-3.051
	c-1.575,0-2.608-0.268-3.099-0.806c-0.492-0.537-0.737-1.526-0.737-2.965v-9.066C209.471,23.366,210.545,22.387,211.63,21.735
	 M174.408,20.944c0.94-1.103,2.076-1.655,3.406-1.655c1.677,0,2.905,0.648,3.682,1.943c0.777,1.295,1.166,3.766,1.166,7.411
	c0,4.011-0.435,6.63-1.304,7.858c-0.87,1.228-2.03,1.841-3.483,1.841c-1.8,0-3.063-0.734-3.789-2.201
	c-0.726-1.468-1.089-4.044-1.089-7.728C172.996,24.536,173.467,22.047,174.408,20.944 M166.983,38.213
	c3.007,2.197,6.597,3.296,10.77,3.296c4.276,0,7.916-1.156,10.924-3.469c3.007-2.312,4.51-5.415,4.51-9.31
	c0-4.107-1.534-7.249-4.602-9.427c-3.068-2.177-6.669-3.267-10.801-3.267c-4.234,0-7.845,1.122-10.831,3.368
	c-2.987,2.245-4.48,5.344-4.48,9.296C162.472,32.845,163.975,36.016,166.983,38.213 M142.587,21.85
	c0.9-0.614,1.759-0.921,2.577-0.921c1.984,0,2.977,1.238,2.977,3.713v9.037c0,1.689-0.318,2.734-0.951,3.137
	c-0.634,0.403-1.361,0.633-2.179,0.691v3.051h17.091v-3.051c-1.616,0-2.67-0.268-3.161-0.806c-0.491-0.537-0.736-1.544-0.736-3.022
	v-8.03c0-2.225-0.257-3.952-0.767-5.18c-0.512-1.228-1.514-2.274-3.007-3.138c-1.493-0.863-3.304-1.295-5.431-1.295
	c-1.739,0-3.375,0.345-4.909,1.037c-1.534,0.691-2.966,1.736-4.296,3.137V0.839l-13.961,2.274v3.051
	c1.739,0,2.848,0.278,3.329,0.834c0.48,0.556,0.721,1.554,0.721,2.994v23.687c0,1.439-0.235,2.437-0.706,2.993
	c-0.471,0.557-1.585,0.835-3.345,0.835v3.051h17.091v-3.051c-1.187-0.019-2.005-0.32-2.455-0.907
	c-0.45-0.585-0.675-1.559-0.675-2.921v-9.037C140.756,23.395,141.686,22.465,142.587,21.85"/>
</svg>
