<?xml version="1.0" encoding="UTF-8"?>
<svg width="128px" height="50px" viewBox="0 0 128 50" version="1.1" xmlns="http://www.w3.org/2000/svg" xmlns:xlink="http://www.w3.org/1999/xlink">
    <!-- Generator: Sketch 52.6 (67491) - http://www.bohemiancoding.com/sketch -->
    <title>Custom Preset</title>
    <desc>Created with Sketch.</desc>
    <g id="Custom-Preset" stroke="none" stroke-width="1" fill="none" fill-rule="evenodd">
        <g id="Homes-To-Love" transform="translate(23.000000, 13.000000)" fill="#FFFFFF">
            <path d="M76.5428571,22.1285714 C74.5864755,22.238539 72.6379638,21.8033384 70.9142857,20.8714286 L70.9142857,16.8571429 L71.3142857,16.8571429 C71.8857143,18.9285714 73.6714286,21.7142857 76.5428571,21.7142857 C78.7714286,21.7142857 79.2142857,19.0285714 76.8285714,17.4285714 L73.6714286,15.5142857 C70.6571429,13.6285714 69.8714286,10.8142857 71.6857143,8.57142857 C71.6857143,8.57142857 72.8571429,7.14285714 76.2,7.14285714 C77.9630507,7.02628342 79.728013,7.34005449 81.3428571,8.05714286 L81.3428571,11.3428571 L80.9285714,11.3428571 C80.4325322,9.12141096 78.4759389,7.53130942 76.2,7.5 C74.1714286,7.5 73.2571429,9.71428571 75.9857143,11.4428571 L79.1428571,13.4142857 C82,15.1428571 82.7857143,18.2714286 81.1571429,20.4285714 C81.1571429,20.4285714 80,22.1285714 76.5428571,22.1285714 Z" id="Path"></path>
            <polygon id="Path" points="40.2142857 24.4857143 38.4857143 24.4857143 38.4857143 24.1142857 42.4 24.1142857 42.4 24.4857143 40.6857143 24.4857143 40.6857143 28.5714286 40.2142857 28.5714286"></polygon>
            <path d="M45.1,26.3285714 C45.1022557,26.0239066 45.1653978,25.7227672 45.2857143,25.4428571 C45.4104778,25.1744096 45.5849853,24.9320381 45.8,24.7285714 C46.026198,24.5217532 46.2941306,24.3658652 46.5857143,24.2714286 C47.2311119,24.0572629 47.9291792,24.062285 48.5714286,24.2857143 C48.8630123,24.3801509 49.1309448,24.5360389 49.3571429,24.7428571 C49.5721575,24.9463238 49.746665,25.1886953 49.8714286,25.4571429 C50.1186012,26.0267213 50.1186012,26.6732787 49.8714286,27.2428571 C49.7502089,27.5133625 49.5752332,27.7563844 49.3571429,27.9571429 C49.1309448,28.1639611 48.8630123,28.3198491 48.5714286,28.4142857 C47.9145619,28.6429038 47.1997238,28.6429038 46.5428571,28.4142857 C46.2512734,28.3198491 45.9833409,28.1639611 45.7571429,27.9571429 C45.5390525,27.7563844 45.3640768,27.5133625 45.2428571,27.2428571 C45.133788,26.950921 45.0851854,26.6398644 45.1,26.3285714 Z M45.5571429,26.3285714 C45.5459543,26.608492 45.5997403,26.887201 45.7142857,27.1428571 C45.808533,27.3698296 45.9497174,27.5743036 46.1285714,27.7428571 C46.3126039,27.91958 46.5315831,28.0558337 46.7714286,28.1428571 C47.3171817,28.3333897 47.9113897,28.3333897 48.4571429,28.1428571 C48.6969883,28.0558337 48.9159675,27.91958 49.1,27.7428571 C49.278854,27.5743036 49.4200384,27.3698296 49.5142857,27.1428571 C49.6135718,26.9080264 49.6622487,26.6549061 49.6571429,26.4 C49.6610935,26.1498164 49.6124227,25.901595 49.5142857,25.6714286 C49.4200384,25.4444561 49.278854,25.2399822 49.1,25.0714286 C48.9159675,24.8947057 48.6969883,24.758452 48.4571429,24.6714286 C47.9113897,24.480896 47.3171817,24.480896 46.7714286,24.6714286 C46.5315831,24.758452 46.3126039,24.8947057 46.1285714,25.0714286 C45.9497174,25.2399822 45.808533,25.4444561 45.7142857,25.6714286 C45.6205633,25.8784801 45.5672278,26.1015196 45.5571429,26.3285714 Z" id="Shape" fill-rule="nonzero"></path>
            <polygon id="Path" points="56.7285714 24.1 57.1428571 24.1 57.1428571 28.1857143 59.5 28.1857143 59.5 28.5714286 56.6428571 28.5714286"></polygon>
            <path d="M62.5571429,26.3285714 C62.5525348,26.0232082 62.6159744,25.7206498 62.7428571,25.4428571 C62.8573411,25.1721957 63.0277301,24.9287827 63.2428571,24.7285714 C63.4712835,24.5248047 63.7385393,24.3693104 64.0285714,24.2714286 C64.3541293,24.1557531 64.6973667,24.0977411 65.0428571,24.1 C65.3885394,24.095308 65.7322034,24.1533921 66.0571429,24.2714286 C66.350057,24.3628652 66.6186096,24.519114 66.8428571,24.7285714 C67.0578718,24.9320381 67.2323793,25.1744096 67.3571429,25.4428571 C67.6043155,26.0124356 67.6043155,26.6589929 67.3571429,27.2285714 C67.2359232,27.4990768 67.0609475,27.7420986 66.8428571,27.9428571 C66.6186096,28.1523145 66.350057,28.3085634 66.0571429,28.4 C65.7322034,28.5180365 65.3885394,28.5761206 65.0428571,28.5714286 C64.6973667,28.5736874 64.3541293,28.5156755 64.0285714,28.4 C63.7385393,28.3021182 63.4712835,28.1466239 63.2428571,27.9428571 C63.024601,27.7453877 62.8536937,27.5012345 62.7428571,27.2285714 C62.6143484,26.9462602 62.550882,26.6386923 62.5571429,26.3285714 Z M63,26.3285714 C63.0019411,26.5828282 63.0503563,26.8345872 63.1428571,27.0714286 C63.2371045,27.2984011 63.3782889,27.502875 63.5571429,27.6714286 C63.7411754,27.8481514 63.9601546,27.9844051 64.2,28.0714286 C64.4711458,28.1652263 64.755947,28.2134977 65.0428571,28.2142857 C65.3344105,28.2132576 65.6238728,28.1650139 65.9,28.0714286 C66.1366085,27.9778627 66.3543854,27.842357 66.5428571,27.6714286 C66.7175627,27.502334 66.8539642,27.2977316 66.9428571,27.0714286 C67.0421432,26.8365978 67.0908202,26.5834775 67.0857143,26.3285714 C67.089665,26.0783878 67.0409941,25.8301664 66.9428571,25.6 C66.8539642,25.373697 66.7175627,25.1690946 66.5428571,25 C66.3543854,24.8290715 66.1366085,24.6935659 65.9,24.6 C65.6256937,24.4993483 65.3349799,24.450896 65.0428571,24.4571429 C64.7553953,24.4509864 64.4693783,24.4994638 64.2,24.6 C63.9601546,24.6870234 63.7411754,24.8232772 63.5571429,25 C63.3782889,25.1685536 63.2371045,25.3730275 63.1428571,25.6 C63.0517489,25.8322718 63.0033526,26.0790927 63,26.3285714 Z" id="Shape" fill-rule="nonzero"></path>
            <polygon id="Path" points="70.3428571 24.1 70.8571429 24.1 72.4857143 28.0285714 74.1285714 24.1 74.6285714 24.1 72.7142857 28.5714286 72.2285714 28.5714286"></polygon>
            <polygon id="Path" points="77.9857143 24.1 81.0857143 24.1 81.0857143 24.4714286 78.4571429 24.4714286 78.4571429 26.0714286 80.9142857 26.0714286 80.9142857 26.4428571 78.4571429 26.4428571 78.4571429 28.1857143 81.2 28.1857143 81.2 28.5714286 77.9857143 28.5714286"></polygon>
            <path d="M60.7857143,14.2857143 C60.7857143,18.2 62.1285714,19.8714286 64.4285714,20.2142857 C67.7571429,20.7285714 70.2285714,17.7285714 69.6,18.7857143 C68.1285526,20.9535785 65.6307659,22.1943446 63.0142857,22.0571429 C58.9924427,21.9480688 55.80733,18.6228112 55.8714286,14.6 C55.8136982,12.5825032 56.5987576,10.6320972 58.0380727,9.21717735 C59.4773877,7.80225746 61.4409276,7.05065059 63.4571429,7.14285714 C67.4,7.14285714 70,8.94285714 70,14.2857143 L60.7857143,14.2857143 Z M65.8571429,13.8714286 C65.8571429,9.92857143 65.0142857,7.45714286 63.4571429,7.45714286 C61.9,7.45714286 60.7857143,10.8714286 60.7857143,13.8714286 L65.8571429,13.8714286 Z" id="Shape" fill-rule="nonzero"></path>
            <path d="M54.9285714,18.3571429 L54.9285714,11.9428571 C54.9285714,8.11428571 53.1,7.08571429 50.6428571,7.08571429 C48.6060855,7.18503812 46.8351053,8.51468777 46.1714286,10.4428571 C46.0611536,9.42369483 45.5437911,8.49231739 44.736795,7.86017047 C43.929799,7.22802355 42.9016323,6.94873647 41.8857143,7.08571429 C39.9786498,7.2409837 38.321311,8.45636546 37.6,10.2285714 L37.6,7.14285714 C35.637283,8.14560401 33.4434376,8.60902305 31.2428571,8.48571429 L31.2428571,8.74285714 C32.4142857,9.21428571 32.6714286,9.67142857 32.6714286,10.7857143 L32.6714286,18.5714286 C32.6714286,20.2285714 32.6714286,21.5857143 31.5571429,21.9428571 L31.5571429,22.1857143 L38.7,22.1857143 L38.7,21.9428571 C37.6571429,21.6285714 37.5142857,20.3285714 37.5142857,18.5714286 L37.5142857,11.2571429 C37.7849579,10.2633196 38.6225568,9.52690711 39.6428571,9.38571429 C40.9285714,9.38571429 41.5,10.2428571 41.5,12.0714286 L41.5,18.3571429 C41.5,19.9857143 41.4285714,21.5285714 40.2142857,21.8857143 L40.2142857,22.1285714 L47.5,22.1285714 L47.5,21.8857143 C46.3857143,21.6 46.1857143,20.1142857 46.1857143,18.3571429 L46.1857143,11.4285714 C46.3353554,10.3149056 47.2376637,9.45415094 48.3571429,9.35714286 C49.6428571,9.35714286 50.2428571,10.2142857 50.2428571,12.0428571 L50.2428571,18.3285714 C50.2428571,19.9571429 50.2428571,21.5 48.9714286,21.8571429 L48.9714286,22.1 L56.2428571,22.1 L56.2428571,21.8571429 C55.1142857,21.6 54.9285714,20.1142857 54.9285714,18.3571429 Z" id="Path"></path>
            <path d="M23.8857143,7.14285714 C21.839951,6.99623152 19.8298697,7.73608535 18.3673363,9.17401537 C16.904803,10.6119454 16.1309568,12.6091866 16.2428571,14.6571429 C16.1266887,16.7075107 16.8986524,18.7086817 18.361704,20.1498559 C19.8247556,21.5910302 21.8373292,22.3327585 23.8857143,22.1857143 C25.9317126,22.3284478 27.9403471,21.584806 29.400139,20.14415 C30.8599308,18.703494 31.6300108,16.7048463 31.5142857,14.6571429 C31.6257491,12.6118508 30.8537887,10.6171286 29.3945131,9.17971486 C27.9352375,7.74230107 25.929091,7.00053592 23.8857143,7.14285714 Z M23.8857143,21.7285714 C22.4571429,21.7285714 21.2428571,18.5571429 21.2428571,14.6571429 C21.2428571,10.7571429 22.4285714,7.6 23.8857143,7.6 C25.3428571,7.6 26.5285714,10.7571429 26.5285714,14.6571429 C26.5285714,18.5571429 25.4,21.6714286 23.9428571,21.6714286 L23.8857143,21.7285714 Z" id="Shape" fill-rule="nonzero"></path>
            <path d="M16.4142857,26.3714286 C15.1,24.7857143 15.1857143,21 15.1857143,21 L15.1857143,11.1 C15.1386491,9.97714178 14.637424,8.92158448 13.7970067,8.17544476 C12.9565894,7.42930504 11.8491016,7.05661405 10.7285714,7.14285714 C8.9561596,7.25475441 7.4004954,8.36198872 6.71428571,10 L6.71428571,0 C4.63886107,1.05298694 2.32433015,1.54544033 0,1.42857143 L0,1.67142857 C1.42857143,2.11428571 1.75714286,2.65714286 1.75714286,3.51428571 L1.75714286,18.5714286 C1.75714286,20.0857143 1.68571429,21.4285714 0.4,21.8142857 L0.4,22.0714286 L8.1,22.0714286 L8.1,21.8142857 C6.88571429,21.5571429 6.67142857,20.2 6.67142857,18.5714286 L6.67142857,10 C7.09288448,9.47318274 7.72554787,9.15946536 8.4,9.14285714 C9.4,9.14285714 10.3714286,9.77142857 10.3714286,11.4 L10.3714286,20.1428571 C10.3576814,21.745757 10.6686943,23.3348388 11.2857143,24.8142857 C12.329981,27.0396055 14.5425631,28.4833154 17,28.5428571 C18.1622563,28.6245318 19.3090272,28.2388465 20.1857143,27.4714286 C18.825755,28.026825 17.2624222,27.570853 16.4142857,26.3714286 Z" id="Path"></path>
        </g>
    </g>
</svg>