<svg xmlns="http://www.w3.org/2000/svg" xmlns:xlink="http://www.w3.org/1999/xlink" preserveAspectRatio="xMidYMid" width="10" height="8" viewBox="0 0 10 8">
  <defs>
    <style>

      .cls-2 {
        fill: #49bf5c;
      }
    </style>
  </defs>
  <path d="M9.728,1.772 C9.728,1.772 4.457,7.597 4.457,7.597 C4.436,7.623 4.428,7.656 4.405,7.681 C4.022,8.091 3.401,8.091 3.018,7.681 C3.018,7.681 0.293,4.668 0.293,4.668 C-0.090,4.257 -0.090,3.592 0.293,3.182 C0.676,2.771 1.297,2.771 1.680,3.182 C1.680,3.182 3.699,5.414 3.699,5.414 C3.699,5.414 8.341,0.284 8.341,0.284 C8.724,-0.125 9.345,-0.125 9.728,0.284 C10.111,0.694 10.111,1.361 9.728,1.772 Z" id="path-1" class="cls-2" fill-rule="evenodd"/>
</svg>
