<?xml version="1.0" encoding="utf-8"?>
<!-- Generated by IcoMoon.io -->
<!DOCTYPE svg PUBLIC "-//W3C//DTD SVG 1.1//EN" "http://www.w3.org/Graphics/SVG/1.1/DTD/svg11.dtd">
<svg version="1.1" xmlns="http://www.w3.org/2000/svg" xmlns:xlink="http://www.w3.org/1999/xlink" width="34" height="34" viewBox="0 0 34 34">
<path fill="rgb(68, 68, 68)" d="M34.017 2.535c0.010-0.532-0.114-1.020-0.464-1.362-0.342-0.352-0.831-0.566-1.363-0.544l-0.979 0.010c-0.015 0-0.032 0.012-0.056 0.012l-19.098-0.076c-1.076 0.022-1.96 0.918-1.992 1.992v1.372c0.165 1.268 1.161 2.016 2.235 1.992l12.597 0.032-22.834 22.755c-1.039 1.034-1.039 2.727 0 3.769 1.037 1.046 2.725 1.046 3.764 0l22.914-22.826-0.076 12.934c-0.024 1.090 0.833 2.023 1.907 2.004l1.363-0.012c1.081-0.022 1.969-0.67 1.991-1.736l0.059-19.281c0-0.024-0.071-0.032-0.071-0.056l0.104-0.979z"></path>
</svg>
