<?xml version="1.0" encoding="UTF-8" standalone="no"?>
<!-- Generator: Adobe Illustrator 19.2.1, SVG Export Plug-In . SVG Version: 6.00 Build 0)  -->
<svg width="22" height="22" id="Layer_1" style="enable-background:new 0 0 24 24" xmlns="http://www.w3.org/2000/svg" xml:space="preserve" viewBox="0 0 24 24" version="1.1" y="0px" x="0px" xmlns:xlink="http://www.w3.org/1999/xlink">
<path class="st0" d="m21 0h-18c-1.7 0-3 1.3-3 3v18c0 1.7 1.3 3 3 3h18c1.7 0 3-1.3 3-3v-18c0-1.7-1.3-3-3-3m-9 9c2.8 0 3 3 3 3s0.1 3-3 3c-3.1 0-3-3-3-3s0.2-3 3-3m9.2 10.5c0 0.8-0.9 1.8-1.8 1.8h-15c-0.8 0-1.7-0.9-1.7-1.7v-7.6c0-0.8 0.9-1.7 1.8-1.7h1.7c-0.1 0.5-0.2 1.2-0.2 1.7 0 3.3 2.7 6 6 6s6-2.7 6-6c0-0.5-0.1-1.2-0.2-1.7h1.7c0.8 0 1.7 0.8 1.7 1.7v7.5zm-0.2-13.5c0 0.8-0.7 1.5-1.5 1.5h-1.5c-0.8 0-1.5-0.7-1.5-1.5v-1.5c0-0.8 0.7-1.5 1.5-1.5h1.5c0.8 0 1.5 0.7 1.5 1.5v1.5z"/>
</svg>
