<?xml version="1.0" encoding="UTF-8" standalone="no"?>
<svg width="19" xmlns="http://www.w3.org/2000/svg" viewBox="0 0 15 19" height="19">
 <path id="pinterest" d="m1158.5 597.74c0-3.235-2.79-6.249-7.04-6.249-5.28 0-7.94 3.717-7.94 6.814 0 1.877 0.72 3.547 2.28 4.167a0.377 0.377 0 0 0 0.55 -0.273c0.05-0.19 0.18-0.674 0.23-0.874a0.523 0.523 0 0 0 -0.16 -0.608 3.094 3.094 0 0 1 -0.73 -2.139 5.215 5.215 0 0 1 5.47 -5.225c2.98 0 4.62 1.789 4.62 4.182 0 3.143-1.42 5.8-3.52 5.8a1.707 1.707 0 0 1 -1.76 -2.1 22.572 22.572 0 0 0 0.99 -3.871 1.472 1.472 0 0 0 -1.5 -1.637c-1.19 0-2.15 1.206-2.15 2.824a4.08 4.08 0 0 0 0.36 1.727s-1.22 5.056-1.43 5.944a11.6 11.6 0 0 0 -0.03 4.144 0.145 0.145 0 0 0 0.26 0.063 11.75 11.75 0 0 0 2.01 -3.57c0.13-0.485 0.78-3 0.78-3a3.187 3.187 0 0 0 2.71 1.359c3.57 0 6-3.2 6-7.477" transform="translate(-1143.5 -591.5)" class="cls-1"/>
</svg>
