<?xml version="1.0" encoding="UTF-8" standalone="no"?>
<svg width="21" xmlns="http://www.w3.org/2000/svg" viewBox="0 0 21 17" height="21">
 <path id="twitter" d="m1118.5 594.5a8.745 8.745 0 0 1 -2.48 0.678 4.291 4.291 0 0 0 1.89 -2.376 8.566 8.566 0 0 1 -2.73 1.042 4.312 4.312 0 0 0 -7.45 2.936 3.946 3.946 0 0 0 0.11 0.979 12.234 12.234 0 0 1 -8.88 -4.484 4.3 4.3 0 0 0 1.33 5.73 4.331 4.331 0 0 1 -1.95 -0.536v0.054a4.307 4.307 0 0 0 3.46 4.21 4.364 4.364 0 0 1 -1.14 0.149 4.277 4.277 0 0 1 -0.81 -0.077 4.317 4.317 0 0 0 4.03 2.981 8.729 8.729 0 0 1 -6.38 1.778 12.259 12.259 0 0 0 18.86 -10.286c0-0.185-0.01-0.37-0.01-0.555a8.794 8.794 0 0 0 2.15 -2.22z" transform="translate(-1097.5 -592.5)" class="cls-1"/>
</svg>
