<?xml version="1.0" encoding="utf-8"?>
<!-- Generator: Adobe Illustrator 16.0.3, SVG Export Plug-In . SVG Version: 6.00 Build 0)  -->
<!DOCTYPE svg PUBLIC "-//W3C//DTD SVG 1.1//EN" "http://www.w3.org/Graphics/SVG/1.1/DTD/svg11.dtd">
<svg version="1.1" id="Layer_1" xmlns="http://www.w3.org/2000/svg" xmlns:xlink="http://www.w3.org/1999/xlink" x="0px" y="0px"
	 width="500px" height="176px" viewBox="0 13.035 500 176" enable-background="new 0 13.035 500 176" xml:space="preserve">
<g>
	<path fill="#B5B5B5" d="M70.312,176.915c-18.361,0-31.532-8.516-31.532-22.885c0-8.647,2.395-14.236,8.116-17.163
		c11.042,11.975,27.807,25.545,44.97,35.258C86.411,174.786,79.226,176.915,70.312,176.915 M60.2,125.692
		c-6.918-6.386-11.042-11.975-11.042-18.76c0-9.446,6.653-12.64,11.974-12.64c5.854,0,12.373,2.794,12.373,13.039
		C73.505,115.846,69.647,121.833,60.2,125.692 M62.329,88.704c-16.764,0-26.609,9.979-26.609,26.744
		c0,3.725,1.463,9.579,5.322,15.433c-18.626,4.125-25.013,13.04-25.013,26.079c0,10.775,8.915,28.603,46.833,28.603
		c15.034,0,25.945-3.19,36.322-9.179c11.576,5.588,23.018,9.179,32.996,9.179c4.125,0,9.58-0.797,12.507-1.195v-3.593
		c-4.923-1.862-17.163-6.653-31.532-15.566c11.575-6.653,27.674-19.025,27.674-26.477c0-4.524-1.73-9.579-4.523-12.507
		c-0.417-0.037-0.869-0.056-1.352-0.056c-4.615,0-11.971,1.715-15.945,4.846c3.193,12.507-1.863,21.953-11.575,30.201
		c-13.837-9.048-27.408-20.621-38.584-30.201c11.708-1.862,21.554-6.119,21.554-21.953C90.402,103.739,85.346,88.704,62.329,88.704"
		/>
	<path fill="#1D1D1B" d="M2.47,131.05v-3.389c11.592-0.848,14.338-2.825,14.338-15.111V55.068c0-12.71-1.678-14.264-12.813-15.112
		v-3.389c8.542,0,17.694,0.423,23.489,0.423c5.797,0,15.102-0.423,23.643-0.423v3.389c-11.135,0.848-12.813,2.401-12.813,15.112
		v22.739h44.844V55.068c0-12.71-1.678-14.264-12.813-15.112v-3.389c8.542,0,17.847,0.423,23.643,0.423
		c5.796,0,14.948-0.423,23.49-0.423v3.389c-11.135,0.848-12.813,2.401-12.813,15.112v57.482c0,12.286,2.746,14.264,14.338,15.111
		v3.389c-10.678,0-18.762-0.564-25.016-0.564s-14.491,0.564-25.168,0.564v-3.389c11.592-0.848,14.338-2.825,14.338-15.111V83.88
		H38.315v28.67c0,12.286,2.746,14.264,14.338,15.111v3.389c-10.677,0-18.915-0.564-25.168-0.564S13.147,131.05,2.47,131.05z"/>
	<path fill="#1D1D1B" d="M172.54,133.029c-28.829,0-56.285-17.796-56.285-48.161c0-29.94,24.406-50.278,54.76-50.278
		c34.625,0,56.285,22.456,56.285,48.16C227.299,112.831,201.521,133.029,172.54,133.029z M171.014,40.097
		c-20.134,0-32.642,16.382-32.642,42.935c0,32.342,17.236,44.489,34.167,44.489c17.389,0,32.642-12.288,32.642-43.641
		C205.182,55.068,190.691,40.097,171.014,40.097z"/>
	<path fill="#1D1D1B" d="M238.734,55.068c0-12.71-1.678-14.264-12.812-15.112v-3.389c8.542,0,17.694,0.423,23.49,0.423
		c5.794,0,15.1-0.423,23.641-0.423v3.389c-11.133,0.848-12.812,2.401-12.812,15.112v35.59c0,23.446,8.846,35.027,27.15,35.027
		c19.83,0,30.048-12.57,30.048-34.32V55.068c0-12.71-1.676-14.264-12.812-15.112v-3.389c6.255,0,11.439,0.423,16.474,0.423
		c5.186,0,10.067-0.423,16.475-0.423v3.389c-11.136,0.848-12.813,2.401-12.813,15.112v36.721c0,25.562-13.425,41.381-40.574,41.381
		c-35.235,0-45.455-18.361-45.455-41.664V55.068z"/>
	<path fill="#1D1D1B" d="M339.096,126.531l-3.051-24.15l3.355-0.423c5.187,19.207,17.237,25.563,29.285,25.563
		c10.526,0,19.222-5.226,19.222-16.808c0-19.349-49.575-20.901-49.575-51.267c0-14.971,13.271-24.857,32.338-24.857
		c13.118,0,22.575,4.237,25.473,4.237c1.222,0,1.832-0.565,2.287-2.26h2.289l0.915,23.727l-3.354,0.424
		c-4.271-15.536-16.322-20.903-26.084-20.903c-9.457,0-15.558,5.084-15.558,13.7c0,19.207,49.572,22.457,49.572,51.691
		c0,13.981-11.134,27.823-36.149,27.823C356.79,133.029,346.111,130.486,339.096,126.531z"/>
	<path fill="#1D1D1B" d="M422.071,55.068c0-12.287-1.679-14.264-12.814-15.112v-3.389c10.221,0,17.847,0.565,24.863,0.565
		c17.389,0,36.608-0.142,54.759-0.565l2.289,20.903l-3.354,0.424c-3.356-12.005-7.628-15.254-21.356-15.254H447.85
		c-3.204,0-4.272,0.847-4.272,5.649v31.778l15.712-0.142c10.372-0.283,13.423-3.39,14.642-13.982h3.51
		c0,5.084-0.609,11.298-0.609,16.947c0,4.803,0.609,11.018,0.609,16.384h-3.356c-1.372-9.745-3.966-13.135-14.795-13.417
		l-15.712-0.142v29.093c0,7.769,4.119,9.322,8.849,9.322h17.998c11.592,0,17.39-5.508,23.794-19.067l3.815,1.413l-8.238,24.573
		c-15.252,0-49.421-0.564-56.741-0.564c-5.798,0-14.796,0.564-25.169,0.564v-3.389c11.136-0.848,14.187-2.825,14.187-15.111V55.068z
		"/>
	<path fill="#1D1D1B" d="M200.46,181.848c-6.684,1.445-14.174,2.547-21.985,2.547c-18.119,0-31.003-7.777-31.003-22.646
		c0-14.593,12.804-24.987,33.902-24.987c5.154,0,10.067,0.62,14.577,1.516c1.288,0.273,1.933,0.62,2.013,1.582l0.242,4.336
		c0,0.62-1.209,1.516-2.094,1.516c-0.161,0-0.564-0.069-1.692-0.621c-3.624-1.649-8.697-2.82-14.657-2.82
		c-13.126,0-21.099,6.952-21.099,18.378c0,11.632,7.973,18.31,21.663,18.31c3.222,0,5.718-0.274,9.664-1.033v-17.482h10.469V181.848
		z"/>
	<path fill="#1D1D1B" d="M246.205,171.041h-22.79l-5.477,12.527h-9.664l22.387-45.912h10.066l22.871,45.912h-11.354L246.205,171.041
		z M225.75,165.81h17.958l-9.341-19.617L225.75,165.81z"/>
	<path fill="#1D1D1B" d="M319.329,183.019c-0.242,0.757-2.495,1.101-4.913,1.101c-12.4,0-18.44-10.395-24.319-19.617
		c-1.934,0.139-2.818,0.207-5.074,0.207c-1.127,0-1.771,0-3.141-0.068v18.928h-10.468v-45.912h4.992
		c4.429,0,11.033-0.205,15.463-0.205c9.663,0,20.294,1.446,20.294,12.528c0,5.986-4.107,11.148-11.597,12.872
		c3.946,6.192,9.904,16.174,19.165,17.138l0.403,0.551L319.329,183.019z M288.163,142.751c-2.335,0-4.188,0.068-6.281,0.138v16.59
		c1.772,0.067,3.302,0.136,4.993,0.136c10.147,0,14.254-2.684,14.254-8.946C301.129,143.853,295.412,142.751,288.163,142.751z"/>
	<path fill="#1D1D1B" d="M349.854,137.656c17.153,0,28.589,9.638,28.589,22.44c0,14.317-11.758,23.472-29.313,23.472h-22.065
		v-45.912H349.854z M337.451,143.233v34.485h11.517c10.711,0,18.44-5.987,18.44-16.313c0-11.013-8.052-18.172-19.648-18.172H337.451
		z"/>
	<polygon fill="#1D1D1B" points="389.721,183.569 389.721,137.656 427.167,137.656 427.167,143.164 400.108,143.164 
		400.108,156.518 424.188,156.518 424.188,162.093 400.108,162.093 400.108,177.718 427.73,177.718 427.73,183.569 	"/>
	<polygon fill="#1D1D1B" points="447.301,149.909 448.268,183.569 440.295,183.569 440.456,137.656 448.59,137.656 482.896,170.421 
		482.01,137.656 489.982,137.656 489.902,183.156 483.782,184.602 	"/>
	<path fill="#1D1D1B" d="M13.613,29.839l-0.83-2.83H8.614l-0.85,2.83H3.971l4.742-14.058h4.386l4.762,14.058H13.613z M10.708,19.885
		h-0.039l-1.284,4.407h2.608L10.708,19.885z"/>
	<path fill="#1D1D1B" d="M27.296,30.105c-3.774,0-6.204-1.463-6.204-5.775v-8.548h3.991v8.359c0,1.938,0.632,2.792,2.252,2.792
		c1.64,0,2.232-0.836,2.232-2.792v-8.359h3.991v8.53C33.559,28.642,31.05,30.105,27.296,30.105z"/>
	<path fill="#1D1D1B" d="M43.292,30.105c-2.786,0-4.604-0.855-6.006-2.508l2.727-2.146c1.047,1.139,2.054,1.71,3.576,1.71
		c1.125,0,1.718-0.437,1.718-1.159c0-0.665-0.454-0.969-1.758-1.33c-3.991-1.064-5.927-2.089-5.927-4.864
		c0-2.849,2.568-4.292,5.591-4.292c2.647,0,4.346,0.74,5.67,2.279l-2.707,2.166c-0.87-0.969-1.857-1.501-3.003-1.501
		c-1.106,0-1.581,0.418-1.581,1.025c0,0.57,0.415,0.913,1.738,1.273c4.505,1.196,5.927,2.413,5.927,4.92
		C49.258,27.958,47.5,30.105,43.292,30.105z"/>
	<polygon fill="#1D1D1B" points="59.919,18.973 59.919,29.839 55.929,29.839 55.929,18.973 52.076,18.973 52.076,15.781 
		63.772,15.781 63.772,18.973 	"/>
	<path fill="#1D1D1B" d="M75.303,29.839l-2.45-4.92h-1.008v4.92h-3.991V15.781h5.947c3.596,0,5.888,1.33,5.888,4.654
		c0,2.223-1.245,3.286-2.727,3.989l2.766,5.414H75.303z M73.545,18.935h-1.699v3.153h1.699c1.521,0,2.212-0.456,2.212-1.577
		C75.757,19.39,75.086,18.935,73.545,18.935z"/>
	<path fill="#1D1D1B" d="M92.286,29.839l-0.83-2.83h-4.169l-0.85,2.83h-3.793l4.742-14.058h4.385l4.762,14.058H92.286z
		 M89.381,19.885h-0.04l-1.284,4.407h2.608L89.381,19.885z"/>
	<polygon fill="#1D1D1B" points="100.398,29.839 100.398,15.781 104.389,15.781 104.389,26.609 109.881,26.609 109.881,29.839 	"/>
	<rect x="114.044" y="15.781" fill="#1D1D1B" width="3.991" height="14.058"/>
	<path fill="#1D1D1B" d="M131.584,29.839l-0.83-2.83h-4.168l-0.85,2.83h-3.793l4.742-14.058h4.386l4.762,14.058H131.584z
		 M128.68,19.885h-0.04l-1.284,4.407h2.607L128.68,19.885z"/>
	<polygon fill="#1D1D1B" points="148.904,29.839 143.372,22.145 143.332,22.145 143.332,29.839 139.697,29.839 139.697,15.781 
		143.352,15.781 148.686,23.19 148.726,23.19 148.726,15.781 152.361,15.781 152.361,29.839 	"/>
</g>
</svg>
