<?xml version="1.0" encoding="utf-8"?>
<!-- Generator: Adobe Illustrator 16.0.3, SVG Export Plug-In . SVG Version: 6.00 Build 0)  -->
<!DOCTYPE svg PUBLIC "-//W3C//DTD SVG 1.1//EN" "http://www.w3.org/Graphics/SVG/1.1/DTD/svg11.dtd">
<svg version="1.1" id="Layer_1" xmlns="http://www.w3.org/2000/svg" xmlns:xlink="http://www.w3.org/1999/xlink" x="0px" y="0px"
	 width="500px" height="199.071px" viewBox="0 -25.667 500 199.071" enable-background="new 0 -25.667 500 199.071"
	 xml:space="preserve">
<g>
	<rect x="266.493" y="-23.554" fill="#1D1D1B" width="44.248" height="195.929"/>
	<rect x="320.134" y="-23.61" fill="#1D1D1B" width="44.248" height="195.985"/>
	<path fill="#1D1D1B" d="M436.253,143.343c-13.848,0-21.442-9.692-22.56-23.309h84.883c0-46.291-19.883-72.862-65.898-72.862
		c-36.632,0-61.203,28.422-61.203,63.018c0,40.014,27.922,62.527,65.002,62.527c26.357,0,50.706-11.947,59.641-37.672h-41.326
		C451.223,140.571,443.4,143.343,436.253,143.343z M436.697,76.518c11.393,0,19.435,8.936,19.435,19.936h-42.219
		C415.926,83.621,423.522,76.518,436.697,76.518z"/>
	<path fill="#1D1D1B" d="M195.165,47.172c-36.632,0-61.204,28.422-61.204,63.018c0,40.014,27.923,62.527,65.002,62.527
		c26.358,0,50.708-11.947,59.642-37.672h-41.326c-3.57,5.526-11.39,8.298-18.539,8.298c-13.847,0-21.443-9.692-22.559-23.309h84.882
		C261.063,73.743,241.181,47.172,195.165,47.172z M176.402,96.453c2.012-12.832,9.607-19.936,22.785-19.936
		c11.393,0,19.434,8.936,19.434,19.936H176.402z"/>
	<path fill="#1D1D1B" d="M74.581,47.42c-13.503,0.037-18.819,4.333-26.955,11.681l-0.729,0.89v-83.66H1.752v196.094h43.55v-11.984
		l0.355,0.401c3.794,3.653,9.458,12.147,31.49,12.147c33.5,0,50.831-35.028,50.315-63.362
		C126.951,81.43,113.573,47.315,74.581,47.42z M65.781,142.211c-17.453,0-22.687-17.405-22.687-31.731
		c0-14.095,4.554-30.866,22.007-30.866c17.455,0,23.395,16.698,23.395,30.728C88.497,124.806,83.237,142.211,65.781,142.211z"/>
</g>
</svg>
