<?xml version="1.0" encoding="utf-8"?>
<!-- Generator: Adobe Illustrator 16.0.3, SVG Export Plug-In . SVG Version: 6.00 Build 0)  -->
<!DOCTYPE svg PUBLIC "-//W3C//DTD SVG 1.1//EN" "http://www.w3.org/Graphics/SVG/1.1/DTD/svg11.dtd">
<svg version="1.1" id="Layer_1" xmlns="http://www.w3.org/2000/svg" xmlns:xlink="http://www.w3.org/1999/xlink" x="0px" y="0px"
	 width="500px" height="111.5px" viewBox="0 45.035 500 111.5" enable-background="new 0 45.035 500 111.5" xml:space="preserve">
<path fill="#1D1D1B" d="M430.626,104.55v15.87h25.251v25.252h15.872V120.42h25.252v-15.87h-25.252V79.297h-15.872v25.253H430.626z
	 M356.35,144.657c8.529,6.284,19.153,9.727,29.18,9.727c15.263,0,28.881-8.531,28.881-22.446c0-25.14-35.166-21.399-35.166-30.828
	c0-3.739,4.488-5.834,9.876-5.834c5.237,0,10.176,2.245,13.916,4.938l9.129-14.066c-4.788-3.742-15.113-7.334-24.542-7.334
	c-14.365,0-27.834,8.68-27.834,22.595c0,23.347,35.167,19.454,35.167,30.378c0,3.593-4.041,6.138-9.278,6.138
	c-7.331,0-14.964-2.695-19.901-7.185L356.35,144.657z M303.978,107.246c0.897-6.585,7.481-12.72,15.562-12.72
	c7.932,0,13.768,6.285,14.367,12.72H303.978z M340.938,130.29c-3.441,3.743-10.025,8.381-18.255,8.381
	c-10.327,0-18.557-7.035-19.604-17.21h50.28c0.299-1.645,0.448-3.59,0.448-5.535c0-20.203-14.216-37.113-34.269-37.113
	c-21.548,0-35.314,17.659-35.314,37.86c0,22.748,16.31,37.711,38.008,37.711c11.224,0,22.747-4.638,29.779-13.021L340.938,130.29z
	 M179.475,152.887V105.75c2.695-3.441,8.68-8.979,16.911-8.979c3.741,0,7.932,1.197,10.923,4.489
	c2.245,2.545,3.591,5.836,3.591,12.42v39.207h19.453v-38.458c0-2.993-0.298-5.688-0.598-8.079c2.543-3.743,9.127-9.579,17.507-9.579
	c3.742,0,7.932,1.197,10.924,4.489c2.246,2.545,3.591,5.836,3.591,12.42v39.207h19.454v-38.458c0-10.773-2.693-18.256-7.332-23.943
	c-5.837-7.182-15.415-11.672-25.439-11.672c-10.774,0-19.902,5.239-25.738,11.373c-5.687-6.882-14.516-11.373-24.392-11.373
	c-7.033,0-13.917,2.245-19.604,7.334V80.31h-18.706v72.577H179.475z M97.771,116.673c0-10.923,7.781-19.902,19.154-19.902
	c11.374,0,19.155,8.979,19.155,19.902c0,10.925-7.782,19.754-19.155,19.754C105.552,136.427,97.771,127.598,97.771,116.673
	 M78.316,116.673c0,20.949,16.611,37.711,38.608,37.711c21.998,0,38.608-16.762,38.608-37.711c0-20.95-16.611-37.86-38.608-37.86
	C94.927,78.813,78.316,95.723,78.316,116.673 M21.453,105.75c2.694-3.742,9.428-8.979,17.658-8.979c4.489,0,8.38,1.497,10.924,4.041
	c2.694,2.692,4.34,6.435,4.34,13.617v38.458h19.454v-36.961c0-12.422-2.693-19.753-7.482-25.44
	c-5.986-7.182-15.114-11.672-25.141-11.672c-7.481,0-14.366,2.545-19.753,6.735V46.641H2v106.246h19.453V105.75z"/>
</svg>
