<svg xmlns="http://www.w3.org/2000/svg" viewBox="0 0 57.39 20"><path fill="#7cbfb1" d="M53.58 15.49a7.41 7.41 0 0 1-3.94-.88V11.8h.28c.4 1.45 1.65 3.4 3.66 3.4 1.56 0 1.87-1.88.2-3l-2.21-1.34C49.46 9.54 48.91 7.57 50.18 6c0 0 .82-1 3.16-1a7.63 7.63 0 0 1 3.6.64v2.3h-.29a3.44 3.44 0 0 0-3.31-2.69c-1.42 0-2.06 1.55-.15 2.76l2.21 1.38c2 1.21 2.55 3.4 1.41 4.91 0 0-.81 1.19-3.23 1.19z" class="a"/><path fill="#7cbfb1" d="M28.15 17.14h-1.21v-.26h2.74v.26h-1.2V20h-.33zM31.57 18.43a1.6 1.6 0 0 1 .13-.62 1.64 1.64 0 0 1 .36-.5 1.5 1.5 0 0 1 .55-.32A2.16 2.16 0 0 1 34 17a1.5 1.5 0 0 1 .55.32 1.64 1.64 0 0 1 .36.5 1.57 1.57 0 0 1 0 1.25 1.53 1.53 0 0 1-.36.5 1.5 1.5 0 0 1-.55.32 2.16 2.16 0 0 1-1.42 0 1.5 1.5 0 0 1-.55-.32 1.53 1.53 0 0 1-.36-.5 1.61 1.61 0 0 1-.1-.64zm.32 0A1.27 1.27 0 0 0 32 19a1.22 1.22 0 0 0 .29.42 1.28 1.28 0 0 0 .45.28 1.79 1.79 0 0 0 1.18 0 1.28 1.28 0 0 0 .45-.28 1.22 1.22 0 0 0 .29-.42 1.27 1.27 0 0 0 .1-.52 1.25 1.25 0 0 0-.1-.51 1.22 1.22 0 0 0-.29-.42 1.28 1.28 0 0 0-.45-.28 1.79 1.79 0 0 0-1.18 0 1.28 1.28 0 0 0-.45.28 1.22 1.22 0 0 0-.29.42 1.25 1.25 0 0 0-.11.46zM39.71 16.87H40v2.86h1.65V20h-2zM43.79 18.43a1.44 1.44 0 0 1 .13-.62 1.46 1.46 0 0 1 .35-.5 1.59 1.59 0 0 1 .55-.32 2.08 2.08 0 0 1 .71-.12 2 2 0 0 1 .71.12 1.43 1.43 0 0 1 .55.32 1.64 1.64 0 0 1 .36.5 1.57 1.57 0 0 1 0 1.25 1.53 1.53 0 0 1-.36.5 1.43 1.43 0 0 1-.55.32 2 2 0 0 1-.71.12 2.08 2.08 0 0 1-.71-.12 1.59 1.59 0 0 1-.55-.32 1.37 1.37 0 0 1-.35-.5 1.45 1.45 0 0 1-.13-.63zm.31 0a1.46 1.46 0 0 0 .1.52 1.22 1.22 0 0 0 .29.42 1.28 1.28 0 0 0 .45.28 1.82 1.82 0 0 0 .59.1 1.89 1.89 0 0 0 .6-.1 1.48 1.48 0 0 0 .45-.28 1.19 1.19 0 0 0 .28-.42 1.27 1.27 0 0 0 .1-.52 1.25 1.25 0 0 0-.1-.51 1.19 1.19 0 0 0-.28-.42 1.48 1.48 0 0 0-.45-.28 1.64 1.64 0 0 0-.6-.1 1.59 1.59 0 0 0-.59.1 1.28 1.28 0 0 0-.45.28 1.22 1.22 0 0 0-.29.42 1.45 1.45 0 0 0-.1.51zM49.24 16.87h.36l1.14 2.75 1.15-2.75h.35L50.9 20h-.34zM54.59 16.87h2.17v.26h-1.84v1.12h1.72v.26h-1.72v1.22h1.92V20h-2.25zM42.55 10c0 2.74.94 3.91 2.55 4.15 2.33.36 4.06-1.74 3.62-1a5.24 5.24 0 0 1-4.61 2.29 5.14 5.14 0 0 1-5-5.22A5.08 5.08 0 0 1 44.42 5C47.18 5 49 6.26 49 10zm3.55-.29c0-2.76-.59-4.49-1.68-4.49s-1.87 2.39-1.87 4.49zM38.45 12.85V8.36c0-2.68-1.28-3.4-3-3.4a3.49 3.49 0 0 0-3.13 2.35 2.66 2.66 0 0 0-3-2.35 3.55 3.55 0 0 0-3 2.2V5a8.71 8.71 0 0 1-4.45.94v.18c.82.33 1 .65 1 1.43V13c0 1.16 0 2.11-.78 2.36v.17h5v-.17c-.73-.22-.83-1.13-.83-2.36V7.88a1.8 1.8 0 0 1 1.49-1.31c.9 0 1.3.6 1.3 1.88v4.4c0 1.14-.05 2.22-.9 2.47v.17h5.1v-.17c-.78-.2-.92-1.24-.92-2.47V8a1.68 1.68 0 0 1 1.52-1.45c.9 0 1.32.6 1.32 1.88v4.4c0 1.14 0 2.22-.89 2.47v.17h5.09v-.17c-.79-.18-.92-1.22-.92-2.45z"/><path fill="#7cbfb1" d="M16.72 5a5 5 0 0 0-5.35 5.26 5 5 0 0 0 5.35 5.27 5 5 0 0 0 5.34-5.27A5 5 0 0 0 16.72 5zm0 10.21c-1 0-1.85-2.22-1.85-4.95s.83-4.94 1.85-4.94 1.85 2.21 1.85 4.94-.79 4.91-1.81 4.91z"/><path fill="#7cbfb1" d="M11.49 18.46c-.92-1.11-.86-3.76-.86-3.76V7.77A2.9 2.9 0 0 0 7.51 5 3.27 3.27 0 0 0 4.7 7V0A9.35 9.35 0 0 1 0 1v.17c1 .31 1.23.69 1.23 1.29V13c0 1.06-.05 2-.95 2.27v.18h5.39v-.18c-.85-.18-1-1.13-1-2.27V7a1.6 1.6 0 0 1 1.21-.6c.7 0 1.38.44 1.38 1.58v6.12a8.31 8.31 0 0 0 .64 3.27 4.54 4.54 0 0 0 4 2.61 3.06 3.06 0 0 0 2.23-.75 2.21 2.21 0 0 1-2.64-.77z"/></svg>