<?xml version="1.0" encoding="UTF-8" standalone="no"?>
<svg
   xmlns:dc="http://purl.org/dc/elements/1.1/"
   xmlns:cc="http://creativecommons.org/ns#"
   xmlns:rdf="http://www.w3.org/1999/02/22-rdf-syntax-ns#"
   xmlns:svg="http://www.w3.org/2000/svg"
   xmlns="http://www.w3.org/2000/svg"
   id="svg3875"
   version="1.1"
   viewBox="0 0 140.92714 42.452396"
   height="42.452396mm"
   width="140.92714mm">
  <defs
     id="defs3869" />
  <metadata
     id="metadata3872">
    <rdf:RDF>
      <cc:Work
         rdf:about="">
        <dc:format>image/svg+xml</dc:format>
        <dc:type
           rdf:resource="http://purl.org/dc/dcmitype/StillImage" />
        <dc:title></dc:title>
      </cc:Work>
    </rdf:RDF>
  </metadata>
  <g
     transform="translate(-61.072146,-98.124993)"
     id="layer1">
    <g
       transform="matrix(0.26458333,0,0,0.26458333,61.072146,98.124993)"
       id="g3897"
       style="overflow:visible">
      <rect
         style="fill:#ff5e6b"
         x="86.852997"
         y="86.622002"
         width="5.8639998"
         height="1.071"
         id="rect3879" />
      <path
         style="fill:#f37179"
         d="m 243.568,0.192 c -1.771,0 -4.236,0 -10.092,0 -6.336,0 -9.728,0 -11.479,0 0.002,0.827 -0.001,2.718 -0.001,4.126 v 152.241 c 0,1.395 0.009,2.567 0.009,3.598 1.545,0 11.033,-0.006 11.404,-0.006 6.823,0 10.942,0 12.49,0 0.003,-0.842 0,-2.438 0,-4.047 V 4.545 c 0,-1.229 0.004,-3.537 0,-4.354 -0.412,0 -0.803,0 -1.456,0 z"
         id="path3881" />
      <path
         style="fill:#f37179"
         d="m 428.296,46.799 c 4.898,0 8.269,-0.007 8.269,-0.007 0,0 -0.003,-1.956 -0.003,-2.682 0,0 0,-5.989 0,-5.99 0,-1.567 10e-4,-4.498 10e-4,-5.3 0.978,0 3.067,0 4.795,0 h 0.977 88.253 c 0.737,0 2.035,0 2.035,0 0,0 0.015,-4.28 0.015,-8.786 0,-4.652 -0.015,-9.852 -0.015,-9.852 0,0 -1.269,0.006 -2.035,0.006 l -88.251,-0.016 c 0,0 -0.942,-0.003 -0.986,-0.003 -0.041,0 -4.784,0.003 -4.784,0.003 0,0 -0.003,-3.789 -0.003,-5.355 V 1.854 c 0,-0.453 -0.001,-1.652 -0.001,-1.652 0,0 -3.47,-0.002 -8.593,-0.002 -3.809,0 -7.975,0.002 -7.975,0.002 0,0 0.005,1.23 0.005,1.816 v 42.728 c 0,0.741 -0.007,2.054 -0.007,2.054 0,0 3.688,-0.003 8.295,-0.003 z m 81.544,8.659 h -86.977 c -1.103,0 -2.865,0 -2.865,0 0,0 0,5.393 0,9.847 0,3.838 0,8.542 0,8.542 0,0 1.742,0.009 3.021,0.009 l 83.303,-0.005 c 5.867,0 8.49,1.762 8.49,5.702 0,3.94 -2.617,5.695 -8.484,5.695 l -83.146,-0.007 c -1.169,0 -3.188,-0.005 -3.188,-0.005 0.01,4.682 0,4.693 0,8.727 0,5.068 0.004,9.518 0.004,9.518 0,0 2.155,0 3.181,0.004 H 510 c 11.249,0 22.637,-8.219 22.637,-23.932 0,-7.389 -2.189,-13.539 -6.335,-17.785 -4.028,-4.127 -9.72,-6.31 -16.462,-6.31 z m -0.638,56.683 h -65.911 c -13.922,0 -23.274,9.685 -23.274,24.096 0,14.092 9.57,23.933 23.274,23.933 h 65.911 c 14.017,0 23.435,-9.617 23.435,-23.933 -10e-4,-15.089 -8.761,-24.096 -23.435,-24.096 z m -3.511,29.791 h -59.209 c -3.407,0 -9.122,-0.738 -9.122,-5.695 0,-5.398 6.98,-5.695 9.122,-5.695 h 59.209 c 5.476,0 9.121,0.969 9.121,5.695 0,5.267 -4.13,5.695 -9.121,5.695"
         id="path3883" />
      <path
         style="fill:#f37179"
         d="m 158.437,38.062 c 0,-3.573 0.15,-5.341 0.607,-8.969 0.399,-3.501 3.159,-6.985 6.891,-6.985 1.741,0 3.73,0.869 5.096,2.504 1.542,1.843 2.186,4.479 2.186,7.295 V 42.39 c 0,0.603 -0.002,2.047 -0.002,2.047 0,0 6.448,0 12.92,0 h 2.429 c 4.861,0 8.338,0.003 8.338,0.003 0,0 0.003,-0.57 0.003,-1.821 V 31.453 C 196.905,13.523 183.591,0 165.935,0 c -16.257,0 -23.662,11.523 -25.544,15.055 -3.205,5.982 -5.52,14.639 -5.333,22.347 0,19.561 12.922,36.716 24.406,51.874 8.648,11.416 16.117,21.274 16.117,29.693 0,1.178 0.057,2.025 0.041,2.896 -0.022,1.194 0.034,2.378 -0.078,4.375 l -0.203,3.155 c -0.482,4.676 -2.346,7.646 -7.019,8.033 -5.203,-0.254 -7.949,-3.521 -7.949,-12.988 v -9.572 c 0,-0.57 -10e-4,-2.296 -10e-4,-2.296 0,0 -6.145,-0.003 -13.111,0.003 -5.166,0.004 -11.024,0.003 -11.024,0.003 0,0 -0.003,1.751 -0.003,2.746 l 0.022,12.762 c 0,19.661 12.41,32.364 31.614,32.364 13.048,-0.562 22.493,-5.727 28.124,-19.16 l 0.001,-0.003 c 3.239,-6.295 3.49,-17.451 3.49,-20.722 0,-20.235 -12.274,-35.207 -23.103,-48.417 C 167.152,60.893 158.437,50.26 158.437,38.062 Z M 21.573,0.207 c -1.771,0 -4.236,-0.001 -10.091,-0.001 -6.336,0 -9.728,0 -11.48,0 C 0.003,1.033 0,2.924 0,4.332 v 152.241 c 0,1.394 0.009,2.565 0.009,3.597 1.545,0 11.033,-0.006 11.404,-0.006 6.823,0 10.942,0 12.49,0 0.003,-0.841 0,-2.438 0,-4.046 V 4.559 c 0,-1.229 0.004,-3.536 0,-4.354 -0.412,0 -0.803,0 -1.455,0 z m 80.031,-0.004 c -5.131,0 -11.848,0.003 -11.848,0.003 0,0 0.004,2.537 0.004,4.354 v 69.512 c 0,1.577 -0.005,10.979 -0.005,12.59 C 88.101,80.195 88.226,80.548 86.894,75.198 81.147,53.22 75.908,28.857 71.095,7.63 70.415,4.633 69.392,0.205 69.392,0.205 c 0,0 -7.312,0 -12.515,0 -4.838,0 -9.267,0 -10.526,0 0,0.454 -0.003,0.731 0,3.442 v 152.47 c 0,1.65 -0.003,3.208 -0.003,4.049 0.989,-0.003 5.109,-0.003 11.203,-0.003 6.942,0 11.21,0 12.271,0 0,-0.886 0.002,-2.72 0.002,-4.272 V 80.907 c 0,-1.803 -0.004,-11.049 -0.004,-12.03 0.208,0.878 2.703,11.408 3.546,14.879 l 0.725,3.28 c 3.266,13.562 5.328,22.375 7.489,31.763 2.481,10.781 4.837,20.914 8.092,35.16 0.498,2.249 1.419,6.169 1.419,6.169 0,0 7.293,0.033 10.945,0.038 6.104,0.009 11.195,-0.003 11.195,-0.003 0,0 0.006,-3.847 0.003,-6.446 V 4.332 c 0,-1.417 -0.003,-4.126 -0.003,-4.126 0,0 -4.565,-0.003 -11.627,-0.003 z M 404.886,137.201 H 384.47 c -2.965,0 -5.758,0.003 -7.071,0.003 0,-1.147 -0.005,-6.06 0.005,-8.437 L 377.4,94.816 377.394,93.431 c 0,-2.232 0.005,-5.457 0.005,-5.457 0,0 4.104,0 6.431,0 h 9.667 c 1.471,0 2.04,-0.008 3.253,-0.008 0,-1.609 -0.004,-6.507 -0.004,-11.39 0,-6.281 0,-11.847 0,-11.847 0,0 -2.124,-0.004 -3.249,-0.004 h -10.284 l -0.771,0.01 c -1.161,0 -5.044,-0.004 -5.044,-0.004 0,0 -0.013,-3.581 0.002,-5.327 l -0.006,-1.059 V 28.261 c 0,-2.609 0.004,-3.816 0.004,-5.011 h 1.181 c 0.509,0 2.271,-0.001 4.605,-0.001 h 21.488 c 1.532,0 3.462,-0.002 3.462,-0.002 0,0 0,-6.545 0,-12.077 0,-4.471 0,-7.157 0,-8.782 0,-0.682 0.003,-2.183 0.003,-2.183 0,0 -2.298,-0.003 -3.25,-0.003 h -44.482 c -2.172,0 -5.121,0 -6.902,0 v 1.944 c 0,1.952 0.001,2.196 0.001,5.148 v 144.039 l -0.022,1.378 c 0.023,2.464 0.023,7.454 0.023,7.454 0,0 5.425,-0.004 8.256,-0.004 l 2.083,-0.001 41.265,0.005 c 1.139,0 3.027,-0.001 3.027,-0.001 0,0 10e-4,-5.325 10e-4,-11.566 0,-5.685 -10e-4,-9.797 -10e-4,-11.396 -0.782,-0.001 -1.922,-0.001 -3.25,-0.001 z M 296.5,0.206 274.58,0.203 h -0.926 c -1.723,0 -5.973,0 -5.973,0 0,0 -0.004,0.862 -0.004,1.293 0,1.595 0.002,3.394 0.002,6.026 v 145.404 c 0,2.405 -0.002,7.237 -0.002,7.237 0,0 3.498,0.003 5.854,0.003 l 0.843,0.001 22.343,-0.001 c 5.956,0 17.132,-1.011 25.047,-9.664 6.387,-6.973 9.359,-14.964 9.359,-25.152 V 34.872 c 0,-10.836 -3.094,-19.618 -8.946,-25.396 C 316.019,3.365 306.9,0.206 296.5,0.206 Z m 8.22,131.5 c -1.92,3.043 -4.674,4.063 -7.121,3.974 l -1.989,-0.019 c -1.274,0.004 -4.049,-0.021 -4.049,-0.021 0,0 0.021,-2.658 0.021,-4.593 L 291.564,28.49 c 0,-1.331 0,-2.735 -0.002,-3.655 0.877,0 2.838,0 6.013,0 3.672,0 5.105,0.846 6.765,2.602 2.464,3.272 2.667,7.472 2.667,12.219 v 81.136 l 0.002,0.735 c 0.013,3.139 0.03,6.696 -2.289,10.179"
         id="path3885" />
    </g>
  </g>
</svg>
