<?xml version="1.0" encoding="UTF-8" standalone="no"?>
<svg
   xmlns:dc="http://purl.org/dc/elements/1.1/"
   xmlns:cc="http://creativecommons.org/ns#"
   xmlns:rdf="http://www.w3.org/1999/02/22-rdf-syntax-ns#"
   xmlns:svg="http://www.w3.org/2000/svg"
   xmlns="http://www.w3.org/2000/svg"
   id="svg8"
   version="1.1"
   viewBox="0 0 117.08606 27.760082"
   height="27.760082mm"
   width="117.08606mm">
  <defs
     id="defs2">
    <style
       id="style10">.cls-real-1{fill:#3cc;}.cls-real-2{fill:#231f20;}</style>
  </defs>
  <metadata
     id="metadata5">
    <rdf:RDF>
      <cc:Work
         rdf:about="">
        <dc:format>image/svg+xml</dc:format>
        <dc:type
           rdf:resource="http://purl.org/dc/dcmitype/StillImage" />
        <dc:title></dc:title>
      </cc:Work>
    </rdf:RDF>
  </metadata>
  <g
     transform="translate(-45.022445,-38.947338)"
     id="layer1">
    <g
       transform="matrix(0.26458333,0,0,0.26458333,45.022445,38.947338)"
       id="g52">
      <path
         style="fill:#33cccc"
         class="cls-real-1"
         d="m 12,25.08 a 3.84,3.84 0 0 1 1.6,-0.33 c 1.6,0 3.6,3.34 5.07,8.68 2.8,-2.67 3.2,-3.23 4.54,-4.34 a 18.91,18.91 0 0 1 12.15,-4.34 c 4,0 7.61,1.22 7.61,2.45 a 4.89,4.89 0 0 1 -0.27,1.22 l -4.14,9 c -0.27,0.67 -0.67,1 -1.07,1 A 4,4 0 0 1 36.55,38.2 19.39,19.39 0 0 0 31.21,37.31 c -2.8,0 -6.14,1.67 -10.14,5.34 v 37 c 0,1.67 -0.27,1.89 -2.27,1.89 H 6.39 c -2,0 -2.27,-0.22 -2.27,-1.89 V 45.88 c 0,-6.34 -0.8,-9.45 -4,-15.46 a 2.81,2.81 0 0 1 -0.27,-1 c 0,-0.44 0.53,-0.89 1.34,-1.11 z"
         transform="translate(0.15,-0.22)"
         id="path16" />
      <path
         style="fill:#33cccc"
         class="cls-real-1"
         d="m 78.06,47.55 c -0.27,-9.23 -2.94,-12.68 -9.74,-12.68 -6.8,0 -9.88,3.56 -11.08,12.68 z M 57,57.89 c 0.27,9.57 4.94,14 14.81,14 A 38.27,38.27 0 0 0 87,68.46 4.13,4.13 0 0 1 88.74,68 a 1.63,1.63 0 0 1 1.47,1 l 3.34,6.67 a 1.77,1.77 0 0 1 0.4,1.22 c 0,1.22 -1.07,1.89 -5.47,3.45 a 53.4,53.4 0 0 1 -18.42,3.11 c -8.54,0 -15.22,-1.78 -19.89,-5.45 -6.41,-4.78 -10,-13.35 -10,-23.47 0,-17.91 11.61,-29.81 29.23,-29.81 17.62,0 26.41,10.15 26.41,30.39 0,2.23 -0.53,2.78 -2.94,2.78 z"
         transform="translate(0.15,-0.22)"
         id="path18" />
      <path
         style="fill:#33cccc"
         class="cls-real-1"
         d="m 132.05,56.67 c -13.35,0 -18.68,2.45 -18.68,8.9 0,4.34 3.74,7.67 8.54,7.67 3.6,0 6.94,-1.44 10.14,-4.34 z m 0,-12.68 c 0,-6.34 -2.14,-8.34 -8.81,-8.34 -4,0 -9.08,1 -14.95,2.89 a 4,4 0 0 1 -1.47,0.33 c -0.67,0 -1.07,-0.33 -1.34,-1.11 l -2.8,-6.67 a 4,4 0 0 1 -0.27,-1.22 c 0,-2.34 12.15,-5.12 22.82,-5.12 10.67,0 17.75,2.89 20.82,8.56 1.33,2.34 1.87,5 1.87,9.23 v 22.69 a 21.4,21.4 0 0 0 3.07,12 2.53,2.53 0 0 1 0.4,1.22 c 0,0.45 -0.4,0.89 -1.07,1.11 L 139.92,83 a 4.14,4.14 0 0 1 -1.6,0.33 c -1.2,0 -2.54,-2.11 -4,-6.56 -5.34,4.56 -10.14,6.34 -17.08,6.34 -12.28,0 -20,-6.56 -20,-16.8 0,-9.9 6.41,-15.79 19.89,-17.91 3.47,-0.67 7.61,-0.89 14.95,-1 z"
         transform="translate(0.15,-0.22)"
         id="path20" />
      <path
         style="fill:#33cccc"
         class="cls-real-1"
         d="m 168.81,3.65 a 8.87,8.87 0 0 1 1.6,-0.22 c 0.93,0 1.33,0.56 1.33,1.89 v 55.49 c 0,6.23 0,6.45 0.27,7.34 0.53,1.56 1.47,2.22 3.34,2.22 a 16.6,16.6 0 0 0 4.41,-0.67 3.54,3.54 0 0 1 0.93,-0.11 1,1 0 0 1 1.07,0.67 l 2.67,9.12 0.13,0.44 a 0.73,0.73 0 0 1 0.13,0.45 c 0,1.45 -7.07,3.11 -13.48,3.11 -7.74,0 -13.08,-2.78 -15.21,-8 -1.07,-2.56 -1.19,-3.89 -1.19,-13.57 V 6 c 0,0 14,-2.37 14,-2.37"
         transform="translate(0.15,-0.22)"
         id="path22" />
      <path
         style="fill:#231f20"
         class="cls-real-2"
         d="m 253.64,52.39 c 1.47,4.23 2.8,9.34 4.4,16 1.47,-5.89 3.2,-12 4.67,-16 l 9.34,-25.47 c 0.4,-1.22 0.8,-1.56 1.6,-1.56 a 6,6 0 0 1 1.07,0.11 l 11.08,1.11 c 1.47,0.11 2,0.44 2,1.11 a 4.87,4.87 0 0 1 -0.27,1.22 l -22.15,50.85 c -0.53,1.34 -0.8,1.45 -2.54,1.45 H 251.9 c -1.73,0 -2,-0.11 -2.54,-1.45 L 227.61,28.92 a 2.93,2.93 0 0 1 -0.4,-1.22 c 0,-0.67 0.53,-0.89 2.14,-1.11 l 13.08,-1.11 a 9.51,9.51 0 0 1 1.07,-0.11 c 0.8,0 1.2,0.33 1.6,1.56 z"
         transform="translate(0.15,-0.22)"
         id="path24" />
      <path
         style="fill:#231f20"
         class="cls-real-2"
         d="m 337.35,23.92 a 7,7 0 0 1 1.34,-0.22 c 1.6,0 3.34,2.78 4.8,7.67 6.67,-5.12 12.41,-7.12 20,-7.12 11.88,0 17.22,5.45 17.22,17.57 v 37.37 c 0,1.67 -0.27,1.89 -2.27,1.89 H 366 c -2,0 -2.27,-0.22 -2.27,-1.89 V 44.94 c 0,-6.56 -2.27,-9.34 -7.61,-9.34 -3.87,0 -6.94,1.22 -11.61,4.56 v 39 c 0,1.67 -0.27,1.89 -2.27,1.89 h -12.37 c -2,0 -2.27,-0.22 -2.27,-1.89 V 41.82 a 24.36,24.36 0 0 0 -2.8,-12.12 2.2,2.2 0 0 1 -0.4,-1.11 c 0,-0.33 0.4,-0.78 1.07,-1 z"
         transform="translate(0.15,-0.22)"
         id="path26" />
      <path
         style="fill:#231f20"
         class="cls-real-2"
         d="m 422.2,40 c -3.74,-2.34 -6.27,-3.22 -9.48,-3.22 -7.07,0 -10.94,6 -10.94,16.91 0,10.68 3.47,16.35 9.88,16.35 a 15.4,15.4 0 0 0 10.54,-3.78 z m -32,50.27 a 1.61,1.61 0 0 1 1.47,-1.11 2.87,2.87 0 0 1 1.2,0.33 c 7.34,2.78 13.88,4.11 19.75,4.11 7.47,0 10.28,-2.56 10.28,-9.23 a 58.52,58.52 0 0 0 -0.67,-7.23 29.07,29.07 0 0 1 -15.48,4.12 c -13.48,0 -21.89,-10.45 -21.89,-27 0,-17.91 9.48,-29.14 24.42,-29.14 6.14,0 10,1.34 15.35,5.12 1.6,-3.23 3.6,-5.45 4.67,-5.45 a 4.67,4.67 0 0 1 1.34,0.22 l 10.54,3.11 c 0.8,0.33 1.2,0.67 1.2,1.11 0,0.44 0,0.33 -0.8,2 a 24.74,24.74 0 0 0 -2.94,12.57 v 16.41 c 0,6 0.13,12.12 0.4,18.13 0.13,3 0.27,5.56 0.27,7 0,12.68 -8.94,19.8 -25.09,19.8 -11.34,0 -27.09,-3.56 -27.09,-6.12 a 4.18,4.18 0 0 1 0.27,-1.11 z"
         transform="translate(0.15,-0.22)"
         id="path28" />
      <path
         style="fill:#231f20"
         class="cls-real-2"
         d="m 294,36.48 c -2,0 -2.27,-0.22 -2.27,-1.89 V 28 c 0,-1.67 0.27,-1.89 2.27,-1.89 h 24.82 c 2,0 2.27,0.22 2.27,1.89 v 51.19 c 0,1.67 -0.27,1.89 -2.27,1.89 h -12.37 c -2,0 -2.27,-0.22 -2.27,-1.89 V 36.48 Z"
         transform="translate(0.15,-0.22)"
         id="path30" />
      <path
         style="fill:#231f20"
         class="cls-real-2"
         d="M 184.35,0.44 A 8.87,8.87 0 0 1 186,0.22 c 0.93,0 1.33,0.56 1.33,1.89 v 58.2 c 0,6.23 0,6.45 0.27,7.34 0.53,1.56 1.47,2.22 3.34,2.22 a 16.54,16.54 0 0 0 4.41,-0.67 3.59,3.59 0 0 1 0.93,-0.11 1,1 0 0 1 1.07,0.67 l 2.65,9.13 0.13,0.44 a 0.73,0.73 0 0 1 0.13,0.45 c 0,1.44 -7.07,3.11 -13.48,3.11 -7.74,0 -13.08,-2.78 -15.21,-8 C 170.5,72.33 170.38,71 170.38,61.32 V 2.81 c 0,0 14,-2.37 14,-2.37"
         transform="translate(0.15,-0.22)"
         id="path32" />
      <path
         style="fill:#231f20"
         class="cls-real-2"
         d="m 195.81,36.48 c -2,0 -2.27,-0.22 -2.27,-1.89 V 28 c 0,-1.67 0.27,-1.89 2.27,-1.89 h 24.82 c 2,0 2.27,0.22 2.27,1.89 v 51.19 c 0,1.67 -0.27,1.89 -2.27,1.89 h -12.41 c -2,0 -2.27,-0.22 -2.27,-1.89 V 36.48 Z"
         transform="translate(0.15,-0.22)"
         id="path34" />
    </g>
  </g>
</svg>
