<svg xmlns="http://www.w3.org/2000/svg" xmlns:xlink="http://www.w3.org/1999/xlink" preserveAspectRatio="xMidYMid" width="89" height="35" viewBox="0 0 89 35">
  <path d="M73.151,24.982 C73.350,27.349 74.698,29.035 77.157,29.035 C78.427,29.035 79.815,28.553 80.449,27.592 C80.449,27.592 87.788,27.592 87.788,27.592 C86.201,32.065 81.878,34.143 77.197,34.143 C70.613,34.143 65.654,30.228 65.654,23.269 C65.654,17.253 70.018,12.311 76.522,12.311 C84.694,12.311 88.225,16.931 88.225,24.982 C88.225,24.982 73.151,24.982 73.151,24.982 ZM77.236,17.414 C74.897,17.414 73.548,18.649 73.190,20.880 C73.190,20.880 80.688,20.880 80.688,20.880 C80.688,18.967 79.260,17.414 77.236,17.414 ZM56.537,0.001 C56.537,0.001 64.395,0.001 64.395,0.001 C64.395,0.001 64.395,34.084 64.395,34.084 C64.395,34.084 56.537,34.084 56.537,34.084 C56.537,34.084 56.537,0.001 56.537,0.001 ZM47.012,0.011 C47.012,0.011 54.869,0.011 54.869,0.011 C54.869,0.011 54.869,34.084 54.869,34.084 C54.869,34.084 47.012,34.084 47.012,34.084 C47.012,34.084 47.012,0.011 47.012,0.011 ZM34.981,29.035 C36.250,29.035 37.639,28.553 38.273,27.592 C38.273,27.592 45.611,27.592 45.611,27.592 C44.025,32.065 39.701,34.143 35.020,34.143 C28.436,34.143 23.477,30.228 23.477,23.269 C23.477,17.253 27.841,12.311 34.346,12.311 C42.517,12.311 46.048,16.931 46.048,24.982 C46.048,24.982 30.975,24.982 30.975,24.982 C31.173,27.349 32.522,29.035 34.981,29.035 ZM38.511,20.880 C38.511,18.967 37.083,17.414 35.060,17.414 C32.720,17.414 31.371,18.649 31.014,20.880 C31.014,20.880 38.511,20.880 38.511,20.880 ZM13.388,34.190 C9.476,34.190 8.470,32.714 7.796,32.078 C7.796,32.078 7.733,32.008 7.733,32.008 C7.733,32.008 7.733,34.093 7.733,34.093 C7.733,34.093 -0.000,34.093 -0.000,34.093 C-0.000,34.093 -0.000,-0.009 -0.000,-0.009 C-0.000,-0.009 8.017,-0.009 8.017,-0.009 C8.017,-0.009 8.017,14.540 8.017,14.540 C8.017,14.540 8.146,14.385 8.146,14.385 C9.591,13.107 10.535,12.360 12.933,12.354 C19.857,12.336 22.232,18.268 22.323,23.172 C22.415,28.099 19.337,34.190 13.388,34.190 ZM11.249,17.952 C8.150,17.952 7.341,20.869 7.341,23.320 C7.341,25.811 8.271,28.838 11.370,28.838 C14.470,28.838 15.404,25.811 15.404,23.296 C15.404,20.856 14.349,17.952 11.249,17.952 Z" id="path-1" fill="#a58b59" fill-rule="evenodd"/>
</svg>
