<?xml version="1.0" encoding="utf-8"?>
<!-- Generator: Adobe Illustrator 16.0.3, SVG Export Plug-In . SVG Version: 6.00 Build 0)  -->
<!DOCTYPE svg PUBLIC "-//W3C//DTD SVG 1.1//EN" "http://www.w3.org/Graphics/SVG/1.1/DTD/svg11.dtd">
<svg version="1.1" id="Layer_1" xmlns="http://www.w3.org/2000/svg" xmlns:xlink="http://www.w3.org/1999/xlink" x="0px" y="0px"
	 width="123.561px" height="42.398px" viewBox="0 0 123.561 42.398" enable-background="new 0 0 123.561 42.398"
	 xml:space="preserve">
<g>
	<path fill="#B6B6B6" d="M16.916,40.242c-4.578,0-7.862-2.123-7.862-5.706c0-2.156,0.597-3.549,2.023-4.278
		c2.752,2.986,6.935,6.368,11.212,8.79C20.93,39.711,19.137,40.242,16.916,40.242 M14.395,27.471
		c-1.725-1.592-2.754-2.985-2.754-4.677c0-2.356,1.659-3.152,2.987-3.152c1.459,0,3.083,0.697,3.083,3.25
		C17.711,25.016,16.749,26.509,14.395,27.471 M14.926,18.248c-4.18,0-6.636,2.488-6.636,6.669c0,0.928,0.364,2.387,1.327,3.848
		c-4.645,1.027-6.235,3.251-6.235,6.502c0,2.687,2.223,7.132,11.675,7.132c3.749,0,6.47-0.795,9.058-2.287
		c2.887,1.391,5.74,2.287,8.227,2.287c1.028,0,2.39-0.198,3.119-0.299v-0.896c-1.229-0.464-4.28-1.659-7.863-3.881
		c2.886-1.659,6.9-4.744,6.9-6.603c0-1.127-0.431-2.387-1.128-3.116c-0.104-0.011-0.217-0.015-0.337-0.015
		c-1.15,0-2.983,0.427-3.976,1.208c0.798,3.119-0.465,5.473-2.885,7.53c-3.451-2.257-6.834-5.141-9.622-7.53
		c2.92-0.464,5.374-1.526,5.374-5.474C21.924,21.997,20.665,18.248,14.926,18.248"/>
	<path fill="#6178BA" d="M0,28.808v-0.846c2.89-0.212,3.575-0.705,3.575-3.768V9.861c0-3.168-0.419-3.556-3.194-3.768V5.249
		c2.128,0,4.411,0.105,5.856,0.105c1.444,0,3.765-0.105,5.894-0.105v0.845C9.354,6.305,8.938,6.693,8.938,9.861v5.67h11.181v-5.67
		c0-3.168-0.417-3.556-3.194-3.768V5.249c2.13,0,4.451,0.105,5.896,0.105c1.445,0,3.727-0.105,5.856-0.105v0.845
		c-2.777,0.211-3.194,0.599-3.194,3.768v14.333c0,3.063,0.685,3.556,3.574,3.768v0.846c-2.661,0-4.677-0.141-6.236-0.141
		s-3.613,0.141-6.275,0.141v-0.846c2.891-0.212,3.574-0.705,3.574-3.768v-7.149H8.938v7.149c0,3.063,0.684,3.556,3.574,3.768v0.846
		c-2.661,0-4.715-0.141-6.274-0.141C4.677,28.667,2.663,28.808,0,28.808z"/>
	<path fill="#6178BA" d="M42.405,29.301c-7.189,0-14.033-4.438-14.033-12.009c0-7.465,6.084-12.536,13.652-12.536
		c8.633,0,14.032,5.599,14.032,12.008C56.057,24.264,49.632,29.301,42.405,29.301z M42.024,6.129c-5.022,0-8.141,4.084-8.141,10.705
		c0,8.063,4.299,11.093,8.521,11.093c4.335,0,8.138-3.064,8.138-10.881C50.543,9.861,46.93,6.129,42.024,6.129z"/>
	<path fill="#6178BA" d="M58.908,9.861c0-3.168-0.419-3.556-3.194-3.768V5.249c2.131,0,4.412,0.105,5.857,0.105
		s3.766-0.105,5.896-0.105v0.845c-2.776,0.211-3.195,0.599-3.195,3.768v8.874c0,5.846,2.205,8.733,6.77,8.733
		c4.944,0,7.491-3.134,7.491-8.557v-9.05c0-3.168-0.417-3.556-3.193-3.768V5.249c1.56,0,2.853,0.105,4.107,0.105
		c1.294,0,2.511-0.105,4.107-0.105v0.845c-2.775,0.211-3.195,0.599-3.195,3.768v9.156c0,6.375-3.347,10.317-10.115,10.317
		c-8.785,0-11.335-4.578-11.335-10.388V9.861z"/>
	<path fill="#6178BA" d="M83.933,27.68l-0.76-6.022l0.836-0.104c1.292,4.79,4.298,6.374,7.302,6.374c2.624,0,4.792-1.303,4.792-4.19
		c0-4.825-12.36-5.211-12.36-12.783c0-3.732,3.31-6.198,8.062-6.198c3.272,0,5.631,1.057,6.353,1.057
		c0.305,0,0.457-0.141,0.569-0.563h0.571l0.228,5.916l-0.836,0.105c-1.064-3.874-4.069-5.212-6.503-5.212
		c-2.357,0-3.879,1.268-3.879,3.417c0,4.788,12.359,5.599,12.359,12.888c0,3.486-2.775,6.938-9.014,6.938
		C88.345,29.301,85.682,28.667,83.933,27.68z"/>
	<path fill="#6178BA" d="M104.622,9.861c0-3.063-0.42-3.556-3.196-3.768V5.249c2.549,0,4.45,0.141,6.199,0.141
		c4.337,0,9.127-0.035,13.653-0.141l0.571,5.211l-0.837,0.106c-0.837-2.993-1.902-3.802-5.325-3.802h-4.639
		c-0.8,0-1.064,0.211-1.064,1.407v7.924l3.916-0.035c2.587-0.07,3.347-0.845,3.65-3.486h0.876c0,1.267-0.151,2.817-0.151,4.225
		c0,1.198,0.151,2.747,0.151,4.085h-0.838c-0.342-2.429-0.988-3.275-3.688-3.345l-3.916-0.035v7.253
		c0,1.938,1.026,2.325,2.204,2.325h4.489c2.889,0,4.335-1.374,5.932-4.755l0.951,0.353l-2.055,6.128
		c-3.802,0-12.321-0.141-14.146-0.141c-1.445,0-3.688,0.141-6.276,0.141v-0.846c2.776-0.212,3.539-0.705,3.539-3.768V9.861z"/>
	<path fill="#6178BA" d="M49.367,41.473c-1.667,0.36-3.535,0.634-5.483,0.634c-4.517,0-7.729-1.938-7.729-5.646
		c0-3.638,3.192-6.229,8.453-6.229c1.285,0,2.511,0.154,3.635,0.378c0.32,0.066,0.481,0.154,0.501,0.394l0.061,1.08
		c0,0.155-0.302,0.379-0.522,0.379c-0.039,0-0.141-0.017-0.423-0.154c-0.901-0.412-2.168-0.704-3.653-0.704
		c-3.271,0-5.261,1.733-5.261,4.582c0,2.9,1.989,4.566,5.401,4.566c0.804,0,1.427-0.069,2.411-0.258v-4.358h2.61V41.473z"/>
	<path fill="#6178BA" d="M60.772,38.778h-5.685l-1.364,3.123h-2.408l5.581-11.447h2.51l5.702,11.447h-2.83L60.772,38.778z
		 M55.672,37.475h4.478l-2.33-4.894L55.672,37.475z"/>
	<path fill="#6178BA" d="M79.004,41.763c-0.061,0.19-0.622,0.277-1.226,0.277c-3.091,0-4.598-2.593-6.063-4.893
		c-0.481,0.034-0.703,0.053-1.265,0.053c-0.279,0-0.442,0-0.782-0.019v4.72h-2.611V30.454h1.246c1.104,0,2.75-0.053,3.854-0.053
		c2.409,0,5.06,0.362,5.06,3.124c0,1.493-1.022,2.781-2.891,3.211c0.984,1.544,2.47,4.031,4.777,4.272l0.102,0.138L79.004,41.763z
		 M71.233,31.725c-0.582,0-1.045,0.016-1.565,0.033v4.137c0.441,0.018,0.822,0.034,1.244,0.034c2.529,0,3.555-0.67,3.555-2.23
		C74.467,31.999,73.041,31.725,71.233,31.725z"/>
	<path fill="#6178BA" d="M86.614,30.454c4.278,0,7.13,2.402,7.13,5.596c0,3.568-2.934,5.852-7.31,5.852h-5.504V30.454H86.614z
		 M83.522,31.844v8.599h2.872c2.67,0,4.597-1.491,4.597-4.066c0-2.746-2.008-4.532-4.897-4.532H83.522z"/>
	<polygon fill="#6178BA" points="96.555,41.901 96.555,30.454 105.892,30.454 105.892,31.828 99.145,31.828 99.145,35.156 
		105.15,35.156 105.15,36.548 99.145,36.548 99.145,40.442 106.032,40.442 106.032,41.901 	"/>
	<polygon fill="#6178BA" points="110.912,33.509 111.152,41.901 109.164,41.901 109.205,30.454 111.232,30.454 119.786,38.623 
		119.564,30.454 121.555,30.454 121.534,41.799 120.007,42.159 	"/>
	<path fill="#6178BA" d="M2.779,3.571L2.571,2.865h-1.04L1.32,3.571H0.375l1.182-3.505H2.65l1.187,3.505H2.779z M2.055,1.09h-0.01
		L1.724,2.188h0.65L2.055,1.09z"/>
	<path fill="#6178BA" d="M6.19,3.637c-0.94,0-1.547-0.365-1.547-1.44V0.066h0.994V2.15c0,0.482,0.158,0.696,0.563,0.696
		c0.406,0,0.555-0.209,0.555-0.696V0.066h0.996v2.127C7.752,3.272,7.126,3.637,6.19,3.637z"/>
	<path fill="#6178BA" d="M10.178,3.637c-0.694,0-1.147-0.213-1.497-0.624l0.68-0.536c0.261,0.284,0.513,0.427,0.892,0.427
		c0.281,0,0.428-0.109,0.428-0.29c0-0.166-0.112-0.242-0.438-0.332C9.246,2.017,8.764,1.761,8.764,1.07C8.764,0.36,9.405,0,10.159,0
		c0.66,0,1.084,0.185,1.414,0.568l-0.676,0.541c-0.218-0.242-0.463-0.375-0.749-0.375c-0.275,0-0.394,0.104-0.394,0.256
		c0,0.142,0.104,0.228,0.433,0.318c1.123,0.298,1.478,0.602,1.478,1.227C11.665,3.102,11.229,3.637,10.178,3.637z"/>
	<polygon fill="#6178BA" points="14.323,0.862 14.323,3.571 13.33,3.571 13.33,0.862 12.368,0.862 12.368,0.066 15.284,0.066 
		15.284,0.862 	"/>
	<path fill="#6178BA" d="M18.159,3.571L17.55,2.345h-0.251v1.227h-0.995V0.066h1.482c0.895,0,1.467,0.332,1.467,1.161
		c0,0.554-0.31,0.82-0.68,0.995l0.69,1.35H18.159z M17.721,0.853h-0.422v0.786h0.422c0.38,0,0.554-0.114,0.554-0.393
		C18.274,0.966,18.105,0.853,17.721,0.853z"/>
	<path fill="#6178BA" d="M22.395,3.571l-0.207-0.706h-1.039l-0.214,0.706H19.99l1.184-3.505h1.092l1.188,3.505H22.395z M21.67,1.09
		h-0.01l-0.32,1.098h0.65L21.67,1.09z"/>
	<polygon fill="#6178BA" points="24.418,3.571 24.418,0.066 25.412,0.066 25.412,2.766 26.781,2.766 26.781,3.571 	"/>
	<rect x="27.819" y="0.066" fill="#6178BA" width="0.995" height="3.505"/>
	<path fill="#6178BA" d="M32.192,3.571l-0.206-0.706h-1.039l-0.213,0.706h-0.946l1.183-3.505h1.094l1.188,3.505H32.192z
		 M31.468,1.09h-0.01l-0.32,1.098h0.65L31.468,1.09z"/>
	<polygon fill="#6178BA" points="36.511,3.571 35.132,1.652 35.122,1.652 35.122,3.571 34.215,3.571 34.215,0.066 35.127,0.066 
		36.457,1.914 36.467,1.914 36.467,0.066 37.372,0.066 37.372,3.571 	"/>
</g>
</svg>
